**ABCDEFGHIJKLMNOPQRSTUVWXYZabcdefghijklmnopqrstuvwxyz**************************
**PARASOLID !"#$%&'()*+,-./:;<=>?@[\]^_`{|}~0123456789**************************
**PART1;
MC=AMD64;
MC_MODEL=AMD64 Family 25 Model 80 Stepping 0, AuthenticAMD;
MC_ID=unknown;
OS=Windows_NT;
OS_RELEASE=unknown;
FRU=CAD Exchanger 3.10.1 (cadexchanger.com);
APPL=unknown;
SITE=unknown;
USER=unknown;
FORMAT=text;
GUISE=transmit;
KEY=CAPC1608X90X35ML10T15_CMP-2100-03642-1;
FILE=CAPC1608X90X35ML10T15_CMP-2100-03642-1.x_t;
DATE=Thu Jun 30 21:04:03 2022;
**PART2;
SCH=SCH_1200000_12103;
USFLD_SIZE=0;
**PART3;
**END_OF_HEADER*****************************************************************
T51 : TRANSMIT FILE created by modeller version 120000017 SCH_1200000_121030 74
 3 1 3 0 2 285 566 12 2 188 0 3 0 0 0 0 1000 1e-008 0 0 0 1 0 1 1 12 14 20 18 9
 19 17 70 3 0 2 0 0 4 1 20 0 4 4 1 T74 20 4 1 0 5 0 0 0 0 0 0 0 0 0 0 0 0 0 0 0
 0 0 0 0 81 1 5 7 6 13 0 0 42 0 8 80 1 6 0 7 8001 0 0 0 0 3 5 0 0 0 FFFFTFTFFFFF
FF2 79 15 7 SDL/TYSA_COLOUR83 3 8 0.800000011920929 0.800000011920929 0.80000001
1920929 19 9 1 0 2 11 0 10 V13 10 2 0 2 0 0 0 0 9 13 19 11 3 0 2 0 9 12 S13 12 4
 0 2 0 13 0 0 11 0 14 13 5 5 1e-008 40 0 15 12 14 -0 0 40 0 10 50 14 6 0 13 41 0
 0 +-0.0008500000000000001 -0.0004499999999999998 0 1 -2.449293598294706e-016 0
 0 0 1 15 15 8 0 16 13 0 17 16 0 15 24 36 17 21 19 0 0 +18 17 9 0 99 0 22 18 ?2
 29 18 10 0 17 23 0 -0.0008499999999999998 0.0004000000000000002 0.00085 16 19 1
1 0 ?16 0 27 20 0 0 2 30 20 12 0 19 28 0 0 +-0.0008500000000000001 -0.0004499999
999999998 0.00085 2.449293598294706e-016 1 0 17 21 0 86 87 99 22 16 19 0 57 -18
 22 13 0 36 17 25 23 ?2 29 23 14 0 22 26 18 -0.0008500000000000001 -0.0003999999
999999998 0.00085 17 24 0 15 30 16 25 29 27 0 71 -18 25 15 0 120 22 31 26 ?2 29
 26 16 0 25 32 23 -0.0008499999999999998 0.0004000000000000002 5e-005 16 27 17 0
 ?29 19 33 28 0 0 2 30 28 18 0 27 34 20 0 +-0.0008499999999999998 0.000400000000
0000002 0 0 0 1 17 29 0 107 108 120 17 24 27 0 113 +17 30 0 15 36 24 31 35 33 0
 50 -18 31 19 0 39 25 46 32 ?2 29 32 20 0 31 47 26 -0.0008500000000000001 -0.000
3999999999999998 5e-005 16 33 21 0 ?35 27 37 34 0 0 2 30 34 22 0 33 38 28 0 +-0.
0008500000000000001 -0.0004499999999999998 5e-005 2.449293598294706e-016 1 0 17
 35 0 65 66 78 25 30 33 0 24 +17 36 0 15 16 30 22 39 37 0 92 +16 37 23 0 ?36 33
 48 38 0 0 2 30 38 24 0 37 49 34 0 +-0.0008500000000000001 -0.000399999999999999
8 0 0 0 1 17 39 0 44 45 57 31 36 37 0 30 -14 40 25 42 1e-008 61 13 44 12 41 +0 0
 61 13 10 51 41 26 0 40 62 14 0 +-0.0008 -0.0003999999999999998 0 0 0 1 5e-005 -
1 2.449293598294706e-016 0 81 1 42 27 6 40 0 0 63 5 43 83 3 43 0.800000011920929
 0.800000011920929 0.800000011920929 15 44 28 0 39 40 0 17 45 0 44 51 39 46 50 4
8 0 0 +18 46 29 0 162 31 52 47 ?2 29 47 30 0 46 53 32 -0.0008 -0.000449999999999
9998 5e-005 16 48 31 0 ?45 37 54 49 0 0 2 31 49 32 0 48 55 38 0 +-0.0008 -0.0003
999999999999998 5e-005 0 0 1 -1 2.449293598294706e-016 0 5e-005 17 50 0 128 81 1
29 31 45 48 0 78 -17 51 0 44 57 45 52 56 54 0 60 +18 52 33 0 141 46 67 53 ?2 29
 53 34 0 52 68 47 -0.0008 -0.0004499999999999998 0.00085 16 54 35 0 ?51 48 58 55
 0 0 2 30 55 36 0 54 59 49 0 +-0.0008 -0.0004499999999999998 0 0 0 1 17 56 0 146
 159 155 46 51 54 0 45 -17 57 0 44 39 51 22 60 58 0 0 -16 58 37 0 ?60 54 69 59 0
 0 2 31 59 38 0 58 70 55 0 +-0.0008 -0.0003999999999999998 0.00085 0 0 1 -1 2.44
9293598294706e-016 0 5e-005 17 60 0 137 138 92 52 57 58 0 0 +14 61 39 63 1e-008
 82 40 65 12 62 +0 0 82 40 10 51 62 40 0 61 83 41 0 +-0.0008 -0.0004499999999999
998 5e-005 2.449293598294706e-016 1 0 5e-005 -1 2.449293598294706e-016 0 81 1 63
 41 6 61 0 0 84 42 64 83 3 64 0.800000011920929 0.800000011920929 0.800000011920
929 15 65 42 0 35 61 0 17 66 0 65 72 35 67 71 69 0 77 -18 67 43 0 173 52 73 68 ?
2 29 68 44 0 67 74 53 -0.0007999999999999998 0.0004000000000000002 0 16 69 45 0
 ?71 58 75 70 0 0 2 31 70 46 0 69 76 59 0 +-0.0007999999999999998 0.000400000000
0000002 5e-005 2.449293598294706e-016 1 -0 -1 2.449293598294706e-016 0 5e-005 17
 71 0 188 123 189 25 66 69 0 0 +17 72 0 65 78 66 73 77 75 0 81 -18 73 47 0 132 6
7 88 74 ?2 29 74 48 0 73 89 68 -0.0008 -0.0003999999999999998 0 16 75 49 0 ?77 6
9 79 76 0 0 2 30 76 50 0 75 80 70 0 +-0.0008 -0.0004499999999999998 -6.938893903
907e-021 2.449293598294706e-016 1 0 17 77 0 167 168 180 67 72 75 0 0 +17 78 0 65
 35 72 31 81 79 0 0 +16 79 51 0 ?78 75 90 80 0 0 2 31 80 52 0 79 91 76 0 +-0.000
8 -0.0003999999999999998 5e-005 2.449293598294706e-016 1 -0 -1 2.449293598294706
e-016 0 5e-005 17 81 0 128 129 50 73 78 79 0 0 -14 82 53 84 1e-008 103 61 86 12
 83 +0 0 103 61 10 51 83 54 0 82 104 62 0 +-0.0008 -0.0004499999999999998 0.0008
5 2.449293598294706e-016 1 0 5e-005 -1 2.449293598294706e-016 0 81 1 84 55 6 82
 0 0 105 63 85 83 3 85 0.800000011920929 0.800000011920929 0.800000011920929 15
 86 56 0 87 82 0 17 87 0 86 93 21 88 92 90 0 138 -18 88 57 0 87 73 94 89 ?2 29 8
9 58 0 88 95 74 -0.0008 -0.0003999999999999998 0.0009 16 90 59 0 ?92 79 96 91 0
 0 2 31 91 60 0 90 97 80 0 +-0.0008 -0.0003999999999999998 0.00085 -2.4492935982
94706e-016 -1 0 -1 2.449293598294706e-016 0 5e-005 17 92 0 137 60 138 22 87 90 0
 21 +17 93 0 86 99 87 94 98 96 0 222 +18 94 61 0 210 88 109 95 ?2 29 95 62 0 94
 110 89 -0.0007999999999999998 0.0004000000000000002 0.0009 16 96 63 0 ?93 90 10
0 97 0 0 2 30 97 64 0 96 101 91 0 +-0.0008 -0.0004499999999999998 0.0009 2.44929
3598294706e-016 1 0 17 98 0 197 198 210 88 93 96 0 203 -17 99 0 86 21 93 17 102
 100 0 29 -16 100 65 0 ?102 96 111 101 0 0 2 31 101 66 0 100 112 97 0 +-0.000799
9999999999998 0.0004000000000000002 0.00085 2.449293598294706e-016 1 -0 -1 2.449
293598294706e-016 0 5e-005 17 102 0 218 219 113 94 99 100 0 93 +14 103 67 105 1e
-008 124 82 107 12 104 +0 0 124 82 10 51 104 68 0 103 125 83 0 +-0.0007999999999
999998 0.0004000000000000002 0 0 0 1 5e-005 -1 2.449293598294706e-016 0 81 1 105
 69 6 103 0 0 126 84 106 83 3 106 0.800000011920929 0.800000011920929 0.80000001
1920929 15 107 70 0 108 103 0 17 108 0 107 114 29 109 113 111 0 119 -18 109 71 0
 219 94 115 110 ?2 29 110 72 0 109 116 95 -0.0007999999999999998 0.0004500000000
000003 0.00085 16 111 73 0 ?113 100 117 112 0 0 2 31 112 74 0 111 118 101 0 +-0.
0007999999999999998 0.0004000000000000002 0.00085 0 0 1 -1 2.449293598294706e-01
6 0 5e-005 17 113 0 218 102 219 17 108 111 0 16 +17 114 0 107 120 108 115 119 11
7 0 192 -18 115 75 0 123 109 148 116 ?2 29 116 76 0 115 149 110 -0.0007999999999
999998 0.0004500000000000003 5e-005 16 117 77 0 ?119 111 121 118 0 0 2 30 118 78
 0 117 122 112 0 +-0.0007999999999999998 0.0004500000000000003 0 0 0 1 17 119 0
 227 234 228 109 114 117 0 239 +17 120 0 107 29 114 25 123 121 0 35 -16 121 79 0
 ?123 117 130 122 0 0 2 31 122 80 0 121 131 118 0 +-0.0007999999999999998 0.0004
000000000000002 5e-005 0 0 -1 -1 2.449293598294706e-016 0 5e-005 17 123 0 188 18
9 71 115 120 121 0 228 +14 124 81 126 1e-008 133 103 128 12 125 +0 0 133 103 10
 53 125 82 0 124 134 104 0 +-0.0008 -0.0003999999999999998 5e-005 5e-005 0 0 1 -
1 2.449293598294706e-016 0 81 1 126 83 6 124 0 0 135 105 127 83 3 127 0.80000001
1920929 0.800000011920929 0.800000011920929 15 128 84 0 81 124 0 17 129 0 128 50
 81 46 132 130 0 56 +16 130 85 0 ?129 121 139 131 0 0 2 31 131 86 0 130 140 122
 0 +-0.0008 -0.0003999999999999998 5e-005 -1 3.061616997868406e-016 0 -3.0616169
97868406e-016 -1 0 5e-005 17 132 0 248 183 162 73 129 130 0 180 -14 133 87 135 1
e-008 142 124 137 12 134 +0 0 142 124 10 53 134 88 0 133 143 125 0 +-0.0008 -0.0
003999999999999998 0.00085 5e-005 -0 0 -1 -1 2.449293598294706e-016 0 81 1 135 8
9 6 133 0 0 144 126 136 83 3 136 0.800000011920929 0.800000011920929 0.800000011
920929 15 137 90 0 60 133 0 17 138 0 137 92 60 88 141 139 0 98 -16 139 91 0 ?141
 130 150 140 0 0 2 31 140 92 0 139 151 131 0 +-0.0008 -0.0003999999999999998 0.0
0085 1 -3.061616997868406e-016 0 -3.061616997868406e-016 -1 0 5e-005 17 141 0 25
7 158 203 52 138 139 0 155 +14 142 93 144 1e-008 163 133 146 12 143 -0 0 163 133
 10 50 143 94 0 142 164 134 0 +-0.0008500000000000001 -0.0004499999999999998 0 2
.449293598294706e-016 1 0 0 0 1 81 1 144 95 6 142 0 0 165 135 145 83 3 145 0.800
000011920929 0.800000011920929 0.800000011920929 15 146 96 0 147 142 0 17 147 0
 146 155 159 148 152 150 0 261 +18 148 97 0 158 115 153 149 ?2 29 149 98 0 148 1
54 116 -0.0006500000000000002 -0.0004499999999999998 0.00085 16 150 99 0 ?147 13
9 156 151 0 0 2 30 151 100 0 150 157 140 0 +-0.0006500000000000002 -0.0004499999
999999998 0 0 0 1 17 152 0 266 252 261 153 147 150 0 249 -18 153 101 0 159 148 1
69 154 ?2 29 154 102 0 153 170 149 -0.0006500000000000002 -0.0004499999999999998
 5e-005 17 155 0 146 56 147 52 158 156 0 51 -16 156 103 0 ?158 150 160 157 0 0 2
 30 157 104 0 156 161 151 0 +-0.0008500000000000001 -0.0004499999999999998 0.000
85 1 -2.449293598294706e-016 0 17 158 0 257 258 141 148 155 156 0 147 +17 159 0
 146 147 56 153 162 160 0 152 +16 160 105 0 ?159 156 171 161 0 0 2 30 161 106 0
 160 172 157 0 +-0.0008500000000000001 -0.0004499999999999998 5e-005 1 -2.449293
598294706e-016 0 17 162 0 248 132 249 46 159 160 0 129 -14 163 107 165 1e-008 18
4 142 167 12 164 -0 0 184 142 10 50 164 108 0 163 185 143 0 +-0.0008500000000000
001 -0.0004499999999999998 0 0 0 1 1 -2.449293598294706e-016 0 81 1 165 109 6 16
3 0 0 186 144 166 83 3 166 0.800000011920929 0.800000011920929 0.800000011920929
 15 167 110 0 168 163 0 17 168 0 167 174 77 169 173 171 0 270 +18 169 111 0 168
 153 175 170 ?2 29 170 112 0 169 176 154 -0.0006499999999999999 0.00040000000000
00002 -3.469446951954e-021 16 171 113 0 ?168 160 177 172 0 0 2 30 172 114 0 171
 178 161 0 +-0.0008499999999999998 0.0004000000000000002 -6.938893903907e-021 1
 -2.449293598294706e-016 0 17 173 0 279 192 270 67 168 171 0 189 -17 174 0 167 1
80 168 175 179 177 0 0 -18 175 115 0 252 169 199 176 ?2 29 176 116 0 175 200 170
 -0.0006500000000000002 -0.0003999999999999999 -3.469446951954e-021 16 177 117 0
 ?179 171 181 178 0 0 2 30 178 118 0 177 182 172 0 +-0.0006500000000000002 -0.00
04499999999999998 0 2.449293598294706e-016 1 0 17 179 0 266 267 252 169 174 177
 0 0 +17 180 0 167 77 174 73 183 181 0 72 -16 181 119 0 ?183 177 190 182 0 0 2 3
0 182 120 0 181 191 178 0 +-0.0008500000000000001 -0.0003999999999999998 -6.9388
93903907e-021 1 -2.449293598294706e-016 0 17 183 0 248 249 132 175 180 181 0 174
 +14 184 121 186 1e-008 193 163 188 12 185 +0 0 193 163 10 53 185 122 0 184 194
 164 0 +-0.0007999999999999998 0.0004000000000000002 5e-005 5e-005 0 0 1 -1 2.44
9293598294706e-016 0 81 1 186 123 6 184 0 0 195 165 187 83 3 187 0.8000000119209
29 0.800000011920929 0.800000011920929 15 188 124 0 123 184 0 17 189 0 188 71 12
3 67 192 190 0 66 -16 190 125 0 ?192 181 201 191 0 0 2 31 191 126 0 190 202 182
 0 +-0.0007999999999999998 0.0004000000000000002 5e-005 1 -1.836970198721007e-01
6 0 1.836970198721007e-016 1 0 5e-005 17 192 0 279 231 173 115 189 190 0 0 +14 1
93 127 195 1e-008 214 184 197 12 194 +0 0 214 184 10 50 194 128 0 193 215 185 0
 +-0.0008500000000000001 -0.0004499999999999998 0.0009000000000000001 0 0 1 1 -2
.449293598294706e-016 0 81 1 195 129 6 193 0 0 216 186 196 83 3 196 0.8000000119
20929 0.800000011920929 0.800000011920929 15 197 130 0 98 193 0 17 198 0 197 204
 98 199 203 201 0 209 +18 199 131 0 258 175 205 200 ?2 29 200 132 0 199 206 176
 -0.0006500000000000002 -0.0003999999999999999 0.0009 16 201 133 0 ?198 190 207
 202 0 0 2 30 202 134 0 201 208 191 0 +-0.0008500000000000001 -0.000399999999999
9998 0.0009 1 -2.449293598294706e-016 0 17 203 0 257 141 258 88 198 201 0 0 -17
 204 0 197 210 198 205 209 207 0 0 +18 205 135 0 213 199 232 206 ?2 29 206 136 0
 205 233 200 -0.0006499999999999999 0.0004000000000000002 0.0009 16 207 137 0 ?2
04 201 211 208 0 0 2 30 208 138 0 207 212 202 0 +-0.0006500000000000002 -0.00044
99999999999998 0.0009 2.449293598294706e-016 1 0 17 209 0 266 261 271 199 204 20
7 0 0 -17 210 0 197 98 204 94 213 211 0 102 -16 211 139 0 ?213 207 220 212 0 0 2
 30 212 140 0 211 221 208 0 +-0.0008499999999999998 0.0004000000000000002 0.0009
 1 -2.449293598294706e-016 0 17 213 0 284 274 222 205 210 211 0 271 +14 214 141
 216 1e-008 223 193 218 12 215 +0 0 223 193 10 53 215 142 0 214 224 194 0 +-0.00
07999999999999998 0.0004000000000000002 0.00085 5e-005 -2.449293598294706e-016 -
1 0 -1 2.449293598294706e-016 0 81 1 216 143 6 214 0 0 225 195 217 83 3 217 0.80
0000011920929 0.800000011920929 0.800000011920929 15 218 144 0 102 214 0 17 219
 0 218 113 102 109 222 220 0 108 -16 220 145 0 ?222 211 229 221 0 0 2 31 221 146
 0 220 230 212 0 +-0.0007999999999999998 0.0004000000000000002 0.00085 1 -2.4492
93598294706e-016 6.123233995737e-017 -6.123233995737e-017 1.499759782661915e-032
 1 5e-005 17 222 0 284 213 239 94 219 220 0 0 +14 223 147 225 1e-008 244 214 227
 12 224 +0 0 244 214 10 50 224 148 0 223 245 215 0 +-0.0008499999999999998 0.000
4500000000000003 0 2.449293598294706e-016 1 0 0 0 1 81 1 225 149 6 223 0 0 246 2
16 226 83 3 226 0.800000011920929 0.800000011920929 0.800000011920929 15 227 150
 0 228 223 0 17 228 0 227 119 240 115 231 229 0 114 -16 229 151 0 ?231 220 237 2
30 0 0 2 30 230 152 0 229 238 221 0 +-0.0008499999999999998 0.000450000000000000
3 5e-005 1 -2.449293598294706e-016 0 17 231 0 279 270 192 232 228 229 0 267 +18
 232 153 0 240 205 235 233 ?2 29 233 154 0 232 236 206 -0.0006499999999999999 0.
0004500000000000003 5e-005 17 234 0 227 240 119 235 239 237 0 274 +18 235 155 0
 243 232 0 236 ?2 29 236 156 0 235 0 233 -0.0006499999999999999 0.00045000000000
00003 0.00085 16 237 157 0 ?234 229 241 238 0 0 2 30 238 158 0 237 242 230 0 +-0
.0008499999999999998 0.0004500000000000003 0.00085 1 -2.449293598294706e-016 0 1
7 239 0 284 222 274 109 234 237 0 0 -17 240 0 227 228 234 232 243 241 0 231 -16
 241 159 0 ?243 237 250 242 0 0 2 30 242 160 0 241 251 238 0 +-0.000649999999999
9999 0.0004500000000000003 0 0 0 1 17 243 0 266 271 267 235 240 241 0 234 +14 24
4 161 246 1e-008 253 223 248 12 245 +0 0 253 223 10 51 245 162 0 244 254 224 0 +
-0.0008500000000000001 -0.0003999999999999998 5e-005 1 -2.449293598294706e-016 0
 5e-005 -2.449293598294706e-016 -1 0 81 1 246 163 6 244 0 0 255 225 247 83 3 247
 0.800000011920929 0.800000011920929 0.800000011920929 15 248 164 0 132 244 0 17
 249 0 248 162 183 153 252 250 0 0 -16 250 165 0 ?252 241 259 251 0 0 2 31 251 1
66 0 250 260 242 0 +-0.0006500000000000002 -0.0003999999999999999 5e-005 1 -2.44
9293598294706e-016 0 -2.449293598294706e-016 -1 0 5e-005 17 252 0 266 179 152 17
5 249 250 0 183 +14 253 167 255 1e-008 262 244 257 12 254 +0 0 262 244 10 51 254
 168 0 253 263 245 0 +-0.0008500000000000001 -0.0003999999999999998 0.00085 1 -2
.449293598294706e-016 0 5e-005 -2.449293598294706e-016 -1 0 81 1 255 169 6 253 0
 0 264 246 256 83 3 256 0.800000011920929 0.800000011920929 0.800000011920929 15
 257 170 0 158 253 0 17 258 0 257 203 158 199 261 259 0 198 -16 259 171 0 ?261 2
50 268 260 0 0 2 31 260 172 0 259 269 251 0 +-0.0006500000000000002 -0.000399999
9999999999 0.00085 1 -2.449293598294706e-016 0 -2.449293598294706e-016 -1 0 5e-0
05 17 261 0 266 152 209 148 258 259 0 0 +14 262 173 264 1e-008 275 253 266 12 26
3 +0 0 275 253 10 50 263 174 0 262 276 254 0 +-0.0006500000000000002 -0.00044999
99999999999 0 1 -2.449293598294706e-016 0 0 0 1 81 1 264 175 6 262 0 0 277 255 2
65 83 3 265 0.800000011920929 0.800000011920929 0.800000011920929 15 266 176 0 1
52 262 0 17 267 0 266 243 179 232 270 268 0 0 +16 268 177 0 ?267 259 272 269 0 0
 2 31 269 178 0 268 273 260 0 +-0.00065 0.0004000000000000002 5e-005 1 -2.449293
598294706e-016 0 2.449293598294706e-016 1 0 5e-005 17 270 0 279 173 231 169 267
 268 0 179 -17 271 0 266 209 243 205 274 272 0 204 +16 272 179 0 ?271 268 0 273
 0 0 2 31 273 180 0 272 0 269 0 +-0.00065 0.0004000000000000002 0.00085 1 -2.449
293598294706e-016 0 2.449293598294706e-016 1 0 5e-005 17 274 0 284 239 213 235 2
71 272 0 0 -14 275 181 277 1e-008 280 262 279 12 276 +0 0 280 262 10 51 276 182
 0 275 281 263 0 +-0.0008499999999999998 0.0004000000000000002 5e-005 1 -2.44929
3598294706e-016 0 5e-005 2.449293598294706e-016 1 0 81 1 277 183 6 275 0 0 282 2
64 278 83 3 278 0.800000011920929 0.800000011920929 0.800000011920929 15 279 184
 0 231 275 0 14 280 185 282 1e-008 0 275 284 12 281 +0 0 0 275 10 51 281 186 0 2
80 0 276 0 +-0.0008499999999999998 0.0004000000000000002 0.00085 1 -2.4492935982
94706e-016 0 5e-005 2.449293598294706e-016 1 0 81 1 282 187 6 280 0 0 0 277 283
 83 3 283 0.800000011920929 0.800000011920929 0.800000011920929 15 284 188 0 239
 280 0 12 285 188 0 286 0 0 0 0 1000 1e-008 0 0 0 1 0 1 1 293 295 301 299 290 30
0 298 70 286 0 285 0 0 4 1 20 0 287 287 1 T74 20 287 1 0 288 0 0 0 0 0 0 0 0 0 0
 0 0 0 0 0 0 0 0 0 81 1 288 7 6 294 0 0 323 0 289 83 3 289 0.800000011920929 0.8
00000011920929 0.800000011920929 19 290 1 0 285 292 0 291 V13 291 2 0 285 0 0 0
 0 290 294 19 292 3 0 285 0 290 293 S13 293 4 0 285 0 294 0 0 292 0 14 294 5 288
 1e-008 321 0 296 293 295 -0 0 321 0 291 50 295 6 0 294 322 0 0 +-0.000850000000
0000001 -0.0004499999999999998 0 2.449293598294706e-016 1 0 0 0 1 15 296 8 0 297
 294 0 17 297 0 296 305 317 298 302 300 0 347 +18 298 9 0 373 0 303 299 ?285 29
 299 10 0 298 304 0 0.0007999999999999998 -0.0004500000000000002 0.00085 16 300
 11 0 ?297 0 308 301 0 0 285 30 301 12 0 300 309 0 0 +0.0007999999999999998 -0.0
004500000000000002 0 0 0 1 17 302 0 346 353 347 303 297 300 0 338 -18 303 13 0 3
17 298 306 304 ?285 29 304 14 0 303 307 299 0.0007999999999999998 -0.00045000000
00000002 5e-005 17 305 0 296 311 297 306 310 308 0 0 -18 306 15 0 316 303 312 30
7 ?285 29 307 16 0 306 313 304 0.0006499999999999999 -0.0004500000000000002 0.00
085 16 308 17 0 ?310 300 314 309 0 0 285 30 309 18 0 308 315 301 0 +-0.000850000
0000000001 -0.0004499999999999998 0.00085 1 -2.449293598294706e-016 0 17 310 0 3
67 368 380 298 305 308 0 297 +17 311 0 296 317 305 312 316 314 0 331 -18 312 19
 0 320 306 327 313 ?285 29 313 20 0 312 328 307 0.0006499999999999999 -0.0004500
000000000002 5e-005 16 314 21 0 ?316 308 318 315 0 0 285 30 315 22 0 314 319 309
 0 +0.0006499999999999999 -0.0004500000000000002 0 0 0 1 17 316 0 388 383 331 30
6 311 314 0 380 +17 317 0 296 297 311 303 320 318 0 302 +16 318 23 0 ?317 314 32
9 319 0 0 285 30 319 24 0 318 330 315 0 +-0.0008500000000000001 -0.0004499999999
999998 5e-005 1 -2.449293598294706e-016 0 17 320 0 325 326 338 312 317 318 0 311
 -14 321 25 323 1e-008 342 294 325 293 322 +0 0 342 294 291 51 322 26 0 321 343
 295 0 +-0.0008500000000000001 -0.0003999999999999998 5e-005 1 -2.44929359829470
6e-016 0 5e-005 -2.449293598294706e-016 -1 0 81 1 323 27 6 321 0 0 344 288 324 8
3 3 324 0.800000011920929 0.800000011920929 0.800000011920929 15 325 28 0 326 32
1 0 17 326 0 325 332 320 327 331 329 0 0 +18 327 29 0 413 312 333 328 ?285 29 32
8 30 0 327 334 313 0.0006499999999999999 -0.0004000000000000001 -3.469446951954e
-021 16 329 31 0 ?326 318 335 330 0 0 285 31 330 32 0 329 336 319 0 +0.00065 -0.
0004000000000000001 5e-005 1 -2.449293598294706e-016 0 -2.449293598294706e-016 -
1 0 5e-005 17 331 0 388 316 413 312 326 329 0 0 -17 332 0 325 338 326 333 337 33
5 0 341 +18 333 33 0 437 327 351 334 ?285 29 334 34 0 333 352 328 0.000799999999
9999998 -0.0004000000000000002 0 16 335 35 0 ?332 329 339 336 0 0 285 30 336 36
 0 335 340 330 0 +-0.0008500000000000001 -0.0003999999999999998 -6.938893903907e
-021 1 -2.449293598294706e-016 0 17 337 0 430 416 437 327 332 335 0 326 -17 338
 0 325 320 332 303 341 339 0 358 +16 339 37 0 ?338 335 348 340 0 0 285 31 340 38
 0 339 349 336 0 +0.0007999999999999998 -0.0004000000000000002 5e-005 -1 1.83697
0198721007e-016 0 -1.836970198721007e-016 -1 0 5e-005 17 341 0 421 422 358 333 3
38 339 0 425 -14 342 39 344 1e-008 363 321 346 293 343 +0 0 363 321 291 51 343 4
0 0 342 364 322 0 +0.0007999999999999998 -0.0004000000000000002 0 0 0 1 5e-005 1
 -2.449293598294706e-016 0 81 1 344 41 6 342 0 0 365 323 345 83 3 345 0.80000001
1920929 0.800000011920929 0.800000011920929 15 346 42 0 347 342 0 17 347 0 346 3
02 359 298 350 348 0 0 +16 348 43 0 ?347 339 356 349 0 0 285 31 349 44 0 348 357
 340 0 +0.0007999999999999998 -0.0004000000000000002 0.00085 0 -0 -1 1 -2.449293
598294706e-016 0 5e-005 17 350 0 466 467 373 351 347 348 0 359 -18 351 45 0 470
 333 354 352 ?285 29 352 46 0 351 355 334 0.0008499999999999998 -0.0004000000000
000002 0.00085 17 353 0 346 359 302 354 358 356 0 422 -18 354 47 0 451 351 369 3
55 ?285 29 355 48 0 354 370 352 0.0008499999999999998 -0.0004000000000000002 5e-
005 16 356 49 0 ?358 348 360 357 0 0 285 31 357 50 0 356 361 349 0 +0.0007999999
999999998 -0.0004000000000000002 5e-005 0 -0 -1 1 -2.449293598294706e-016 0 5e-0
05 17 358 0 421 341 422 303 353 356 0 0 +17 359 0 346 347 353 351 362 360 0 0 +1
6 360 51 0 ?359 356 371 361 0 0 285 30 361 52 0 360 372 357 0 +0.000849999999999
9998 -0.0004000000000000002 0 0 0 1 17 362 0 445 446 458 354 359 360 0 353 -14 3
63 53 365 1e-008 384 342 367 293 364 +0 0 384 342 291 51 364 54 0 363 385 343 0
 +-0.0008500000000000001 -0.0003999999999999998 0.00085 1 -2.449293598294706e-01
6 0 5e-005 -2.449293598294706e-016 -1 0 81 1 365 55 6 363 0 0 386 344 366 83 3 3
66 0.800000011920929 0.800000011920929 0.800000011920929 15 367 56 0 310 363 0 1
7 368 0 367 374 310 369 373 371 0 379 -18 369 57 0 368 354 375 370 ?285 29 370 5
8 0 369 376 355 0.0007999999999999998 -0.0004000000000000002 0.0009 16 371 59 0
 ?373 360 377 372 0 0 285 31 372 60 0 371 378 361 0 +0.0007999999999999998 -0.00
04000000000000002 0.00085 1 -1.836970198721007e-016 0 -1.836970198721007e-016 -1
 0 5e-005 17 373 0 466 350 467 298 368 371 0 310 +17 374 0 367 380 368 375 379 3
77 0 383 -18 375 61 0 374 369 390 376 ?285 29 376 62 0 375 391 370 0.00064999999
99999999 -0.0004000000000000001 0.0009 16 377 63 0 ?379 371 381 378 0 0 285 30 3
78 64 0 377 382 372 0 +-0.0008500000000000001 -0.0003999999999999998 0.0009 1 -2
.449293598294706e-016 0 17 379 0 475 476 394 369 374 377 0 467 +17 380 0 367 310
 374 306 383 381 0 305 +16 381 65 0 ?380 377 392 382 0 0 285 31 382 66 0 381 393
 378 0 +0.00065 -0.0004000000000000001 0.00085 1 -2.449293598294706e-016 0 -2.44
9293598294706e-016 -1 0 5e-005 17 383 0 388 389 316 375 380 381 0 394 -14 384 67
 386 1e-008 417 363 388 293 385 -0 0 417 363 291 50 385 68 0 384 418 364 0 +0.00
065 -0.0004500000000000002 0 1 -2.449293598294706e-016 0 0 0 1 81 1 386 69 6 384
 0 0 419 365 387 83 3 387 0.800000011920929 0.800000011920929 0.800000011920929
 15 388 70 0 383 384 0 17 389 0 388 395 383 390 394 392 0 400 +18 390 71 0 482 3
75 396 391 ?285 29 391 72 0 390 397 376 0.0006500000000000002 0.0003999999999999
999 0.0009 16 392 73 0 ?389 381 398 393 0 0 285 30 393 74 0 392 399 382 0 +0.000
6499999999999999 -0.0004500000000000002 0.0009 2.449293598294706e-016 1 0 17 394
 0 475 379 482 375 389 392 0 0 -17 395 0 388 401 389 396 400 398 0 0 -18 396 75
 0 506 390 402 397 ?285 29 397 76 0 396 403 391 0.0006500000000000002 0.00044999
99999999999 0.00085 16 398 77 0 ?400 392 404 399 0 0 285 31 399 78 0 398 405 393
 0 +0.0006500000000000002 0.0003999999999999999 0.00085 1 -2.449293598294706e-01
6 0 2.449293598294706e-016 1 0 5e-005 17 400 0 505 485 506 390 395 398 0 0 +17 4
01 0 388 407 395 402 406 404 0 0 -18 402 79 0 496 396 408 403 ?285 29 403 80 0 4
02 409 397 0.0006500000000000002 0.0004499999999999999 5e-005 16 404 81 0 ?406 3
98 410 405 0 0 285 30 405 82 0 404 411 399 0 +0.0006500000000000002 0.0004499999
999999999 0 0 0 1 17 406 0 520 509 496 396 401 404 0 395 +17 407 0 388 413 401 4
08 412 410 0 0 -18 408 83 0 436 402 432 409 ?285 29 409 84 0 408 433 403 0.00065
00000000000002 0.0003999999999999999 -3.469446951954e-021 16 410 85 0 ?412 404 4
14 411 0 0 285 31 411 86 0 410 415 405 0 +0.0006500000000000002 0.00039999999999
99999 5e-005 1 -2.449293598294706e-016 0 2.449293598294706e-016 1 0 5e-005 17 41
2 0 490 491 436 402 407 410 0 401 +17 413 0 388 331 407 327 416 414 0 337 -16 41
4 87 0 ?416 410 423 415 0 0 285 30 415 88 0 414 424 411 0 +0.0006499999999999999
 -0.0004500000000000002 0 2.449293598294706e-016 1 0 17 416 0 430 431 337 408 41
3 414 0 407 +14 417 89 419 1e-008 426 384 421 293 418 +0 0 426 384 291 53 418 90
 0 417 427 385 0 +0.0007999999999999998 -0.0004000000000000002 5e-005 5e-005 0 0
 1 1 -2.449293598294706e-016 0 81 1 419 91 6 417 0 0 428 386 420 83 3 420 0.8000
00011920929 0.800000011920929 0.800000011920929 15 421 92 0 358 417 0 17 422 0 4
21 358 341 354 425 423 0 0 +16 423 93 0 ?422 414 434 424 0 0 285 31 424 94 0 423
 435 415 0 +0.0007999999999999998 -0.0004000000000000002 5e-005 -2.4492935982947
06e-016 -1 0 1 -2.449293598294706e-016 0 5e-005 17 425 0 529 440 451 333 422 423
 0 0 -14 426 95 428 1e-008 441 417 430 293 427 -0 0 441 417 291 50 427 96 0 426
 442 418 0 +-0.0008500000000000001 -0.0004499999999999998 0 0 0 1 1 -2.449293598
294706e-016 0 81 1 428 97 6 426 0 0 443 419 429 83 3 429 0.800000011920929 0.800
000011920929 0.800000011920929 15 430 98 0 431 426 0 17 431 0 430 437 416 432 43
6 434 0 533 +18 432 99 0 440 408 447 433 ?285 29 433 100 0 432 448 409 0.0008 0.
0003999999999999998 0 16 434 101 0 ?431 423 438 435 0 0 285 30 435 102 0 434 439
 424 0 +-0.0008499999999999998 0.0004000000000000002 -6.938893903907e-021 1 -2.4
49293598294706e-016 0 17 436 0 490 412 497 408 431 434 0 416 -17 437 0 430 337 4
31 333 440 438 0 332 -16 438 103 0 ?440 434 449 439 0 0 285 30 439 104 0 438 450
 435 0 +0.0007999999999999998 -0.0004500000000000002 -6.938893903907e-021 2.4492
93598294706e-016 1 0 17 440 0 529 530 425 432 437 438 0 497 +14 441 105 443 1e-0
08 462 426 445 293 442 +0 0 462 426 291 50 442 106 0 441 463 427 0 +0.0008499999
999999998 -0.0004500000000000003 0 1 -2.449293598294706e-016 0 0 0 1 81 1 443 10
7 6 441 0 0 464 428 444 83 3 444 0.800000011920929 0.800000011920929 0.800000011
920929 15 445 108 0 362 441 0 17 446 0 445 452 362 447 451 449 0 457 +18 447 109
 0 551 432 453 448 ?285 29 448 110 0 447 454 433 0.0008500000000000001 0.0003999
999999999998 5e-005 16 449 111 0 ?446 438 455 450 0 0 285 30 450 112 0 449 456 4
39 0 +0.0008499999999999998 -0.0004500000000000003 5e-005 2.449293598294706e-016
 1 0 17 451 0 529 425 530 354 446 449 0 362 -17 452 0 445 458 446 453 457 455 0
 461 +18 453 113 0 552 447 477 454 ?285 29 454 114 0 453 478 448 0.0008500000000
000001 0.0003999999999999998 0.00085 16 455 115 0 ?452 449 459 456 0 0 285 30 45
6 116 0 455 460 450 0 +0.0008500000000000001 0.0003999999999999998 0 0 0 1 17 45
7 0 547 548 552 447 452 455 0 530 -17 458 0 445 362 452 351 461 459 0 350 -16 45
9 117 0 ?461 455 468 460 0 0 285 30 460 118 0 459 469 456 0 +0.00084999999999999
98 -0.0004500000000000003 0.00085 2.449293598294706e-016 1 0 17 461 0 538 539 47
0 453 458 459 0 0 +14 462 119 464 1e-008 471 441 466 293 463 +0 0 471 441 291 53
 463 120 0 462 472 442 0 +0.0007999999999999998 -0.0004000000000000002 0.00085 5
e-005 -0 0 -1 1 -2.449293598294706e-016 0 81 1 464 121 6 462 0 0 473 443 465 83
 3 465 0.800000011920929 0.800000011920929 0.800000011920929 15 466 122 0 467 46
2 0 17 467 0 466 373 350 369 470 468 0 481 -16 468 123 0 ?470 459 479 469 0 0 28
5 31 469 124 0 468 480 460 0 +0.0007999999999999998 -0.0004000000000000002 0.000
85 2.449293598294706e-016 1 0 1 -2.449293598294706e-016 0 5e-005 17 470 0 538 46
1 481 351 467 468 0 458 +14 471 125 473 1e-008 486 462 475 293 472 +0 0 486 462
 291 50 472 126 0 471 487 463 0 +-0.0008500000000000001 -0.0004499999999999998 0
.0009000000000000001 0 0 1 1 -2.449293598294706e-016 0 81 1 473 127 6 471 0 0 48
8 464 474 83 3 474 0.800000011920929 0.800000011920929 0.800000011920929 15 475
 128 0 394 471 0 17 476 0 475 482 379 477 481 479 0 485 +18 477 129 0 539 453 49
2 478 ?285 29 478 130 0 477 493 454 0.0008 0.0003999999999999998 0.0009 16 479 1
31 0 ?476 468 483 480 0 0 285 30 480 132 0 479 484 469 0 +0.0007999999999999998
 -0.0004500000000000002 0.0009 2.449293598294706e-016 1 0 17 481 0 538 470 539 3
69 476 479 0 0 -17 482 0 475 394 476 390 485 483 0 389 -16 483 133 0 ?485 479 49
4 484 0 0 285 30 484 134 0 483 495 480 0 +-0.0008499999999999998 0.0004000000000
000002 0.0009 1 -2.449293598294706e-016 0 17 485 0 505 512 400 477 482 483 0 0 +
14 486 135 488 1e-008 501 471 490 293 487 +0 0 501 471 291 51 487 136 0 486 502
 472 0 +-0.0008499999999999998 0.0004000000000000002 5e-005 1 -2.449293598294706
e-016 0 5e-005 2.449293598294706e-016 1 0 81 1 488 137 6 486 0 0 503 473 489 83
 3 489 0.800000011920929 0.800000011920929 0.800000011920929 15 490 138 0 491 48
6 0 17 491 0 490 497 412 492 496 494 0 0 +18 492 139 0 500 477 510 493 ?285 29 4
93 140 0 492 511 478 0.0008 0.0004499999999999998 5e-005 16 494 141 0 ?491 483 4
98 495 0 0 285 30 495 142 0 494 499 484 0 +-0.0008499999999999998 0.000450000000
0000003 5e-005 1 -2.449293598294706e-016 0 17 496 0 520 406 521 402 491 494 0 41
2 -17 497 0 490 436 491 432 500 498 0 431 -16 498 143 0 ?500 494 507 499 0 0 285
 31 499 144 0 498 508 495 0 +0.0008 0.0003999999999999998 5e-005 1 -3.0616169978
68406e-016 0 3.061616997868406e-016 1 0 5e-005 17 500 0 560 551 533 492 497 498
 0 548 +14 501 145 503 1e-008 516 486 505 293 502 +0 0 516 486 291 51 502 146 0
 501 517 487 0 +-0.0008499999999999998 0.0004000000000000002 0.00085 1 -2.449293
598294706e-016 0 5e-005 2.449293598294706e-016 1 0 81 1 503 147 6 501 0 0 518 48
8 504 83 3 504 0.800000011920929 0.800000011920929 0.800000011920929 15 505 148
 0 506 501 0 17 506 0 505 400 512 396 509 507 0 406 -16 507 149 0 ?509 498 513 5
08 0 0 285 30 508 150 0 507 514 499 0 +-0.0008499999999999998 0.0004500000000000
003 0.00085 1 -2.449293598294706e-016 0 17 509 0 520 521 406 510 506 507 0 512 +
18 510 151 0 555 492 0 511 ?285 29 511 152 0 510 0 493 0.0008 0.0004499999999999
998 0.00085 17 512 0 505 506 485 510 515 513 0 524 -16 513 153 0 ?515 507 522 51
4 0 0 285 31 514 154 0 513 523 508 0 +0.0008 0.0003999999999999998 0.00085 1 -2.
449293598294706e-016 -6.123233995737e-017 6.123233995737e-017 -1.499759782661915
e-032 1 5e-005 17 515 0 565 542 555 477 512 513 0 476 +14 516 155 518 1e-008 525
 501 520 293 517 +0 0 525 501 291 50 517 156 0 516 526 502 0 +-0.000849999999999
9998 0.0004500000000000003 0 2.449293598294706e-016 1 0 0 0 1 81 1 518 157 6 516
 0 0 527 503 519 83 3 519 0.800000011920929 0.800000011920929 0.800000011920929
 15 520 158 0 496 516 0 17 521 0 520 496 509 492 524 522 0 491 -16 522 159 0 ?52
4 513 531 523 0 0 285 30 523 160 0 522 532 514 0 +0.0008 0.0004499999999999998 0
 0 0 1 17 524 0 547 552 548 510 521 522 0 0 +14 525 161 527 1e-008 534 516 529 2
93 526 +0 0 534 516 291 51 526 162 0 525 535 517 0 +0.0007999999999999998 -0.000
4500000000000002 5e-005 2.449293598294706e-016 1 0 5e-005 1 -2.449293598294706e-
016 0 81 1 527 163 6 525 0 0 536 518 528 83 3 528 0.800000011920929 0.8000000119
20929 0.800000011920929 15 529 164 0 425 525 0 17 530 0 529 451 440 447 533 531
 0 0 +16 531 165 0 ?530 522 540 532 0 0 285 31 532 166 0 531 541 523 0 +0.0008 0
.0003999999999999998 5e-005 -2.449293598294706e-016 -1 0 1 -2.449293598294706e-0
16 0 5e-005 17 533 0 560 500 551 432 530 531 0 0 -14 534 167 536 1e-008 543 525
 538 293 535 +0 0 543 525 291 51 535 168 0 534 544 526 0 +0.0007999999999999998
 -0.0004500000000000002 0.00085 2.449293598294706e-016 1 0 5e-005 1 -2.449293598
294706e-016 0 81 1 536 169 6 534 0 0 545 527 537 83 3 537 0.800000011920929 0.80
0000011920929 0.800000011920929 15 538 170 0 461 534 0 17 539 0 538 481 461 477
 542 540 0 515 +16 540 171 0 ?539 531 549 541 0 0 285 31 541 172 0 540 550 532 0
 +0.0008 0.0003999999999999998 0.00085 -2.449293598294706e-016 -1 0 1 -2.4492935
98294706e-016 0 5e-005 17 542 0 565 555 515 453 539 540 0 452 -14 543 173 545 1e
-008 556 534 547 293 544 +0 0 556 534 291 51 544 174 0 543 557 535 0 +0.0008 0.0
003999999999999998 0 0 0 1 5e-005 1 -2.449293598294706e-016 0 81 1 545 175 6 543
 0 0 558 536 546 83 3 546 0.800000011920929 0.800000011920929 0.800000011920929
 15 547 176 0 457 543 0 17 548 0 547 524 457 492 551 549 0 521 +16 549 177 0 ?54
8 540 553 550 0 0 285 31 550 178 0 549 554 541 0 +0.0008 0.0003999999999999998 5
e-005 -0 0 1 1 -2.449293598294706e-016 0 5e-005 17 551 0 560 533 500 447 548 549
 0 446 -17 552 0 547 457 524 453 555 553 0 542 +16 553 179 0 ?552 549 0 554 0 0
 285 31 554 180 0 553 0 550 0 +0.0008 0.0003999999999999998 0.00085 0 -0 -1 1 -2
.449293598294706e-016 0 5e-005 17 555 0 565 515 542 510 552 553 0 509 -14 556 18
1 558 1e-008 561 543 560 293 557 +0 0 561 543 291 53 557 182 0 556 562 544 0 +0.
0008 0.0003999999999999998 5e-005 5e-005 0 0 1 1 -2.449293598294706e-016 0 81 1
 558 183 6 556 0 0 563 545 559 83 3 559 0.800000011920929 0.800000011920929 0.80
0000011920929 15 560 184 0 533 556 0 14 561 185 563 1e-008 0 556 565 293 562 +0
 0 0 556 291 53 562 186 0 561 0 557 0 +0.0008 0.0003999999999999998 0.00085 5e-0
05 -2.449293598294706e-016 -1 0 1 -2.449293598294706e-016 0 81 1 563 187 6 561 0
 0 0 558 564 83 3 564 0.800000011920929 0.800000011920929 0.800000011920929 15 5
65 188 0 555 561 0 12 566 124 0 567 0 0 0 0 1000 1e-008 0 0 0 1 0 1 1 574 576 58
2 580 571 581 579 70 567 0 566 0 0 4 1 20 0 568 568 1 T74 20 568 1 0 569 0 0 0 0
 0 0 0 0 0 0 0 0 0 0 0 0 0 0 0 81 1 569 7 6 575 0 0 604 0 570 83 3 570 0.7215686
440467835 0.5254902243614197 0.04313725605607033 19 571 1 0 566 573 0 572 V13 57
2 2 0 566 0 0 0 0 571 575 19 573 3 0 566 0 571 574 S13 574 4 0 566 0 575 0 0 573
 0 14 575 5 569 1e-008 602 0 577 574 576 -0 0 602 0 572 50 576 6 0 575 603 0 0 +
-0.0008500000000000001 -0.0004499999999999998 0 2.449293598294706e-016 1 0 0 0 1
 15 577 8 0 578 575 0 17 578 0 577 586 598 579 583 581 0 0 +18 579 9 0 591 0 584
 580 ?566 29 580 10 0 579 585 0 0.0006499999999999999 -0.0004500000000000002 0.0
0085 16 581 11 0 ?578 0 589 582 0 0 566 30 582 12 0 581 590 0 0 +0.0006499999999
999999 -0.0004500000000000002 0 0 0 1 17 583 0 627 622 658 584 578 581 0 0 -18 5
84 13 0 598 579 587 585 ?566 29 585 14 0 584 588 580 0.0006499999999999999 -0.00
04500000000000002 5e-005 17 586 0 577 592 578 587 591 589 0 673 -18 587 15 0 597
 584 593 588 ?566 29 588 16 0 587 594 585 -0.0006500000000000002 -0.000449999999
9999998 0.00085 16 589 17 0 ?591 581 595 590 0 0 566 30 590 18 0 589 596 582 0 +
-0.0008500000000000001 -0.0004499999999999998 0.00085 1 -2.449293598294706e-016
 0 17 591 0 666 661 673 579 586 589 0 658 +17 592 0 577 598 586 593 597 595 0 61
2 -18 593 19 0 601 587 608 594 ?566 29 594 20 0 593 609 588 -0.00065000000000000
02 -0.0004499999999999998 5e-005 16 595 21 0 ?597 589 599 596 0 0 566 30 596 22
 0 595 600 590 0 +-0.0006500000000000002 -0.0004499999999999998 0 0 0 1 17 597 0
 681 676 612 587 592 595 0 586 +17 598 0 577 578 592 584 601 599 0 619 +16 599 2
3 0 ?598 595 610 600 0 0 566 30 600 24 0 599 611 596 0 +-0.0008500000000000001 -
0.0004499999999999998 5e-005 1 -2.449293598294706e-016 0 17 601 0 606 607 619 59
3 598 599 0 592 -14 602 25 604 1e-008 623 575 606 574 603 +0 0 623 575 572 51 60
3 26 0 602 624 576 0 +-0.0008500000000000001 -0.0003999999999999998 5e-005 1 -2.
449293598294706e-016 0 5e-005 -2.449293598294706e-016 -1 0 81 1 604 27 6 602 0 0
 625 569 605 83 3 605 0.7215686440467835 0.5254902243614197 0.04313725605607033
 15 606 28 0 601 602 0 17 607 0 606 613 601 608 612 610 0 618 +18 608 29 0 607 5
93 614 609 ?566 29 609 30 0 608 615 594 -0.0006500000000000002 -0.00039999999999
99999 -3.469446951954e-021 16 610 31 0 ?607 599 616 611 0 0 566 31 611 32 0 610
 617 600 0 +-0.0006500000000000002 -0.0003999999999999999 5e-005 1 -2.4492935982
94706e-016 0 -2.449293598294706e-016 -1 0 5e-005 17 612 0 681 597 706 593 607 61
0 0 0 -17 613 0 606 619 607 614 618 616 0 0 +18 614 33 0 622 608 629 615 ?566 29
 615 34 0 614 630 609 0.0006499999999999999 -0.0004000000000000001 -3.4694469519
54e-021 16 616 35 0 ?613 610 620 617 0 0 566 30 617 36 0 616 621 611 0 +-0.00085
00000000000001 -0.0003999999999999998 -6.938893903907e-021 1 -2.449293598294706e
-016 0 17 618 0 714 709 633 608 613 616 0 706 -17 619 0 606 601 613 584 622 620
 0 583 -16 620 37 0 ?622 616 631 621 0 0 566 31 621 38 0 620 632 617 0 +0.00065
 -0.0004000000000000001 5e-005 1 -2.449293598294706e-016 0 -2.449293598294706e-0
16 -1 0 5e-005 17 622 0 627 628 583 614 619 620 0 633 +14 623 39 625 1e-008 662
 602 627 574 624 +0 0 662 602 572 50 624 40 0 623 663 603 0 +0.00065 -0.00045000
00000000002 0 1 -2.449293598294706e-016 0 0 0 1 81 1 625 41 6 623 0 0 664 604 62
6 83 3 626 0.7215686440467835 0.5254902243614197 0.04313725605607033 15 627 42 0
 583 623 0 17 628 0 627 634 622 629 633 631 0 639 +18 629 43 0 628 614 635 630 ?
566 29 630 44 0 629 636 615 0.0006500000000000002 0.0003999999999999999 -3.46944
6951954e-021 16 631 45 0 ?628 620 637 632 0 0 566 30 632 46 0 631 638 621 0 +0.0
006499999999999999 -0.0004500000000000002 0 2.449293598294706e-016 1 0 17 633 0
 714 618 715 614 628 631 0 613 -17 634 0 627 640 628 635 639 637 0 645 +18 635 4
7 0 634 629 641 636 ?566 29 636 48 0 635 642 630 0.0006500000000000002 0.0004499
999999999999 5e-005 16 637 49 0 ?634 631 643 638 0 0 566 31 638 50 0 637 644 632
 0 +0.0006500000000000002 0.0003999999999999999 5e-005 1 -2.449293598294706e-016
 0 2.449293598294706e-016 1 0 5e-005 17 639 0 750 718 745 629 634 637 0 715 -17
 640 0 627 646 634 641 645 643 0 651 +18 641 51 0 640 635 647 642 ?566 29 642 52
 0 641 648 636 0.0006500000000000002 0.0004499999999999999 0.00085 16 643 53 0 ?
640 637 649 644 0 0 566 30 644 54 0 643 650 638 0 +0.0006500000000000002 0.00044
99999999999999 0 0 0 1 17 645 0 741 742 736 635 640 643 0 745 -17 646 0 627 652
 640 647 651 649 0 657 +18 647 55 0 646 641 653 648 ?566 29 648 56 0 647 654 642
 0.0006500000000000002 0.0003999999999999999 0.0009 16 649 57 0 ?646 643 655 650
 0 0 566 31 650 58 0 649 656 644 0 +0.0006500000000000002 0.0003999999999999999
 0.00085 1 -2.449293598294706e-016 0 2.449293598294706e-016 1 0 5e-005 17 651 0
 732 733 727 641 646 649 0 736 -17 652 0 627 658 646 653 657 655 0 0 -18 653 59
 0 661 647 668 654 ?566 29 654 60 0 653 669 648 0.0006499999999999999 -0.0004000
000000000001 0.0009 16 655 61 0 ?657 649 659 656 0 0 566 30 656 62 0 655 660 650
 0 +0.0006499999999999999 -0.0004500000000000002 0.0009 2.449293598294706e-016 1
 0 17 657 0 723 724 672 647 652 655 0 727 +17 658 0 627 583 652 579 661 659 0 57
8 +16 659 63 0 ?658 655 670 660 0 0 566 31 660 64 0 659 671 656 0 +0.00065 -0.00
04000000000000001 0.00085 1 -2.449293598294706e-016 0 -2.449293598294706e-016 -1
 0 5e-005 17 661 0 666 667 591 653 658 659 0 672 -14 662 65 664 1e-008 677 623 6
66 574 663 +0 0 677 623 572 51 663 66 0 662 678 624 0 +-0.0008500000000000001 -0
.0003999999999999998 0.00085 1 -2.449293598294706e-016 0 5e-005 -2.4492935982947
06e-016 -1 0 81 1 664 67 6 662 0 0 679 625 665 83 3 665 0.7215686440467835 0.525
4902243614197 0.04313725605607033 15 666 68 0 591 662 0 17 667 0 666 673 661 668
 672 670 0 676 -18 668 69 0 667 653 683 669 ?566 29 669 70 0 668 684 654 -0.0006
500000000000002 -0.0003999999999999999 0.0009 16 670 71 0 ?672 659 674 671 0 0 5
66 30 671 72 0 670 675 660 0 +-0.0008500000000000001 -0.0003999999999999998 0.00
09 1 -2.449293598294706e-016 0 17 672 0 723 657 687 653 667 670 0 652 +17 673 0
 666 591 667 587 676 674 0 0 +16 674 73 0 ?673 670 685 675 0 0 566 31 675 74 0 6
74 686 671 0 +-0.0006500000000000002 -0.0003999999999999999 0.00085 1 -2.4492935
98294706e-016 0 -2.449293598294706e-016 -1 0 5e-005 17 676 0 681 682 597 668 673
 674 0 687 -14 677 75 679 1e-008 710 662 681 574 678 -0 0 710 662 572 50 678 76
 0 677 711 663 0 +-0.0006500000000000002 -0.0004499999999999999 0 1 -2.449293598
294706e-016 0 0 0 1 81 1 679 77 6 677 0 0 712 664 680 83 3 680 0.721568644046783
5 0.5254902243614197 0.04313725605607033 15 681 78 0 676 677 0 17 682 0 681 688
 676 683 687 685 0 0 +18 683 79 0 693 668 689 684 ?566 29 684 80 0 683 690 669 -
0.0006499999999999999 0.0004000000000000002 0.0009 16 685 81 0 ?682 674 691 686
 0 0 566 30 686 82 0 685 692 675 0 +-0.0006500000000000002 -0.000449999999999999
8 0.0009 2.449293598294706e-016 1 0 17 687 0 723 672 724 668 682 685 0 0 -17 688
 0 681 694 682 689 693 691 0 733 -18 689 83 0 699 683 695 690 ?566 29 690 84 0 6
89 696 684 -0.0006499999999999999 0.0004500000000000003 0.00085 16 691 85 0 ?693
 685 697 692 0 0 566 31 692 86 0 691 698 686 0 +-0.00065 0.0004000000000000002 0
.00085 1 -2.449293598294706e-016 0 2.449293598294706e-016 1 0 5e-005 17 693 0 73
2 727 733 683 688 691 0 724 +17 694 0 681 700 688 695 699 697 0 742 -18 695 87 0
 705 689 701 696 ?566 29 696 88 0 695 702 690 -0.0006499999999999999 0.000450000
0000000003 5e-005 16 697 89 0 ?699 691 703 698 0 0 566 30 698 90 0 697 704 692 0
 +-0.0006499999999999999 0.0004500000000000003 0 0 0 1 17 699 0 741 736 742 689
 694 697 0 688 +17 700 0 681 706 694 701 705 703 0 718 -18 701 91 0 709 695 0 70
2 ?566 29 702 92 0 701 0 696 -0.0006499999999999999 0.0004000000000000002 -3.469
446951954e-021 16 703 93 0 ?705 697 707 704 0 0 566 31 704 94 0 703 708 698 0 +-
0.00065 0.0004000000000000002 5e-005 1 -2.449293598294706e-016 0 2.4492935982947
06e-016 1 0 5e-005 17 705 0 750 745 718 695 700 703 0 694 +17 706 0 681 612 700
 608 709 707 0 0 -16 707 95 0 ?709 703 716 708 0 0 566 30 708 96 0 707 717 704 0
 +-0.0006500000000000002 -0.0004499999999999998 0 2.449293598294706e-016 1 0 17
 709 0 714 715 618 701 706 707 0 700 +14 710 97 712 1e-008 719 677 714 574 711 -
0 0 719 677 572 50 711 98 0 710 720 678 0 +-0.0008500000000000001 -0.00044999999
99999998 0 0 0 1 1 -2.449293598294706e-016 0 81 1 712 99 6 710 0 0 721 679 713 8
3 3 713 0.7215686440467835 0.5254902243614197 0.04313725605607033 15 714 100 0 7
15 710 0 17 715 0 714 633 709 629 718 716 0 0 +16 716 101 0 ?715 707 725 717 0 0
 566 30 717 102 0 716 726 708 0 +-0.0008499999999999998 0.0004000000000000002 -6
.938893903907e-021 1 -2.449293598294706e-016 0 17 718 0 750 705 639 701 715 716
 0 0 -14 719 103 721 1e-008 728 710 723 574 720 +0 0 728 710 572 50 720 104 0 71
9 729 711 0 +-0.0008500000000000001 -0.0004499999999999998 0.0009000000000000001
 0 0 1 1 -2.449293598294706e-016 0 81 1 721 105 6 719 0 0 730 712 722 83 3 722 0
.7215686440467835 0.5254902243614197 0.04313725605607033 15 723 106 0 687 719 0
 17 724 0 723 687 657 683 727 725 0 682 -16 725 107 0 ?727 716 734 726 0 0 566 3
0 726 108 0 725 735 717 0 +-0.0008499999999999998 0.0004000000000000002 0.0009 1
 -2.449293598294706e-016 0 17 727 0 732 651 693 647 724 725 0 0 +14 728 109 730
 1e-008 737 719 732 574 729 +0 0 737 719 572 51 729 110 0 728 738 720 0 +-0.0008
499999999999998 0.0004000000000000002 0.00085 1 -2.449293598294706e-016 0 5e-005
 2.449293598294706e-016 1 0 81 1 730 111 6 728 0 0 739 721 731 83 3 731 0.721568
6440467835 0.5254902243614197 0.04313725605607033 15 732 112 0 733 728 0 17 733
 0 732 693 651 689 736 734 0 0 -16 734 113 0 ?736 725 743 735 0 0 566 30 735 114
 0 734 744 726 0 +-0.0008499999999999998 0.0004500000000000003 0.00085 1 -2.4492
93598294706e-016 0 17 736 0 741 645 699 641 733 734 0 0 +14 737 115 739 1e-008 7
46 728 741 574 738 +0 0 746 728 572 50 738 116 0 737 747 729 0 +-0.0008499999999
999998 0.0004500000000000003 0 2.449293598294706e-016 1 0 0 0 1 81 1 739 117 6 7
37 0 0 748 730 740 83 3 740 0.7215686440467835 0.5254902243614197 0.043137256056
07033 15 741 118 0 742 737 0 17 742 0 741 699 645 695 745 743 0 0 -16 743 119 0
 ?745 734 0 744 0 0 566 30 744 120 0 743 0 735 0 +-0.0008499999999999998 0.00045
00000000000003 5e-005 1 -2.449293598294706e-016 0 17 745 0 750 639 705 635 742 7
43 0 0 +14 746 121 748 1e-008 0 737 750 574 747 +0 0 0 737 572 51 747 122 0 746
 0 738 0 +-0.0008499999999999998 0.0004000000000000002 5e-005 1 -2.4492935982947
06e-016 0 5e-005 2.449293598294706e-016 1 0 81 1 748 123 6 746 0 0 0 739 749 83
 3 749 0.7215686440467835 0.5254902243614197 0.04313725605607033 15 750 124 0 74
5 746 0 1 0 
