**ABCDEFGHIJKLMNOPQRSTUVWXYZabcdefghijklmnopqrstuvwxyz**************************
**PARASOLID !"#$%&'()*+,-./:;<=>?@[\]^_`{|}~0123456789**************************
**PART1;
MC=AMD64;
MC_MODEL=AMD64 Family 25 Model 80 Stepping 0, AuthenticAMD;
MC_ID=unknown;
OS=Windows_NT;
OS_RELEASE=unknown;
FRU=CAD Exchanger 3.10.1 (cadexchanger.com);
APPL=unknown;
SITE=unknown;
USER=unknown;
FORMAT=text;
GUISE=transmit;
KEY=DSOP-8_L5.0-W5.0-P1.27-EP-TL_TPH1R403NL;
FILE=DSOP-8_L5.0-W5.0-P1.27-EP-TL_TPH1R403NL.x_t;
DATE=Thu Jun 30 21:04:03 2022;
**PART2;
SCH=SCH_1200000_12103;
USFLD_SIZE=0;
**PART3;
**END_OF_HEADER*****************************************************************
T51 : TRANSMIT FILE created by modeller version 120000017 SCH_1200000_121030 74
 10 1 10 0 2 105 206 307 408 509 610 711 812 913 12 2 68 0 3 0 0 0 0 1000 1e-008
 0 0 0 1 0 1 1 12 14 20 18 9 19 17 70 3 0 2 0 0 4 1 20 0 4 4 1 T74 20 4 1 0 5 0
 0 0 0 0 0 0 0 0 0 0 0 0 0 0 0 0 0 0 81 1 5 7 6 13 0 0 42 0 8 80 1 6 0 7 8001 0
 0 0 0 3 5 0 0 0 FFFFTFTFFFFFFF2 79 15 7 SDL/TYSA_COLOUR83 3 8 0.300000011920929
 0.300000011920929 0.300000011920929 19 9 1 0 2 11 0 10 V13 10 2 0 2 0 0 0 0 9 1
3 19 11 3 0 2 0 9 12 S13 12 4 0 2 0 13 0 0 11 0 14 13 5 5 1e-008 40 0 15 12 14 +
0 0 40 0 10 50 14 6 0 13 41 0 0 +-0.0025 0.002627000000000001 0.0001 2.449293598
294706e-016 1 0 1 -2.449293598294706e-016 0 15 15 8 0 16 13 0 17 16 0 15 24 36 1
7 21 19 0 29 +18 17 9 0 16 0 22 18 ?2 29 18 10 0 17 23 0 -0.0025 0.0026270000000
00001 0.0011 16 19 11 0 ?16 0 27 20 0 0 2 30 20 12 0 19 28 0 0 +-0.0025 0.002627
000000000001 0.0001 0 0 1 17 21 0 86 91 87 22 16 19 0 36 -18 22 13 0 21 17 25 23
 ?2 29 23 14 0 22 26 18 -0.0025 0.002627000000000001 0.0001 17 24 0 15 30 16 25
 29 27 0 50 +18 25 15 0 24 22 31 26 ?2 29 26 16 0 25 32 23 0.002500000000000001
 0.002627 0.0011 16 27 17 0 ?24 19 33 28 0 0 2 30 28 18 0 27 34 20 0 +-0.0025 0.
002627000000000001 0.0011 1 -2.449293598294706e-016 0 17 29 0 104 90 50 17 24 27
 0 87 -17 30 0 15 36 24 31 35 33 0 0 -18 31 19 0 57 25 46 32 ?2 29 32 20 0 31 47
 26 0.002500000000000001 0.002627 0.0001 16 33 21 0 ?35 27 37 34 0 0 2 30 34 22
 0 33 38 28 0 +0.002500000000000001 0.002627 0.0001 0 0 1 17 35 0 44 45 57 25 30
 33 0 0 +17 36 0 15 16 30 22 39 37 0 94 -16 37 23 0 ?39 33 48 38 0 0 2 30 38 24
 0 37 49 34 0 +-0.0025 0.002627000000000001 0.0001 1 -2.449293598294706e-016 0 1
7 39 0 99 60 94 31 36 37 0 30 +14 40 25 42 1e-008 61 13 44 12 41 +0 0 61 13 10 5
0 41 26 0 40 62 14 0 +0.002500000000000001 0.002627 0.0001 1 -2.449293598294706e
-016 0 -2.449293598294706e-016 -1 0 81 1 42 27 6 40 0 0 63 5 43 83 3 43 0.300000
011920929 0.300000011920929 0.300000011920929 15 44 28 0 35 40 0 17 45 0 44 51 3
5 46 50 48 0 56 +18 46 29 0 45 31 52 47 ?2 29 47 30 0 46 53 32 0.0025 -0.002373
 0.0011 16 48 31 0 ?45 37 54 49 0 0 2 30 49 32 0 48 55 38 0 +0.00250000000000000
1 0.002627 0.0011 -2.449293598294706e-016 -1 0 17 50 0 104 29 71 25 45 48 0 35 -
17 51 0 44 57 45 52 56 54 0 78 -18 52 33 0 60 46 67 53 ?2 29 53 34 0 52 68 47 0.
0025 -0.002373 0.0001 16 54 35 0 ?56 48 58 55 0 0 2 30 55 36 0 54 59 49 0 +0.002
5 -0.002373 0.0001 0 0 1 17 56 0 65 66 78 46 51 54 0 71 +17 57 0 44 35 51 31 60
 58 0 39 -16 58 37 0 ?60 54 69 59 0 0 2 30 59 38 0 58 70 55 0 +0.002500000000000
001 0.002627 0.0001 -2.449293598294706e-016 -1 0 17 60 0 99 81 39 52 57 58 0 51
 +14 61 39 63 1e-008 82 40 65 12 62 +0 0 82 40 10 50 62 40 0 61 83 41 0 +0.0025
 -0.002373 0.0001 -2.449293598294706e-016 -1 0 -1 2.449293598294706e-016 0 81 1
 63 41 6 61 0 0 84 42 64 83 3 64 0.300000011920929 0.300000011920929 0.300000011
920929 15 65 42 0 56 61 0 17 66 0 65 72 56 67 71 69 0 77 +18 67 43 0 66 52 73 68
 ?2 29 68 44 0 67 74 53 -0.002500000000000001 -0.002372999999999999 0.0011 16 69
 45 0 ?66 58 75 70 0 0 2 30 70 46 0 69 76 59 0 +0.0025 -0.002373 0.0011 -1 2.449
293598294706e-016 0 17 71 0 104 50 90 46 66 69 0 0 -17 72 0 65 78 66 73 77 75 0
 91 -18 73 47 0 81 67 0 74 ?2 29 74 48 0 73 0 68 -0.002500000000000001 -0.002372
999999999999 0.0001 16 75 49 0 ?77 69 79 76 0 0 2 30 76 50 0 75 80 70 0 +-0.0025
00000000000001 -0.002372999999999999 0.0001 0 0 1 17 77 0 86 87 91 67 72 75 0 90
 +17 78 0 65 56 72 52 81 79 0 0 -16 79 51 0 ?81 75 88 80 0 0 2 30 80 52 0 79 89
 76 0 +0.0025 -0.002373 0.0001 -1 2.449293598294706e-016 0 17 81 0 99 94 60 73 7
8 79 0 72 +14 82 53 84 1e-008 95 61 86 12 83 +0 0 95 61 10 50 83 54 0 82 96 62 0
 +-0.002500000000000001 -0.002372999999999999 0.0001 -1 2.449293598294706e-016 0
 2.449293598294706e-016 1 0 81 1 84 55 6 82 0 0 97 63 85 83 3 85 0.3000000119209
29 0.300000011920929 0.300000011920929 15 86 56 0 77 82 0 17 87 0 86 21 77 17 90
 88 0 0 +16 88 57 0 ?87 79 92 89 0 0 2 30 89 58 0 88 93 80 0 +-0.002500000000000
001 -0.002372999999999999 0.0011 2.449293598294706e-016 1 0 17 90 0 104 71 29 67
 87 88 0 0 -17 91 0 86 77 21 73 94 92 0 0 -16 92 59 0 ?94 88 0 93 0 0 2 30 93 60
 0 92 0 89 0 +-0.002500000000000001 -0.002372999999999999 0.0001 2.4492935982947
06e-016 1 0 17 94 0 99 39 81 22 91 92 0 0 +14 95 61 97 1e-008 100 82 99 12 96 +0
 0 100 82 10 50 96 62 0 95 101 83 0 +0 0.000127 0.0001 -0 0 -1 -1 2.449293598294
706e-016 0 81 1 97 63 6 95 0 0 102 84 98 83 3 98 0.300000011920929 0.30000001192
0929 0.300000011920929 15 99 64 0 39 95 0 14 100 65 102 1e-008 0 95 104 12 101 -
0 0 0 95 10 50 101 66 0 100 0 96 0 +0 0.000127 0.0011 -0 0 -1 -1 2.4492935982947
06e-016 0 81 1 102 67 6 100 0 0 0 97 103 83 3 103 0.300000011920929 0.3000000119
20929 0.300000011920929 15 104 68 0 90 100 0 12 105 68 0 106 0 0 0 0 1000 1e-008
 0 0 0 1 0 1 1 113 115 121 119 110 120 118 70 106 0 105 0 0 4 1 20 0 107 107 1 T
74 20 107 1 0 108 0 0 0 0 0 0 0 0 0 0 0 0 0 0 0 0 0 0 0 81 1 108 7 6 114 0 0 143
 0 109 83 3 109 0.734000027179718 0.7730000019073486 0.796999990940094 19 110 1
 0 105 112 0 111 V13 111 2 0 105 0 0 0 0 110 114 19 112 3 0 105 0 110 113 S13 11
3 4 0 105 0 114 0 0 112 0 14 114 5 108 1e-008 141 0 116 113 115 -0 0 141 0 111 5
0 115 6 0 114 142 0 0 +-0.002245000000000001 -0.003363 0 1 -2.449293598294706e-0
16 0 0 0 1 15 116 8 0 117 114 0 17 117 0 116 125 137 118 122 120 0 195 +18 118 9
 0 117 0 123 119 ?105 29 119 10 0 118 124 0 -0.002245000000000001 -0.00208299999
9999999 0.0001 16 120 11 0 ?117 0 128 121 0 0 105 30 121 12 0 120 129 0 0 +-0.00
2245000000000001 -0.003363 0.0001 2.449293598294706e-016 1 0 17 122 0 205 178 19
5 123 117 120 0 0 -18 123 13 0 137 118 126 124 ?105 29 124 14 0 123 127 119 -0.0
02245000000000001 -0.003363 0.0001 17 125 0 116 131 117 126 130 128 0 0 -18 126
 15 0 188 123 132 127 ?105 29 127 16 0 126 133 124 -0.002245000000000001 -0.0020
82999999999999 0 16 128 17 0 ?130 120 134 129 0 0 105 30 129 18 0 128 135 121 0
 +-0.002245000000000001 -0.002082999999999999 0 0 0 1 17 130 0 187 192 188 118 1
25 128 0 0 +17 131 0 116 137 125 132 136 134 0 182 -18 132 19 0 140 126 147 133
 ?105 29 133 20 0 132 148 127 -0.002245000000000001 -0.003363 0 16 134 21 0 ?136
 128 138 135 0 0 105 30 135 22 0 134 139 129 0 +-0.002245000000000001 -0.003363
 0 2.449293598294706e-016 1 0 17 136 0 200 191 182 126 131 134 0 125 +17 137 0 1
16 117 131 123 140 138 0 175 +16 138 23 0 ?137 134 149 139 0 0 105 30 139 24 0 1
38 150 135 0 +-0.002245000000000001 -0.003363 0 0 0 1 17 140 0 174 179 175 132 1
37 138 0 131 -14 141 25 143 1e-008 170 114 145 113 142 +0 0 170 114 111 50 142 2
6 0 141 171 115 0 +-0.001565000000000001 -0.003363 0 1 -2.449293598294706e-016 0
 0 0 1 81 1 143 27 6 141 0 0 172 108 144 83 3 144 0.734000027179718 0.7730000019
073486 0.796999990940094 15 145 28 0 146 141 0 17 146 0 145 154 166 147 151 149
 0 179 -18 147 29 0 146 132 152 148 ?105 29 148 30 0 147 153 133 -0.001565000000
000001 -0.003363 0 16 149 31 0 ?151 138 157 150 0 0 105 30 150 32 0 149 158 139
 0 +-0.001565000000000001 -0.003363 0 0 0 1 17 151 0 174 175 179 152 146 149 0 1
66 +18 152 33 0 178 147 155 153 ?105 29 153 34 0 152 156 148 -0.0015650000000000
01 -0.003363 0.0001 17 154 0 145 160 146 155 159 157 0 0 +18 155 35 0 191 152 16
1 156 ?105 29 156 36 0 155 162 153 -0.001565 -0.002082999999999999 0 16 157 37 0
 ?154 149 163 158 0 0 105 30 158 38 0 157 164 150 0 +-0.001565000000000001 -0.00
3363 0 2.449293598294706e-016 1 0 17 159 0 200 182 191 147 154 157 0 0 -17 160 0
 145 166 154 161 165 163 0 192 +18 161 39 0 160 155 0 162 ?105 29 162 40 0 161 0
 156 -0.001565 -0.002082999999999999 0.0001 16 163 41 0 ?160 157 167 164 0 0 105
 30 164 42 0 163 168 158 0 +-0.001565 -0.002082999999999999 0 0 0 1 17 165 0 187
 188 192 155 160 163 0 154 -17 166 0 145 146 160 152 169 167 0 0 -16 167 43 0 ?1
69 163 176 168 0 0 105 30 168 44 0 167 177 164 0 +-0.001565000000000001 -0.00336
3 0.0001 2.449293598294706e-016 1 0 17 169 0 205 195 178 161 166 167 0 0 +14 170
 45 172 1e-008 183 141 174 113 171 -0 0 183 141 111 50 171 46 0 170 184 142 0 +-
0.002245000000000001 -0.003363 0 2.449293598294706e-016 1 0 0 0 1 81 1 172 47 6
 170 0 0 185 143 173 83 3 173 0.734000027179718 0.7730000019073486 0.79699999094
0094 15 174 48 0 151 170 0 17 175 0 174 140 151 123 178 176 0 122 -16 176 49 0 ?
178 167 180 177 0 0 105 30 177 50 0 176 181 168 0 +-0.002245000000000001 -0.0033
63 0.0001 1 -2.449293598294706e-016 0 17 178 0 205 169 122 152 175 176 0 151 +17
 179 0 174 151 140 147 182 180 0 159 +16 180 51 0 ?179 176 189 181 0 0 105 30 18
1 52 0 180 190 177 0 +-0.002245000000000001 -0.003363 0 1 -2.449293598294706e-01
6 0 17 182 0 200 136 159 132 179 180 0 0 -14 183 53 185 1e-008 196 170 187 113 1
84 +0 0 196 170 111 50 184 54 0 183 197 171 0 +-0.002245000000000001 -0.00208299
9999999999 0 2.449293598294706e-016 1 0 0 0 1 81 1 185 55 6 183 0 0 198 172 186
 83 3 186 0.734000027179718 0.7730000019073486 0.796999990940094 15 187 56 0 188
 183 0 17 188 0 187 130 165 126 191 189 0 136 -16 189 57 0 ?191 180 193 190 0 0
 105 30 190 58 0 189 194 181 0 +-0.002245000000000001 -0.002082999999999999 0 1
 -2.449293598294706e-016 0 17 191 0 200 159 136 155 188 189 0 165 +17 192 0 187
 165 130 161 195 193 0 169 +16 193 59 0 ?192 189 0 194 0 0 105 30 194 60 0 193 0
 190 0 +-0.002245000000000001 -0.002082999999999999 0.0001 1 -2.449293598294706e
-016 0 17 195 0 205 122 169 118 192 193 0 130 -14 196 61 198 1e-008 201 183 200
 113 197 -0 0 201 183 111 50 197 62 0 196 202 184 0 +-0.002245000000000001 -0.00
3363 0 0 0 1 1 -2.449293598294706e-016 0 81 1 198 63 6 196 0 0 203 185 199 83 3
 199 0.734000027179718 0.7730000019073486 0.796999990940094 15 200 64 0 191 196
 0 14 201 65 203 1e-008 0 196 205 113 202 +0 0 0 196 111 50 202 66 0 201 0 197 0
 +-0.002245000000000001 -0.003363 0.0001 0 0 1 1 -2.449293598294706e-016 0 81 1
 203 67 6 201 0 0 0 198 204 83 3 204 0.734000027179718 0.7730000019073486 0.7969
99990940094 15 205 68 0 122 201 0 12 206 68 0 207 0 0 0 0 1000 1e-008 0 0 0 1 0
 1 1 214 216 222 220 211 221 219 70 207 0 206 0 0 4 1 20 0 208 208 1 T74 20 208
 1 0 209 0 0 0 0 0 0 0 0 0 0 0 0 0 0 0 0 0 0 0 81 1 209 7 6 215 0 0 244 0 210 83
 3 210 0.734000027179718 0.7730000019073486 0.796999990940094 19 211 1 0 206 213
 0 212 V13 212 2 0 206 0 0 0 0 211 215 19 213 3 0 206 0 211 214 S13 214 4 0 206
 0 215 0 0 213 0 14 215 5 209 1e-008 242 0 217 214 216 -0 0 242 0 212 50 216 6 0
 215 243 0 0 +-0.0009750000000000009 -0.003363 0 1 -2.449293598294706e-016 0 0 0
 1 15 217 8 0 218 215 0 17 218 0 217 226 238 219 223 221 0 296 +18 219 9 0 231 0
 224 220 ?206 29 220 10 0 219 225 0 -0.0009750000000000005 -0.002082999999999999
 0.0001 16 221 11 0 ?218 0 229 222 0 0 206 30 222 12 0 221 230 0 0 +-0.000975000
0000000008 -0.003363 0.0001 2.449293598294706e-016 1 0 17 223 0 306 279 296 224
 218 221 0 276 -18 224 13 0 238 219 227 225 ?206 29 225 14 0 224 228 220 -0.0009
750000000000008 -0.003363 0.0001 17 226 0 217 232 218 227 231 229 0 289 -18 227
 15 0 237 224 233 228 ?206 29 228 16 0 227 234 225 -0.0009750000000000005 -0.002
082999999999999 0 16 229 17 0 ?231 221 235 230 0 0 206 30 230 18 0 229 236 222 0
 +-0.0009750000000000005 -0.002082999999999999 0 0 0 1 17 231 0 288 293 289 219
 226 229 0 218 +17 232 0 217 238 226 233 237 235 0 283 -18 233 19 0 241 227 248
 234 ?206 29 234 20 0 233 249 228 -0.0009750000000000008 -0.003363 0 16 235 21 0
 ?237 229 239 236 0 0 206 30 236 22 0 235 240 230 0 +-0.0009750000000000008 -0.0
03363 0 2.449293598294706e-016 1 0 17 237 0 301 292 283 227 232 235 0 226 +17 23
8 0 217 218 232 224 241 239 0 223 +16 239 23 0 ?238 235 250 240 0 0 206 30 240 2
4 0 239 251 236 0 +-0.0009750000000000008 -0.003363 0 0 0 1 17 241 0 275 280 276
 233 238 239 0 232 -14 242 25 244 1e-008 271 215 246 214 243 +0 0 271 215 212 50
 243 26 0 242 272 216 0 +-0.0002950000000000008 -0.003363000000000001 0 1 -2.449
293598294706e-016 0 0 0 1 81 1 244 27 6 242 0 0 273 209 245 83 3 245 0.734000027
179718 0.7730000019073486 0.796999990940094 15 246 28 0 247 242 0 17 247 0 246 2
55 267 248 252 250 0 260 -18 248 29 0 247 233 253 249 ?206 29 249 30 0 248 254 2
34 -0.0002950000000000008 -0.003363000000000001 0 16 250 31 0 ?252 239 258 251 0
 0 206 30 251 32 0 250 259 240 0 +-0.0002950000000000008 -0.003363000000000001 0
 0 0 1 17 252 0 275 276 280 253 247 250 0 267 +18 253 33 0 252 248 256 254 ?206
 29 254 34 0 253 257 249 -0.0002950000000000008 -0.003363000000000001 0.0001 17
 255 0 246 261 247 256 260 258 0 266 +18 256 35 0 255 253 262 257 ?206 29 257 36
 0 256 263 254 -0.0002950000000000006 -0.002083 0 16 258 37 0 ?255 250 264 259 0
 0 206 30 259 38 0 258 265 251 0 +-0.0002950000000000008 -0.003363000000000001 0
 2.449293598294706e-016 1 0 17 260 0 301 283 292 248 255 258 0 280 -17 261 0 246
 267 255 262 266 264 0 270 +18 262 39 0 261 256 0 263 ?206 29 263 40 0 262 0 257
 -0.0002950000000000006 -0.002083 0.0001 16 264 41 0 ?261 258 268 265 0 0 206 30
 265 42 0 264 269 259 0 +-0.0002950000000000006 -0.002083 0 0 0 1 17 266 0 288 2
89 293 256 261 264 0 292 -17 267 0 246 247 261 253 270 268 0 279 -16 268 43 0 ?2
70 264 277 269 0 0 206 30 269 44 0 268 278 265 0 +-0.0002950000000000008 -0.0033
63000000000001 0.0001 2.449293598294706e-016 1 0 17 270 0 306 296 279 262 267 26
8 0 293 +14 271 45 273 1e-008 284 242 275 214 272 -0 0 284 242 212 50 272 46 0 2
71 285 243 0 +-0.0009750000000000009 -0.003363 0 2.449293598294706e-016 1 0 0 0
 1 81 1 273 47 6 271 0 0 286 244 274 83 3 274 0.734000027179718 0.77300000190734
86 0.796999990940094 15 275 48 0 252 271 0 17 276 0 275 241 252 224 279 277 0 0
 -16 277 49 0 ?279 268 281 278 0 0 206 30 278 50 0 277 282 269 0 +-0.00097500000
00000008 -0.003363 0.0001 1 -2.449293598294706e-016 0 17 279 0 306 270 223 253 2
76 277 0 0 +17 280 0 275 252 241 248 283 281 0 0 +16 281 51 0 ?280 277 290 282 0
 0 206 30 282 52 0 281 291 278 0 +-0.0009750000000000008 -0.003363 0 1 -2.449293
598294706e-016 0 17 283 0 301 237 260 233 280 281 0 0 -14 284 53 286 1e-008 297
 271 288 214 285 +0 0 297 271 212 50 285 54 0 284 298 272 0 +-0.0009750000000000
006 -0.002082999999999999 0 2.449293598294706e-016 1 0 0 0 1 81 1 286 55 6 284 0
 0 299 273 287 83 3 287 0.734000027179718 0.7730000019073486 0.796999990940094 1
5 288 56 0 289 284 0 17 289 0 288 231 266 227 292 290 0 0 -16 290 57 0 ?292 281
 294 291 0 0 206 30 291 58 0 290 295 282 0 +-0.0009750000000000005 -0.0020829999
99999999 0 1 -2.449293598294706e-016 0 17 292 0 301 260 237 256 289 290 0 0 +17
 293 0 288 266 231 262 296 294 0 0 +16 294 59 0 ?293 290 0 295 0 0 206 30 295 60
 0 294 0 291 0 +-0.0009750000000000005 -0.002082999999999999 0.0001 1 -2.4492935
98294706e-016 0 17 296 0 306 223 270 219 293 294 0 0 -14 297 61 299 1e-008 302 2
84 301 214 298 -0 0 302 284 212 50 298 62 0 297 303 285 0 +-0.000975000000000000
9 -0.003363 0 0 0 1 1 -2.449293598294706e-016 0 81 1 299 63 6 297 0 0 304 286 30
0 83 3 300 0.734000027179718 0.7730000019073486 0.796999990940094 15 301 64 0 29
2 297 0 14 302 65 304 1e-008 0 297 306 214 303 +0 0 0 297 212 50 303 66 0 302 0
 298 0 +-0.0009750000000000009 -0.003363 0.0001 0 0 1 1 -2.449293598294706e-016
 0 81 1 304 67 6 302 0 0 0 299 305 83 3 305 0.734000027179718 0.7730000019073486
 0.796999990940094 15 306 68 0 223 302 0 12 307 68 0 308 0 0 0 0 1000 1e-008 0 0
 0 1 0 1 1 315 317 323 321 312 322 320 70 308 0 307 0 0 4 1 20 0 309 309 1 T74 2
0 309 1 0 310 0 0 0 0 0 0 0 0 0 0 0 0 0 0 0 0 0 0 0 81 1 310 7 6 316 0 0 345 0 3
11 83 3 311 0.734000027179718 0.7730000019073486 0.796999990940094 19 312 1 0 30
7 314 0 313 V13 313 2 0 307 0 0 0 0 312 316 19 314 3 0 307 0 312 315 S13 315 4 0
 307 0 316 0 0 314 0 14 316 5 310 1e-008 343 0 318 315 317 -0 0 343 0 313 50 317
 6 0 316 344 0 0 +0.0002949999999999992 -0.003363000000000001 0 1 -2.44929359829
4706e-016 0 0 0 1 15 318 8 0 319 316 0 17 319 0 318 327 339 320 324 322 0 332 +1
8 320 9 0 319 0 325 321 ?307 29 321 10 0 320 326 0 0.0002949999999999994 -0.0020
83 0.0001 16 322 11 0 ?319 0 330 323 0 0 307 30 323 12 0 322 331 0 0 +0.00029499
99999999992 -0.003363000000000001 0.0001 2.449293598294706e-016 1 0 17 324 0 407
 380 397 325 319 322 0 377 -18 325 13 0 339 320 328 326 ?307 29 326 14 0 325 329
 321 0.0002949999999999992 -0.003363000000000001 0.0001 17 327 0 318 333 319 328
 332 330 0 390 -18 328 15 0 338 325 334 329 ?307 29 329 16 0 328 335 326 0.00029
49999999999994 -0.002083 0 16 330 17 0 ?332 322 336 331 0 0 307 30 331 18 0 330
 337 323 0 +0.0002949999999999994 -0.002083 0 0 0 1 17 332 0 389 394 390 320 327
 330 0 397 +17 333 0 318 339 327 334 338 336 0 384 -18 334 19 0 342 328 349 335
 ?307 29 335 20 0 334 350 329 0.0002949999999999992 -0.003363000000000001 0 16 3
36 21 0 ?338 330 340 337 0 0 307 30 337 22 0 336 341 331 0 +0.000294999999999999
2 -0.003363000000000001 0 2.449293598294706e-016 1 0 17 338 0 402 393 384 328 33
3 336 0 327 +17 339 0 318 319 333 325 342 340 0 324 +16 340 23 0 ?339 336 351 34
1 0 0 307 30 341 24 0 340 352 337 0 +0.0002949999999999992 -0.003363000000000001
 0 0 0 1 17 342 0 376 381 377 334 339 340 0 333 -14 343 25 345 1e-008 372 316 34
7 315 344 +0 0 372 316 313 50 344 26 0 343 373 317 0 +0.0009749999999999991 -0.0
03363000000000001 0 1 -2.449293598294706e-016 0 0 0 1 81 1 345 27 6 343 0 0 374
 310 346 83 3 346 0.734000027179718 0.7730000019073486 0.796999990940094 15 347
 28 0 348 343 0 17 348 0 347 356 368 349 353 351 0 381 -18 349 29 0 348 334 354
 350 ?307 29 350 30 0 349 355 335 0.0009749999999999991 -0.003363000000000001 0
 16 351 31 0 ?353 340 359 352 0 0 307 30 352 32 0 351 360 341 0 +0.0009749999999
999991 -0.003363000000000001 0 0 0 1 17 353 0 376 377 381 354 348 351 0 368 +18
 354 33 0 353 349 357 355 ?307 29 355 34 0 354 358 350 0.0009749999999999991 -0.
003363000000000001 0.0001 17 356 0 347 362 348 357 361 359 0 393 +18 357 35 0 36
7 354 363 358 ?307 29 358 36 0 357 364 355 0.0009749999999999994 -0.002083 0 16
 359 37 0 ?356 351 365 360 0 0 307 30 360 38 0 359 366 352 0 +0.0009749999999999
991 -0.003363000000000001 0 2.449293598294706e-016 1 0 17 361 0 402 384 393 349
 356 359 0 0 -17 362 0 347 368 356 363 367 365 0 371 +18 363 39 0 362 357 0 364
 ?307 29 364 40 0 363 0 358 0.0009749999999999994 -0.002083 0.0001 16 365 41 0 ?
362 359 369 366 0 0 307 30 366 42 0 365 370 360 0 +0.0009749999999999994 -0.0020
83 0 0 0 1 17 367 0 389 390 394 357 362 365 0 356 -17 368 0 347 348 362 354 371
 369 0 380 -16 369 43 0 ?371 365 378 370 0 0 307 30 370 44 0 369 379 366 0 +0.00
09749999999999991 -0.003363000000000001 0.0001 2.449293598294706e-016 1 0 17 371
 0 407 397 380 363 368 369 0 394 +14 372 45 374 1e-008 385 343 376 315 373 -0 0
 385 343 313 50 373 46 0 372 386 344 0 +0.0002949999999999992 -0.003363000000000
001 0 2.449293598294706e-016 1 0 0 0 1 81 1 374 47 6 372 0 0 387 345 375 83 3 37
5 0.734000027179718 0.7730000019073486 0.796999990940094 15 376 48 0 353 372 0 1
7 377 0 376 342 353 325 380 378 0 0 -16 378 49 0 ?380 369 382 379 0 0 307 30 379
 50 0 378 383 370 0 +0.0002949999999999992 -0.003363000000000001 0.0001 1 -2.449
293598294706e-016 0 17 380 0 407 371 324 354 377 378 0 0 +17 381 0 376 353 342 3
49 384 382 0 361 +16 382 51 0 ?381 378 391 383 0 0 307 30 383 52 0 382 392 379 0
 +0.0002949999999999992 -0.003363000000000001 0 1 -2.449293598294706e-016 0 17 3
84 0 402 338 361 334 381 382 0 0 -14 385 53 387 1e-008 398 372 389 315 386 +0 0
 398 372 313 50 386 54 0 385 399 373 0 +0.0002949999999999994 -0.002083 0 2.4492
93598294706e-016 1 0 0 0 1 81 1 387 55 6 385 0 0 400 374 388 83 3 388 0.73400002
7179718 0.7730000019073486 0.796999990940094 15 389 56 0 390 385 0 17 390 0 389
 332 367 328 393 391 0 0 -16 391 57 0 ?393 382 395 392 0 0 307 30 392 58 0 391 3
96 383 0 +0.0002949999999999994 -0.002083 0 1 -2.449293598294706e-016 0 17 393 0
 402 361 338 357 390 391 0 0 +17 394 0 389 367 332 363 397 395 0 0 +16 395 59 0
 ?394 391 0 396 0 0 307 30 396 60 0 395 0 392 0 +0.0002949999999999994 -0.002083
 0.0001 1 -2.449293598294706e-016 0 17 397 0 407 324 371 320 394 395 0 0 -14 398
 61 400 1e-008 403 385 402 315 399 -0 0 403 385 313 50 399 62 0 398 404 386 0 +0
.0002949999999999992 -0.003363000000000001 0 0 0 1 1 -2.449293598294706e-016 0 8
1 1 400 63 6 398 0 0 405 387 401 83 3 401 0.734000027179718 0.7730000019073486 0
.796999990940094 15 402 64 0 393 398 0 14 403 65 405 1e-008 0 398 407 315 404 +0
 0 0 398 313 50 404 66 0 403 0 399 0 +0.0002949999999999992 -0.00336300000000000
1 0.0001 0 0 1 1 -2.449293598294706e-016 0 81 1 405 67 6 403 0 0 0 400 406 83 3
 406 0.734000027179718 0.7730000019073486 0.796999990940094 15 407 68 0 324 403
 0 12 408 68 0 409 0 0 0 0 1000 1e-008 0 0 0 1 0 1 1 416 418 424 422 413 423 421
 70 409 0 408 0 0 4 1 20 0 410 410 1 T74 20 410 1 0 411 0 0 0 0 0 0 0 0 0 0 0 0
 0 0 0 0 0 0 0 81 1 411 7 6 417 0 0 446 0 412 83 3 412 0.734000027179718 0.77300
00019073486 0.796999990940094 19 413 1 0 408 415 0 414 V13 414 2 0 408 0 0 0 0 4
13 417 19 415 3 0 408 0 413 416 S13 416 4 0 408 0 417 0 0 415 0 14 417 5 411 1e-
008 444 0 419 416 418 -0 0 444 0 414 50 418 6 0 417 445 0 0 +0.00156499999999999
9 -0.003363000000000001 0 1 -2.449293598294706e-016 0 0 0 1 15 419 8 0 420 417 0
 17 420 0 419 428 440 421 425 423 0 433 +18 421 9 0 420 0 426 422 ?408 29 422 10
 0 421 427 0 0.001565 -0.002083 0.0001 16 423 11 0 ?420 0 431 424 0 0 408 30 424
 12 0 423 432 0 0 +0.001564999999999999 -0.003363000000000001 0.0001 2.449293598
294706e-016 1 0 17 425 0 508 481 498 426 420 423 0 478 -18 426 13 0 440 421 429
 427 ?408 29 427 14 0 426 430 422 0.001564999999999999 -0.003363000000000001 0.0
001 17 428 0 419 434 420 429 433 431 0 491 -18 429 15 0 439 426 435 430 ?408 29
 430 16 0 429 436 427 0.001565 -0.002083 0 16 431 17 0 ?433 423 437 432 0 0 408
 30 432 18 0 431 438 424 0 +0.001565 -0.002083 0 0 0 1 17 433 0 490 495 491 421
 428 431 0 498 +17 434 0 419 440 428 435 439 437 0 485 -18 435 19 0 443 429 450
 436 ?408 29 436 20 0 435 451 430 0.001564999999999999 -0.003363000000000001 0 1
6 437 21 0 ?439 431 441 438 0 0 408 30 438 22 0 437 442 432 0 +0.001564999999999
999 -0.003363000000000001 0 2.449293598294706e-016 1 0 17 439 0 503 494 485 429
 434 437 0 428 +17 440 0 419 420 434 426 443 441 0 425 +16 441 23 0 ?440 437 452
 442 0 0 408 30 442 24 0 441 453 438 0 +0.001564999999999999 -0.0033630000000000
01 0 0 0 1 17 443 0 477 482 478 435 440 441 0 434 -14 444 25 446 1e-008 473 417
 448 416 445 +0 0 473 417 414 50 445 26 0 444 474 418 0 +0.002244999999999999 -0
.003363000000000001 0 1 -2.449293598294706e-016 0 0 0 1 81 1 446 27 6 444 0 0 47
5 411 447 83 3 447 0.734000027179718 0.7730000019073486 0.796999990940094 15 448
 28 0 449 444 0 17 449 0 448 457 469 450 454 452 0 462 -18 450 29 0 449 435 455
 451 ?408 29 451 30 0 450 456 436 0.002244999999999999 -0.003363000000000001 0 1
6 452 31 0 ?454 441 460 453 0 0 408 30 453 32 0 452 461 442 0 +0.002244999999999
999 -0.003363000000000001 0 0 0 1 17 454 0 477 478 482 455 449 452 0 469 +18 455
 33 0 454 450 458 456 ?408 29 456 34 0 455 459 451 0.002244999999999999 -0.00336
3000000000001 0.0001 17 457 0 448 463 449 458 462 460 0 494 +18 458 35 0 468 455
 464 459 ?408 29 459 36 0 458 465 456 0.002245 -0.002083 0 16 460 37 0 ?457 452
 466 461 0 0 408 30 461 38 0 460 467 453 0 +0.002244999999999999 -0.003363000000
000001 0 2.449293598294706e-016 1 0 17 462 0 503 485 494 450 457 460 0 482 -17 4
63 0 448 469 457 464 468 466 0 472 +18 464 39 0 463 458 0 465 ?408 29 465 40 0 4
64 0 459 0.002245 -0.002083 0.0001 16 466 41 0 ?463 460 470 467 0 0 408 30 467 4
2 0 466 471 461 0 +0.002245 -0.002083 0 0 0 1 17 468 0 490 491 495 458 463 466 0
 457 -17 469 0 448 449 463 455 472 470 0 481 -16 470 43 0 ?472 466 479 471 0 0 4
08 30 471 44 0 470 480 467 0 +0.002244999999999999 -0.003363000000000001 0.0001
 2.449293598294706e-016 1 0 17 472 0 508 498 481 464 469 470 0 495 +14 473 45 47
5 1e-008 486 444 477 416 474 -0 0 486 444 414 50 474 46 0 473 487 445 0 +0.00156
4999999999999 -0.003363000000000001 0 2.449293598294706e-016 1 0 0 0 1 81 1 475
 47 6 473 0 0 488 446 476 83 3 476 0.734000027179718 0.7730000019073486 0.796999
990940094 15 477 48 0 454 473 0 17 478 0 477 443 454 426 481 479 0 0 -16 479 49
 0 ?481 470 483 480 0 0 408 30 480 50 0 479 484 471 0 +0.001564999999999999 -0.0
03363000000000001 0.0001 1 -2.449293598294706e-016 0 17 481 0 508 472 425 455 47
8 479 0 0 +17 482 0 477 454 443 450 485 483 0 0 +16 483 51 0 ?482 479 492 484 0
 0 408 30 484 52 0 483 493 480 0 +0.001564999999999999 -0.003363000000000001 0 1
 -2.449293598294706e-016 0 17 485 0 503 439 462 435 482 483 0 0 -14 486 53 488 1
e-008 499 473 490 416 487 +0 0 499 473 414 50 487 54 0 486 500 474 0 +0.001565 -
0.002083 0 2.449293598294706e-016 1 0 0 0 1 81 1 488 55 6 486 0 0 501 475 489 83
 3 489 0.734000027179718 0.7730000019073486 0.796999990940094 15 490 56 0 491 48
6 0 17 491 0 490 433 468 429 494 492 0 0 -16 492 57 0 ?494 483 496 493 0 0 408 3
0 493 58 0 492 497 484 0 +0.001565 -0.002083 0 1 -2.449293598294706e-016 0 17 49
4 0 503 462 439 458 491 492 0 0 +17 495 0 490 468 433 464 498 496 0 0 +16 496 59
 0 ?495 492 0 497 0 0 408 30 497 60 0 496 0 493 0 +0.001565 -0.002083 0.0001 1 -
2.449293598294706e-016 0 17 498 0 508 425 472 421 495 496 0 0 -14 499 61 501 1e-
008 504 486 503 416 500 -0 0 504 486 414 50 500 62 0 499 505 487 0 +0.0015649999
99999999 -0.003363000000000001 0 0 0 1 1 -2.449293598294706e-016 0 81 1 501 63 6
 499 0 0 506 488 502 83 3 502 0.734000027179718 0.7730000019073486 0.79699999094
0094 15 503 64 0 494 499 0 14 504 65 506 1e-008 0 499 508 416 505 +0 0 0 499 414
 50 505 66 0 504 0 500 0 +0.001564999999999999 -0.003363000000000001 0.0001 0 0
 1 1 -2.449293598294706e-016 0 81 1 506 67 6 504 0 0 0 501 507 83 3 507 0.734000
027179718 0.7730000019073486 0.796999990940094 15 508 68 0 425 504 0 12 509 68 0
 510 0 0 0 0 1000 1e-008 0 0 0 1 0 1 1 517 519 525 523 514 524 522 70 510 0 509
 0 0 4 1 20 0 511 511 1 T74 20 511 1 0 512 0 0 0 0 0 0 0 0 0 0 0 0 0 0 0 0 0 0 0
 81 1 512 7 6 518 0 0 547 0 513 83 3 513 0.734000027179718 0.7730000019073486 0.
796999990940094 19 514 1 0 509 516 0 515 V13 515 2 0 509 0 0 0 0 514 518 19 516
 3 0 509 0 514 517 S13 517 4 0 509 0 518 0 0 516 0 14 518 5 512 1e-008 545 0 520
 517 519 -0 0 545 0 515 50 519 6 0 518 546 0 0 +0.001565000000000001 0.002537 0
 1 -2.449293598294706e-016 0 0 0 1 15 520 8 0 521 518 0 17 521 0 520 529 541 522
 526 524 0 599 +18 522 9 0 534 0 527 523 ?509 29 523 10 0 522 528 0 0.0015650000
00000001 0.003417 0.0001 16 524 11 0 ?521 0 532 525 0 0 509 30 525 12 0 524 533
 0 0 +0.001565000000000001 0.002537 0.0001 2.449293598294706e-016 1 0 17 526 0 6
09 582 599 527 521 524 0 579 -18 527 13 0 541 522 530 528 ?509 29 528 14 0 527 5
31 523 0.001565000000000001 0.002537 0.0001 17 529 0 520 535 521 530 534 532 0 5
92 -18 530 15 0 540 527 536 531 ?509 29 531 16 0 530 537 528 0.00156500000000000
1 0.003417 0 16 532 17 0 ?534 524 538 533 0 0 509 30 533 18 0 532 539 525 0 +0.0
01565000000000001 0.003417 0 0 0 1 17 534 0 591 596 592 522 529 532 0 521 +17 53
5 0 520 541 529 536 540 538 0 586 -18 536 19 0 544 530 551 537 ?509 29 537 20 0
 536 552 531 0.001565000000000001 0.002537 0 16 538 21 0 ?540 532 542 539 0 0 50
9 30 539 22 0 538 543 533 0 +0.001565000000000001 0.002537 0 2.449293598294706e-
016 1 0 17 540 0 604 595 586 530 535 538 0 529 +17 541 0 520 521 535 527 544 542
 0 526 +16 542 23 0 ?541 538 553 543 0 0 509 30 543 24 0 542 554 539 0 +0.001565
000000000001 0.002537 0 0 0 1 17 544 0 578 583 579 536 541 542 0 535 -14 545 25
 547 1e-008 574 518 549 517 546 +0 0 574 518 515 50 546 26 0 545 575 519 0 +0.00
2245000000000001 0.002537 0 1 -2.449293598294706e-016 0 0 0 1 81 1 547 27 6 545
 0 0 576 512 548 83 3 548 0.734000027179718 0.7730000019073486 0.796999990940094
 15 549 28 0 550 545 0 17 550 0 549 558 570 551 555 553 0 563 -18 551 29 0 550 5
36 556 552 ?509 29 552 30 0 551 557 537 0.002245000000000001 0.002537 0 16 553 3
1 0 ?555 542 561 554 0 0 509 30 554 32 0 553 562 543 0 +0.002245000000000001 0.0
02537 0 0 0 1 17 555 0 578 579 583 556 550 553 0 570 +18 556 33 0 555 551 559 55
7 ?509 29 557 34 0 556 560 552 0.002245000000000001 0.002537 0.0001 17 558 0 549
 564 550 559 563 561 0 569 +18 559 35 0 558 556 565 560 ?509 29 560 36 0 559 566
 557 0.002245000000000001 0.003417 0 16 561 37 0 ?558 553 567 562 0 0 509 30 562
 38 0 561 568 554 0 +0.002245000000000001 0.002537 0 2.449293598294706e-016 1 0
 17 563 0 604 586 595 551 558 561 0 583 -17 564 0 549 570 558 565 569 567 0 573
 +18 565 39 0 564 559 0 566 ?509 29 566 40 0 565 0 560 0.002245000000000001 0.00
3417 0.0001 16 567 41 0 ?564 561 571 568 0 0 509 30 568 42 0 567 572 562 0 +0.00
2245000000000001 0.003417 0 0 0 1 17 569 0 591 592 596 559 564 567 0 595 -17 570
 0 549 550 564 556 573 571 0 582 -16 571 43 0 ?573 567 580 572 0 0 509 30 572 44
 0 571 581 568 0 +0.002245000000000001 0.002537 0.0001 2.449293598294706e-016 1
 0 17 573 0 609 599 582 565 570 571 0 596 +14 574 45 576 1e-008 587 545 578 517
 575 -0 0 587 545 515 50 575 46 0 574 588 546 0 +0.001565000000000001 0.002537 0
 2.449293598294706e-016 1 0 0 0 1 81 1 576 47 6 574 0 0 589 547 577 83 3 577 0.7
34000027179718 0.7730000019073486 0.796999990940094 15 578 48 0 555 574 0 17 579
 0 578 544 555 527 582 580 0 0 -16 580 49 0 ?582 571 584 581 0 0 509 30 581 50 0
 580 585 572 0 +0.001565000000000001 0.002537 0.0001 1 -2.449293598294706e-016 0
 17 582 0 609 573 526 556 579 580 0 0 +17 583 0 578 555 544 551 586 584 0 0 +16
 584 51 0 ?583 580 593 585 0 0 509 30 585 52 0 584 594 581 0 +0.0015650000000000
01 0.002537 0 1 -2.449293598294706e-016 0 17 586 0 604 540 563 536 583 584 0 0 -
14 587 53 589 1e-008 600 574 591 517 588 +0 0 600 574 515 50 588 54 0 587 601 57
5 0 +0.001565000000000001 0.003417 0 2.449293598294706e-016 1 0 0 0 1 81 1 589 5
5 6 587 0 0 602 576 590 83 3 590 0.734000027179718 0.7730000019073486 0.79699999
0940094 15 591 56 0 592 587 0 17 592 0 591 534 569 530 595 593 0 0 -16 593 57 0
 ?595 584 597 594 0 0 509 30 594 58 0 593 598 585 0 +0.001565000000000001 0.0034
17 0 1 -2.449293598294706e-016 0 17 595 0 604 563 540 559 592 593 0 0 +17 596 0
 591 569 534 565 599 597 0 0 +16 597 59 0 ?596 593 0 598 0 0 509 30 598 60 0 597
 0 594 0 +0.001565000000000001 0.003417 0.0001 1 -2.449293598294706e-016 0 17 59
9 0 609 526 573 522 596 597 0 0 -14 600 61 602 1e-008 605 587 604 517 601 -0 0 6
05 587 515 50 601 62 0 600 606 588 0 +0.001565000000000001 0.002537 0 0 0 1 1 -2
.449293598294706e-016 0 81 1 602 63 6 600 0 0 607 589 603 83 3 603 0.73400002717
9718 0.7730000019073486 0.796999990940094 15 604 64 0 595 600 0 14 605 65 607 1e
-008 0 600 609 517 606 +0 0 0 600 515 50 606 66 0 605 0 601 0 +0.001565000000000
001 0.002537 0.0001 0 0 1 1 -2.449293598294706e-016 0 81 1 607 67 6 605 0 0 0 60
2 608 83 3 608 0.734000027179718 0.7730000019073486 0.796999990940094 15 609 68
 0 526 605 0 12 610 68 0 611 0 0 0 0 1000 1e-008 0 0 0 1 0 1 1 618 620 626 624 6
15 625 623 70 611 0 610 0 0 4 1 20 0 612 612 1 T74 20 612 1 0 613 0 0 0 0 0 0 0
 0 0 0 0 0 0 0 0 0 0 0 0 81 1 613 7 6 619 0 0 648 0 614 83 3 614 0.7340000271797
18 0.7730000019073486 0.796999990940094 19 615 1 0 610 617 0 616 V13 616 2 0 610
 0 0 0 0 615 619 19 617 3 0 610 0 615 618 S13 618 4 0 610 0 619 0 0 617 0 14 619
 5 613 1e-008 646 0 621 618 620 -0 0 646 0 616 50 620 6 0 619 647 0 0 +0.0002950
000000000006 0.002537 0 1 -2.449293598294706e-016 0 0 0 1 15 621 8 0 622 619 0 1
7 622 0 621 630 642 623 627 625 0 635 +18 623 9 0 622 0 628 624 ?610 29 624 10 0
 623 629 0 0.0002950000000000008 0.003417 0.0001 16 625 11 0 ?622 0 633 626 0 0
 610 30 626 12 0 625 634 0 0 +0.0002950000000000006 0.002537 0.0001 2.4492935982
94706e-016 1 0 17 627 0 710 683 700 628 622 625 0 680 -18 628 13 0 642 623 631 6
29 ?610 29 629 14 0 628 632 624 0.0002950000000000006 0.002537 0.0001 17 630 0 6
21 636 622 631 635 633 0 693 -18 631 15 0 641 628 637 632 ?610 29 632 16 0 631 6
38 629 0.0002950000000000008 0.003417 0 16 633 17 0 ?635 625 639 634 0 0 610 30
 634 18 0 633 640 626 0 +0.0002950000000000008 0.003417 0 0 0 1 17 635 0 692 697
 693 623 630 633 0 700 +17 636 0 621 642 630 637 641 639 0 687 -18 637 19 0 645
 631 652 638 ?610 29 638 20 0 637 653 632 0.0002950000000000006 0.002537 0 16 63
9 21 0 ?641 633 643 640 0 0 610 30 640 22 0 639 644 634 0 +0.0002950000000000006
 0.002537 0 2.449293598294706e-016 1 0 17 641 0 705 696 687 631 636 639 0 630 +1
7 642 0 621 622 636 628 645 643 0 627 +16 643 23 0 ?642 639 654 644 0 0 610 30 6
44 24 0 643 655 640 0 +0.0002950000000000006 0.002537 0 0 0 1 17 645 0 679 684 6
80 637 642 643 0 636 -14 646 25 648 1e-008 675 619 650 618 647 +0 0 675 619 616
 50 647 26 0 646 676 620 0 +0.0009750000000000006 0.002537 0 1 -2.44929359829470
6e-016 0 0 0 1 81 1 648 27 6 646 0 0 677 613 649 83 3 649 0.734000027179718 0.77
30000019073486 0.796999990940094 15 650 28 0 651 646 0 17 651 0 650 659 671 652
 656 654 0 684 -18 652 29 0 664 637 657 653 ?610 29 653 30 0 652 658 638 0.00097
50000000000005 0.002537 0 16 654 31 0 ?656 643 662 655 0 0 610 30 655 32 0 654 6
63 644 0 +0.0009750000000000005 0.002537 0 0 0 1 17 656 0 679 680 684 657 651 65
4 0 683 +18 657 33 0 656 652 660 658 ?610 29 658 34 0 657 661 653 0.000975000000
0000005 0.002537 0.0001 17 659 0 650 665 651 660 664 662 0 696 +18 660 35 0 670
 657 666 661 ?610 29 661 36 0 660 667 658 0.0009750000000000007 0.003417 0 16 66
2 37 0 ?659 654 668 663 0 0 610 30 663 38 0 662 669 655 0 +0.0009750000000000005
 0.002537 0 2.449293598294706e-016 1 0 17 664 0 705 687 696 652 659 662 0 651 -1
7 665 0 650 671 659 666 670 668 0 674 +18 666 39 0 665 660 0 667 ?610 29 667 40
 0 666 0 661 0.0009750000000000007 0.003417 0.0001 16 668 41 0 ?665 662 672 669
 0 0 610 30 669 42 0 668 673 663 0 +0.0009750000000000007 0.003417 0 0 0 1 17 67
0 0 692 693 697 660 665 668 0 659 -17 671 0 650 651 665 657 674 672 0 0 -16 672
 43 0 ?674 668 681 673 0 0 610 30 673 44 0 672 682 669 0 +0.0009750000000000005
 0.002537 0.0001 2.449293598294706e-016 1 0 17 674 0 710 700 683 666 671 672 0 6
97 +14 675 45 677 1e-008 688 646 679 618 676 -0 0 688 646 616 50 676 46 0 675 68
9 647 0 +0.0002950000000000006 0.002537 0 2.449293598294706e-016 1 0 0 0 1 81 1
 677 47 6 675 0 0 690 648 678 83 3 678 0.734000027179718 0.7730000019073486 0.79
6999990940094 15 679 48 0 656 675 0 17 680 0 679 645 656 628 683 681 0 0 -16 681
 49 0 ?683 672 685 682 0 0 610 30 682 50 0 681 686 673 0 +0.0002950000000000006
 0.002537 0.0001 1 -2.449293598294706e-016 0 17 683 0 710 674 627 657 680 681 0
 671 +17 684 0 679 656 645 652 687 685 0 0 +16 685 51 0 ?684 681 694 686 0 0 610
 30 686 52 0 685 695 682 0 +0.0002950000000000006 0.002537 0 1 -2.44929359829470
6e-016 0 17 687 0 705 641 664 637 684 685 0 0 -14 688 53 690 1e-008 701 675 692
 618 689 +0 0 701 675 616 50 689 54 0 688 702 676 0 +0.0002950000000000008 0.003
417 0 2.449293598294706e-016 1 0 0 0 1 81 1 690 55 6 688 0 0 703 677 691 83 3 69
1 0.734000027179718 0.7730000019073486 0.796999990940094 15 692 56 0 693 688 0 1
7 693 0 692 635 670 631 696 694 0 0 -16 694 57 0 ?696 685 698 695 0 0 610 30 695
 58 0 694 699 686 0 +0.0002950000000000008 0.003417 0 1 -2.449293598294706e-016
 0 17 696 0 705 664 641 660 693 694 0 0 +17 697 0 692 670 635 666 700 698 0 0 +1
6 698 59 0 ?697 694 0 699 0 0 610 30 699 60 0 698 0 695 0 +0.0002950000000000008
 0.003417 0.0001 1 -2.449293598294706e-016 0 17 700 0 710 627 674 623 697 698 0
 0 -14 701 61 703 1e-008 706 688 705 618 702 -0 0 706 688 616 50 702 62 0 701 70
7 689 0 +0.0002950000000000006 0.002537 0 0 0 1 1 -2.449293598294706e-016 0 81 1
 703 63 6 701 0 0 708 690 704 83 3 704 0.734000027179718 0.7730000019073486 0.79
6999990940094 15 705 64 0 696 701 0 14 706 65 708 1e-008 0 701 710 618 707 +0 0
 0 701 616 50 707 66 0 706 0 702 0 +0.0002950000000000006 0.002537 0.0001 0 0 1
 1 -2.449293598294706e-016 0 81 1 708 67 6 706 0 0 0 703 709 83 3 709 0.73400002
7179718 0.7730000019073486 0.796999990940094 15 710 68 0 627 706 0 12 711 68 0 7
12 0 0 0 0 1000 1e-008 0 0 0 1 0 1 1 719 721 727 725 716 726 724 70 712 0 711 0
 0 4 1 20 0 713 713 1 T74 20 713 1 0 714 0 0 0 0 0 0 0 0 0 0 0 0 0 0 0 0 0 0 0 8
1 1 714 7 6 720 0 0 749 0 715 83 3 715 0.734000027179718 0.7730000019073486 0.79
6999990940094 19 716 1 0 711 718 0 717 V13 717 2 0 711 0 0 0 0 716 720 19 718 3
 0 711 0 716 719 S13 719 4 0 711 0 720 0 0 718 0 14 720 5 714 1e-008 747 0 722 7
19 721 -0 0 747 0 717 50 721 6 0 720 748 0 0 +-0.0009749999999999994 0.002537000
000000001 0 1 -2.449293598294706e-016 0 0 0 1 15 722 8 0 723 720 0 17 723 0 722
 731 743 724 728 726 0 801 +18 724 9 0 736 0 729 725 ?711 29 725 10 0 724 730 0
 -0.0009749999999999992 0.003417000000000001 0.0001 16 726 11 0 ?723 0 734 727 0
 0 711 30 727 12 0 726 735 0 0 +-0.0009749999999999994 0.002537000000000001 0.00
01 2.449293598294706e-016 1 0 17 728 0 811 784 801 729 723 726 0 781 -18 729 13
 0 743 724 732 730 ?711 29 730 14 0 729 733 725 -0.0009749999999999994 0.0025370
00000000001 0.0001 17 731 0 722 737 723 732 736 734 0 794 -18 732 15 0 742 729 7
38 733 ?711 29 733 16 0 732 739 730 -0.0009749999999999992 0.003417000000000001
 0 16 734 17 0 ?736 726 740 735 0 0 711 30 735 18 0 734 741 727 0 +-0.0009749999
999999992 0.003417000000000001 0 0 0 1 17 736 0 793 798 794 724 731 734 0 723 +1
7 737 0 722 743 731 738 742 740 0 788 -18 738 19 0 746 732 753 739 ?711 29 739 2
0 0 738 754 733 -0.0009749999999999994 0.002537000000000001 0 16 740 21 0 ?742 7
34 744 741 0 0 711 30 741 22 0 740 745 735 0 +-0.0009749999999999994 0.002537000
000000001 0 2.449293598294706e-016 1 0 17 742 0 806 797 788 732 737 740 0 731 +1
7 743 0 722 723 737 729 746 744 0 728 +16 744 23 0 ?743 740 755 745 0 0 711 30 7
45 24 0 744 756 741 0 +-0.0009749999999999994 0.002537000000000001 0 0 0 1 17 74
6 0 780 785 781 738 743 744 0 737 -14 747 25 749 1e-008 776 720 751 719 748 +0 0
 776 720 717 50 748 26 0 747 777 721 0 +-0.0002949999999999994 0.002537 0 1 -2.4
49293598294706e-016 0 0 0 1 81 1 749 27 6 747 0 0 778 714 750 83 3 750 0.7340000
27179718 0.7730000019073486 0.796999990940094 15 751 28 0 752 747 0 17 752 0 751
 760 772 753 757 755 0 765 -18 753 29 0 752 738 758 754 ?711 29 754 30 0 753 759
 739 -0.0002949999999999994 0.002537 0 16 755 31 0 ?757 744 763 756 0 0 711 30 7
56 32 0 755 764 745 0 +-0.0002949999999999994 0.002537 0 0 0 1 17 757 0 780 781
 785 758 752 755 0 772 +18 758 33 0 757 753 761 759 ?711 29 759 34 0 758 762 754
 -0.0002949999999999994 0.002537 0.0001 17 760 0 751 766 752 761 765 763 0 771 +
18 761 35 0 760 758 767 762 ?711 29 762 36 0 761 768 759 -0.0002949999999999992
 0.003417 0 16 763 37 0 ?760 755 769 764 0 0 711 30 764 38 0 763 770 756 0 +-0.0
002949999999999994 0.002537 0 2.449293598294706e-016 1 0 17 765 0 806 788 797 75
3 760 763 0 785 -17 766 0 751 772 760 767 771 769 0 775 +18 767 39 0 766 761 0 7
68 ?711 29 768 40 0 767 0 762 -0.0002949999999999992 0.003417 0.0001 16 769 41 0
 ?766 763 773 770 0 0 711 30 770 42 0 769 774 764 0 +-0.0002949999999999992 0.00
3417 0 0 0 1 17 771 0 793 794 798 761 766 769 0 797 -17 772 0 751 752 766 758 77
5 773 0 784 -16 773 43 0 ?775 769 782 774 0 0 711 30 774 44 0 773 783 770 0 +-0.
0002949999999999994 0.002537 0.0001 2.449293598294706e-016 1 0 17 775 0 811 801
 784 767 772 773 0 798 +14 776 45 778 1e-008 789 747 780 719 777 -0 0 789 747 71
7 50 777 46 0 776 790 748 0 +-0.0009749999999999994 0.002537000000000001 0 2.449
293598294706e-016 1 0 0 0 1 81 1 778 47 6 776 0 0 791 749 779 83 3 779 0.7340000
27179718 0.7730000019073486 0.796999990940094 15 780 48 0 757 776 0 17 781 0 780
 746 757 729 784 782 0 0 -16 782 49 0 ?784 773 786 783 0 0 711 30 783 50 0 782 7
87 774 0 +-0.0009749999999999994 0.002537000000000001 0.0001 1 -2.44929359829470
6e-016 0 17 784 0 811 775 728 758 781 782 0 0 +17 785 0 780 757 746 753 788 786
 0 0 +16 786 51 0 ?785 782 795 787 0 0 711 30 787 52 0 786 796 783 0 +-0.0009749
999999999994 0.002537000000000001 0 1 -2.449293598294706e-016 0 17 788 0 806 742
 765 738 785 786 0 0 -14 789 53 791 1e-008 802 776 793 719 790 +0 0 802 776 717
 50 790 54 0 789 803 777 0 +-0.0009749999999999992 0.003417000000000001 0 2.4492
93598294706e-016 1 0 0 0 1 81 1 791 55 6 789 0 0 804 778 792 83 3 792 0.73400002
7179718 0.7730000019073486 0.796999990940094 15 793 56 0 794 789 0 17 794 0 793
 736 771 732 797 795 0 0 -16 795 57 0 ?797 786 799 796 0 0 711 30 796 58 0 795 8
00 787 0 +-0.0009749999999999992 0.003417000000000001 0 1 -2.449293598294706e-01
6 0 17 797 0 806 765 742 761 794 795 0 0 +17 798 0 793 771 736 767 801 799 0 0 +
16 799 59 0 ?798 795 0 800 0 0 711 30 800 60 0 799 0 796 0 +-0.00097499999999999
92 0.003417000000000001 0.0001 1 -2.449293598294706e-016 0 17 801 0 811 728 775
 724 798 799 0 0 -14 802 61 804 1e-008 807 789 806 719 803 -0 0 807 789 717 50 8
03 62 0 802 808 790 0 +-0.0009749999999999994 0.002537000000000001 0 0 0 1 1 -2.
449293598294706e-016 0 81 1 804 63 6 802 0 0 809 791 805 83 3 805 0.734000027179
718 0.7730000019073486 0.796999990940094 15 806 64 0 797 802 0 14 807 65 809 1e-
008 0 802 811 719 808 +0 0 0 802 717 50 808 66 0 807 0 803 0 +-0.000974999999999
9994 0.002537000000000001 0.0001 0 0 1 1 -2.449293598294706e-016 0 81 1 809 67 6
 807 0 0 0 804 810 83 3 810 0.734000027179718 0.7730000019073486 0.7969999909400
94 15 811 68 0 728 807 0 12 812 68 0 813 0 0 0 0 1000 1e-008 0 0 0 1 0 1 1 820 8
22 828 826 817 827 825 70 813 0 812 0 0 4 1 20 0 814 814 1 T74 20 814 1 0 815 0
 0 0 0 0 0 0 0 0 0 0 0 0 0 0 0 0 0 0 81 1 815 7 6 821 0 0 850 0 816 83 3 816 0.7
34000027179718 0.7730000019073486 0.796999990940094 19 817 1 0 812 819 0 818 V13
 818 2 0 812 0 0 0 0 817 821 19 819 3 0 812 0 817 820 S13 820 4 0 812 0 821 0 0
 819 0 14 821 5 815 1e-008 848 0 823 820 822 -0 0 848 0 818 50 822 6 0 821 849 0
 0 +-0.002245 0.002537000000000001 0 1 -2.449293598294706e-016 0 0 0 1 15 823 8
 0 824 821 0 17 824 0 823 832 844 825 829 827 0 902 +18 825 9 0 837 0 830 826 ?8
12 29 826 10 0 825 831 0 -0.002244999999999999 0.003417000000000001 0.0001 16 82
7 11 0 ?824 0 835 828 0 0 812 30 828 12 0 827 836 0 0 +-0.002245 0.0025370000000
00001 0.0001 2.449293598294706e-016 1 0 17 829 0 912 885 902 830 824 827 0 882 -
18 830 13 0 844 825 833 831 ?812 29 831 14 0 830 834 826 -0.002245 0.00253700000
0000001 0.0001 17 832 0 823 838 824 833 837 835 0 895 -18 833 15 0 843 830 839 8
34 ?812 29 834 16 0 833 840 831 -0.002244999999999999 0.003417000000000001 0 16
 835 17 0 ?837 827 841 836 0 0 812 30 836 18 0 835 842 828 0 +-0.002244999999999
999 0.003417000000000001 0 0 0 1 17 837 0 894 899 895 825 832 835 0 824 +17 838
 0 823 844 832 839 843 841 0 889 -18 839 19 0 847 833 854 840 ?812 29 840 20 0 8
39 855 834 -0.002245 0.002537000000000001 0 16 841 21 0 ?843 835 845 842 0 0 812
 30 842 22 0 841 846 836 0 +-0.002245 0.002537000000000001 0 2.449293598294706e-
016 1 0 17 843 0 907 898 889 833 838 841 0 832 +17 844 0 823 824 838 830 847 845
 0 829 +16 845 23 0 ?844 841 856 846 0 0 812 30 846 24 0 845 857 842 0 +-0.00224
5 0.002537000000000001 0 0 0 1 17 847 0 881 886 882 839 844 845 0 838 -14 848 25
 850 1e-008 877 821 852 820 849 +0 0 877 821 818 50 849 26 0 848 878 822 0 +-0.0
01564999999999999 0.002537000000000001 0 1 -2.449293598294706e-016 0 0 0 1 81 1
 850 27 6 848 0 0 879 815 851 83 3 851 0.734000027179718 0.7730000019073486 0.79
6999990940094 15 852 28 0 853 848 0 17 853 0 852 861 873 854 858 856 0 866 -18 8
54 29 0 853 839 859 855 ?812 29 855 30 0 854 860 840 -0.001564999999999999 0.002
537000000000001 0 16 856 31 0 ?858 845 864 857 0 0 812 30 857 32 0 856 865 846 0
 +-0.001564999999999999 0.002537000000000001 0 0 0 1 17 858 0 881 882 886 859 85
3 856 0 873 +18 859 33 0 858 854 862 860 ?812 29 860 34 0 859 863 855 -0.0015649
99999999999 0.002537000000000001 0.0001 17 861 0 852 867 853 862 866 864 0 898 +
18 862 35 0 872 859 868 863 ?812 29 863 36 0 862 869 860 -0.001564999999999999 0
.003417000000000001 0 16 864 37 0 ?861 856 870 865 0 0 812 30 865 38 0 864 871 8
57 0 +-0.001564999999999999 0.002537000000000001 0 2.449293598294706e-016 1 0 17
 866 0 907 889 898 854 861 864 0 886 -17 867 0 852 873 861 868 872 870 0 876 +18
 868 39 0 867 862 0 869 ?812 29 869 40 0 868 0 863 -0.001564999999999999 0.00341
7000000000001 0.0001 16 870 41 0 ?867 864 874 871 0 0 812 30 871 42 0 870 875 86
5 0 +-0.001564999999999999 0.003417000000000001 0 0 0 1 17 872 0 894 895 899 862
 867 870 0 861 -17 873 0 852 853 867 859 876 874 0 885 -16 874 43 0 ?876 870 883
 875 0 0 812 30 875 44 0 874 884 871 0 +-0.001564999999999999 0.0025370000000000
01 0.0001 2.449293598294706e-016 1 0 17 876 0 912 902 885 868 873 874 0 899 +14
 877 45 879 1e-008 890 848 881 820 878 -0 0 890 848 818 50 878 46 0 877 891 849
 0 +-0.002245 0.002537000000000001 0 2.449293598294706e-016 1 0 0 0 1 81 1 879 4
7 6 877 0 0 892 850 880 83 3 880 0.734000027179718 0.7730000019073486 0.79699999
0940094 15 881 48 0 858 877 0 17 882 0 881 847 858 830 885 883 0 0 -16 883 49 0
 ?885 874 887 884 0 0 812 30 884 50 0 883 888 875 0 +-0.002245 0.002537000000000
001 0.0001 1 -2.449293598294706e-016 0 17 885 0 912 876 829 859 882 883 0 0 +17
 886 0 881 858 847 854 889 887 0 0 +16 887 51 0 ?886 883 896 888 0 0 812 30 888
 52 0 887 897 884 0 +-0.002245 0.002537000000000001 0 1 -2.449293598294706e-016
 0 17 889 0 907 843 866 839 886 887 0 0 -14 890 53 892 1e-008 903 877 894 820 89
1 +0 0 903 877 818 50 891 54 0 890 904 878 0 +-0.002244999999999999 0.0034170000
00000001 0 2.449293598294706e-016 1 0 0 0 1 81 1 892 55 6 890 0 0 905 879 893 83
 3 893 0.734000027179718 0.7730000019073486 0.796999990940094 15 894 56 0 895 89
0 0 17 895 0 894 837 872 833 898 896 0 0 -16 896 57 0 ?898 887 900 897 0 0 812 3
0 897 58 0 896 901 888 0 +-0.002244999999999999 0.003417000000000001 0 1 -2.4492
93598294706e-016 0 17 898 0 907 866 843 862 895 896 0 0 +17 899 0 894 872 837 86
8 902 900 0 0 +16 900 59 0 ?899 896 0 901 0 0 812 30 901 60 0 900 0 897 0 +-0.00
2244999999999999 0.003417000000000001 0.0001 1 -2.449293598294706e-016 0 17 902
 0 912 829 876 825 899 900 0 0 -14 903 61 905 1e-008 908 890 907 820 904 -0 0 90
8 890 818 50 904 62 0 903 909 891 0 +-0.002245 0.002537000000000001 0 0 0 1 1 -2
.449293598294706e-016 0 81 1 905 63 6 903 0 0 910 892 906 83 3 906 0.73400002717
9718 0.7730000019073486 0.796999990940094 15 907 64 0 898 903 0 14 908 65 910 1e
-008 0 903 912 820 909 +0 0 0 903 818 50 909 66 0 908 0 904 0 +-0.002245 0.00253
7000000000001 0.0001 0 0 1 1 -2.449293598294706e-016 0 81 1 910 67 6 908 0 0 0 9
05 911 83 3 911 0.734000027179718 0.7730000019073486 0.796999990940094 15 912 68
 0 829 908 0 12 913 68 0 914 0 0 0 0 1000 1e-008 0 0 0 1 0 1 1 921 923 929 927 9
18 928 926 70 914 0 913 0 0 4 1 20 0 915 915 1 T74 20 915 1 0 916 0 0 0 0 0 0 0
 0 0 0 0 0 0 0 0 0 0 0 0 81 1 916 7 6 922 0 0 951 0 917 83 3 917 0.7340000271797
18 0.7730000019073486 0.796999990940094 19 918 1 0 913 920 0 919 V13 919 2 0 913
 0 0 0 0 918 922 19 920 3 0 913 0 918 921 S13 921 4 0 913 0 922 0 0 920 0 14 922
 5 916 1e-008 949 0 924 921 923 -0 0 949 0 919 50 923 6 0 922 950 0 0 +-0.001975
 -0.0009229999999999997 0 1 -2.449293598294706e-016 0 0 0 1 15 924 8 0 925 922 0
 17 925 0 924 933 945 926 930 928 0 938 +18 926 9 0 925 0 931 927 ?913 29 927 10
 0 926 932 0 -0.001975 0.002077 0.0001 16 928 11 0 ?925 0 936 929 0 0 913 30 929
 12 0 928 937 0 0 +-0.001975 -0.0009229999999999996 0.0001 2.449293598294706e-01
6 1 0 17 930 0 1013 986 1003 931 925 928 0 0 -18 931 13 0 945 926 934 932 ?913 2
9 932 14 0 931 935 927 -0.001975 -0.0009229999999999996 0.0001 17 933 0 924 939
 925 934 938 936 0 0 -18 934 15 0 944 931 940 935 ?913 29 935 16 0 934 941 932 -
0.001975 0.002077 0 16 936 17 0 ?938 928 942 937 0 0 913 30 937 18 0 936 943 929
 0 +-0.001975 0.002077 0 0 0 1 17 938 0 995 1000 996 926 933 936 0 1003 +17 939
 0 924 945 933 940 944 942 0 990 -18 940 19 0 948 934 955 941 ?913 29 941 20 0 9
40 956 935 -0.001975 -0.0009229999999999996 0 16 942 21 0 ?944 936 946 943 0 0 9
13 30 943 22 0 942 947 937 0 +-0.001975 -0.0009229999999999996 0 2.4492935982947
06e-016 1 0 17 944 0 1008 999 990 934 939 942 0 996 +17 945 0 924 925 939 931 94
8 946 0 983 +16 946 23 0 ?945 942 957 947 0 0 913 30 947 24 0 946 958 943 0 +-0.
001975 -0.0009229999999999996 0 0 0 1 17 948 0 982 987 983 940 945 946 0 939 -14
 949 25 951 1e-008 978 922 953 921 950 +0 0 978 922 919 50 950 26 0 949 979 923
 0 +0.001975 -0.0009230000000000005 0 1 -2.449293598294706e-016 0 0 0 1 81 1 951
 27 6 949 0 0 980 916 952 83 3 952 0.734000027179718 0.7730000019073486 0.796999
990940094 15 953 28 0 954 949 0 17 954 0 953 962 974 955 959 957 0 967 -18 955 2
9 0 987 940 960 956 ?913 29 956 30 0 955 961 941 0.001975 -0.0009230000000000005
 0 16 957 31 0 ?959 946 965 958 0 0 913 30 958 32 0 957 966 947 0 +0.001975 -0.0
009230000000000005 0 0 0 1 17 959 0 982 983 987 960 954 957 0 0 +18 960 33 0 986
 955 963 961 ?913 29 961 34 0 960 964 956 0.001975 -0.0009230000000000005 0.0001
 17 962 0 953 968 954 963 967 965 0 0 +18 963 35 0 973 960 969 964 ?913 29 964 3
6 0 963 970 961 0.001975000000000001 0.002076999999999999 0 16 965 37 0 ?962 957
 971 966 0 0 913 30 966 38 0 965 972 958 0 +0.001975 -0.0009230000000000005 0 2.
449293598294706e-016 1 0 17 967 0 1008 990 999 955 962 965 0 0 -17 968 0 953 974
 962 969 973 971 0 977 +18 969 39 0 968 963 0 970 ?913 29 970 40 0 969 0 964 0.0
01975000000000001 0.002076999999999999 0.0001 16 971 41 0 ?968 965 975 972 0 0 9
13 30 972 42 0 971 976 966 0 +0.001975000000000001 0.002076999999999999 0 0 0 1
 17 973 0 995 996 1000 963 968 971 0 999 -17 974 0 953 954 968 960 977 975 0 959
 -16 975 43 0 ?977 971 984 976 0 0 913 30 976 44 0 975 985 972 0 +0.001975 -0.00
09230000000000005 0.0001 2.449293598294706e-016 1 0 17 977 0 1013 1003 986 969 9
74 975 0 1000 +14 978 45 980 1e-008 991 949 982 921 979 -0 0 991 949 919 50 979
 46 0 978 992 950 0 +-0.001975 -0.0009229999999999997 0 2.449293598294706e-016 1
 0 0 0 1 81 1 980 47 6 978 0 0 993 951 981 83 3 981 0.734000027179718 0.77300000
19073486 0.796999990940094 15 982 48 0 959 978 0 17 983 0 982 948 959 931 986 98
4 0 930 -16 984 49 0 ?986 975 988 985 0 0 913 30 985 50 0 984 989 976 0 +-0.0019
75 -0.0009229999999999996 0.0001 1 -2.449293598294706e-016 0 17 986 0 1013 977 9
30 960 983 984 0 974 +17 987 0 982 959 948 955 990 988 0 954 +16 988 51 0 ?987 9
84 997 989 0 0 913 30 989 52 0 988 998 985 0 +-0.001975 -0.0009229999999999996 0
 1 -2.449293598294706e-016 0 17 990 0 1008 944 967 940 987 988 0 0 -14 991 53 99
3 1e-008 1004 978 995 921 992 +0 0 1004 978 919 50 992 54 0 991 1005 979 0 +-0.0
01975 0.002077 0 2.449293598294706e-016 1 0 0 0 1 81 1 993 55 6 991 0 0 1006 980
 994 83 3 994 0.734000027179718 0.7730000019073486 0.796999990940094 15 995 56 0
 996 991 0 17 996 0 995 938 973 934 999 997 0 933 -16 997 57 0 ?999 988 1001 998
 0 0 913 30 998 58 0 997 1002 989 0 +-0.001975 0.002077 0 1 -2.449293598294706e-
016 0 17 999 0 1008 967 944 963 996 997 0 962 +17 1000 0 995 973 938 969 1003 10
01 0 0 +16 1001 59 0 ?1000 997 0 1002 0 0 913 30 1002 60 0 1001 0 998 0 +-0.0019
75 0.002077 0.0001 1 -2.449293598294706e-016 0 17 1003 0 1013 930 977 926 1000 1
001 0 0 -14 1004 61 1006 1e-008 1009 991 1008 921 1005 -0 0 1009 991 919 50 1005
 62 0 1004 1010 992 0 +-0.001975 -0.0009229999999999997 0 0 0 1 1 -2.44929359829
4706e-016 0 81 1 1006 63 6 1004 0 0 1011 993 1007 83 3 1007 0.734000027179718 0.
7730000019073486 0.796999990940094 15 1008 64 0 999 1004 0 14 1009 65 1011 1e-00
8 0 1004 1013 921 1010 +0 0 0 1004 919 50 1010 66 0 1009 0 1005 0 +-0.001975 -0.
0009229999999999997 0.0001 0 0 1 1 -2.449293598294706e-016 0 81 1 1011 67 6 1009
 0 0 0 1006 1012 83 3 1012 0.734000027179718 0.7730000019073486 0.79699999094009
4 15 1013 68 0 930 1009 0 1 0 
