**ABCDEFGHIJKLMNOPQRSTUVWXYZabcdefghijklmnopqrstuvwxyz**************************
**PARASOLID !"#$%&'()*+,-./:;<=>?@[\]^_`{|}~0123456789**************************
**PART1;
MC=AMD64;
MC_MODEL=AMD64 Family 25 Model 80 Stepping 0, AuthenticAMD;
MC_ID=unknown;
OS=Windows_NT;
OS_RELEASE=unknown;
FRU=CAD Exchanger 3.10.1 (cadexchanger.com);
APPL=unknown;
SITE=unknown;
USER=unknown;
FORMAT=text;
GUISE=transmit;
KEY=FP-ERJ1TR-MFG_CMP-05422-000060-1;
FILE=FP-ERJ1TR-MFG_CMP-05422-000060-1.x_t;
DATE=Thu Jun 30 21:04:03 2022;
**PART2;
SCH=SCH_1200000_12103;
USFLD_SIZE=0;
**PART3;
**END_OF_HEADER*****************************************************************
T51 : TRANSMIT FILE created by modeller version 120000017 SCH_1200000_121030 74
 4 1 4 0 2 273 542 727 12 2 180 0 3 0 0 0 0 1000 1e-008 0 0 0 1 0 1 1 12 14 20 1
8 9 19 17 70 3 0 2 0 0 4 1 20 0 4 4 1 T74 20 4 1 0 5 0 0 0 0 0 0 0 0 0 0 0 0 0 0
 0 0 0 0 0 81 1 5 7 6 13 0 0 66 0 8 80 1 6 0 7 8001 0 0 0 0 3 5 0 0 0 FFFFTFTFFF
FFFF2 79 15 7 SDL/TYSA_COLOUR83 3 8 1 1 1 19 9 1 0 2 11 0 10 V13 10 2 0 2 0 0 0
 0 9 13 19 11 3 0 2 0 9 12 S13 12 4 0 2 0 13 0 0 11 0 14 13 5 5 1e-008 64 0 15 1
2 14 +0 0 64 0 10 50 14 6 0 13 65 0 0 +-0.0032 0.001600000000000001 0 2.44929359
8294706e-016 1 0 1 -2.449293598294706e-016 0 15 15 8 0 16 13 0 17 16 0 15 24 60
 17 21 19 0 29 -18 17 9 0 16 0 22 18 ?2 29 18 10 0 17 23 0 0.002600000000000001
 0.001599999999999999 0 16 19 11 0 ?21 0 27 20 0 0 2 30 20 12 0 19 28 0 0 +-0.00
32 0.001600000000000001 0 1 -2.449293598294706e-016 0 17 21 0 68 75 69 22 16 19
 0 60 +18 22 13 0 21 17 25 23 ?2 29 23 14 0 22 26 18 0.003200000000000001 0.0015
99999999999999 0 17 24 0 15 30 16 25 29 27 0 35 -18 25 15 0 24 22 31 26 ?2 29 26
 16 0 25 32 23 0.002600000000000001 0.001599999999999999 5e-005 16 27 17 0 ?29 1
9 33 28 0 0 2 30 28 18 0 27 34 20 0 +0.002600000000000001 0.001599999999999999 0
 0 0 -1 17 29 0 227 72 218 17 24 27 0 69 +17 30 0 15 36 24 31 35 33 0 41 -18 31
 19 0 30 25 37 32 ?2 29 32 20 0 31 38 26 0.003150000000000001 0.0015999999999999
99 5e-005 16 33 21 0 ?35 27 39 34 0 0 2 30 34 22 0 33 40 28 0 +-2.49999999999996
1e-005 0.0016 5e-005 -1 2.449293598294706e-016 0 17 35 0 212 213 203 25 30 33 0
 218 +17 36 0 15 42 30 37 41 39 0 47 -18 37 23 0 36 31 43 38 ?2 29 38 24 0 37 44
 32 0.003150000000000001 0.001599999999999999 0.0005600000000000001 16 39 25 0 ?
41 33 45 40 0 0 2 30 40 26 0 39 46 34 0 +0.003150000000000001 0.0015999999999999
99 0.00028 0 0 -1 17 41 0 197 198 164 31 36 39 0 203 +17 42 0 15 48 36 43 47 45
 0 53 -18 43 27 0 42 37 49 44 ?2 29 44 28 0 43 50 38 0.0029 0.001599999999999999
 0.0005600000000000001 16 45 29 0 ?47 39 51 46 0 0 2 30 46 30 0 45 52 40 0 +-0.0
03174999999999999 0.001600000000000001 0.0005600000000000001 1 -2.44929359829470
6e-016 0 17 47 0 158 159 149 37 42 45 0 164 +17 48 0 15 54 42 49 53 51 0 59 -18
 49 31 0 48 43 55 50 ?2 29 50 32 0 49 56 44 0.0029 0.001599999999999999 0.00061
 16 51 33 0 ?53 45 57 52 0 0 2 30 52 34 0 51 58 46 0 +0.0029 0.00159999999999999
9 0.000305 0 0 -1 17 53 0 143 144 138 43 48 51 0 149 +17 54 0 15 60 48 55 59 57
 0 63 +18 55 35 0 54 49 73 56 ?2 29 56 36 0 55 74 50 0.003200000000000001 0.0015
99999999999999 0.00061 16 57 37 0 ?54 51 61 58 0 0 2 30 58 38 0 57 62 52 0 +-0.0
032 0.001600000000000001 0.00061 1 -2.449293598294706e-016 0 17 59 0 104 135 95
 49 54 57 0 138 -17 60 0 15 16 54 22 63 61 0 80 -16 61 39 0 ?63 57 70 62 0 0 2 3
0 62 40 0 61 71 58 0 +0.003200000000000001 0.001599999999999999 0 0 0 1 17 63 0
 89 90 80 55 60 61 0 95 +14 64 41 66 1e-008 85 13 68 12 65 +0 0 85 13 10 50 65 4
2 0 64 86 14 0 +0 0 0 -0 0 -1 -1 2.449293598294706e-016 0 81 1 66 43 6 64 0 0 87
 5 67 83 3 67 1 1 1 15 68 44 0 69 64 0 17 69 0 68 21 81 17 72 70 0 0 -16 70 45 0
 ?72 61 78 71 0 0 2 30 71 46 0 70 79 62 0 +0.002600000000000001 0.00228 0 -2.449
293598294706e-016 -1 0 17 72 0 227 228 29 73 69 70 0 81 +18 73 47 0 72 55 76 74
 ?2 29 74 48 0 73 77 56 0.002599999999999999 -0.001600000000000001 0 17 75 0 68
 81 21 76 80 78 0 84 +18 76 49 0 75 73 91 77 ?2 29 77 50 0 76 92 74 0.0032 -0.00
1600000000000001 0 16 78 51 0 ?75 70 82 79 0 0 2 30 79 52 0 78 83 71 0 +0.003200
000000000001 0.001599999999999999 0 -2.449293598294706e-016 -1 0 17 80 0 89 63 9
6 22 75 78 0 0 -17 81 0 68 69 75 73 84 82 0 231 +16 82 53 0 ?81 78 93 83 0 0 2 3
0 83 54 0 82 94 79 0 +0.0032 -0.001600000000000001 0 -1 2.449293598294706e-016 0
 17 84 0 236 99 231 76 81 82 0 96 -14 85 55 87 1e-008 100 64 89 12 86 +0 0 100 6
4 10 50 86 56 0 85 101 65 0 +0.003200000000000001 0.001599999999999999 0 1 -2.44
9293598294706e-016 0 -2.449293598294706e-016 -1 0 81 1 87 57 6 85 0 0 102 66 88
 83 3 88 1 1 1 15 89 58 0 63 85 0 17 90 0 89 96 63 91 95 93 0 99 +18 91 59 0 90
 76 106 92 ?2 29 92 60 0 91 107 77 0.0032 -0.001600000000000001 0.00061 16 93 61
 0 ?90 82 97 94 0 0 2 30 94 62 0 93 98 83 0 +0.003200000000000001 0.001599999999
999999 0.00061 -2.449293598294706e-016 -1 0 17 95 0 104 59 131 55 90 93 0 0 -17
 96 0 89 80 90 76 99 97 0 0 -16 97 63 0 ?99 93 108 98 0 0 2 30 98 64 0 97 109 94
 0 +0.0032 -0.001600000000000001 0 0 0 1 17 99 0 236 134 84 91 96 97 0 131 +14 1
00 65 102 1e-008 139 85 104 12 101 -0 0 139 85 10 50 101 66 0 100 140 86 0 +0 0
 0.00061 -0 0 -1 -1 2.449293598294706e-016 0 81 1 102 67 6 100 0 0 141 87 103 83
 3 103 1 1 1 15 104 68 0 105 100 0 17 105 0 104 113 135 106 110 108 0 246 -18 10
6 69 0 105 91 111 107 ?2 29 107 70 0 106 112 92 0.00255 0.001181213444262999 0.0
0061 16 108 71 0 ?110 97 116 109 0 0 2 30 109 72 0 108 117 98 0 +0.00255 0.00118
1213444262999 0.00061 1 -2.449293598294706e-016 0 17 110 0 245 153 246 111 105 1
08 0 150 +18 111 73 0 110 106 114 112 ?2 29 112 74 0 111 115 107 0.0029 0.001181
213444262999 0.00061 17 113 0 104 119 105 114 118 116 0 0 -18 114 75 0 255 111 1
20 115 ?2 29 115 76 0 114 121 112 0.002549999999999999 -0.001181213444263001 0.0
0061 16 116 77 0 ?118 108 122 117 0 0 2 30 117 78 0 116 123 109 0 +0.00254999999
9999999 -0.001181213444263001 0.00061 2.449293598294706e-016 1 0 17 118 0 254 24
9 255 106 113 116 0 0 +17 119 0 104 125 113 120 124 122 0 0 -18 120 79 0 130 114
 126 121 ?2 29 121 80 0 120 127 115 0.002899999999999999 -0.001181213444263001 0
.00061 16 122 81 0 ?124 116 128 123 0 0 2 30 123 82 0 122 129 117 0 +0.002899999
999999999 -0.001181213444263001 0.00061 -1 2.449293598294706e-016 0 17 124 0 263
 258 264 114 119 122 0 113 +17 125 0 104 131 119 126 130 128 0 240 -18 126 83 0
 134 120 145 127 ?2 29 127 84 0 126 146 121 0.002899999999999999 -0.001600000000
000001 0.00061 16 128 85 0 ?130 122 132 129 0 0 2 30 129 86 0 128 133 123 0 +0.0
02899999999999999 -0.001960000000000001 0.00061 2.449293598294706e-016 1 0 17 13
0 0 272 267 240 120 125 128 0 264 +17 131 0 104 95 125 91 134 132 0 0 -16 132 87
 0 ?134 128 136 133 0 0 2 30 133 88 0 132 137 129 0 +0.0032 -0.00160000000000000
1 0.00061 -1 2.449293598294706e-016 0 17 134 0 236 237 99 126 131 132 0 125 +17
 135 0 104 105 59 111 138 136 0 0 -16 136 89 0 ?138 132 147 137 0 0 2 30 137 90
 0 136 148 133 0 +0.0029 0.001181213444262999 0.00061 2.449293598294706e-016 1 0
 17 138 0 143 53 150 49 135 136 0 0 +14 139 91 141 1e-008 154 100 143 12 140 -0
 0 154 100 10 50 140 92 0 139 155 101 0 +0.0029 0.001181213444262999 0.00061 1 -
2.449293598294706e-016 0 2.449293598294706e-016 1 0 81 1 141 93 6 139 0 0 156 10
2 142 83 3 142 1 1 1 15 143 94 0 53 139 0 17 144 0 143 150 53 145 149 147 0 189
 -18 145 95 0 153 126 160 146 ?2 29 146 96 0 145 161 127 0.0029 0.00118121344426
2999 0.0005600000000000001 16 147 97 0 ?149 136 151 148 0 0 2 30 148 98 0 147 15
2 137 0 +0.002900000000000001 0.004790606722130999 0.0005600000000000001 2.44929
3598294706e-016 1 -2.22044604925e-016 17 149 0 158 47 189 43 144 147 0 0 +17 150
 0 143 138 144 111 153 151 0 135 -16 151 99 0 ?153 147 162 152 0 0 2 30 152 100
 0 151 163 148 0 +0.0029 0.001181213444262999 0.00061 -0 0 -1 17 153 0 245 192 1
10 145 150 151 0 144 +14 154 101 156 1e-008 193 139 158 12 155 -0 0 193 139 10 5
0 155 102 0 154 194 140 0 +-0.003149999999999998 0.008400000000000001 0.00056000
00000000001 5.438524293786798e-032 2.22044604925e-016 1 1 -2.449293598294706e-01
6 0 81 1 156 103 6 154 0 0 195 141 157 83 3 157 1 1 1 15 158 104 0 159 154 0 17
 159 0 158 165 47 160 164 162 0 0 +18 160 105 0 204 145 166 161 ?2 29 161 106 0
 160 167 146 0.00315 -0.001600000000000001 0.0005600000000000001 16 162 107 0 ?1
59 151 168 163 0 0 2 30 163 108 0 162 169 152 0 +0.003150000000000002 0.00840000
0000000001 0.0005600000000000001 -2.449293598294706e-016 -1 2.22044604925e-016 1
7 164 0 197 41 204 37 159 162 0 0 -17 165 0 158 171 159 166 170 168 0 237 +18 16
6 109 0 176 160 172 167 ?2 29 167 110 0 166 173 161 0.002899999999999999 -0.0016
00000000000001 0.0005600000000000001 16 168 111 0 ?165 162 174 169 0 0 2 30 169
 112 0 168 175 163 0 +2.499999999999961e-005 -0.0016 0.0005600000000000001 -1 2.
449293598294706e-016 0 17 170 0 236 207 237 160 165 168 0 159 -17 171 0 158 177
 165 172 176 174 0 267 +18 172 113 0 182 166 178 173 ?2 29 173 114 0 172 179 167
 0.002899999999999999 -0.001181213444263001 0.0005600000000000001 16 174 115 0 ?
171 168 180 175 0 0 2 30 175 116 0 174 181 169 0 +0.002900000000000001 0.0032199
99999999999 0.0005600000000000001 2.449293598294706e-016 1 -2.22044604925e-016 1
7 176 0 272 240 267 166 171 174 0 165 -17 177 0 158 183 171 178 182 180 0 258 +1
8 178 117 0 188 172 184 179 ?2 29 179 118 0 178 185 173 0.002549999999999999 -0.
001181213444263001 0.0005600000000000001 16 180 119 0 ?177 174 186 181 0 0 2 30
 181 120 0 180 187 175 0 +-0.0001250000000000003 -0.001181213444263 0.0005600000
000000001 -1 2.449293598294706e-016 0 17 182 0 263 264 258 172 177 180 0 171 -17
 183 0 158 189 177 184 188 186 0 192 +18 184 121 0 183 178 199 185 ?2 29 185 122
 0 184 200 179 0.00255 0.001181213444262999 0.0005600000000000001 16 186 123 0 ?
183 180 190 187 0 0 2 30 187 124 0 186 191 181 0 +0.002550000000000001 0.0036093
93277869 0.0005600000000000001 2.449293598294706e-016 1 -2.22044604925e-016 17 1
88 0 254 255 249 178 183 186 0 177 -17 189 0 158 149 183 145 192 190 0 0 +16 190
 125 0 ?189 186 201 191 0 0 2 30 191 126 0 190 202 187 0 +-0.0002999999999999997
 0.001181213444263 0.0005600000000000001 1 -2.449293598294706e-016 0 17 192 0 24
5 246 153 184 189 190 0 249 -14 193 127 195 1e-008 208 154 197 12 194 -0 0 208 1
54 10 50 194 128 0 193 209 155 0 +0.003150000000000002 0.008400000000000001 0.00
05600000000000001 1 -2.449293598294706e-016 0 -5.438524293786798e-032 -2.2204460
4925e-016 -1 81 1 195 129 6 193 0 0 210 156 196 83 3 196 1 1 1 15 197 130 0 198
 193 0 17 198 0 197 204 41 199 203 201 0 219 +18 199 131 0 207 184 214 200 ?2 29
 200 132 0 199 215 185 0.00315 -0.001600000000000001 5e-005 16 201 133 0 ?198 19
0 205 202 0 0 2 30 202 134 0 201 206 191 0 +0.003150000000000002 0.0084000000000
00001 5e-005 -2.449293598294706e-016 -1 2.22044604925e-016 17 203 0 212 35 219 3
1 198 201 0 0 -17 204 0 197 164 198 160 207 205 0 170 +16 205 135 0 ?204 201 216
 206 0 0 2 30 206 136 0 205 217 202 0 +0.00315 -0.001600000000000001 0.00028 0 0
 1 17 207 0 236 222 170 199 204 205 0 198 -14 208 137 210 1e-008 223 193 212 12
 209 -0 0 223 193 10 50 209 138 0 208 224 194 0 +0.003150000000000002 0.00840000
0000000001 5e-005 -5.438524293786798e-032 -2.22044604925e-016 -1 -1 2.4492935982
94706e-016 0 81 1 210 139 6 208 0 0 225 195 211 83 3 211 1 1 1 15 212 140 0 213
 208 0 17 213 0 212 219 35 214 218 216 0 228 +18 214 141 0 222 199 0 215 ?2 29 2
15 142 0 214 0 200 0.002599999999999999 -0.001600000000000001 5e-005 16 216 143
 0 ?213 205 220 217 0 0 2 30 217 144 0 216 221 206 0 +0.002600000000000002 0.005
339999999999999 5e-005 -2.449293598294706e-016 -1 2.22044604925e-016 17 218 0 22
7 29 228 25 213 216 0 0 -17 219 0 212 203 213 199 222 220 0 0 +16 220 145 0 ?219
 216 229 221 0 0 2 30 221 146 0 220 230 217 0 +0.003174999999999999 -0.001600000
000000001 5e-005 1 -2.449293598294706e-016 0 17 222 0 236 231 207 214 219 220 0
 213 -14 223 147 225 1e-008 232 208 227 12 224 -0 0 232 208 10 50 224 148 0 223
 233 209 0 +0.002600000000000001 0.00228 0 1 -2.449293598294706e-016 0 -2.449293
598294706e-016 -1 0 81 1 225 149 6 223 0 0 234 210 226 83 3 226 1 1 1 15 227 150
 0 228 223 0 17 228 0 227 218 72 214 231 229 0 0 +16 229 151 0 ?228 220 238 230
 0 0 2 30 230 152 0 229 239 221 0 +0.002599999999999999 -0.001600000000000001 0
 0 0 1 17 231 0 236 84 222 73 228 229 0 0 -14 232 153 234 1e-008 241 223 236 12
 233 +0 0 241 223 10 50 233 154 0 232 242 224 0 +0.0032 -0.001600000000000001 0
 -2.449293598294706e-016 -1 0 -1 2.449293598294706e-016 0 81 1 234 155 6 232 0 0
 243 225 235 83 3 235 1 1 1 15 236 156 0 84 232 0 17 237 0 236 170 134 166 240 2
38 0 0 -16 238 157 0 ?240 229 247 239 0 0 2 30 239 158 0 238 248 230 0 +0.002899
999999999999 -0.001600000000000001 0.000305 0 0 1 17 240 0 272 130 176 126 237 2
38 0 0 +14 241 159 243 1e-008 250 232 245 12 242 -0 0 250 232 10 50 242 160 0 24
1 251 233 0 +0.00255 0.001181213444262999 0.00061 -2.449293598294706e-016 -1 0 1
 -2.449293598294706e-016 0 81 1 243 161 6 241 0 0 252 234 244 83 3 244 1 1 1 15
 245 162 0 153 241 0 17 246 0 245 110 192 106 249 247 0 118 -16 247 163 0 ?249 2
38 256 248 0 0 2 30 248 164 0 247 257 239 0 +0.00255 0.001181213444262999 0.0006
1 -0 0 -1 17 249 0 254 188 118 184 246 247 0 0 +14 250 165 252 1e-008 259 241 25
4 12 251 -0 0 259 241 10 50 251 166 0 250 260 242 0 +0.002549999999999999 -0.001
181213444263001 0.00061 1 -2.449293598294706e-016 0 2.449293598294706e-016 1 0 8
1 1 252 167 6 250 0 0 261 243 253 83 3 253 1 1 1 15 254 168 0 249 250 0 17 255 0
 254 118 188 114 258 256 0 124 -16 256 169 0 ?258 247 265 257 0 0 2 30 257 170 0
 256 266 248 0 +0.002549999999999999 -0.001181213444263001 0.00061 -0 0 -1 17 25
8 0 263 182 124 178 255 256 0 0 +14 259 171 261 1e-008 268 250 263 12 260 -0 0 2
68 250 10 50 260 172 0 259 269 251 0 +0.002899999999999999 -0.001181213444263001
 0.00061 2.449293598294706e-016 1 0 -1 2.449293598294706e-016 0 81 1 261 173 6 2
59 0 0 270 252 262 83 3 262 1 1 1 15 263 174 0 258 259 0 17 264 0 263 124 182 12
0 267 265 0 119 -16 265 175 0 ?267 256 0 266 0 0 2 30 266 176 0 265 0 257 0 +0.0
02899999999999999 -0.001181213444263001 0.00061 -0 0 -1 17 267 0 272 176 130 172
 264 265 0 0 +14 268 177 270 1e-008 0 259 272 12 269 -0 0 0 259 10 50 269 178 0
 268 0 260 0 +0.002899999999999999 -0.001960000000000001 0.00061 1 -2.4492935982
94706e-016 0 2.449293598294706e-016 1 0 81 1 270 179 6 268 0 0 0 261 271 83 3 27
1 1 1 1 15 272 180 0 267 268 0 12 273 180 0 274 0 0 0 0 1000 1e-008 0 0 0 1 0 1
 1 281 283 289 287 278 288 286 70 274 0 273 0 0 4 1 20 0 275 275 1 T74 20 275 1
 0 276 0 0 0 0 0 0 0 0 0 0 0 0 0 0 0 0 0 0 0 81 1 276 7 6 282 0 0 335 0 277 83 3
 277 1 1 1 19 278 1 0 273 280 0 279 V13 279 2 0 273 0 0 0 0 278 282 19 280 3 0 2
73 0 278 281 S13 281 4 0 273 0 282 0 0 280 0 14 282 5 276 1e-008 333 0 284 281 2
83 +0 0 333 0 279 50 283 6 0 282 334 0 0 +-0.0032 0.001600000000000001 0 2.44929
3598294706e-016 1 0 1 -2.449293598294706e-016 0 15 284 8 0 285 282 0 17 285 0 28
4 293 329 286 290 288 0 298 -18 286 9 0 285 0 291 287 ?273 29 287 10 0 286 292 0
 -0.0032 0.001600000000000001 0 16 288 11 0 ?290 0 296 289 0 0 273 30 289 12 0 2
88 297 0 0 +-0.0032 0.001600000000000001 0 1 -2.449293598294706e-016 0 17 290 0
 337 344 338 291 285 288 0 349 +18 291 13 0 290 286 294 292 ?273 29 292 14 0 291
 295 287 -0.002599999999999999 0.001600000000000001 0 17 293 0 284 299 285 294 2
98 296 0 304 +18 294 15 0 293 291 300 295 ?273 29 295 16 0 294 301 292 -0.0032 0
.001600000000000001 0.00061 16 296 17 0 ?293 288 302 297 0 0 273 30 297 18 0 296
 303 289 0 +-0.0032 0.001600000000000001 0 0 0 1 17 298 0 496 341 491 286 293 29
6 0 338 -17 299 0 284 305 293 300 304 302 0 310 +18 300 19 0 299 294 306 301 ?27
3 29 301 20 0 300 307 295 -0.002899999999999999 0.001600000000000001 0.00061 16
 302 21 0 ?299 296 308 303 0 0 273 30 303 22 0 302 309 297 0 +-0.0032 0.00160000
0000000001 0.00061 1 -2.449293598294706e-016 0 17 304 0 457 488 452 294 299 302
 0 491 -17 305 0 284 311 299 306 310 308 0 316 -18 306 23 0 305 300 312 307 ?273
 29 307 24 0 306 313 301 -0.002899999999999999 0.001600000000000001 0.0005600000
000000001 16 308 25 0 ?310 302 314 309 0 0 273 30 309 26 0 308 315 303 0 +-0.002
899999999999999 0.001600000000000001 0.000305 0 0 1 17 310 0 442 449 409 300 305
 308 0 452 +17 311 0 284 317 305 312 316 314 0 322 -18 312 27 0 311 306 318 313
 ?273 29 313 28 0 312 319 307 -0.00315 0.001600000000000001 0.000560000000000000
1 16 314 29 0 ?316 308 320 315 0 0 273 30 315 30 0 314 321 309 0 +-0.00317499999
9999999 0.001600000000000001 0.0005600000000000001 1 -2.449293598294706e-016 0 1
7 316 0 403 404 394 306 311 314 0 409 +17 317 0 284 323 311 318 322 320 0 328 -1
8 318 31 0 317 312 324 319 ?273 29 319 32 0 318 325 313 -0.00315 0.0016000000000
00001 5e-005 16 320 33 0 ?322 314 326 321 0 0 273 30 321 34 0 320 327 315 0 +-0.
00315 0.001600000000000001 2.5e-005 0 0 1 17 322 0 388 389 379 312 317 320 0 394
 +17 323 0 284 329 317 324 328 326 0 364 -18 324 35 0 323 318 342 325 ?273 29 32
5 36 0 324 343 319 -0.002599999999999999 0.001600000000000001 5e-005 16 326 37 0
 ?328 320 330 327 0 0 273 30 327 38 0 326 331 321 0 +-2.499999999999961e-005 0.0
016 5e-005 -1 2.449293598294706e-016 0 17 328 0 373 374 364 318 323 326 0 379 +1
7 329 0 284 285 323 291 332 330 0 0 -16 330 39 0 ?332 326 339 331 0 0 273 30 331
 40 0 330 340 327 0 +-0.002599999999999999 0.001600000000000001 0 0 0 1 17 332 0
 358 359 349 324 329 330 0 0 +14 333 41 335 1e-008 354 282 337 281 334 +0 0 354
 282 279 50 334 42 0 333 355 283 0 +0 0 0 -0 0 -1 -1 2.449293598294706e-016 0 81
 1 335 43 6 333 0 0 356 276 336 83 3 336 1 1 1 15 337 44 0 338 333 0 17 338 0 33
7 290 350 286 341 339 0 0 +16 339 45 0 ?338 330 347 340 0 0 273 30 340 46 0 339
 348 331 0 +-0.003200000000000001 -0.001599999999999999 0 2.449293598294706e-016
 1 0 17 341 0 496 497 298 342 338 339 0 500 -18 342 47 0 350 324 345 343 ?273 29
 343 48 0 342 346 325 -0.003200000000000001 -0.001599999999999999 0 17 344 0 337
 350 290 345 349 347 0 353 -18 345 49 0 344 342 360 346 ?273 29 346 50 0 345 361
 343 -0.002600000000000001 -0.001599999999999999 0 16 347 51 0 ?349 339 351 348
 0 0 273 30 348 52 0 347 352 340 0 +-0.002600000000000001 -0.00224 0 2.449293598
294706e-016 1 0 17 349 0 358 332 365 291 344 347 0 329 +17 350 0 337 338 344 342
 353 351 0 341 +16 351 53 0 ?350 347 362 352 0 0 273 30 352 54 0 351 363 348 0 +
0.0032 -0.001600000000000001 0 -1 2.449293598294706e-016 0 17 353 0 505 368 500
 345 350 351 0 365 -14 354 55 356 1e-008 369 333 358 281 355 -0 0 369 333 279 50
 355 56 0 354 370 334 0 +-0.002600000000000001 -0.00224 0 -1 2.449293598294706e-
016 0 2.449293598294706e-016 1 0 81 1 356 57 6 354 0 0 371 335 357 83 3 357 1 1
 1 15 358 58 0 332 354 0 17 359 0 358 365 332 360 364 362 0 380 -18 360 59 0 368
 345 375 361 ?273 29 361 60 0 360 376 346 -0.002600000000000001 -0.0015999999999
99999 5e-005 16 362 61 0 ?364 351 366 363 0 0 273 30 363 62 0 362 367 352 0 +-0.
002599999999999999 0.003080000000000001 5e-005 2.449293598294706e-016 1 -2.22044
604925e-016 17 364 0 373 328 380 324 359 362 0 332 +17 365 0 358 349 359 345 368
 366 0 0 +16 366 63 0 ?365 362 377 367 0 0 273 30 367 64 0 366 378 363 0 +-0.002
600000000000001 -0.001599999999999999 0 -0 0 -1 17 368 0 505 383 353 360 365 366
 0 359 -14 369 65 371 1e-008 384 354 373 281 370 -0 0 384 354 279 50 370 66 0 36
9 385 355 0 +0.003150000000000002 0.008400000000000001 5e-005 -5.438524293786798
e-032 -2.22044604925e-016 -1 -1 2.449293598294706e-016 0 81 1 371 67 6 369 0 0 3
86 356 372 83 3 372 1 1 1 15 373 68 0 374 369 0 17 374 0 373 380 328 375 379 377
 0 395 +18 375 69 0 383 360 390 376 ?273 29 376 70 0 375 391 361 -0.003150000000
000001 -0.001599999999999999 5e-005 16 377 71 0 ?374 366 381 378 0 0 273 30 378
 72 0 377 382 367 0 +-0.003149999999999998 0.008400000000000001 5e-005 -2.449293
598294706e-016 -1 2.22044604925e-016 17 379 0 388 322 395 318 374 377 0 0 -17 38
0 0 373 364 374 360 383 381 0 0 +16 381 73 0 ?380 377 392 382 0 0 273 30 382 74
 0 381 393 378 0 +0.003174999999999999 -0.001600000000000001 5e-005 1 -2.4492935
98294706e-016 0 17 383 0 505 398 368 375 380 381 0 374 -14 384 75 386 1e-008 399
 369 388 281 385 -0 0 399 369 279 50 385 76 0 384 400 370 0 +-0.0031499999999999
98 0.008400000000000001 5e-005 -1 2.449293598294706e-016 0 5.438524293786798e-03
2 2.22044604925e-016 1 81 1 386 77 6 384 0 0 401 371 387 83 3 387 1 1 1 15 388 7
8 0 389 384 0 17 389 0 388 395 322 390 394 392 0 434 +18 390 79 0 398 375 405 39
1 ?273 29 391 80 0 390 406 376 -0.003150000000000001 -0.001599999999999999 0.000
5600000000000001 16 392 81 0 ?389 381 396 393 0 0 273 30 393 82 0 392 397 382 0
 +-0.003149999999999998 0.008400000000000001 0.0005600000000000001 -2.4492935982
94706e-016 -1 2.22044604925e-016 17 394 0 403 316 434 312 389 392 0 0 -17 395 0
 388 379 389 375 398 396 0 0 +16 396 83 0 ?395 392 407 397 0 0 273 30 397 84 0 3
96 408 393 0 +-0.003150000000000001 -0.001599999999999999 2.5e-005 -0 0 -1 17 39
8 0 505 437 383 390 395 396 0 389 -14 399 85 401 1e-008 438 384 403 281 400 -0 0
 438 384 279 50 400 86 0 399 439 385 0 +-0.003149999999999998 0.0084000000000000
01 0.0005600000000000001 5.438524293786798e-032 2.22044604925e-016 1 1 -2.449293
598294706e-016 0 81 1 401 87 6 399 0 0 440 386 402 83 3 402 1 1 1 15 403 88 0 40
4 399 0 17 404 0 403 410 316 405 409 407 0 443 +18 405 89 0 415 390 411 406 ?273
 29 406 90 0 405 412 391 -0.002899999999999999 0.001181213444263001 0.0005600000
000000001 16 407 91 0 ?404 396 413 408 0 0 273 30 408 92 0 407 414 397 0 +-0.002
899999999999999 0.005112009000000001 0.0005600000000000001 -2.449293598294706e-0
16 -1 2.22044604925e-016 17 409 0 442 310 443 306 404 407 0 0 -17 410 0 403 416
 404 411 415 413 0 515 +18 411 93 0 421 405 417 412 ?273 29 412 94 0 411 418 406
 -0.002549999999999999 0.001181213444263001 0.0005600000000000001 16 413 95 0 ?4
10 407 419 414 0 0 273 30 414 96 0 413 420 408 0 +-0.003025 0.001181213444263001
 0.0005600000000000001 1 -2.449293598294706e-016 0 17 415 0 514 446 515 405 410
 413 0 404 -17 416 0 403 422 410 417 421 419 0 524 +18 417 97 0 427 411 423 418
 ?273 29 418 98 0 417 424 412 -0.00255 -0.001181213444262999 0.00056000000000000
01 16 419 99 0 ?416 413 425 420 0 0 273 30 420 100 0 419 426 414 0 +-0.002549999
999999998 0.004790606722131001 0.0005600000000000001 -2.449293598294706e-016 -1
 2.22044604925e-016 17 421 0 523 518 524 411 416 419 0 410 -17 422 0 403 428 416
 423 427 425 0 533 +18 423 101 0 433 417 429 424 ?273 29 424 102 0 423 430 418 -
0.0029 -0.001181213444262999 0.0005600000000000001 16 425 103 0 ?422 419 431 426
 0 0 273 30 426 104 0 425 432 420 0 +-0.002850000000000001 -0.001181213444262999
 0.0005600000000000001 -1 2.449293598294706e-016 0 17 427 0 532 527 533 417 422
 425 0 416 -17 428 0 403 434 422 429 433 431 0 509 +18 429 105 0 428 423 447 430
 ?273 29 430 106 0 429 448 424 -0.0029 -0.001599999999999999 0.00056000000000000
01 16 431 107 0 ?428 425 435 432 0 0 273 30 432 108 0 431 436 426 0 +-0.00289999
9999999999 0.003609393277869001 0.0005600000000000001 -2.449293598294706e-016 -1
 2.22044604925e-016 17 433 0 541 536 509 423 428 431 0 422 -17 434 0 403 394 428
 390 437 435 0 0 +16 435 109 0 ?434 431 444 436 0 0 273 30 436 110 0 435 445 432
 0 +2.499999999999961e-005 -0.0016 0.0005600000000000001 -1 2.449293598294706e-0
16 0 17 437 0 505 506 398 429 434 435 0 0 -14 438 111 440 1e-008 453 399 442 281
 439 -0 0 453 399 279 50 439 112 0 438 454 400 0 +-0.002899999999999999 0.001824
018000000001 0.00061 -1 2.449293598294706e-016 0 -2.449293598294706e-016 -1 0 81
 1 440 113 6 438 0 0 455 401 441 83 3 441 1 1 1 15 442 114 0 443 438 0 17 443 0
 442 409 449 405 446 444 0 0 +16 444 115 0 ?443 435 450 445 0 0 273 30 445 116 0
 444 451 436 0 +-0.002899999999999999 0.001181213444263001 0.00061 -0 0 -1 17 44
6 0 514 487 415 447 443 444 0 484 -18 447 117 0 449 429 459 448 ?273 29 448 118
 0 447 460 430 -0.002899999999999999 0.001181213444263001 0.00061 17 449 0 442 4
43 310 447 452 450 0 446 +16 450 119 0 ?449 444 461 451 0 0 273 30 451 120 0 450
 462 445 0 +-0.002899999999999999 0.001824018000000001 0.00061 -2.44929359829470
6e-016 -1 0 17 452 0 457 304 484 300 449 450 0 0 -14 453 121 455 1e-008 492 438
 457 281 454 -0 0 492 438 279 50 454 122 0 453 493 439 0 +0 0 0.00061 -0 0 -1 -1
 2.449293598294706e-016 0 81 1 455 123 6 453 0 0 494 440 456 83 3 456 1 1 1 15 4
57 124 0 458 453 0 17 458 0 457 466 488 459 463 461 0 0 -18 459 125 0 471 447 46
4 460 ?273 29 460 126 0 459 465 448 -0.0029 -0.001599999999999999 0.00061 16 461
 127 0 ?463 450 469 462 0 0 273 30 462 128 0 461 470 451 0 +0.0032 -0.0016000000
00000001 0.00061 -1 2.449293598294706e-016 0 17 463 0 505 500 506 464 458 461 0
 0 +18 464 129 0 488 459 467 465 ?273 29 465 130 0 464 468 460 -0.00320000000000
0001 -0.001599999999999999 0.00061 17 466 0 457 472 458 467 471 469 0 536 -18 46
7 131 0 477 464 473 468 ?273 29 468 132 0 467 474 465 -0.0029 -0.001181213444262
999 0.00061 16 469 133 0 ?471 461 475 470 0 0 273 30 470 134 0 469 476 462 0 +-0
.0029 -0.001181213444262999 0.00061 -2.449293598294706e-016 -1 0 17 471 0 541 50
9 536 459 466 469 0 506 +17 472 0 457 478 466 473 477 475 0 527 -18 473 135 0 48
3 467 479 474 ?273 29 474 136 0 473 480 468 -0.00255 -0.001181213444262999 0.000
61 16 475 137 0 ?477 469 481 476 0 0 273 30 476 138 0 475 482 470 0 +-0.00255 -0
.001181213444262999 0.00061 -1 2.449293598294706e-016 0 17 477 0 532 533 527 467
 472 475 0 466 +17 478 0 457 484 472 479 483 481 0 518 -18 479 139 0 487 473 0 4
80 ?273 29 480 140 0 479 0 474 -0.002549999999999999 0.001181213444263001 0.0006
1 16 481 141 0 ?483 475 485 482 0 0 273 30 482 142 0 481 486 476 0 +-0.002549999
999999999 0.001181213444263001 0.00061 -2.449293598294706e-016 -1 0 17 483 0 523
 524 518 473 478 481 0 472 +17 484 0 457 452 478 447 487 485 0 0 -16 485 143 0 ?
487 481 489 486 0 0 273 30 486 144 0 485 490 482 0 +-0.002899999999999999 0.0011
81213444263001 0.00061 1 -2.449293598294706e-016 0 17 487 0 514 515 446 479 484
 485 0 478 +17 488 0 457 458 304 464 491 489 0 497 -16 489 145 0 ?491 485 498 49
0 0 0 273 30 490 146 0 489 499 486 0 +-0.003200000000000001 -0.00159999999999999
9 0.00061 2.449293598294706e-016 1 0 17 491 0 496 298 497 294 488 489 0 0 +14 49
2 147 494 1e-008 501 453 496 281 493 +0 0 501 453 279 50 493 148 0 492 502 454 0
 +-0.003200000000000001 -0.001599999999999999 0 -1 2.449293598294706e-016 0 2.44
9293598294706e-016 1 0 81 1 494 149 6 492 0 0 503 455 495 83 3 495 1 1 1 15 496
 150 0 497 492 0 17 497 0 496 491 341 464 500 498 0 463 +16 498 151 0 ?497 489 5
07 499 0 0 273 30 499 152 0 498 508 490 0 +-0.003200000000000001 -0.001599999999
999999 0 0 0 1 17 500 0 505 353 463 342 497 498 0 0 -14 501 153 503 1e-008 510 4
92 505 281 502 +0 0 510 492 279 50 502 154 0 501 511 493 0 +0.0032 -0.0016000000
00000001 0 -2.449293598294706e-016 -1 0 -1 2.449293598294706e-016 0 81 1 503 155
 6 501 0 0 512 494 504 83 3 504 1 1 1 15 505 156 0 353 501 0 17 506 0 505 463 43
7 459 509 507 0 458 -16 507 157 0 ?509 498 516 508 0 0 273 30 508 158 0 507 517
 499 0 +-0.0029 -0.001599999999999999 0.000305 -0 0 -1 17 509 0 541 433 471 429
 506 507 0 437 +14 510 159 512 1e-008 519 501 514 281 511 -0 0 519 501 279 50 51
1 160 0 510 520 502 0 +-0.002899999999999999 0.001181213444263001 0.00061 -2.449
293598294706e-016 -1 0 1 -2.449293598294706e-016 0 81 1 512 161 6 510 0 0 521 50
3 513 83 3 513 1 1 1 15 514 162 0 515 510 0 17 515 0 514 415 487 411 518 516 0 0
 +16 516 163 0 ?515 507 525 517 0 0 273 30 517 164 0 516 526 508 0 +-0.002549999
999999999 0.001181213444263001 0.00061 -0 0 -1 17 518 0 523 483 421 479 515 516
 0 0 -14 519 165 521 1e-008 528 510 523 281 520 -0 0 528 510 279 50 520 166 0 51
9 529 511 0 +-0.002549999999999999 0.001181213444263001 0.00061 -1 2.44929359829
4706e-016 0 -2.449293598294706e-016 -1 0 81 1 521 167 6 519 0 0 530 512 522 83 3
 522 1 1 1 15 523 168 0 524 519 0 17 524 0 523 421 483 417 527 525 0 0 +16 525 1
69 0 ?524 516 534 526 0 0 273 30 526 170 0 525 535 517 0 +-0.00255 -0.0011812134
44262999 0.00061 -0 0 -1 17 527 0 532 477 427 473 524 525 0 0 -14 528 171 530 1e
-008 537 519 532 281 529 -0 0 537 519 279 50 529 172 0 528 538 520 0 +-0.00255 -
0.001181213444262999 0.00061 2.449293598294706e-016 1 0 -1 2.449293598294706e-01
6 0 81 1 530 173 6 528 0 0 539 521 531 83 3 531 1 1 1 15 532 174 0 533 528 0 17
 533 0 532 427 477 423 536 534 0 0 +16 534 175 0 ?533 525 0 535 0 0 273 30 535 1
76 0 534 0 526 0 +-0.0029 -0.001181213444262999 0.00061 -0 0 -1 17 536 0 541 471
 433 467 533 534 0 0 -14 537 177 539 1e-008 0 528 541 281 538 -0 0 0 528 279 50
 538 178 0 537 0 529 0 +-0.0029 -0.001181213444262999 0.00061 -1 2.4492935982947
06e-016 0 -2.449293598294706e-016 -1 0 81 1 539 179 6 537 0 0 0 530 540 83 3 540
 1 1 1 15 541 180 0 509 537 0 12 542 124 0 543 0 0 0 0 1000 1e-008 0 0 0 1 0 1 1
 550 552 558 556 547 557 555 70 543 0 542 0 0 4 1 20 0 544 544 1 T74 20 544 1 0
 545 0 0 0 0 0 0 0 0 0 0 0 0 0 0 0 0 0 0 0 81 1 545 7 6 551 0 0 580 0 546 83 3 5
46 1 1 1 19 547 1 0 542 549 0 548 V13 548 2 0 542 0 0 0 0 547 551 19 549 3 0 542
 0 547 550 S13 550 4 0 542 0 551 0 0 549 0 14 551 5 545 1e-008 578 0 553 550 552
 +0 0 578 0 548 50 552 6 0 551 579 0 0 +-0.0032 0.001600000000000001 0 2.4492935
98294706e-016 1 0 1 -2.449293598294706e-016 0 15 553 8 0 554 551 0 17 554 0 553
 562 574 555 559 557 0 567 -18 555 9 0 554 0 560 556 ?542 29 556 10 0 555 561 0
 -0.002549999999999999 0.001600000000000001 0.0005600000000000001 16 557 11 0 ?5
59 0 565 558 0 0 542 30 558 12 0 557 566 0 0 +-0.003174999999999999 0.0016000000
00000001 0.0005600000000000001 1 -2.449293598294706e-016 0 17 559 0 582 583 619
 560 554 557 0 574 +18 560 13 0 559 555 563 561 ?542 29 561 14 0 560 564 556 0.0
0255 0.001599999999999999 0.0005600000000000001 17 562 0 553 568 554 563 567 565
 0 573 -18 563 15 0 562 560 569 564 ?542 29 564 16 0 563 570 561 -0.002549999999
999999 0.001600000000000001 0.00061 16 565 17 0 ?567 557 571 566 0 0 542 30 566
 18 0 565 572 558 0 +-0.002549999999999999 0.001600000000000001 0.000305 0 0 -1
 17 567 0 681 622 676 555 562 565 0 619 +17 568 0 553 574 562 569 573 571 0 577
 +18 569 19 0 568 563 584 570 ?542 29 570 20 0 569 585 564 0.00255 0.00159999999
9999999 0.00061 16 571 21 0 ?568 565 575 572 0 0 542 30 572 22 0 571 576 566 0 +
-0.0032 0.001600000000000001 0.00061 1 -2.449293598294706e-016 0 17 573 0 642 67
3 633 563 568 571 0 676 -17 574 0 553 554 568 560 577 575 0 588 +16 575 23 0 ?57
4 571 586 576 0 0 542 30 576 24 0 575 587 572 0 +0.00255 0.001599999999999999 0.
000305 0 0 -1 17 577 0 627 628 588 569 574 575 0 633 -14 578 25 580 1e-008 623 5
51 582 550 579 -0 0 623 551 548 50 579 26 0 578 624 552 0 +-0.003149999999999998
 0.008400000000000001 0.0005600000000000001 5.438524293786798e-032 2.22044604925
e-016 1 1 -2.449293598294706e-016 0 81 1 580 27 6 578 0 0 625 545 581 83 3 581 1
 1 1 15 582 28 0 583 578 0 17 583 0 582 589 559 584 588 586 0 0 -18 584 29 0 634
 569 590 585 ?542 29 585 30 0 584 591 570 0.00255 0.001181213444262999 0.0005600
000000000001 16 586 31 0 ?588 575 592 587 0 0 542 30 587 32 0 586 593 576 0 +0.0
02550000000000001 0.004790606722130999 0.0005600000000000001 2.449293598294706e-
016 1 -2.22044604925e-016 17 588 0 627 577 634 560 583 586 0 0 +17 589 0 582 595
 583 590 594 592 0 600 -18 590 33 0 691 584 596 591 ?542 29 591 34 0 590 597 585
 0.002549999999999999 -0.001181213444263001 0.0005600000000000001 16 592 35 0 ?5
94 586 598 593 0 0 542 30 593 36 0 592 599 587 0 +0.002550000000000001 0.0036093
93277869 0.0005600000000000001 2.449293598294706e-016 1 -2.22044604925e-016 17 5
94 0 690 637 691 584 589 592 0 583 +17 595 0 582 601 589 596 600 598 0 0 -18 596
 37 0 700 590 602 597 ?542 29 597 38 0 596 603 591 0.002549999999999999 -0.00160
0000000000001 0.0005600000000000001 16 598 39 0 ?600 592 604 599 0 0 542 30 599
 40 0 598 605 593 0 +0.002550000000000001 0.003065 0.0005600000000000001 2.44929
3598294706e-016 1 -2.22044604925e-016 17 600 0 699 694 700 590 595 598 0 0 +17 6
01 0 582 607 595 602 606 604 0 0 +18 602 41 0 612 596 608 603 ?542 29 603 42 0 6
02 609 597 -0.00255 -0.001599999999999999 0.0005600000000000001 16 604 43 0 ?601
 598 610 605 0 0 542 30 605 44 0 604 611 599 0 +2.499999999999961e-005 -0.0016 0
.0005600000000000001 -1 2.449293598294706e-016 0 17 606 0 708 703 709 596 601 60
4 0 595 -17 607 0 582 613 601 608 612 610 0 718 -18 608 45 0 618 602 614 609 ?54
2 29 609 46 0 608 615 603 -0.00255 -0.001181213444262999 0.0005600000000000001 1
6 610 47 0 ?612 604 616 611 0 0 542 30 611 48 0 610 617 605 0 +-0.00254999999999
9998 0.004790606722131001 0.0005600000000000001 -2.449293598294706e-016 -1 2.220
44604925e-016 17 612 0 717 712 718 602 607 610 0 709 +17 613 0 582 619 607 614 6
18 616 0 685 -18 614 49 0 622 608 629 615 ?542 29 615 50 0 614 630 609 -0.002549
999999999999 0.001181213444263001 0.0005600000000000001 16 616 51 0 ?618 610 620
 617 0 0 542 30 617 52 0 616 621 611 0 +-0.002549999999999998 0.0047906067221310
01 0.0005600000000000001 -2.449293598294706e-016 -1 2.22044604925e-016 17 618 0
 726 721 685 608 613 616 0 607 +17 619 0 582 559 613 555 622 620 0 0 +16 620 53
 0 ?619 616 631 621 0 0 542 30 621 54 0 620 632 617 0 +-0.002549999999999998 0.0
04790606722131001 0.0005600000000000001 2.449293598294706e-016 1 -2.22044604925e
-016 17 622 0 681 682 567 614 619 620 0 613 -14 623 55 625 1e-008 638 578 627 55
0 624 +0 0 638 578 548 50 624 56 0 623 639 579 0 +0.00255 0.001181213444262999 0
.00061 1 -2.449293598294706e-016 0 2.449293598294706e-016 1 0 81 1 625 57 6 623
 0 0 640 580 626 83 3 626 1 1 1 15 627 58 0 628 623 0 17 628 0 627 634 577 629 6
33 631 0 0 -18 629 59 0 637 614 644 630 ?542 29 630 60 0 629 645 615 0.00255 0.0
01181213444262999 0.00061 16 631 61 0 ?633 620 635 632 0 0 542 30 632 62 0 631 6
36 621 0 +0.00255 0.001181213444262999 0.00061 2.449293598294706e-016 1 0 17 633
 0 642 573 669 569 628 631 0 0 +17 634 0 627 588 628 584 637 635 0 594 +16 635 6
3 0 ?634 631 646 636 0 0 542 30 636 64 0 635 647 632 0 +0.00255 0.00118121344426
2999 0.00061 -0 0 -1 17 637 0 690 672 594 629 634 635 0 669 -14 638 65 640 1e-00
8 677 623 642 550 639 -0 0 677 623 548 50 639 66 0 638 678 624 0 +0 0 0.00061 -0
 0 -1 -1 2.449293598294706e-016 0 81 1 640 67 6 638 0 0 679 625 641 83 3 641 1 1
 1 15 642 68 0 643 638 0 17 643 0 642 651 673 644 648 646 0 721 +18 644 69 0 643
 629 649 645 ?542 29 645 70 0 644 650 630 -0.00255 -0.001181213444262999 0.00061
 16 646 71 0 ?643 635 654 647 0 0 542 30 647 72 0 646 655 636 0 +-0.002549999999
999999 0.001181213444263001 0.00061 -2.449293598294706e-016 -1 0 17 648 0 726 68
5 721 649 643 646 0 673 -18 649 73 0 648 644 652 650 ?542 29 650 74 0 649 653 64
5 -0.002549999999999999 0.001181213444263001 0.00061 17 651 0 642 657 643 652 65
6 654 0 0 +18 652 75 0 712 649 658 653 ?542 29 653 76 0 652 659 650 -0.00255 -0.
001599999999999999 0.00061 16 654 77 0 ?651 646 660 655 0 0 542 30 655 78 0 654
 661 647 0 +-0.002549999999999999 0.001181213444263001 0.00061 -2.44929359829470
6e-016 -1 0 17 656 0 717 718 712 644 651 654 0 0 -17 657 0 642 663 651 658 662 6
60 0 0 -18 658 79 0 703 652 664 659 ?542 29 659 80 0 658 665 653 0.0025499999999
99999 -0.001600000000000001 0.00061 16 660 81 0 ?662 654 666 661 0 0 542 30 661
 82 0 660 667 655 0 +0.0032 -0.001600000000000001 0.00061 -1 2.449293598294706e-
016 0 17 662 0 708 709 703 652 657 660 0 651 +17 663 0 642 669 657 664 668 666 0
 0 +18 664 83 0 672 658 0 665 ?542 29 665 84 0 664 0 659 0.002549999999999999 -0
.001181213444263001 0.00061 16 666 85 0 ?663 660 670 667 0 0 542 30 667 86 0 666
 671 661 0 +0.002549999999999999 -0.00227 0.00061 2.449293598294706e-016 1 0 17
 668 0 699 700 694 658 663 666 0 657 -17 669 0 642 633 663 629 672 670 0 628 +16
 670 87 0 ?669 666 674 671 0 0 542 30 671 88 0 670 675 667 0 +0.0025499999999999
99 -0.001181213444263001 0.00061 2.449293598294706e-016 1 0 17 672 0 690 691 637
 664 669 670 0 694 -17 673 0 642 643 573 649 676 674 0 682 -16 674 89 0 ?676 670
 683 675 0 0 542 30 675 90 0 674 684 671 0 +-0.002549999999999999 0.001181213444
263001 0.00061 2.449293598294706e-016 1 0 17 676 0 681 567 682 563 673 674 0 0 +
14 677 91 679 1e-008 686 638 681 550 678 -0 0 686 638 548 50 678 92 0 677 687 63
9 0 +-0.002549999999999999 0.001181213444263001 0.00061 1 -2.449293598294706e-01
6 0 2.449293598294706e-016 1 0 81 1 679 93 6 677 0 0 688 640 680 83 3 680 1 1 1
 15 681 94 0 567 677 0 17 682 0 681 676 622 649 685 683 0 0 -16 683 95 0 ?685 67
4 692 684 0 0 542 30 684 96 0 683 693 675 0 +-0.002549999999999999 0.00118121344
4263001 0.00061 -0 0 -1 17 685 0 726 618 648 614 682 683 0 0 +14 686 97 688 1e-0
08 695 677 690 550 687 +0 0 695 677 548 50 687 98 0 686 696 678 0 +0.00254999999
9999999 -0.00227 0.00061 1 -2.449293598294706e-016 0 2.449293598294706e-016 1 0
 81 1 688 99 6 686 0 0 697 679 689 83 3 689 1 1 1 15 690 100 0 672 686 0 17 691
 0 690 594 672 590 694 692 0 589 +16 692 101 0 ?691 683 701 693 0 0 542 30 693 1
02 0 692 702 684 0 +0.002549999999999999 -0.001181213444263001 0.00061 -0 0 -1 1
7 694 0 699 668 600 664 691 692 0 663 -14 695 103 697 1e-008 704 686 699 550 696
 +0 0 704 686 548 50 696 104 0 695 705 687 0 +0.002549999999999999 -0.00227 0.00
061 1 -2.449293598294706e-016 0 2.449293598294706e-016 1 0 81 1 697 105 6 695 0
 0 706 688 698 83 3 698 1 1 1 15 699 106 0 668 695 0 17 700 0 699 600 668 596 70
3 701 0 606 -16 701 107 0 ?703 692 710 702 0 0 542 30 702 108 0 701 711 693 0 +0
.002549999999999999 -0.001600000000000001 0.000305 0 0 1 17 703 0 708 662 606 65
8 700 701 0 668 +14 704 109 706 1e-008 713 695 708 550 705 +0 0 713 695 548 50 7
05 110 0 704 714 696 0 +0.0032 -0.001600000000000001 0 -2.449293598294706e-016 -
1 0 -1 2.449293598294706e-016 0 81 1 706 111 6 704 0 0 715 697 707 83 3 707 1 1
 1 15 708 112 0 606 704 0 17 709 0 708 606 662 602 712 710 0 601 +16 710 113 0 ?
709 701 719 711 0 0 542 30 711 114 0 710 720 702 0 +-0.00255 -0.0015999999999999
99 0.000305 -0 0 -1 17 712 0 717 656 612 652 709 710 0 662 -14 713 115 715 1e-00
8 722 704 717 550 714 +0 0 722 704 548 50 714 116 0 713 723 705 0 +-0.0025499999
99999999 0.001181213444263001 0.00061 -1 2.449293598294706e-016 0 -2.44929359829
4706e-016 -1 0 81 1 715 117 6 713 0 0 724 706 716 83 3 716 1 1 1 15 717 118 0 65
6 713 0 17 718 0 717 612 656 608 721 719 0 0 +16 719 119 0 ?718 710 0 720 0 0 54
2 30 720 120 0 719 0 711 0 +-0.00255 -0.001181213444262999 0.00061 -0 0 -1 17 72
1 0 726 648 618 644 718 719 0 656 -14 722 121 724 1e-008 0 713 726 550 723 +0 0
 0 713 548 50 723 122 0 722 0 714 0 +-0.002549999999999999 0.001181213444263001
 0.00061 -1 2.449293598294706e-016 0 -2.449293598294706e-016 -1 0 81 1 724 123 6
 722 0 0 0 715 725 83 3 725 1 1 1 15 726 124 0 648 722 0 12 727 68 0 728 0 0 0 0
 1000 1e-008 0 0 0 1 0 1 1 735 737 743 741 732 742 740 70 728 0 727 0 0 4 1 20 0
 729 729 1 T74 20 729 1 0 730 0 0 0 0 0 0 0 0 0 0 0 0 0 0 0 0 0 0 0 81 1 730 7 6
 736 0 0 765 0 731 83 3 731 1 1 1 19 732 1 0 727 734 0 733 V13 733 2 0 727 0 0 0
 0 732 736 19 734 3 0 727 0 732 735 S13 735 4 0 727 0 736 0 0 734 0 14 736 5 730
 1e-008 763 0 738 735 737 +0 0 763 0 733 50 737 6 0 736 764 0 0 +-0.0032 0.00160
0000000000001 0 2.449293598294706e-016 1 0 1 -2.449293598294706e-016 0 15 738 8
 0 739 736 0 17 739 0 738 747 759 740 744 742 0 752 +18 740 9 0 739 0 745 741 ?7
27 29 741 10 0 740 746 0 -0.00315 0.001600000000000001 0.0005600000000000001 16
 742 11 0 ?739 0 750 743 0 0 727 30 743 12 0 742 751 0 0 +-0.00315 0.00160000000
0000001 2.5e-005 0 0 1 17 744 0 767 768 780 745 739 742 0 759 -18 745 13 0 744 7
40 748 746 ?727 29 746 14 0 745 749 741 -0.00315 0.001600000000000001 5e-005 17
 747 0 738 753 739 748 752 750 0 758 +18 748 15 0 747 745 754 749 ?727 29 749 16
 0 748 755 746 0.003150000000000001 0.001599999999999999 0.0005600000000000001 1
6 750 17 0 ?747 742 756 751 0 0 727 30 751 18 0 750 757 743 0 +-0.00317499999999
9999 0.001600000000000001 0.0005600000000000001 1 -2.449293598294706e-016 0 17 7
52 0 818 783 809 740 747 750 0 780 -17 753 0 738 759 747 754 758 756 0 762 +18 7
54 19 0 753 748 769 755 ?727 29 755 20 0 754 770 749 0.003150000000000001 0.0015
99999999999999 5e-005 16 756 21 0 ?753 750 760 757 0 0 727 30 757 22 0 756 761 7
51 0 +0.003150000000000001 0.001599999999999999 0.00028 0 0 -1 17 758 0 803 804
 794 748 753 756 0 809 -17 759 0 738 739 753 745 762 760 0 773 +16 760 23 0 ?759
 756 771 761 0 0 727 30 761 24 0 760 772 757 0 +-2.499999999999961e-005 0.0016 5
e-005 -1 2.449293598294706e-016 0 17 762 0 788 789 773 754 759 760 0 794 -14 763
 25 765 1e-008 784 736 767 735 764 +0 0 784 736 733 50 764 26 0 763 785 737 0 +-
0.003149999999999998 0.008400000000000001 5e-005 -1 2.449293598294706e-016 0 5.4
38524293786798e-032 2.22044604925e-016 1 81 1 765 27 6 763 0 0 786 730 766 83 3
 766 1 1 1 15 767 28 0 744 763 0 17 768 0 767 774 744 769 773 771 0 779 +18 769
 29 0 768 754 775 770 ?727 29 770 30 0 769 776 755 -0.003150000000000001 -0.0015
99999999999999 5e-005 16 771 31 0 ?768 760 777 772 0 0 727 30 772 32 0 771 778 7
61 0 +-0.003149999999999998 0.008400000000000001 5e-005 -2.449293598294706e-016
 -1 2.22044604925e-016 17 773 0 788 762 795 745 768 771 0 0 -17 774 0 767 780 76
8 775 779 777 0 822 -18 775 33 0 783 769 790 776 ?727 29 776 34 0 775 791 770 -0
.003150000000000001 -0.001599999999999999 0.0005600000000000001 16 777 35 0 ?779
 771 781 778 0 0 727 30 778 36 0 777 782 772 0 +-0.003150000000000001 -0.0015999
99999999999 2.5e-005 -0 0 -1 17 779 0 827 798 822 769 774 777 0 795 +17 780 0 76
7 744 774 740 783 781 0 0 -16 781 37 0 ?783 777 792 782 0 0 727 30 782 38 0 781
 793 778 0 +-0.003149999999999998 0.008400000000000001 0.0005600000000000001 -2.
449293598294706e-016 -1 2.22044604925e-016 17 783 0 818 819 752 775 780 781 0 77
4 +14 784 39 786 1e-008 799 763 788 735 785 +0 0 799 763 733 50 785 40 0 784 800
 764 0 +0.003150000000000002 0.008400000000000001 5e-005 -5.438524293786798e-032
 -2.22044604925e-016 -1 -1 2.449293598294706e-016 0 81 1 786 41 6 784 0 0 801 76
5 787 83 3 787 1 1 1 15 788 42 0 762 784 0 17 789 0 788 795 762 790 794 792 0 79
8 +18 790 43 0 789 775 805 791 ?727 29 791 44 0 790 806 776 0.00315 -0.001600000
000000001 5e-005 16 792 45 0 ?789 781 796 793 0 0 727 30 793 46 0 792 797 782 0
 +0.003150000000000002 0.008400000000000001 5e-005 -2.449293598294706e-016 -1 2.
22044604925e-016 17 794 0 803 758 810 754 789 792 0 0 -17 795 0 788 773 789 769
 798 796 0 0 -16 796 47 0 ?798 792 807 797 0 0 727 30 797 48 0 796 808 793 0 +0.
003174999999999999 -0.001600000000000001 5e-005 1 -2.449293598294706e-016 0 17 7
98 0 827 813 779 790 795 796 0 810 +14 799 49 801 1e-008 814 784 803 735 800 +0
 0 814 784 733 50 800 50 0 799 815 785 0 +0.003150000000000002 0.008400000000000
001 0.0005600000000000001 1 -2.449293598294706e-016 0 -5.438524293786798e-032 -2
.22044604925e-016 -1 81 1 801 51 6 799 0 0 816 786 802 83 3 802 1 1 1 15 803 52
 0 758 799 0 17 804 0 803 810 758 805 809 807 0 813 +18 805 53 0 804 790 0 806 ?
727 29 806 54 0 805 0 791 0.00315 -0.001600000000000001 0.0005600000000000001 16
 807 55 0 ?804 796 811 808 0 0 727 30 808 56 0 807 812 797 0 +0.0031500000000000
02 0.008400000000000001 0.0005600000000000001 -2.449293598294706e-016 -1 2.22044
604925e-016 17 809 0 818 752 819 748 804 807 0 0 -17 810 0 803 794 804 790 813 8
11 0 0 -16 811 57 0 ?813 807 820 812 0 0 727 30 812 58 0 811 821 808 0 +0.00315
 -0.001600000000000001 0.00028 0 0 1 17 813 0 827 822 798 805 810 811 0 819 +14
 814 59 816 1e-008 823 799 818 735 815 +0 0 823 799 733 50 815 60 0 814 824 800
 0 +-0.003149999999999998 0.008400000000000001 0.0005600000000000001 5.438524293
786798e-032 2.22044604925e-016 1 1 -2.449293598294706e-016 0 81 1 816 61 6 814 0
 0 825 801 817 83 3 817 1 1 1 15 818 62 0 752 814 0 17 819 0 818 809 783 805 822
 820 0 0 -16 820 63 0 ?822 811 0 821 0 0 727 30 821 64 0 820 0 812 0 +2.49999999
9999961e-005 -0.0016 0.0005600000000000001 -1 2.449293598294706e-016 0 17 822 0
 827 779 813 775 819 820 0 0 +14 823 65 825 1e-008 0 814 827 735 824 +0 0 0 814
 733 50 824 66 0 823 0 815 0 +0.0032 -0.001600000000000001 0 -2.449293598294706e
-016 -1 0 -1 2.449293598294706e-016 0 81 1 825 67 6 823 0 0 0 816 826 83 3 826 1
 1 1 15 827 68 0 813 823 0 1 0 
