<svg width="50.2652411mm" height="51.27051722mm" viewBox="0 0 19789465 20185243"  version="1.1" xmlns="http://www.w3.org/2000/svg" xmlns:xlink="http://www.w3.org/1999/xlink">
<desc>
Origin 0 0 Bound 15696448 21603391 19789465 20185243
</desc>
<g fill-rule="evenodd" fill="rgb(112, 219, 250)" stroke="black" stroke-width="1" transform="translate(0, 20185243) scale(1, -1) translate(-15696448, -21603391)">
<path id="N" d="M 23350007.86 23600021.10 m -296681.84 0 a 296681.84 296681.84 0 1 1 593363.68 0a 296681.84 296681.84 0 1 1 -593363.68 0M 23350001.68 23599988.93 m -218414.07 0 a 218414.07 218414.07 0 1 1 436828.14 0a 218414.07 218414.07 0 1 1 -436828.14 0"/>
<path id="N" d="M 22799998.47 27099998.47 m -100354.75 0 a 100354.75 100354.75 0 1 1 200709.51 0a 100354.75 100354.75 0 1 1 -200709.51 0"/>
<path id="N" d="M 27999998.47 27349998.47 m -100354.75 0 a 100354.75 100354.75 0 1 1 200709.51 0a 100354.75 100354.75 0 1 1 -200709.51 0"/>
<path id="N" d="M 22499993.22 32199993.22 m -60221.14 0 a 60221.14 60221.14 0 1 1 120442.28 0a 60221.14 60221.14 0 1 1 -120442.28 0"/>
<path id="N" d="M 21570960.00 28329040.00 L 21563287.00 28323711.00 L 21558268.00 28317290.00 L 21546752.00 28295496.00 L 21540551.00 28269906.00 L 21540141.00 27266628.00 L 22928384.00 25878385.00 L 22937085.00 25865362.00 L 22940141.00 25850001.00 L 22940141.00 23066627.00 L 23060733.00 22947311.00 L 23079173.00 22935970.00 L 23100956.00 22926019.00 L 23126082.00 22917457.00 L 23154551.00 22910284.00 L 23221520.00 22900107.00 L 23301861.00 22895487.00 L 23335914.13 22895316.68 L 23350000.00 22896704.00 A 296709.45 296709.45 0 1 0 23053296.00 22600000.00 L 23054683.32 22614085.87 L 23054513.00 22648139.00 L 23049893.00 22728480.00 L 23039716.00 22795449.00 L 23032543.00 22823918.00 L 23023981.00 22849044.00 L 23014030.00 22870827.00 L 23002689.00 22889267.00 L 22871616.00 23021616.00 L 22862915.00 23034639.00 L 22859859.00 23050000.00 L 22859859.00 25833374.00 L 21471616.00 27221617.00 L 21462915.00 27234640.00 L 21459859.00 27250001.00 L 21459859.00 28265568.14 L 21457973.00 28278858.00 L 21450000.00 28303182.00 L 21436209.12 28324249.72 L 21429040.00 28329040.00 A 100353.26 100353.26 0 1 0 21570960.00 28329040.00  zM 23350001.68 22599988.93 m -218414.07 0 a 218414.07 218414.07 0 1 1 436828.14 0a 218414.07 218414.07 0 1 1 -436828.14 0"/>
<path id="N" d="M 21900793.22 32399193.22 m -60221.14 0 a 60221.14 60221.14 0 1 1 120442.28 0a 60221.14 60221.14 0 1 1 -120442.28 0"/>
<path id="N" d="M 25249998.47 30349998.47 m -100354.75 0 a 100354.75 100354.75 0 1 1 200709.51 0a 100354.75 100354.75 0 1 1 -200709.51 0"/>
<path id="N" d="M 22270960.00 28329040.00 L 22263287.00 28323711.00 L 22258268.00 28317290.00 L 22246752.00 28295496.00 L 22240551.00 28269906.00 L 22240141.00 27216628.00 L 24878384.00 24578385.00 L 24887085.00 24565362.00 L 24890141.00 24550001.00 L 24890141.00 23116627.00 L 25060733.00 22947311.00 L 25079173.00 22935970.00 L 25100956.00 22926019.00 L 25126082.00 22917457.00 L 25154551.00 22910284.00 L 25221520.00 22900107.00 L 25301861.00 22895487.00 L 25335914.13 22895316.68 L 25350000.00 22896704.00 A 296709.45 296709.45 0 1 0 25053296.00 22600000.00 L 25054683.32 22614085.87 L 25054513.00 22648139.00 L 25049893.00 22728480.00 L 25039716.00 22795449.00 L 25032543.00 22823918.00 L 25023981.00 22849044.00 L 25014030.00 22870827.00 L 25002689.00 22889267.00 L 24821616.00 23071616.00 L 24812915.00 23084639.00 L 24809859.00 23100000.00 L 24809859.00 24533374.00 L 22171616.00 27171617.00 L 22162915.00 27184640.00 L 22159859.00 27200001.00 L 22159859.00 28265568.14 L 22157973.00 28278858.00 L 22150000.00 28303182.00 L 22136209.12 28324249.72 L 22129040.00 28329040.00 A 100353.26 100353.26 0 1 0 22270960.00 28329040.00  zM 25350001.68 22599988.93 m -218414.07 0 a 218414.07 218414.07 0 1 1 436828.14 0a 218414.07 218414.07 0 1 1 -436828.14 0"/>
<path id="N" d="M 21350007.86 22600021.10 m -296681.84 0 a 296681.84 296681.84 0 1 1 593363.68 0a 296681.84 296681.84 0 1 1 -593363.68 0M 21350001.68 22599988.93 m -218414.07 0 a 218414.07 218414.07 0 1 1 436828.14 0a 218414.07 218414.07 0 1 1 -436828.14 0"/>
<path id="N" d="M 16740738.00 41787843.00 L 16755482.00 41782431.00 L 34448864.00 41782431.00 L 34462146.00 41780016.00 L 34564058.00 41777519.00 A 1039212.37 1039212.37 0 0 0 35479445.00 40859851.00 L 35480900.00 40760047.00 L 35482345.00 40754490.00 L 35483219.00 22656775.00 L 35484896.00 22650816.00 L 35485913.00 22539741.00 A 1039307.69 1039307.69 0 0 0 34569127.00 21607933.00 L 34468322.00 21606294.00 L 34457927.00 21603759.00 L 16729697.00 21603391.00 L 16620387.00 21605133.00 A 1039353.80 1039353.80 0 0 0 15696448.00 22537295.00 L 15696986.00 22646078.00 L 15696921.00 40822030.00 A 1036583.79 1036583.79 0 0 0 16663524.00 41788634.00 L 16734478.00 41788634.00 L 16740738.00 41787843.00  zM 21350000.00 22600009.04 m -377233.40 0 a 377233.40 377233.40 0 1 1 754466.80 0a 377233.40 377233.40 0 1 1 -754466.80 0M 21350001.68 23599988.93 m -218414.07 0 a 218414.07 218414.07 0 1 1 436828.14 0a 218414.07 218414.07 0 1 1 -436828.14 0M 22350000.00 22600009.04 m -377233.40 0 a 377233.40 377233.40 0 1 1 754466.80 0a 377233.40 377233.40 0 1 1 -754466.80 0M 22350000.00 23600009.04 m -377233.40 0 a 377233.40 377233.40 0 1 1 754466.80 0a 377233.40 377233.40 0 1 1 -754466.80 0M 22099644.00 28550193.00 L 22052993.34 28503542.34 L 22025000.00 28501853.33 L 21997006.66 28503542.34 L 21950356.00 28550193.00 A 180635.25 180635.25 0 0 1 21702993.34 28503542.34 L 21675000.00 28501853.33 L 21647006.66 28503542.34 L 21600356.00 28550193.00 A 180635.25 180635.25 0 0 1 21349807.00 28299644.00 L 21369007.94 28280443.06 L 21378627.45 28265400.60 L 21379575.00 27250001.00 L 21388743.00 27203917.00 L 21414847.00 27164848.00 L 22779576.00 25800119.00 L 22779575.00 23050000.00 L 22788743.00 23003916.00 L 22814847.00 22964847.00 L 22937446.33 22842099.70 L 22949285.96 22819342.96 L 22961210.26 22778436.59 L 22969895.74 22721197.44 L 22974241.57 22645624.22 L 22974457.00 22602551.00 L 22975985.00 22595065.39 L 22975985.00 22550760.00 A 377248.67 377248.67 0 1 1 23399240.00 22974015.00 L 23354934.61 22974015.00 L 23347449.00 22975543.00 L 23304375.69 22975758.43 L 23228802.70 22980104.25 L 23171550.57 22988792.98 L 23130657.04 23000714.04 L 23106956.20 23013349.80 L 23020424.00 23099882.00 L 23020424.00 23329928.72 L 23070424.43 23350639.57 L 23120350.00 23300714.00 A 377248.67 377248.67 0 0 1 23579650.00 23300714.00 L 23629575.57 23350639.57 L 23679576.00 23329928.72 L 23679575.00 23150000.00 L 23688743.00 23103916.00 L 23714847.00 23064847.00 L 23937446.33 22842099.70 L 23949285.96 22819342.96 L 23961210.26 22778436.59 L 23969895.74 22721197.44 L 23974241.57 22645624.22 L 23974457.00 22602551.00 L 23975985.00 22595065.39 L 23975985.00 22550760.00 A 377248.67 377248.67 0 1 1 24399240.00 22974015.00 L 24354934.61 22974015.00 L 24347449.00 22975543.00 L 24304375.69 22975758.43 L 24228802.70 22980104.25 L 24171550.57 22988792.98 L 24130657.04 23000714.04 L 24106953.63 23013351.97 L 23920424.00 23199881.94 L 23920424.00 25238559.75 L 23947923.10 25255817.70 L 23969345.42 25260349.58 L 24729576.00 24500119.00 L 24729576.00 23790584.41 L 24679575.68 23777186.84 L 24649286.00 23829650.00 A 377243.65 377243.65 0 1 1 24649286.00 23370350.00 L 24679575.68 23422813.16 L 24729576.00 23409415.59 L 24729575.00 23100000.00 L 24738743.00 23053916.00 L 24764847.00 23014847.00 L 24937446.33 22842099.70 L 24949285.96 22819342.96 L 24961210.26 22778436.59 L 24969895.74 22721197.44 L 24974241.57 22645624.22 L 24974457.00 22602551.00 L 24975985.00 22595065.39 L 24975985.00 22550760.00 A 377248.67 377248.67 0 1 1 25399240.00 22974015.00 L 25354934.61 22974015.00 L 25347449.00 22975543.00 L 25304375.69 22975758.43 L 25228802.70 22980104.25 L 25171550.57 22988792.98 L 25130657.04 23000714.04 L 25106954.01 23013351.65 L 24970424.00 23149881.93 L 24970424.00 23178287.94 L 24975985.92 23225984.25 L 25724015.00 23225985.00 L 25724015.00 23974015.00 L 24975985.92 23974015.75 L 24970424.00 24021712.06 L 24970425.00 24550001.00 L 24961257.00 24596085.00 L 24935153.00 24635154.00 L 22320424.00 27249883.00 L 22321371.97 28265398.19 L 22330992.06 28280443.06 L 22350193.00 28299644.00 A 180635.25 180635.25 0 0 1 22099644.00 28550193.00  zM 21499807.00 26150356.00 L 21488580.46 26123252.80 L 21434460.37 26123252.80 L 21431130.00 26131293.00 A 180636.28 180636.28 0 1 1 21431130.00 25930581.00 L 21442356.54 25957684.20 L 21496476.63 25957684.20 L 21499807.00 25949644.00 A 180636.28 180636.28 0 1 1 21499807.00 26150356.00  zM 22800000.00 27100000.57 m -180635.25 0 a 180635.25 180635.25 0 1 1 361270.49 0a 180635.25 180635.25 0 1 1 -361270.49 0M 23272835.00 27564760.00 L 23274418.46 27560937.21 L 23239062.79 27525581.54 L 23235240.00 27527165.00 A 180635.25 180635.25 0 1 1 23377165.00 27385240.00 L 23375581.54 27389062.79 L 23410937.21 27424418.46 L 23414760.00 27422835.00 A 180635.25 180635.25 0 1 1 23272835.00 27564760.00  zM 25700000.00 26050000.57 m -180635.25 0 a 180635.25 180635.25 0 1 1 361270.49 0a 180635.25 180635.25 0 1 1 -361270.49 0M 26150000.00 26050000.57 m -180635.25 0 a 180635.25 180635.25 0 1 1 361270.49 0a 180635.25 180635.25 0 1 1 -361270.49 0M 23750000.00 28950000.57 m -180635.25 0 a 180635.25 180635.25 0 1 1 361270.49 0a 180635.25 180635.25 0 1 1 -361270.49 0M 24400000.00 28950000.57 m -180635.25 0 a 180635.25 180635.25 0 1 1 361270.49 0a 180635.25 180635.25 0 1 1 -361270.49 0M 28000000.00 27350000.57 m -180635.25 0 a 180635.25 180635.25 0 1 1 361270.49 0a 180635.25 180635.25 0 1 1 -361270.49 0M 29200000.00 27750000.57 m -180635.25 0 a 180635.25 180635.25 0 1 1 361270.49 0a 180635.25 180635.25 0 1 1 -361270.49 0M 34251925.00 28936932.04 m -377233.40 0 a 377233.40 377233.40 0 1 1 754466.80 0a 377233.40 377233.40 0 1 1 -754466.80 0M 21962205.00 30022591.00 L 21968738.00 30006818.75 L 21968738.00 29604370.00 L 21544830.00 29180462.00 L 19743981.25 29180462.00 L 19728209.00 29186995.00 A 140496.39 140496.39 0 1 1 19728209.00 28911405.00 L 19743981.25 28917938.00 L 21599200.00 28917938.00 L 21649432.00 28927930.00 L 21692016.00 28956384.00 L 22192816.00 29457184.00 L 22221270.00 29499768.00 L 22231262.00 29550000.00 L 22231262.00 30006818.75 L 22237795.00 30022591.00 A 140496.39 140496.39 0 1 1 21962205.00 30022591.00  zM 21900800.00 32399198.11 m -140496.39 0 a 140496.39 140496.39 0 1 1 280992.78 0a 140496.39 140496.39 0 1 1 -280992.78 0M 17099990.00 36550049.18 m -436807.79 0 a 436807.79 436807.79 0 1 1 873615.58 0a 436807.79 436807.79 0 1 1 -873615.58 0M 21250000.00 32699998.11 m -140496.39 0 a 140496.39 140496.39 0 1 1 280992.78 0a 140496.39 140496.39 0 1 1 -280992.78 0M 17099990.00 40880749.18 m -436807.79 0 a 436807.79 436807.79 0 1 1 873615.58 0a 436807.79 436807.79 0 1 1 -873615.58 0M 21036986.06 39699612.63 m -356031.37 0 a 356031.37 356031.37 0 1 1 712062.74 0a 356031.37 356031.37 0 1 1 -712062.74 0M 21036989.00 37731141.56 m -575799.36 0 a 575799.36 575799.36 0 1 1 1151598.73 0a 575799.36 575799.36 0 1 1 -1151598.73 0M 24100000.00 35950000.57 m -180635.25 0 a 180635.25 180635.25 0 1 1 361270.49 0a 180635.25 180635.25 0 1 1 -361270.49 0M 24600000.00 35950000.57 m -180635.25 0 a 180635.25 180635.25 0 1 1 361270.49 0a 180635.25 180635.25 0 1 1 -361270.49 0M 25250000.00 30350000.57 m -180635.25 0 a 180635.25 180635.25 0 1 1 361270.49 0a 180635.25 180635.25 0 1 1 -361270.49 0M 29349994.97 34470424.00 L 21450000.00 34470425.00 L 21403916.00 34461257.00 L 21364844.99 34435149.99 L 20913881.58 33984187.49 L 20871945.00 33966817.00 A 140492.97 140492.97 0 1 1 21084187.49 33813881.58 L 21499881.07 34229576.00 L 21993942.10 34229576.00 L 22013076.41 34183381.58 L 21808370.69 33978676.53 L 21766434.00 33961306.00 A 140492.97 140492.97 0 1 1 21978676.53 33808370.69 L 22199881.12 34029576.00 L 22692802.18 34029576.00 L 22702747.74 33979575.75 L 22671945.00 33966817.00 A 140492.97 140492.97 0 0 1 22612205.00 33822591.00 L 22629576.00 33780653.18 L 22629576.00 32336007.28 L 22579575.57 32315296.43 A 138028.52 138028.52 0 1 1 22579575.57 32084703.57 L 22629576.00 32063992.72 L 22629575.00 31850000.00 L 22638743.00 31803916.00 L 22664847.00 31764847.00 L 25064847.00 29364847.00 L 25103916.00 29338743.00 L 25150005.03 29329576.00 L 29891932.00 29329575.00 L 29938016.00 29338743.00 L 29977085.00 29364847.00 L 29989303.09 29377065.09 L 30505651.72 29578124.65 L 30535271.00 29586061.00 A 575799.15 575799.15 0 1 1 29782963.00 29897677.00 L 29791367.42 29883120.23 L 29803647.65 29849182.95 L 29821020.41 29792223.21 L 29833398.33 29740533.94 L 29840920.61 29694404.40 L 29843861.69 29654066.54 L 29842656.06 29619763.84 L 29837944.18 29591538.99 L 29830947.07 29570424.00 L 25199881.01 29570424.00 L 22870424.00 31899881.99 L 22870424.00 33780653.18 L 22887795.00 33822591.00 A 140496.39 140496.39 0 0 1 22828055.00 33966817.00 L 22797252.26 33979575.75 L 22807197.82 34029576.00 L 24200118.01 34029576.00 L 25124292.30 33105402.07 L 25114537.69 33056362.18 L 25099644.00 33050193.00 A 180636.28 180636.28 0 1 1 25350193.00 32799644.00 L 25356362.21 32814537.76 L 25405402.10 32824292.38 L 26764847.00 31464847.00 L 26803916.00 31438743.00 L 26850000.00 31429576.00 L 29531179.51 31429576.00 L 29543415.60 31428319.53 L 29563893.61 31422393.53 L 29589372.29 31410806.16 L 29619262.35 31392802.35 L 29652938.14 31368058.30 L 29689900.71 31336479.76 L 29729145.52 31298697.83 L 29817826.05 31200465.94 L 29847653.92 31163629.91 L 29858119.00 31145504.00 A 575799.15 575799.15 0 1 1 29964406.00 31952829.00 L 29942955.67 31931378.67 L 29886091.64 31885664.42 L 29767086.27 31795710.09 L 29668191.67 31729332.56 L 29628048.24 31705892.54 L 29593366.05 31688258.91 L 29565612.80 31676813.45 L 29546242.75 31671268.69 L 26899881.01 31670424.00 L 24386924.38 34183381.60 L 24406058.73 34229576.00 L 29300118.00 34229576.00 L 30079235.95 33450458.05 L 30068280.90 33390701.67 L 29964406.00 33330729.00 A 575799.15 575799.15 0 1 1 30535271.00 33405885.00 L 30412721.70 33438721.53 L 30411257.00 33446084.00 L 30385153.00 33485153.00 L 29435153.00 34435153.00 L 29396084.00 34461257.00 L 29349994.97 34470424.00  zM 29150000.00 30350000.57 m -180635.25 0 a 180635.25 180635.25 0 1 1 361270.49 0a 180635.25 180635.25 0 1 1 -361270.49 0M 29050000.00 32750000.57 m -180635.25 0 a 180635.25 180635.25 0 1 1 361270.49 0a 180635.25 180635.25 0 1 1 -361270.49 0M 34251925.00 34055132.04 m -377233.40 0 a 377233.40 377233.40 0 1 1 754466.80 0a 377233.40 377233.40 0 1 1 -754466.80 0"/>
<path id="N" d="M 23679576.00 25200119.98 L 23679576.00 23870071.28 L 23629575.57 23849360.43 L 23579650.00 23899286.00 A 377248.67 377248.67 0 0 1 23120350.00 23899286.00 L 23070424.43 23849360.43 L 23020424.00 23870071.28 L 23020424.00 25788560.38 L 23070424.43 25809271.24 L 23679576.00 25200119.98  z"/>
<path id="N" d="M 21036986.48 37731135.07 m -493661.69 0 a 493661.69 493661.69 0 1 1 987323.38 0a 493661.69 493661.69 0 1 1 -987323.38 0M 21036986.06 37731112.63 m -356031.37 0 a 356031.37 356031.37 0 1 1 712062.74 0a 356031.37 356031.37 0 1 1 -712062.74 0"/>
<path id="N" d="M 22350007.86 22600021.10 m -296681.84 0 a 296681.84 296681.84 0 1 1 593363.68 0a 296681.84 296681.84 0 1 1 -593363.68 0M 22350001.68 22599988.93 m -218414.07 0 a 218414.07 218414.07 0 1 1 436828.14 0a 218414.07 218414.07 0 1 1 -436828.14 0"/>
<path id="N" d="M 22350007.86 23600021.10 m -296681.84 0 a 296681.84 296681.84 0 1 1 593363.68 0a 296681.84 296681.84 0 1 1 -593363.68 0M 22350001.68 23599988.93 m -218414.07 0 a 218414.07 218414.07 0 1 1 436828.14 0a 218414.07 218414.07 0 1 1 -436828.14 0"/>
<path id="N" d="M 21649998.47 26049998.47 m -100354.75 0 a 100354.75 100354.75 0 1 1 200709.51 0a 100354.75 100354.75 0 1 1 -200709.51 0"/>
<path id="N" d="M 24599998.47 35949998.47 m -100354.75 0 a 100354.75 100354.75 0 1 1 200709.51 0a 100354.75 100354.75 0 1 1 -200709.51 0"/>
<path id="N" d="M 23749998.47 28949998.47 m -100354.75 0 a 100354.75 100354.75 0 1 1 200709.51 0a 100354.75 100354.75 0 1 1 -200709.51 0"/>
<path id="N" d="M 25699998.47 26049998.47 m -100354.75 0 a 100354.75 100354.75 0 1 1 200709.51 0a 100354.75 100354.75 0 1 1 -200709.51 0"/>
<path id="N" d="M 25199998.47 32899998.47 m -100354.75 0 a 100354.75 100354.75 0 1 1 200709.51 0a 100354.75 100354.75 0 1 1 -200709.51 0"/>
<path id="N" d="M 21249993.22 32699993.22 m -60221.14 0 a 60221.14 60221.14 0 1 1 120442.28 0a 60221.14 60221.14 0 1 1 -120442.28 0"/>
<path id="N" d="M 21920960.00 28329040.00 L 21913287.00 28323711.00 L 21908268.00 28317290.00 L 21896752.00 28295496.00 L 21890551.00 28269906.00 L 21890141.00 27216628.00 L 23828384.00 25278385.00 L 23837085.00 25265363.00 L 23840141.00 25250001.00 L 23840141.00 23166627.00 L 24060733.00 22947311.00 L 24079173.00 22935970.00 L 24100956.00 22926019.00 L 24126082.00 22917457.00 L 24154551.00 22910284.00 L 24221520.00 22900107.00 L 24301861.00 22895487.00 L 24335914.13 22895316.68 L 24350000.00 22896704.00 A 296709.45 296709.45 0 1 0 24053296.00 22600000.00 L 24054683.32 22614085.87 L 24054513.00 22648139.00 L 24049893.00 22728480.00 L 24039716.00 22795449.00 L 24032543.00 22823918.00 L 24023981.00 22849044.00 L 24014030.00 22870827.00 L 24002689.00 22889267.00 L 23771616.00 23121616.00 L 23762915.00 23134639.00 L 23759859.00 23150000.00 L 23759859.00 25233374.00 L 21821616.00 27171617.00 L 21812915.00 27184640.00 L 21809859.00 27200001.00 L 21809859.00 28265568.14 L 21807973.00 28278858.00 L 21800000.00 28303182.00 L 21786209.12 28324249.72 L 21779040.00 28329040.00 A 100353.26 100353.26 0 1 0 21920960.00 28329040.00  zM 24350001.68 22599988.93 m -218414.07 0 a 218414.07 218414.07 0 1 1 436828.14 0a 218414.07 218414.07 0 1 1 -436828.14 0"/>
<path id="N" d="M 29149998.47 30349998.47 m -100354.75 0 a 100354.75 100354.75 0 1 1 200709.51 0a 100354.75 100354.75 0 1 1 -200709.51 0"/>
<path id="N" d="M 26149998.47 26049998.47 m -100354.75 0 a 100354.75 100354.75 0 1 1 200709.51 0a 100354.75 100354.75 0 1 1 -200709.51 0"/>
<path id="N" d="M 24399998.47 28949998.47 m -100354.75 0 a 100354.75 100354.75 0 1 1 200709.51 0a 100354.75 100354.75 0 1 1 -200709.51 0"/>
<path id="N" d="M 29199998.47 27749998.47 m -100354.75 0 a 100354.75 100354.75 0 1 1 200709.51 0a 100354.75 100354.75 0 1 1 -200709.51 0"/>
<path id="N" d="M 22790630.00 33805718.00 L 22790141.00 31866627.00 L 25166627.00 29490141.00 L 29874542.94 29490141.00 L 29887737.00 29506186.00 L 29904451.00 29537010.00 L 29916107.00 29572184.00 L 29922705.00 29611707.00 L 29924247.00 29655580.00 L 29920731.00 29703803.00 L 29912158.00 29756376.00 L 29898527.00 29813298.00 L 29879839.00 29874570.00 L 29845439.00 29965478.00 A 493671.19 493671.19 0 1 0 30467470.00 29648537.00 L 29944457.73 29445757.73 L 29920316.00 29421616.00 L 29907293.00 29412915.00 L 29891932.00 29409859.00 L 25150000.00 29409859.00 L 25134639.00 29412915.00 L 25121616.00 29421616.00 L 22721616.00 31821616.00 L 22712915.00 31834639.00 L 22709859.00 31850000.00 L 22709859.00 33785153.55 L 22708729.27 33806551.79 A 58536.66 58536.66 0 1 0 22790630.00 33805718.00  zM 30314961.83 30118037.35 m -336254.65 0 a 336254.65 336254.65 0 1 1 672509.30 0a 336254.65 336254.65 0 1 1 -672509.30 0"/>
<path id="N" d="M 25645275.00 23304725.00 L 25054725.00 23304725.00 L 25054725.00 23895275.00 L 25645275.00 23895275.00 L 25645275.00 23304725.00  zM 25350001.68 23599988.93 m -218414.07 0 a 218414.07 218414.07 0 1 1 436828.14 0a 218414.07 218414.07 0 1 1 -436828.14 0"/>
<path id="N" d="M 23449998.47 27599998.47 m -100354.75 0 a 100354.75 100354.75 0 1 1 200709.51 0a 100354.75 100354.75 0 1 1 -200709.51 0"/>
<path id="N" d="M 29049998.47 32749998.47 m -100354.75 0 a 100354.75 100354.75 0 1 1 200709.51 0a 100354.75 100354.75 0 1 1 -200709.51 0"/>
<path id="N" d="M 17099989.61 40880751.63 m -356042.81 0 a 356042.81 356042.81 0 1 1 712085.61 0a 356042.81 356042.81 0 1 1 -712085.61 0M 17099999.97 40880700.30 m -218408.70 0 a 218408.70 218408.70 0 1 1 436817.39 0a 218408.70 218408.70 0 1 1 -436817.39 0"/>
<path id="N" d="M 17099989.61 36550051.63 m -356042.81 0 a 356042.81 356042.81 0 1 1 712085.61 0a 356042.81 356042.81 0 1 1 -712085.61 0M 17099999.97 36550000.30 m -218408.70 0 a 218408.70 218408.70 0 1 1 436817.39 0a 218408.70 218408.70 0 1 1 -436817.39 0"/>
<path id="N" d="M 34251932.86 28936944.10 m -296681.84 0 a 296681.84 296681.84 0 1 1 593363.68 0a 296681.84 296681.84 0 1 1 -593363.68 0M 34251962.32 28936934.24 m -198537.76 0 a 198537.76 198537.76 0 1 1 397075.52 0a 198537.76 198537.76 0 1 1 -397075.52 0"/>
<path id="N" d="M 34251932.86 34055144.10 m -296681.84 0 a 296681.84 296681.84 0 1 1 593363.68 0a 296681.84 296681.84 0 1 1 -593363.68 0M 34251962.32 34055134.24 m -198537.76 0 a 198537.76 198537.76 0 1 1 397075.52 0a 198537.76 198537.76 0 1 1 -397075.52 0"/>
<path id="N" d="M 21280935.47 26030935.47 m -100354.75 0 a 100354.75 100354.75 0 1 1 200709.51 0a 100354.75 100354.75 0 1 1 -200709.51 0"/>
<path id="N" d="M 24099998.47 35949998.47 m -100354.75 0 a 100354.75 100354.75 0 1 1 200709.51 0a 100354.75 100354.75 0 1 1 -200709.51 0"/>
<path id="N" d="M 24350007.86 23600021.10 m -296681.84 0 a 296681.84 296681.84 0 1 1 593363.68 0a 296681.84 296681.84 0 1 1 -593363.68 0M 24350001.68 23599988.93 m -218414.07 0 a 218414.07 218414.07 0 1 1 436828.14 0a 218414.07 218414.07 0 1 1 -436828.14 0"/>
<path id="N" d="M 23199998.47 27349998.47 m -100354.75 0 a 100354.75 100354.75 0 1 1 200709.51 0a 100354.75 100354.75 0 1 1 -200709.51 0"/>
<path id="N" d="M 29365361.00 34387085.00 L 29378384.00 34378384.00 L 30328384.00 33428384.00 L 30337085.00 33415361.00 L 30340141.00 33400000.00 L 30340141.00 33365585.32 L 30392148.00 33361492.00 A 493661.69 493661.69 0 1 0 30237702.00 33361492.00 L 30259859.00 33363235.91 L 30259859.00 33383373.00 L 29333373.00 34309859.00 L 21466627.00 34309859.00 L 21024234.27 33867466.27 L 21009905.71 33851539.91 A 58536.16 58536.16 0 1 0 20952583.00 33910042.00 L 21421616.00 34378384.00 L 21434639.00 34387085.00 L 21450000.00 34390141.00 L 29350000.00 34390141.00 L 29365361.00 34387085.00  zM 30314961.83 32873937.35 m -336254.65 0 a 336254.65 336254.65 0 1 1 672509.30 0a 336254.65 336254.65 0 1 1 -672509.30 0"/>
<path id="N" d="M 24265361.00 34187085.00 L 24278384.00 34178384.00 L 26866627.00 31590141.00 L 29543311.20 31590141.00 L 29561910.00 31592246.00 L 29592051.00 31600874.00 L 29626920.00 31615255.00 L 29666518.00 31635388.00 L 29710846.00 31661272.00 L 29813689.00 31730299.00 L 29935448.00 31822334.00 L 30024767.00 31895392.00 A 493611.64 493611.64 0 1 0 29915556.00 31205865.00 L 29878857.00 31252670.00 L 29786855.00 31354580.00 L 29743851.00 31395981.00 L 29702845.00 31431013.00 L 29663837.00 31459675.00 L 29626826.00 31481968.00 L 29591814.00 31497891.00 L 29558799.00 31507445.00 L 29535290.35 31509859.00 L 26850000.00 31509859.00 L 26834639.00 31512915.00 L 26821616.00 31521616.00 L 24233373.00 34109859.00 L 22166627.00 34109859.00 L 21918723.27 33861955.27 L 21904394.71 33846028.91 A 58536.16 58536.16 0 1 0 21847072.00 33904531.00 L 22121616.00 34178384.00 L 22134639.00 34187085.00 L 22150000.00 34190141.00 L 24250000.00 34190141.00 L 24265361.00 34187085.00  zM 30314961.83 31496037.35 m -336254.65 0 a 336254.65 336254.65 0 1 1 672509.30 0a 336254.65 336254.65 0 1 1 -672509.30 0"/>
<path id="N" d="M 22155629.00 30026958.00 L 22150980.00 30020000.71 L 22150980.00 29550000.00 L 22147099.00 29530491.00 L 22136048.00 29513952.00 L 21635248.00 29013152.00 L 21618709.00 29002101.00 L 21599200.00 28998220.00 L 19730799.29 28998220.00 L 19723842.00 28993571.00 A 60215.76 60215.76 0 1 0 19723842.00 29104829.00 L 19730799.29 29100180.00 L 21578084.00 29100180.00 L 22049020.00 29571116.00 L 22049020.00 30020000.71 L 22044371.00 30026958.00 A 60215.76 60215.76 0 1 0 22155629.00 30026958.00  z"/>
</g>
</svg>
