<svg width="50.2652411mm" height="51.27051722mm" viewBox="0 0 19789465 20185243"  version="1.1" xmlns="http://www.w3.org/2000/svg" xmlns:xlink="http://www.w3.org/1999/xlink">
<desc>
Origin 0 0 Bound 15696448 21603391 19789465 20185243
</desc>
<g fill-rule="evenodd" fill="rgb(128, 128, 0)" stroke="black" stroke-width="1" transform="translate(0, 20185243) scale(1, -1) translate(-15696448, -21603391)">
<path id="N" d="M 26355924.00 32776207.00 L 26365691.00 32769681.00 L 26398489.00 32736884.00 L 26405015.00 32727117.00 L 26407306.00 32715596.00 L 26405016.00 32704076.00 L 26398490.00 32694309.00 L 26388723.00 32687783.00 L 26377202.00 32685492.00 L 26365682.00 32687782.00 L 26355915.00 32694308.00 L 26331934.27 32718288.00 L 26291278.73 32718288.00 L 26276116.00 32703125.73 L 26276116.00 32695267.27 L 26291278.73 32680105.00 L 26311607.00 32680105.00 L 26323128.00 32677813.00 L 26332894.00 32671287.00 L 26339420.00 32661521.00 L 26341712.00 32650000.00 L 26339420.00 32638479.00 L 26332894.00 32628713.00 L 26323128.00 32622187.00 L 26311607.00 32619895.00 L 26291278.27 32619895.00 L 26276116.00 32604732.27 L 26276116.00 32596874.27 L 26291278.73 32581712.00 L 26331934.73 32581712.00 L 26355914.00 32605692.00 L 26365682.00 32612218.00 L 26377202.00 32614509.00 L 26388722.00 32612218.00 L 26398489.00 32605692.00 L 26405015.00 32595925.00 L 26407306.00 32584405.00 L 26405015.00 32572885.00 L 26398489.00 32563117.00 L 26365691.00 32530320.00 L 26355925.00 32523794.00 L 26344404.00 32521502.00 L 26278809.00 32521502.00 L 26267288.00 32523794.00 L 26257521.00 32530320.00 L 26224724.00 32563118.00 L 26218198.00 32572884.00 L 26215906.00 32584405.00 L 26215906.00 32617202.00 L 26218198.00 32628723.00 L 26221461.00 32633606.00 L 26236234.50 32650000.15 L 26224724.00 32661511.00 L 26218198.00 32671277.00 L 26215906.00 32682798.00 L 26215906.00 32715596.00 L 26218198.00 32727117.00 L 26224724.00 32736884.00 L 26257522.00 32769681.00 L 26267289.00 32776207.00 L 26278809.00 32778498.00 L 26344404.00 32778498.00 L 26355924.00 32776207.00  z"/>
<path id="N" d="M 26561712.00 27776204.00 L 26571479.00 27769678.00 L 26604276.00 27736880.00 L 26610802.00 27727114.00 L 26613094.00 27715593.00 L 26613094.00 27649998.00 L 26610802.00 27638477.00 L 26604276.00 27628710.00 L 26571478.00 27595913.00 L 26561712.00 27589387.00 L 26550191.00 27587095.00 L 26517393.00 27587095.00 L 26504973.83 27589987.19 L 26481903.00 27601286.50 L 26481903.00 27581710.00 L 26582989.00 27581710.00 L 26594510.00 27579418.00 L 26604276.00 27572892.00 L 26610802.00 27563126.00 L 26613094.00 27551605.00 L 26610802.00 27540084.00 L 26604276.00 27530318.00 L 26594510.00 27523792.00 L 26582989.00 27521500.00 L 26451798.00 27521500.00 L 26440277.00 27523792.00 L 26430511.00 27530318.00 L 26423985.00 27540084.00 L 26421693.00 27551605.00 L 26421693.00 27649998.00 L 26424584.77 27662416.54 L 26430511.00 27671285.00 L 26440277.00 27677811.00 L 26451798.00 27680103.00 L 26464216.54 27677211.23 L 26524499.29 27647305.00 L 26537721.73 27647305.00 L 26552884.00 27662467.73 L 26552884.00 27703123.73 L 26537721.27 27718286.00 L 26497065.27 27718286.00 L 26473086.00 27694306.00 L 26463318.00 27687780.00 L 26451798.00 27685489.00 L 26440278.00 27687780.00 L 26430511.00 27694306.00 L 26423985.00 27704073.00 L 26421694.00 27715593.00 L 26423985.00 27727113.00 L 26430511.00 27736881.00 L 26463309.00 27769678.00 L 26473075.00 27776204.00 L 26484596.00 27778496.00 L 26550191.00 27778496.00 L 26561712.00 27776204.00  z"/>
<path id="N" d="M 26552710.00 32776207.00 L 26562477.00 32769681.00 L 26595275.00 32736884.00 L 26601801.00 32727117.00 L 26604093.00 32715596.00 L 26604093.00 32584405.00 L 26601801.00 32572884.00 L 26595275.00 32563118.00 L 26562478.00 32530320.00 L 26552711.00 32523794.00 L 26541190.00 32521502.00 L 26475595.00 32521502.00 L 26464074.00 32523794.00 L 26459196.12 32527053.58 L 26454317.00 32523794.00 L 26442797.00 32521503.00 L 26431277.00 32523794.00 L 26421509.00 32530320.00 L 26414984.00 32540087.00 L 26412693.00 32551607.00 L 26414984.00 32563127.00 L 26418243.66 32568006.00 L 26414984.00 32572884.00 L 26412692.00 32584405.00 L 26412692.00 32715596.00 L 26414984.00 32727117.00 L 26421510.00 32736884.00 L 26454308.00 32769681.00 L 26464075.00 32776207.00 L 26473304.00 32778042.23 L 26541190.00 32778498.00 L 26552710.00 32776207.00  zM 26528720.27 32718288.00 L 26488064.73 32718288.00 L 26472902.00 32703125.73 L 26472902.00 32624286.22 L 26487106.00 32638490.00 L 26496873.00 32645015.00 L 26508393.00 32647306.00 L 26519913.00 32645015.00 L 26529681.00 32638489.00 L 26536206.00 32628722.00 L 26538497.00 32617202.00 L 26536206.00 32605682.00 L 26529680.00 32595914.00 L 26515477.78 32581712.00 L 26528720.27 32581712.00 L 26543883.00 32596874.27 L 26543883.00 32703125.73 L 26528720.27 32718288.00  z"/>
<path id="N" d="M 26364926.00 27776204.00 L 26369803.88 27772944.42 L 26374683.00 27776204.00 L 26386203.00 27778495.00 L 26397723.00 27776204.00 L 26407491.00 27769678.00 L 26414016.00 27759911.00 L 26416307.00 27748391.00 L 26414016.00 27736871.00 L 26410756.34 27731992.00 L 26414016.00 27727114.00 L 26416308.00 27715593.00 L 26416308.00 27584402.00 L 26414016.00 27572881.00 L 26407490.00 27563114.00 L 26374692.00 27530317.00 L 26364925.00 27523791.00 L 26355696.00 27521955.77 L 26287810.00 27521500.00 L 26276290.00 27523791.00 L 26266523.00 27530317.00 L 26233725.00 27563114.00 L 26227199.00 27572881.00 L 26224907.00 27584402.00 L 26224907.00 27715593.00 L 26227199.00 27727114.00 L 26233725.00 27736880.00 L 26266522.00 27769678.00 L 26276289.00 27776204.00 L 26287810.00 27778496.00 L 26353405.00 27778496.00 L 26364926.00 27776204.00  zM 26313522.22 27718286.00 L 26300279.73 27718286.00 L 26285117.00 27703123.73 L 26285117.00 27596872.27 L 26300279.73 27581710.00 L 26340935.27 27581710.00 L 26356098.00 27596872.27 L 26356098.00 27675711.78 L 26341894.00 27661508.00 L 26332127.00 27654983.00 L 26320607.00 27652692.00 L 26309087.00 27654983.00 L 26299319.00 27661509.00 L 26292794.00 27671276.00 L 26290503.00 27682796.00 L 26292794.00 27694316.00 L 26299320.00 27704084.00 L 26313522.22 27718286.00  z"/>
<path id="N" d="M 27509912.00 35326207.00 L 27519679.00 35319681.00 L 27552477.00 35286884.00 L 27559003.00 35277117.00 L 27561295.00 35265596.00 L 27561295.00 35134405.00 L 27559003.00 35122884.00 L 27552477.00 35113118.00 L 27519680.00 35080320.00 L 27509913.00 35073794.00 L 27498392.00 35071502.00 L 27432797.00 35071502.00 L 27421276.00 35073794.00 L 27416398.12 35077053.58 L 27411519.00 35073794.00 L 27399999.00 35071503.00 L 27388479.00 35073794.00 L 27378711.00 35080320.00 L 27372186.00 35090087.00 L 27369895.00 35101607.00 L 27372186.00 35113127.00 L 27375445.66 35118006.00 L 27372186.00 35122884.00 L 27369894.00 35134405.00 L 27369894.00 35265596.00 L 27372186.00 35277117.00 L 27378712.00 35286884.00 L 27411510.00 35319681.00 L 27421277.00 35326207.00 L 27430506.00 35328042.23 L 27498392.00 35328498.00 L 27509912.00 35326207.00  zM 27485922.27 35268288.00 L 27445266.73 35268288.00 L 27430104.00 35253125.73 L 27430104.00 35174286.22 L 27444308.00 35188490.00 L 27454075.00 35195015.00 L 27465595.00 35197306.00 L 27477115.00 35195015.00 L 27486883.00 35188489.00 L 27493408.00 35178722.00 L 27495699.00 35167202.00 L 27493408.00 35155682.00 L 27486882.00 35145914.00 L 27472679.78 35131712.00 L 27485922.27 35131712.00 L 27501085.00 35146874.27 L 27501085.00 35253125.73 L 27485922.27 35268288.00  z"/>
<path id="N" d="M 28659991.98 32549987.23 m -151308.68 0 a 151308.68 151308.68 0 1 1 302617.36 0a 151308.68 151308.68 0 1 1 -302617.36 0M 28660000.00 32598940.00 L 28641271.00 32595215.00 L 28625394.00 32584606.00 L 28614785.00 32568729.00 L 28611060.00 32550000.00 L 28614785.00 32531271.00 L 28625394.00 32515394.00 L 28641271.00 32504785.00 L 28660000.00 32501060.00 L 28678729.00 32504785.00 L 28694606.00 32515394.00 L 28705215.00 32531271.00 L 28708940.00 32550000.00 L 28705215.00 32568729.00 L 28694606.00 32584606.00 L 28678729.00 32595215.00 L 28660000.00 32598940.00  z"/>
<path id="N" d="M 28649991.98 35099987.23 m -151308.68 0 a 151308.68 151308.68 0 1 1 302617.36 0a 151308.68 151308.68 0 1 1 -302617.36 0M 28650000.00 35148940.00 L 28631271.00 35145215.00 L 28615394.00 35134606.00 L 28604785.00 35118729.00 L 28601060.00 35100000.00 L 28604785.00 35081271.00 L 28615394.00 35065394.00 L 28631271.00 35054785.00 L 28650000.00 35051060.00 L 28668729.00 35054785.00 L 28684606.00 35065394.00 L 28695215.00 35081271.00 L 28698940.00 35100000.00 L 28695215.00 35118729.00 L 28684606.00 35134606.00 L 28668729.00 35145215.00 L 28650000.00 35148940.00  z"/>
<path id="N" d="M 28709991.98 30049987.23 m -151308.68 0 a 151308.68 151308.68 0 1 1 302617.36 0a 151308.68 151308.68 0 1 1 -302617.36 0M 28710000.00 30098940.00 L 28691271.00 30095215.00 L 28675394.00 30084606.00 L 28664785.00 30068729.00 L 28661060.00 30050000.00 L 28664785.00 30031271.00 L 28675394.00 30015394.00 L 28691271.00 30004785.00 L 28710000.00 30001060.00 L 28728729.00 30004785.00 L 28744606.00 30015394.00 L 28755215.00 30031271.00 L 28758940.00 30050000.00 L 28755215.00 30068729.00 L 28744606.00 30084606.00 L 28728729.00 30095215.00 L 28710000.00 30098940.00  z"/>
<path id="N" d="M 27313126.00 35326207.00 L 27322893.00 35319681.00 L 27355691.00 35286884.00 L 27362217.00 35277116.00 L 27364509.00 35265596.00 L 27362218.00 35254076.00 L 27355692.00 35244309.00 L 27345925.00 35237783.00 L 27331711.00 35236026.71 L 27331711.00 35131712.00 L 27345925.00 35129420.00 L 27355691.00 35122894.00 L 27362217.00 35113128.00 L 27364509.00 35101607.00 L 27362217.00 35090086.00 L 27355691.00 35080320.00 L 27345925.00 35073794.00 L 27334404.00 35071502.00 L 27268809.00 35071502.00 L 27257288.00 35073794.00 L 27247522.00 35080320.00 L 27240996.00 35090086.00 L 27238704.00 35101607.00 L 27240996.00 35113128.00 L 27247522.00 35122894.00 L 27257288.00 35129420.00 L 27271501.00 35131712.00 L 27271501.00 35298393.00 L 27273792.00 35309913.00 L 27280318.00 35319680.00 L 27290085.00 35326206.00 L 27301606.00 35328498.00 L 27313126.00 35326207.00  z"/>
<path id="N" d="M 28544980.00 32384000.00 L 28544980.00 32306000.00 A 50982.36 50982.36 0 1 0 28443020.00 32306000.00 L 28443020.00 32333020.00 L 26574596.77 32333020.00 L 26573099.00 32325491.00 A 50979.61 50979.61 0 0 0 26475020.00 32345000.00 L 26475020.00 32384000.00 A 50982.36 50982.36 0 0 0 26526000.00 32434980.00 L 28494000.00 32434980.00 A 50979.61 50979.61 0 0 0 28544980.00 32384000.00  z"/>
<path id="N" d="M 28544980.00 30494000.00 L 28544980.00 30416000.00 A 50982.36 50982.36 0 0 0 28494000.00 30365020.00 L 26526000.00 30365020.00 A 50982.36 50982.36 0 0 0 26475020.00 30416000.00 L 26475020.00 30455000.00 A 50982.36 50982.36 0 0 0 26573099.00 30474509.00 L 26574596.77 30466980.00 L 28443020.00 30466980.00 L 28443020.00 30494000.00 A 50982.36 50982.36 0 1 0 28544980.00 30494000.00  z"/>
<path id="N" d="M 28534980.00 33044000.00 L 28534980.00 32966000.00 A 50982.36 50982.36 0 0 0 28484000.00 32915020.00 L 26516000.00 32915020.00 A 50982.36 50982.36 0 0 0 26465020.00 32966000.00 L 26465020.00 33005000.00 A 50982.36 50982.36 0 0 0 26563099.00 33024509.00 L 26564596.77 33016980.00 L 28433020.00 33016980.00 L 28433020.00 33044000.00 A 50982.36 50982.36 0 0 0 28534980.00 33044000.00  z"/>
<path id="N" d="M 28594980.00 27994000.00 L 28594980.00 27916000.00 A 50982.36 50982.36 0 0 0 28544000.00 27865020.00 L 26576000.00 27865020.00 A 50982.36 50982.36 0 0 0 26525020.00 27916000.00 L 26525020.00 27955000.00 A 50982.36 50982.36 0 0 0 26623099.00 27974509.00 L 26624596.77 27966980.00 L 28493020.00 27966980.00 L 28493020.00 27994000.00 A 50982.36 50982.36 0 0 0 28594980.00 27994000.00  z"/>
<path id="N" d="M 28534980.00 34934000.00 L 28534980.00 34856000.00 A 50982.36 50982.36 0 0 0 28433020.00 34856000.00 L 28433020.00 34883020.00 L 26564596.77 34883020.00 L 26563099.00 34875491.00 A 50979.61 50979.61 0 0 0 26465020.00 34895000.00 L 26465020.00 34934000.00 A 50982.36 50982.36 0 0 0 26516000.00 34984980.00 L 28484000.00 34984980.00 A 50979.61 50979.61 0 0 0 28534980.00 34934000.00  z"/>
<path id="N" d="M 28594980.00 29884000.00 L 28594980.00 29806000.00 A 50982.36 50982.36 0 0 0 28493020.00 29806000.00 L 28493020.00 29833020.00 L 26624596.77 29833020.00 L 26623099.00 29825491.00 A 50979.61 50979.61 0 0 0 26525020.00 29845000.00 L 26525020.00 29884000.00 A 50982.36 50982.36 0 0 0 26576000.00 29934980.00 L 28544000.00 29934980.00 A 50979.61 50979.61 0 0 0 28594980.00 29884000.00  z"/>
</g>
</svg>
