<svg width="50.2652411mm" height="51.27051722mm" viewBox="0 0 19789465 20185243"  version="1.1" xmlns="http://www.w3.org/2000/svg" xmlns:xlink="http://www.w3.org/1999/xlink">
<desc>
Origin 0 0 Bound 15696448 21603391 19789465 20185243
</desc>
<g fill-rule="evenodd" fill="rgb(255, 0, 255)" stroke="black" stroke-width="1" transform="translate(0, 20185243) scale(1, -1) translate(-15696448, -21603391)">
<path id="N" d="M 16740738.00 41787843.00 L 16755482.00 41782431.00 L 34448864.00 41782431.00 L 34462146.00 41780016.00 L 34564058.00 41777519.00 A 1039212.37 1039212.37 0 0 0 35479445.00 40859851.00 L 35480900.00 40760047.00 L 35482345.00 40754490.00 L 35483219.00 22656775.00 L 35484896.00 22650816.00 L 35485913.00 22539741.00 A 1039307.69 1039307.69 0 0 0 34569127.00 21607933.00 L 34468322.00 21606294.00 L 34457927.00 21603759.00 L 16730850.00 21603391.00 L 16620387.00 21605133.00 A 1039353.80 1039353.80 0 0 0 15696448.00 22537295.00 L 15696986.00 22646078.00 L 15696921.00 40822030.00 A 1036583.79 1036583.79 0 0 0 16663524.00 41788634.00 L 16734478.00 41788634.00 L 16740738.00 41787843.00  zM 18382678.67 21999995.75 m -101000.25 0 a 101000.25 101000.25 0 1 1 202000.49 0a 101000.25 101000.25 0 1 1 -202000.49 0M 18382678.67 22354326.75 m -101000.25 0 a 101000.25 101000.25 0 1 1 202000.49 0a 101000.25 101000.25 0 1 1 -202000.49 0M 18737009.67 22354326.75 m -101000.25 0 a 101000.25 101000.25 0 1 1 202000.49 0a 101000.25 101000.25 0 1 1 -202000.49 0M 17445670.67 23099995.75 m -101000.25 0 a 101000.25 101000.25 0 1 1 202000.49 0a 101000.25 101000.25 0 1 1 -202000.49 0M 17800001.67 23099995.75 m -101000.25 0 a 101000.25 101000.25 0 1 1 202000.49 0a 101000.25 101000.25 0 1 1 -202000.49 0M 17800001.67 23454326.75 m -101000.25 0 a 101000.25 101000.25 0 1 1 202000.49 0a 101000.25 101000.25 0 1 1 -202000.49 0M 18737009.67 21999995.75 m -101000.25 0 a 101000.25 101000.25 0 1 1 202000.49 0a 101000.25 101000.25 0 1 1 -202000.49 0M 19091339.67 21999995.75 m -101000.25 0 a 101000.25 101000.25 0 1 1 202000.49 0a 101000.25 101000.25 0 1 1 -202000.49 0M 19091339.67 22354326.75 m -101000.25 0 a 101000.25 101000.25 0 1 1 202000.49 0a 101000.25 101000.25 0 1 1 -202000.49 0M 18737009.67 22708656.75 m -101000.25 0 a 101000.25 101000.25 0 1 1 202000.49 0a 101000.25 101000.25 0 1 1 -202000.49 0M 19091339.67 22708656.75 m -101000.25 0 a 101000.25 101000.25 0 1 1 202000.49 0a 101000.25 101000.25 0 1 1 -202000.49 0M 17445670.67 23454326.75 m -101000.25 0 a 101000.25 101000.25 0 1 1 202000.49 0a 101000.25 101000.25 0 1 1 -202000.49 0M 17445670.67 23808656.75 m -101000.25 0 a 101000.25 101000.25 0 1 1 202000.49 0a 101000.25 101000.25 0 1 1 -202000.49 0M 17800001.67 23808656.75 m -101000.25 0 a 101000.25 101000.25 0 1 1 202000.49 0a 101000.25 101000.25 0 1 1 -202000.49 0M 19100001.67 23849995.75 m -101000.25 0 a 101000.25 101000.25 0 1 1 202000.49 0a 101000.25 101000.25 0 1 1 -202000.49 0M 19100001.67 24204326.75 m -101000.25 0 a 101000.25 101000.25 0 1 1 202000.49 0a 101000.25 101000.25 0 1 1 -202000.49 0M 19100001.67 24558657.75 m -101000.25 0 a 101000.25 101000.25 0 1 1 202000.49 0a 101000.25 101000.25 0 1 1 -202000.49 0M 19100001.67 24912987.75 m -101000.25 0 a 101000.25 101000.25 0 1 1 202000.49 0a 101000.25 101000.25 0 1 1 -202000.49 0M 19100001.67 25267318.75 m -101000.25 0 a 101000.25 101000.25 0 1 1 202000.49 0a 101000.25 101000.25 0 1 1 -202000.49 0M 17571655.67 27649995.75 m -101000.25 0 a 101000.25 101000.25 0 1 1 202000.49 0a 101000.25 101000.25 0 1 1 -202000.49 0M 16508662.67 27649995.75 m -101000.25 0 a 101000.25 101000.25 0 1 1 202000.49 0a 101000.25 101000.25 0 1 1 -202000.49 0M 16862993.67 27649995.75 m -101000.25 0 a 101000.25 101000.25 0 1 1 202000.49 0a 101000.25 101000.25 0 1 1 -202000.49 0M 19445670.67 21999995.75 m -101000.25 0 a 101000.25 101000.25 0 1 1 202000.49 0a 101000.25 101000.25 0 1 1 -202000.49 0M 19445670.67 22354326.75 m -101000.25 0 a 101000.25 101000.25 0 1 1 202000.49 0a 101000.25 101000.25 0 1 1 -202000.49 0M 19800001.67 21999995.75 m -101000.25 0 a 101000.25 101000.25 0 1 1 202000.49 0a 101000.25 101000.25 0 1 1 -202000.49 0M 19445670.67 22708656.75 m -101000.25 0 a 101000.25 101000.25 0 1 1 202000.49 0a 101000.25 101000.25 0 1 1 -202000.49 0M 19800001.67 22354326.75 m -101000.25 0 a 101000.25 101000.25 0 1 1 202000.49 0a 101000.25 101000.25 0 1 1 -202000.49 0M 19454332.67 23849995.75 m -101000.25 0 a 101000.25 101000.25 0 1 1 202000.49 0a 101000.25 101000.25 0 1 1 -202000.49 0M 19808662.67 23849995.75 m -101000.25 0 a 101000.25 101000.25 0 1 1 202000.49 0a 101000.25 101000.25 0 1 1 -202000.49 0M 21349996.41 23600020.51 m -336876.49 0 a 336876.49 336876.49 0 1 1 673752.98 0a 336876.49 336876.49 0 1 1 -673752.98 0M 21349996.41 22600020.51 m -336876.49 0 a 336876.49 336876.49 0 1 1 673752.98 0a 336876.49 336876.49 0 1 1 -673752.98 0M 22349996.41 22600020.51 m -336876.49 0 a 336876.49 336876.49 0 1 1 673752.98 0a 336876.49 336876.49 0 1 1 -673752.98 0M 22349996.41 23600020.51 m -336876.49 0 a 336876.49 336876.49 0 1 1 673752.98 0a 336876.49 336876.49 0 1 1 -673752.98 0M 19454332.67 24204326.75 m -101000.25 0 a 101000.25 101000.25 0 1 1 202000.49 0a 101000.25 101000.25 0 1 1 -202000.49 0M 19454332.67 24558657.75 m -101000.25 0 a 101000.25 101000.25 0 1 1 202000.49 0a 101000.25 101000.25 0 1 1 -202000.49 0M 19808662.67 24912987.75 m -101000.25 0 a 101000.25 101000.25 0 1 1 202000.49 0a 101000.25 101000.25 0 1 1 -202000.49 0M 19454332.67 24912987.75 m -101000.25 0 a 101000.25 101000.25 0 1 1 202000.49 0a 101000.25 101000.25 0 1 1 -202000.49 0M 19454332.67 25267318.75 m -101000.25 0 a 101000.25 101000.25 0 1 1 202000.49 0a 101000.25 101000.25 0 1 1 -202000.49 0M 19808662.67 24204326.75 m -101000.25 0 a 101000.25 101000.25 0 1 1 202000.49 0a 101000.25 101000.25 0 1 1 -202000.49 0M 19808662.67 24558657.75 m -101000.25 0 a 101000.25 101000.25 0 1 1 202000.49 0a 101000.25 101000.25 0 1 1 -202000.49 0M 19808662.67 25267318.75 m -101000.25 0 a 101000.25 101000.25 0 1 1 202000.49 0a 101000.25 101000.25 0 1 1 -202000.49 0M 21280934.35 26030946.19 m -139609.81 0 a 139609.81 139609.81 0 1 1 279219.62 0a 139609.81 139609.81 0 1 1 -279219.62 0M 21649998.31 26050001.86 m -139617.14 0 a 139617.14 139617.14 0 1 1 279234.29 0a 139617.14 139617.14 0 1 1 -279234.29 0M 16154332.67 27649995.75 m -101000.25 0 a 101000.25 101000.25 0 1 1 202000.49 0a 101000.25 101000.25 0 1 1 -202000.49 0M 16154332.67 28004326.75 m -101000.25 0 a 101000.25 101000.25 0 1 1 202000.49 0a 101000.25 101000.25 0 1 1 -202000.49 0M 16508662.67 28004326.75 m -101000.25 0 a 101000.25 101000.25 0 1 1 202000.49 0a 101000.25 101000.25 0 1 1 -202000.49 0M 16154332.67 28358657.75 m -101000.25 0 a 101000.25 101000.25 0 1 1 202000.49 0a 101000.25 101000.25 0 1 1 -202000.49 0M 16508662.67 28358657.75 m -101000.25 0 a 101000.25 101000.25 0 1 1 202000.49 0a 101000.25 101000.25 0 1 1 -202000.49 0M 16508662.67 28712987.75 m -101000.25 0 a 101000.25 101000.25 0 1 1 202000.49 0a 101000.25 101000.25 0 1 1 -202000.49 0M 16154332.67 28712987.75 m -101000.25 0 a 101000.25 101000.25 0 1 1 202000.49 0a 101000.25 101000.25 0 1 1 -202000.49 0M 16154332.67 29067318.75 m -101000.25 0 a 101000.25 101000.25 0 1 1 202000.49 0a 101000.25 101000.25 0 1 1 -202000.49 0M 16508662.67 29067318.75 m -101000.25 0 a 101000.25 101000.25 0 1 1 202000.49 0a 101000.25 101000.25 0 1 1 -202000.49 0M 16862993.67 28712987.75 m -101000.25 0 a 101000.25 101000.25 0 1 1 202000.49 0a 101000.25 101000.25 0 1 1 -202000.49 0M 16862993.67 29067318.75 m -101000.25 0 a 101000.25 101000.25 0 1 1 202000.49 0a 101000.25 101000.25 0 1 1 -202000.49 0M 16862993.67 28004326.75 m -101000.25 0 a 101000.25 101000.25 0 1 1 202000.49 0a 101000.25 101000.25 0 1 1 -202000.49 0M 16862993.67 28358657.75 m -101000.25 0 a 101000.25 101000.25 0 1 1 202000.49 0a 101000.25 101000.25 0 1 1 -202000.49 0M 17217324.67 28004326.75 m -101000.25 0 a 101000.25 101000.25 0 1 1 202000.49 0a 101000.25 101000.25 0 1 1 -202000.49 0M 17217324.67 27649995.75 m -101000.25 0 a 101000.25 101000.25 0 1 1 202000.49 0a 101000.25 101000.25 0 1 1 -202000.49 0M 17571655.67 28004326.75 m -101000.25 0 a 101000.25 101000.25 0 1 1 202000.49 0a 101000.25 101000.25 0 1 1 -202000.49 0M 17571655.67 28358657.75 m -101000.25 0 a 101000.25 101000.25 0 1 1 202000.49 0a 101000.25 101000.25 0 1 1 -202000.49 0M 17217324.67 28358657.75 m -101000.25 0 a 101000.25 101000.25 0 1 1 202000.49 0a 101000.25 101000.25 0 1 1 -202000.49 0M 17217324.67 28712987.75 m -101000.25 0 a 101000.25 101000.25 0 1 1 202000.49 0a 101000.25 101000.25 0 1 1 -202000.49 0M 17571655.67 28712987.75 m -101000.25 0 a 101000.25 101000.25 0 1 1 202000.49 0a 101000.25 101000.25 0 1 1 -202000.49 0M 17217324.67 29067318.75 m -101000.25 0 a 101000.25 101000.25 0 1 1 202000.49 0a 101000.25 101000.25 0 1 1 -202000.49 0M 17571655.67 29067318.75 m -101000.25 0 a 101000.25 101000.25 0 1 1 202000.49 0a 101000.25 101000.25 0 1 1 -202000.49 0M 19700801.67 29049195.75 m -101000.25 0 a 101000.25 101000.25 0 1 1 202000.49 0a 101000.25 101000.25 0 1 1 -202000.49 0M 19741340.67 29599995.75 m -101000.25 0 a 101000.25 101000.25 0 1 1 202000.49 0a 101000.25 101000.25 0 1 1 -202000.49 0M 20095671.67 29599995.75 m -101000.25 0 a 101000.25 101000.25 0 1 1 202000.49 0a 101000.25 101000.25 0 1 1 -202000.49 0M 19741340.67 29954326.75 m -101000.25 0 a 101000.25 101000.25 0 1 1 202000.49 0a 101000.25 101000.25 0 1 1 -202000.49 0M 20095671.67 29954326.75 m -101000.25 0 a 101000.25 101000.25 0 1 1 202000.49 0a 101000.25 101000.25 0 1 1 -202000.49 0M 20450001.67 29954326.75 m -101000.25 0 a 101000.25 101000.25 0 1 1 202000.49 0a 101000.25 101000.25 0 1 1 -202000.49 0M 21499998.31 28400001.86 m -139617.14 0 a 139617.14 139617.14 0 1 1 279234.29 0a 139617.14 139617.14 0 1 1 -279234.29 0M 20450001.67 29599995.75 m -101000.25 0 a 101000.25 101000.25 0 1 1 202000.49 0a 101000.25 101000.25 0 1 1 -202000.49 0M 21849998.31 28400001.86 m -139617.14 0 a 139617.14 139617.14 0 1 1 279234.29 0a 139617.14 139617.14 0 1 1 -279234.29 0M 22199998.31 28400001.86 m -139617.14 0 a 139617.14 139617.14 0 1 1 279234.29 0a 139617.14 139617.14 0 1 1 -279234.29 0M 22750001.67 29949995.75 m -101000.25 0 a 101000.25 101000.25 0 1 1 202000.49 0a 101000.25 101000.25 0 1 1 -202000.49 0M 19741340.67 30308656.75 m -101000.25 0 a 101000.25 101000.25 0 1 1 202000.49 0a 101000.25 101000.25 0 1 1 -202000.49 0M 19741340.67 30662987.75 m -101000.25 0 a 101000.25 101000.25 0 1 1 202000.49 0a 101000.25 101000.25 0 1 1 -202000.49 0M 20095671.67 30308656.75 m -101000.25 0 a 101000.25 101000.25 0 1 1 202000.49 0a 101000.25 101000.25 0 1 1 -202000.49 0M 20095671.67 30662987.75 m -101000.25 0 a 101000.25 101000.25 0 1 1 202000.49 0a 101000.25 101000.25 0 1 1 -202000.49 0M 20450001.67 30662987.75 m -101000.25 0 a 101000.25 101000.25 0 1 1 202000.49 0a 101000.25 101000.25 0 1 1 -202000.49 0M 20450001.67 30308656.75 m -101000.25 0 a 101000.25 101000.25 0 1 1 202000.49 0a 101000.25 101000.25 0 1 1 -202000.49 0M 22100001.67 30049995.75 m -101000.25 0 a 101000.25 101000.25 0 1 1 202000.49 0a 101000.25 101000.25 0 1 1 -202000.49 0M 22750001.67 30304326.75 m -101000.25 0 a 101000.25 101000.25 0 1 1 202000.49 0a 101000.25 101000.25 0 1 1 -202000.49 0M 21900801.67 32399195.75 m -101000.25 0 a 101000.25 101000.25 0 1 1 202000.49 0a 101000.25 101000.25 0 1 1 -202000.49 0M 22500001.67 32199995.75 m -101000.25 0 a 101000.25 101000.25 0 1 1 202000.49 0a 101000.25 101000.25 0 1 1 -202000.49 0M 23349996.41 22600020.51 m -336876.49 0 a 336876.49 336876.49 0 1 1 673752.98 0a 336876.49 336876.49 0 1 1 -673752.98 0M 23349996.41 23600020.51 m -336876.49 0 a 336876.49 336876.49 0 1 1 673752.98 0a 336876.49 336876.49 0 1 1 -673752.98 0M 24349996.41 22600020.51 m -336876.49 0 a 336876.49 336876.49 0 1 1 673752.98 0a 336876.49 336876.49 0 1 1 -673752.98 0M 24349996.41 23600020.51 m -336876.49 0 a 336876.49 336876.49 0 1 1 673752.98 0a 336876.49 336876.49 0 1 1 -673752.98 0M 25685275.00 23935275.00 L 25014725.00 23935275.00 L 25014725.00 23264725.00 L 25685275.00 23264725.00 L 25685275.00 23935275.00  zM 25349996.41 22600020.51 m -336876.49 0 a 336876.49 336876.49 0 1 1 673752.98 0a 336876.49 336876.49 0 1 1 -673752.98 0M 25699998.31 26050001.86 m -139617.14 0 a 139617.14 139617.14 0 1 1 279234.29 0a 139617.14 139617.14 0 1 1 -279234.29 0M 26149998.31 26050001.86 m -139617.14 0 a 139617.14 139617.14 0 1 1 279234.29 0a 139617.14 139617.14 0 1 1 -279234.29 0M 27900001.67 25949995.75 m -101000.25 0 a 101000.25 101000.25 0 1 1 202000.49 0a 101000.25 101000.25 0 1 1 -202000.49 0M 27900001.67 26304325.75 m -101000.25 0 a 101000.25 101000.25 0 1 1 202000.49 0a 101000.25 101000.25 0 1 1 -202000.49 0M 28254332.67 25949995.75 m -101000.25 0 a 101000.25 101000.25 0 1 1 202000.49 0a 101000.25 101000.25 0 1 1 -202000.49 0M 28400001.67 21999995.75 m -101000.25 0 a 101000.25 101000.25 0 1 1 202000.49 0a 101000.25 101000.25 0 1 1 -202000.49 0M 28400001.67 22354326.75 m -101000.25 0 a 101000.25 101000.25 0 1 1 202000.49 0a 101000.25 101000.25 0 1 1 -202000.49 0M 28754332.67 21999995.75 m -101000.25 0 a 101000.25 101000.25 0 1 1 202000.49 0a 101000.25 101000.25 0 1 1 -202000.49 0M 28400001.67 22708657.75 m -101000.25 0 a 101000.25 101000.25 0 1 1 202000.49 0a 101000.25 101000.25 0 1 1 -202000.49 0M 28754332.67 22354326.75 m -101000.25 0 a 101000.25 101000.25 0 1 1 202000.49 0a 101000.25 101000.25 0 1 1 -202000.49 0M 28754332.67 22708657.75 m -101000.25 0 a 101000.25 101000.25 0 1 1 202000.49 0a 101000.25 101000.25 0 1 1 -202000.49 0M 28400001.67 23062987.75 m -101000.25 0 a 101000.25 101000.25 0 1 1 202000.49 0a 101000.25 101000.25 0 1 1 -202000.49 0M 28400001.67 23417318.75 m -101000.25 0 a 101000.25 101000.25 0 1 1 202000.49 0a 101000.25 101000.25 0 1 1 -202000.49 0M 28754332.67 23062987.75 m -101000.25 0 a 101000.25 101000.25 0 1 1 202000.49 0a 101000.25 101000.25 0 1 1 -202000.49 0M 28754332.67 23417318.75 m -101000.25 0 a 101000.25 101000.25 0 1 1 202000.49 0a 101000.25 101000.25 0 1 1 -202000.49 0M 28608662.67 25949995.75 m -101000.25 0 a 101000.25 101000.25 0 1 1 202000.49 0a 101000.25 101000.25 0 1 1 -202000.49 0M 29108662.67 21999995.75 m -101000.25 0 a 101000.25 101000.25 0 1 1 202000.49 0a 101000.25 101000.25 0 1 1 -202000.49 0M 29108662.67 22354326.75 m -101000.25 0 a 101000.25 101000.25 0 1 1 202000.49 0a 101000.25 101000.25 0 1 1 -202000.49 0M 29108662.67 22708657.75 m -101000.25 0 a 101000.25 101000.25 0 1 1 202000.49 0a 101000.25 101000.25 0 1 1 -202000.49 0M 29462993.67 21999995.75 m -101000.25 0 a 101000.25 101000.25 0 1 1 202000.49 0a 101000.25 101000.25 0 1 1 -202000.49 0M 29462993.67 22354326.75 m -101000.25 0 a 101000.25 101000.25 0 1 1 202000.49 0a 101000.25 101000.25 0 1 1 -202000.49 0M 29817324.67 22708657.75 m -101000.25 0 a 101000.25 101000.25 0 1 1 202000.49 0a 101000.25 101000.25 0 1 1 -202000.49 0M 29108662.67 23062987.75 m -101000.25 0 a 101000.25 101000.25 0 1 1 202000.49 0a 101000.25 101000.25 0 1 1 -202000.49 0M 29462993.67 23062987.75 m -101000.25 0 a 101000.25 101000.25 0 1 1 202000.49 0a 101000.25 101000.25 0 1 1 -202000.49 0M 29462993.67 22708657.75 m -101000.25 0 a 101000.25 101000.25 0 1 1 202000.49 0a 101000.25 101000.25 0 1 1 -202000.49 0M 29108662.67 23417318.75 m -101000.25 0 a 101000.25 101000.25 0 1 1 202000.49 0a 101000.25 101000.25 0 1 1 -202000.49 0M 29462993.67 23417318.75 m -101000.25 0 a 101000.25 101000.25 0 1 1 202000.49 0a 101000.25 101000.25 0 1 1 -202000.49 0M 29350001.67 24099995.75 m -101000.25 0 a 101000.25 101000.25 0 1 1 202000.49 0a 101000.25 101000.25 0 1 1 -202000.49 0M 29350001.67 24454326.75 m -101000.25 0 a 101000.25 101000.25 0 1 1 202000.49 0a 101000.25 101000.25 0 1 1 -202000.49 0M 29704332.67 24099995.75 m -101000.25 0 a 101000.25 101000.25 0 1 1 202000.49 0a 101000.25 101000.25 0 1 1 -202000.49 0M 29704332.67 24454326.75 m -101000.25 0 a 101000.25 101000.25 0 1 1 202000.49 0a 101000.25 101000.25 0 1 1 -202000.49 0M 29704332.67 24808657.75 m -101000.25 0 a 101000.25 101000.25 0 1 1 202000.49 0a 101000.25 101000.25 0 1 1 -202000.49 0M 29350001.67 24808657.75 m -101000.25 0 a 101000.25 101000.25 0 1 1 202000.49 0a 101000.25 101000.25 0 1 1 -202000.49 0M 29350001.67 25162987.75 m -101000.25 0 a 101000.25 101000.25 0 1 1 202000.49 0a 101000.25 101000.25 0 1 1 -202000.49 0M 29704332.67 25162987.75 m -101000.25 0 a 101000.25 101000.25 0 1 1 202000.49 0a 101000.25 101000.25 0 1 1 -202000.49 0M 29350001.67 25517318.75 m -101000.25 0 a 101000.25 101000.25 0 1 1 202000.49 0a 101000.25 101000.25 0 1 1 -202000.49 0M 29704332.67 25517318.75 m -101000.25 0 a 101000.25 101000.25 0 1 1 202000.49 0a 101000.25 101000.25 0 1 1 -202000.49 0M 22799998.31 27100001.86 m -139617.14 0 a 139617.14 139617.14 0 1 1 279234.29 0a 139617.14 139617.14 0 1 1 -279234.29 0M 23199998.31 27350001.86 m -139617.14 0 a 139617.14 139617.14 0 1 1 279234.29 0a 139617.14 139617.14 0 1 1 -279234.29 0M 23449998.31 27600001.86 m -139617.14 0 a 139617.14 139617.14 0 1 1 279234.29 0a 139617.14 139617.14 0 1 1 -279234.29 0M 23749998.31 28950001.86 m -139617.14 0 a 139617.14 139617.14 0 1 1 279234.29 0a 139617.14 139617.14 0 1 1 -279234.29 0M 24399998.31 28950001.86 m -139617.14 0 a 139617.14 139617.14 0 1 1 279234.29 0a 139617.14 139617.14 0 1 1 -279234.29 0M 24941340.67 28004326.75 m -101000.25 0 a 101000.25 101000.25 0 1 1 202000.49 0a 101000.25 101000.25 0 1 1 -202000.49 0M 25295670.67 27649995.75 m -101000.25 0 a 101000.25 101000.25 0 1 1 202000.49 0a 101000.25 101000.25 0 1 1 -202000.49 0M 25650001.67 27649995.75 m -101000.25 0 a 101000.25 101000.25 0 1 1 202000.49 0a 101000.25 101000.25 0 1 1 -202000.49 0M 25950001.67 27299995.75 m -101000.25 0 a 101000.25 101000.25 0 1 1 202000.49 0a 101000.25 101000.25 0 1 1 -202000.49 0M 25295670.67 28004326.75 m -101000.25 0 a 101000.25 101000.25 0 1 1 202000.49 0a 101000.25 101000.25 0 1 1 -202000.49 0M 25650001.67 28004326.75 m -101000.25 0 a 101000.25 101000.25 0 1 1 202000.49 0a 101000.25 101000.25 0 1 1 -202000.49 0M 23104332.67 29949995.75 m -101000.25 0 a 101000.25 101000.25 0 1 1 202000.49 0a 101000.25 101000.25 0 1 1 -202000.49 0M 23104332.67 30304326.75 m -101000.25 0 a 101000.25 101000.25 0 1 1 202000.49 0a 101000.25 101000.25 0 1 1 -202000.49 0M 23458662.67 30304326.75 m -101000.25 0 a 101000.25 101000.25 0 1 1 202000.49 0a 101000.25 101000.25 0 1 1 -202000.49 0M 23458662.67 29949995.75 m -101000.25 0 a 101000.25 101000.25 0 1 1 202000.49 0a 101000.25 101000.25 0 1 1 -202000.49 0M 25249998.31 30350001.86 m -139617.14 0 a 139617.14 139617.14 0 1 1 279234.29 0a 139617.14 139617.14 0 1 1 -279234.29 0M 25600001.67 31037003.75 m -101000.25 0 a 101000.25 101000.25 0 1 1 202000.49 0a 101000.25 101000.25 0 1 1 -202000.49 0M 25600001.67 31391334.75 m -101000.25 0 a 101000.25 101000.25 0 1 1 202000.49 0a 101000.25 101000.25 0 1 1 -202000.49 0M 25600001.67 31745664.75 m -101000.25 0 a 101000.25 101000.25 0 1 1 202000.49 0a 101000.25 101000.25 0 1 1 -202000.49 0M 25600001.67 32099995.75 m -101000.25 0 a 101000.25 101000.25 0 1 1 202000.49 0a 101000.25 101000.25 0 1 1 -202000.49 0M 25954332.67 32099995.75 m -101000.25 0 a 101000.25 101000.25 0 1 1 202000.49 0a 101000.25 101000.25 0 1 1 -202000.49 0M 28254332.67 26304325.75 m -101000.25 0 a 101000.25 101000.25 0 1 1 202000.49 0a 101000.25 101000.25 0 1 1 -202000.49 0M 28608662.67 26304325.75 m -101000.25 0 a 101000.25 101000.25 0 1 1 202000.49 0a 101000.25 101000.25 0 1 1 -202000.49 0M 28608662.67 26658656.75 m -101000.25 0 a 101000.25 101000.25 0 1 1 202000.49 0a 101000.25 101000.25 0 1 1 -202000.49 0M 27900001.67 26658656.75 m -101000.25 0 a 101000.25 101000.25 0 1 1 202000.49 0a 101000.25 101000.25 0 1 1 -202000.49 0M 28254332.67 26658656.75 m -101000.25 0 a 101000.25 101000.25 0 1 1 202000.49 0a 101000.25 101000.25 0 1 1 -202000.49 0M 27999998.31 27350001.86 m -139617.14 0 a 139617.14 139617.14 0 1 1 279234.29 0a 139617.14 139617.14 0 1 1 -279234.29 0M 26724690.00 29768190.00 L 26213310.00 29768190.00 L 26213310.00 29531810.00 L 26694000.00 29531810.00 L 26694000.00 29268190.00 L 26213310.00 29268190.00 L 26213310.00 29031810.00 L 26694000.00 29031810.00 L 26694000.00 28768190.00 L 26213310.00 28768190.00 L 26213310.00 28531810.00 L 26694000.00 28531810.00 L 26694000.00 28268190.00 L 26213310.00 28268190.00 L 26213310.00 28031810.00 L 26724690.00 28031810.00 L 26724690.00 28063000.00 L 28072000.00 28063000.00 L 28072000.00 29737000.00 L 26724690.00 29737000.00 L 26724690.00 29768190.00  zM 28866690.00 28768190.00 L 28433310.00 28768190.00 L 28433310.00 28531810.00 L 28866690.00 28531810.00 L 28866690.00 28768190.00  zM 28866690.00 29268190.00 L 28433310.00 29268190.00 L 28433310.00 29031810.00 L 28866690.00 29031810.00 L 28866690.00 29268190.00  zM 28866690.00 28268190.00 L 28433310.00 28268190.00 L 28433310.00 28031810.00 L 28866690.00 28031810.00 L 28866690.00 28268190.00  zM 29199998.31 27750001.86 m -139617.14 0 a 139617.14 139617.14 0 1 1 279234.29 0a 139617.14 139617.14 0 1 1 -279234.29 0M 25954332.67 31037003.75 m -101000.25 0 a 101000.25 101000.25 0 1 1 202000.49 0a 101000.25 101000.25 0 1 1 -202000.49 0M 25954332.67 31391334.75 m -101000.25 0 a 101000.25 101000.25 0 1 1 202000.49 0a 101000.25 101000.25 0 1 1 -202000.49 0M 25954332.67 31745664.75 m -101000.25 0 a 101000.25 101000.25 0 1 1 202000.49 0a 101000.25 101000.25 0 1 1 -202000.49 0M 26674690.00 32268190.00 L 26163310.00 32268190.00 L 26163310.00 32031810.00 L 26644000.00 32031810.00 L 26644000.00 31768190.00 L 26163310.00 31768190.00 L 26163310.00 31531810.00 L 26644000.00 31531810.00 L 26644000.00 31268190.00 L 26163310.00 31268190.00 L 26163310.00 31031810.00 L 26644000.00 31031810.00 L 26644000.00 30768190.00 L 26163310.00 30768190.00 L 26163310.00 30531810.00 L 26674690.00 30531810.00 L 26674690.00 30563000.00 L 28022000.00 30563000.00 L 28022000.00 32237000.00 L 26674690.00 32237000.00 L 26674690.00 32268190.00  zM 28816690.00 31268190.00 L 28383310.00 31268190.00 L 28383310.00 31031810.00 L 28816690.00 31031810.00 L 28816690.00 31268190.00  zM 28866690.00 29768190.00 L 28433310.00 29768190.00 L 28433310.00 29531810.00 L 28866690.00 29531810.00 L 28866690.00 29768190.00  zM 29149998.31 30350001.86 m -139617.14 0 a 139617.14 139617.14 0 1 1 279234.29 0a 139617.14 139617.14 0 1 1 -279234.29 0M 28816690.00 30768190.00 L 28383310.00 30768190.00 L 28383310.00 30531810.00 L 28816690.00 30531810.00 L 28816690.00 30768190.00  zM 28816690.00 31768190.00 L 28383310.00 31768190.00 L 28383310.00 31531810.00 L 28816690.00 31531810.00 L 28816690.00 31768190.00  zM 28816690.00 32268190.00 L 28383310.00 32268190.00 L 28383310.00 32031810.00 L 28816690.00 32031810.00 L 28816690.00 32268190.00  zM 29817324.67 21999995.75 m -101000.25 0 a 101000.25 101000.25 0 1 1 202000.49 0a 101000.25 101000.25 0 1 1 -202000.49 0M 30171655.67 21999995.75 m -101000.25 0 a 101000.25 101000.25 0 1 1 202000.49 0a 101000.25 101000.25 0 1 1 -202000.49 0M 30171655.67 22354326.75 m -101000.25 0 a 101000.25 101000.25 0 1 1 202000.49 0a 101000.25 101000.25 0 1 1 -202000.49 0M 29817324.67 22354326.75 m -101000.25 0 a 101000.25 101000.25 0 1 1 202000.49 0a 101000.25 101000.25 0 1 1 -202000.49 0M 30171655.67 22708657.75 m -101000.25 0 a 101000.25 101000.25 0 1 1 202000.49 0a 101000.25 101000.25 0 1 1 -202000.49 0M 30525985.67 22354326.75 m -101000.25 0 a 101000.25 101000.25 0 1 1 202000.49 0a 101000.25 101000.25 0 1 1 -202000.49 0M 29817324.67 23062987.75 m -101000.25 0 a 101000.25 101000.25 0 1 1 202000.49 0a 101000.25 101000.25 0 1 1 -202000.49 0M 29817324.67 23417318.75 m -101000.25 0 a 101000.25 101000.25 0 1 1 202000.49 0a 101000.25 101000.25 0 1 1 -202000.49 0M 30171655.67 23062987.75 m -101000.25 0 a 101000.25 101000.25 0 1 1 202000.49 0a 101000.25 101000.25 0 1 1 -202000.49 0M 30525985.67 22708657.75 m -101000.25 0 a 101000.25 101000.25 0 1 1 202000.49 0a 101000.25 101000.25 0 1 1 -202000.49 0M 30171655.67 23417318.75 m -101000.25 0 a 101000.25 101000.25 0 1 1 202000.49 0a 101000.25 101000.25 0 1 1 -202000.49 0M 30525985.67 21999995.75 m -101000.25 0 a 101000.25 101000.25 0 1 1 202000.49 0a 101000.25 101000.25 0 1 1 -202000.49 0M 30880316.67 21999995.75 m -101000.25 0 a 101000.25 101000.25 0 1 1 202000.49 0a 101000.25 101000.25 0 1 1 -202000.49 0M 30880316.67 22708657.75 m -101000.25 0 a 101000.25 101000.25 0 1 1 202000.49 0a 101000.25 101000.25 0 1 1 -202000.49 0M 30880316.67 22354326.75 m -101000.25 0 a 101000.25 101000.25 0 1 1 202000.49 0a 101000.25 101000.25 0 1 1 -202000.49 0M 31800001.67 21999995.75 m -101000.25 0 a 101000.25 101000.25 0 1 1 202000.49 0a 101000.25 101000.25 0 1 1 -202000.49 0M 31800001.67 22708657.75 m -101000.25 0 a 101000.25 101000.25 0 1 1 202000.49 0a 101000.25 101000.25 0 1 1 -202000.49 0M 30525985.67 23062987.75 m -101000.25 0 a 101000.25 101000.25 0 1 1 202000.49 0a 101000.25 101000.25 0 1 1 -202000.49 0M 30525985.67 23417318.75 m -101000.25 0 a 101000.25 101000.25 0 1 1 202000.49 0a 101000.25 101000.25 0 1 1 -202000.49 0M 30880316.67 23062987.75 m -101000.25 0 a 101000.25 101000.25 0 1 1 202000.49 0a 101000.25 101000.25 0 1 1 -202000.49 0M 30880316.67 23417318.75 m -101000.25 0 a 101000.25 101000.25 0 1 1 202000.49 0a 101000.25 101000.25 0 1 1 -202000.49 0M 31800001.67 23062987.75 m -101000.25 0 a 101000.25 101000.25 0 1 1 202000.49 0a 101000.25 101000.25 0 1 1 -202000.49 0M 30058662.67 24099995.75 m -101000.25 0 a 101000.25 101000.25 0 1 1 202000.49 0a 101000.25 101000.25 0 1 1 -202000.49 0M 30058662.67 24454326.75 m -101000.25 0 a 101000.25 101000.25 0 1 1 202000.49 0a 101000.25 101000.25 0 1 1 -202000.49 0M 30058662.67 24808657.75 m -101000.25 0 a 101000.25 101000.25 0 1 1 202000.49 0a 101000.25 101000.25 0 1 1 -202000.49 0M 30412993.67 24099995.75 m -101000.25 0 a 101000.25 101000.25 0 1 1 202000.49 0a 101000.25 101000.25 0 1 1 -202000.49 0M 30412993.67 24454326.75 m -101000.25 0 a 101000.25 101000.25 0 1 1 202000.49 0a 101000.25 101000.25 0 1 1 -202000.49 0M 30767324.67 24454326.75 m -101000.25 0 a 101000.25 101000.25 0 1 1 202000.49 0a 101000.25 101000.25 0 1 1 -202000.49 0M 30058662.67 25162987.75 m -101000.25 0 a 101000.25 101000.25 0 1 1 202000.49 0a 101000.25 101000.25 0 1 1 -202000.49 0M 30412993.67 25162987.75 m -101000.25 0 a 101000.25 101000.25 0 1 1 202000.49 0a 101000.25 101000.25 0 1 1 -202000.49 0M 30412993.67 24808657.75 m -101000.25 0 a 101000.25 101000.25 0 1 1 202000.49 0a 101000.25 101000.25 0 1 1 -202000.49 0M 30767324.67 24808657.75 m -101000.25 0 a 101000.25 101000.25 0 1 1 202000.49 0a 101000.25 101000.25 0 1 1 -202000.49 0M 30767324.67 25162987.75 m -101000.25 0 a 101000.25 101000.25 0 1 1 202000.49 0a 101000.25 101000.25 0 1 1 -202000.49 0M 30767324.67 24099995.75 m -101000.25 0 a 101000.25 101000.25 0 1 1 202000.49 0a 101000.25 101000.25 0 1 1 -202000.49 0M 31121655.67 24099995.75 m -101000.25 0 a 101000.25 101000.25 0 1 1 202000.49 0a 101000.25 101000.25 0 1 1 -202000.49 0M 31121655.67 24454326.75 m -101000.25 0 a 101000.25 101000.25 0 1 1 202000.49 0a 101000.25 101000.25 0 1 1 -202000.49 0M 31475985.67 24099995.75 m -101000.25 0 a 101000.25 101000.25 0 1 1 202000.49 0a 101000.25 101000.25 0 1 1 -202000.49 0M 31475985.67 24454326.75 m -101000.25 0 a 101000.25 101000.25 0 1 1 202000.49 0a 101000.25 101000.25 0 1 1 -202000.49 0M 31121655.67 24808657.75 m -101000.25 0 a 101000.25 101000.25 0 1 1 202000.49 0a 101000.25 101000.25 0 1 1 -202000.49 0M 31475985.67 24808657.75 m -101000.25 0 a 101000.25 101000.25 0 1 1 202000.49 0a 101000.25 101000.25 0 1 1 -202000.49 0M 31475985.67 25162987.75 m -101000.25 0 a 101000.25 101000.25 0 1 1 202000.49 0a 101000.25 101000.25 0 1 1 -202000.49 0M 31121655.67 25162987.75 m -101000.25 0 a 101000.25 101000.25 0 1 1 202000.49 0a 101000.25 101000.25 0 1 1 -202000.49 0M 31121655.67 25517318.75 m -101000.25 0 a 101000.25 101000.25 0 1 1 202000.49 0a 101000.25 101000.25 0 1 1 -202000.49 0M 32154332.67 21999995.75 m -101000.25 0 a 101000.25 101000.25 0 1 1 202000.49 0a 101000.25 101000.25 0 1 1 -202000.49 0M 32508662.67 21999995.75 m -101000.25 0 a 101000.25 101000.25 0 1 1 202000.49 0a 101000.25 101000.25 0 1 1 -202000.49 0M 32154332.67 22354326.75 m -101000.25 0 a 101000.25 101000.25 0 1 1 202000.49 0a 101000.25 101000.25 0 1 1 -202000.49 0M 31800001.67 22354326.75 m -101000.25 0 a 101000.25 101000.25 0 1 1 202000.49 0a 101000.25 101000.25 0 1 1 -202000.49 0M 32154332.67 22708657.75 m -101000.25 0 a 101000.25 101000.25 0 1 1 202000.49 0a 101000.25 101000.25 0 1 1 -202000.49 0M 32508662.67 22354326.75 m -101000.25 0 a 101000.25 101000.25 0 1 1 202000.49 0a 101000.25 101000.25 0 1 1 -202000.49 0M 32862993.67 21999995.75 m -101000.25 0 a 101000.25 101000.25 0 1 1 202000.49 0a 101000.25 101000.25 0 1 1 -202000.49 0M 32862993.67 22354326.75 m -101000.25 0 a 101000.25 101000.25 0 1 1 202000.49 0a 101000.25 101000.25 0 1 1 -202000.49 0M 32508662.67 22708657.75 m -101000.25 0 a 101000.25 101000.25 0 1 1 202000.49 0a 101000.25 101000.25 0 1 1 -202000.49 0M 33217324.67 21999995.75 m -101000.25 0 a 101000.25 101000.25 0 1 1 202000.49 0a 101000.25 101000.25 0 1 1 -202000.49 0M 33217324.67 22354326.75 m -101000.25 0 a 101000.25 101000.25 0 1 1 202000.49 0a 101000.25 101000.25 0 1 1 -202000.49 0M 33571655.67 21999995.75 m -101000.25 0 a 101000.25 101000.25 0 1 1 202000.49 0a 101000.25 101000.25 0 1 1 -202000.49 0M 33925985.67 21999995.75 m -101000.25 0 a 101000.25 101000.25 0 1 1 202000.49 0a 101000.25 101000.25 0 1 1 -202000.49 0M 33571655.67 22354326.75 m -101000.25 0 a 101000.25 101000.25 0 1 1 202000.49 0a 101000.25 101000.25 0 1 1 -202000.49 0M 33217324.67 22708657.75 m -101000.25 0 a 101000.25 101000.25 0 1 1 202000.49 0a 101000.25 101000.25 0 1 1 -202000.49 0M 33571655.67 22708657.75 m -101000.25 0 a 101000.25 101000.25 0 1 1 202000.49 0a 101000.25 101000.25 0 1 1 -202000.49 0M 33925985.67 22354326.75 m -101000.25 0 a 101000.25 101000.25 0 1 1 202000.49 0a 101000.25 101000.25 0 1 1 -202000.49 0M 34280316.67 21999995.75 m -101000.25 0 a 101000.25 101000.25 0 1 1 202000.49 0a 101000.25 101000.25 0 1 1 -202000.49 0M 34280316.67 22354326.75 m -101000.25 0 a 101000.25 101000.25 0 1 1 202000.49 0a 101000.25 101000.25 0 1 1 -202000.49 0M 33925985.67 22708657.75 m -101000.25 0 a 101000.25 101000.25 0 1 1 202000.49 0a 101000.25 101000.25 0 1 1 -202000.49 0M 34280316.67 22708657.75 m -101000.25 0 a 101000.25 101000.25 0 1 1 202000.49 0a 101000.25 101000.25 0 1 1 -202000.49 0M 32154332.67 23062987.75 m -101000.25 0 a 101000.25 101000.25 0 1 1 202000.49 0a 101000.25 101000.25 0 1 1 -202000.49 0M 32508662.67 23062987.75 m -101000.25 0 a 101000.25 101000.25 0 1 1 202000.49 0a 101000.25 101000.25 0 1 1 -202000.49 0M 32508662.67 23417318.75 m -101000.25 0 a 101000.25 101000.25 0 1 1 202000.49 0a 101000.25 101000.25 0 1 1 -202000.49 0M 32862993.67 22708657.75 m -101000.25 0 a 101000.25 101000.25 0 1 1 202000.49 0a 101000.25 101000.25 0 1 1 -202000.49 0M 32862993.67 23062987.75 m -101000.25 0 a 101000.25 101000.25 0 1 1 202000.49 0a 101000.25 101000.25 0 1 1 -202000.49 0M 32862993.67 23417318.75 m -101000.25 0 a 101000.25 101000.25 0 1 1 202000.49 0a 101000.25 101000.25 0 1 1 -202000.49 0M 33217324.67 23062987.75 m -101000.25 0 a 101000.25 101000.25 0 1 1 202000.49 0a 101000.25 101000.25 0 1 1 -202000.49 0M 33571655.67 23062987.75 m -101000.25 0 a 101000.25 101000.25 0 1 1 202000.49 0a 101000.25 101000.25 0 1 1 -202000.49 0M 33925985.67 23062987.75 m -101000.25 0 a 101000.25 101000.25 0 1 1 202000.49 0a 101000.25 101000.25 0 1 1 -202000.49 0M 33925985.67 23417318.75 m -101000.25 0 a 101000.25 101000.25 0 1 1 202000.49 0a 101000.25 101000.25 0 1 1 -202000.49 0M 34280316.67 23062987.75 m -101000.25 0 a 101000.25 101000.25 0 1 1 202000.49 0a 101000.25 101000.25 0 1 1 -202000.49 0M 31800001.67 23417318.75 m -101000.25 0 a 101000.25 101000.25 0 1 1 202000.49 0a 101000.25 101000.25 0 1 1 -202000.49 0M 31830316.67 24099995.75 m -101000.25 0 a 101000.25 101000.25 0 1 1 202000.49 0a 101000.25 101000.25 0 1 1 -202000.49 0M 31830316.67 24454326.75 m -101000.25 0 a 101000.25 101000.25 0 1 1 202000.49 0a 101000.25 101000.25 0 1 1 -202000.49 0M 31830316.67 24808657.75 m -101000.25 0 a 101000.25 101000.25 0 1 1 202000.49 0a 101000.25 101000.25 0 1 1 -202000.49 0M 31830316.67 25517318.75 m -101000.25 0 a 101000.25 101000.25 0 1 1 202000.49 0a 101000.25 101000.25 0 1 1 -202000.49 0M 32154332.67 23417318.75 m -101000.25 0 a 101000.25 101000.25 0 1 1 202000.49 0a 101000.25 101000.25 0 1 1 -202000.49 0M 33217324.67 23417318.75 m -101000.25 0 a 101000.25 101000.25 0 1 1 202000.49 0a 101000.25 101000.25 0 1 1 -202000.49 0M 31830316.67 25162987.75 m -101000.25 0 a 101000.25 101000.25 0 1 1 202000.49 0a 101000.25 101000.25 0 1 1 -202000.49 0M 33571655.67 23417318.75 m -101000.25 0 a 101000.25 101000.25 0 1 1 202000.49 0a 101000.25 101000.25 0 1 1 -202000.49 0M 34280316.67 23417318.75 m -101000.25 0 a 101000.25 101000.25 0 1 1 202000.49 0a 101000.25 101000.25 0 1 1 -202000.49 0M 30058662.67 25517318.75 m -101000.25 0 a 101000.25 101000.25 0 1 1 202000.49 0a 101000.25 101000.25 0 1 1 -202000.49 0M 30412993.67 25517318.75 m -101000.25 0 a 101000.25 101000.25 0 1 1 202000.49 0a 101000.25 101000.25 0 1 1 -202000.49 0M 30767324.67 25517318.75 m -101000.25 0 a 101000.25 101000.25 0 1 1 202000.49 0a 101000.25 101000.25 0 1 1 -202000.49 0M 31475985.67 25517318.75 m -101000.25 0 a 101000.25 101000.25 0 1 1 202000.49 0a 101000.25 101000.25 0 1 1 -202000.49 0M 31200001.67 27587003.75 m -101000.25 0 a 101000.25 101000.25 0 1 1 202000.49 0a 101000.25 101000.25 0 1 1 -202000.49 0M 31908662.67 27587003.75 m -101000.25 0 a 101000.25 101000.25 0 1 1 202000.49 0a 101000.25 101000.25 0 1 1 -202000.49 0M 31200001.67 27941334.75 m -101000.25 0 a 101000.25 101000.25 0 1 1 202000.49 0a 101000.25 101000.25 0 1 1 -202000.49 0M 31554332.67 27587003.75 m -101000.25 0 a 101000.25 101000.25 0 1 1 202000.49 0a 101000.25 101000.25 0 1 1 -202000.49 0M 31200001.67 28295664.75 m -101000.25 0 a 101000.25 101000.25 0 1 1 202000.49 0a 101000.25 101000.25 0 1 1 -202000.49 0M 31554332.67 27941334.75 m -101000.25 0 a 101000.25 101000.25 0 1 1 202000.49 0a 101000.25 101000.25 0 1 1 -202000.49 0M 31908662.67 27941334.75 m -101000.25 0 a 101000.25 101000.25 0 1 1 202000.49 0a 101000.25 101000.25 0 1 1 -202000.49 0M 32262993.67 27587003.75 m -101000.25 0 a 101000.25 101000.25 0 1 1 202000.49 0a 101000.25 101000.25 0 1 1 -202000.49 0M 32262993.67 27941334.75 m -101000.25 0 a 101000.25 101000.25 0 1 1 202000.49 0a 101000.25 101000.25 0 1 1 -202000.49 0M 32617324.67 27587003.75 m -101000.25 0 a 101000.25 101000.25 0 1 1 202000.49 0a 101000.25 101000.25 0 1 1 -202000.49 0M 32617324.67 27941334.75 m -101000.25 0 a 101000.25 101000.25 0 1 1 202000.49 0a 101000.25 101000.25 0 1 1 -202000.49 0M 32617324.67 28295664.75 m -101000.25 0 a 101000.25 101000.25 0 1 1 202000.49 0a 101000.25 101000.25 0 1 1 -202000.49 0M 32971655.67 27941334.75 m -101000.25 0 a 101000.25 101000.25 0 1 1 202000.49 0a 101000.25 101000.25 0 1 1 -202000.49 0M 32971655.67 27587003.75 m -101000.25 0 a 101000.25 101000.25 0 1 1 202000.49 0a 101000.25 101000.25 0 1 1 -202000.49 0M 33325985.67 27587003.75 m -101000.25 0 a 101000.25 101000.25 0 1 1 202000.49 0a 101000.25 101000.25 0 1 1 -202000.49 0M 33325985.67 28295664.75 m -101000.25 0 a 101000.25 101000.25 0 1 1 202000.49 0a 101000.25 101000.25 0 1 1 -202000.49 0M 33325985.67 27941334.75 m -101000.25 0 a 101000.25 101000.25 0 1 1 202000.49 0a 101000.25 101000.25 0 1 1 -202000.49 0M 33680316.67 27941334.75 m -101000.25 0 a 101000.25 101000.25 0 1 1 202000.49 0a 101000.25 101000.25 0 1 1 -202000.49 0M 31554332.67 28295664.75 m -101000.25 0 a 101000.25 101000.25 0 1 1 202000.49 0a 101000.25 101000.25 0 1 1 -202000.49 0M 31908662.67 28295664.75 m -101000.25 0 a 101000.25 101000.25 0 1 1 202000.49 0a 101000.25 101000.25 0 1 1 -202000.49 0M 31554332.67 28649995.75 m -101000.25 0 a 101000.25 101000.25 0 1 1 202000.49 0a 101000.25 101000.25 0 1 1 -202000.49 0M 31200001.67 28649995.75 m -101000.25 0 a 101000.25 101000.25 0 1 1 202000.49 0a 101000.25 101000.25 0 1 1 -202000.49 0M 30314929.79 30117981.42 m -513439.58 0 a 513439.58 513439.58 0 1 1 1026879.16 0a 513439.58 513439.58 0 1 1 -1026879.16 0M 31908662.67 28649995.75 m -101000.25 0 a 101000.25 101000.25 0 1 1 202000.49 0a 101000.25 101000.25 0 1 1 -202000.49 0M 32262993.67 28295664.75 m -101000.25 0 a 101000.25 101000.25 0 1 1 202000.49 0a 101000.25 101000.25 0 1 1 -202000.49 0M 32262993.67 28649995.75 m -101000.25 0 a 101000.25 101000.25 0 1 1 202000.49 0a 101000.25 101000.25 0 1 1 -202000.49 0M 32617324.67 28649995.75 m -101000.25 0 a 101000.25 101000.25 0 1 1 202000.49 0a 101000.25 101000.25 0 1 1 -202000.49 0M 32500001.67 30369680.75 m -101000.25 0 a 101000.25 101000.25 0 1 1 202000.49 0a 101000.25 101000.25 0 1 1 -202000.49 0M 32854332.67 30369680.75 m -101000.25 0 a 101000.25 101000.25 0 1 1 202000.49 0a 101000.25 101000.25 0 1 1 -202000.49 0M 32971655.67 28295664.75 m -101000.25 0 a 101000.25 101000.25 0 1 1 202000.49 0a 101000.25 101000.25 0 1 1 -202000.49 0M 32971655.67 28649995.75 m -101000.25 0 a 101000.25 101000.25 0 1 1 202000.49 0a 101000.25 101000.25 0 1 1 -202000.49 0M 33325985.67 28649995.75 m -101000.25 0 a 101000.25 101000.25 0 1 1 202000.49 0a 101000.25 101000.25 0 1 1 -202000.49 0M 33680316.67 28295664.75 m -101000.25 0 a 101000.25 101000.25 0 1 1 202000.49 0a 101000.25 101000.25 0 1 1 -202000.49 0M 33680316.67 28649995.75 m -101000.25 0 a 101000.25 101000.25 0 1 1 202000.49 0a 101000.25 101000.25 0 1 1 -202000.49 0M 34251923.01 28936929.95 m -316482.05 0 a 316482.05 316482.05 0 1 1 632964.10 0a 316482.05 316482.05 0 1 1 -632964.10 0M 34625985.67 30369680.75 m -101000.25 0 a 101000.25 101000.25 0 1 1 202000.49 0a 101000.25 101000.25 0 1 1 -202000.49 0M 33208662.67 30369680.75 m -101000.25 0 a 101000.25 101000.25 0 1 1 202000.49 0a 101000.25 101000.25 0 1 1 -202000.49 0M 33562993.67 30369680.75 m -101000.25 0 a 101000.25 101000.25 0 1 1 202000.49 0a 101000.25 101000.25 0 1 1 -202000.49 0M 33917324.67 30369680.75 m -101000.25 0 a 101000.25 101000.25 0 1 1 202000.49 0a 101000.25 101000.25 0 1 1 -202000.49 0M 30314929.79 31495981.42 m -513439.58 0 a 513439.58 513439.58 0 1 1 1026879.16 0a 513439.58 513439.58 0 1 1 -1026879.16 0M 32500001.67 32141334.75 m -101000.25 0 a 101000.25 101000.25 0 1 1 202000.49 0a 101000.25 101000.25 0 1 1 -202000.49 0M 32500001.67 31078341.75 m -101000.25 0 a 101000.25 101000.25 0 1 1 202000.49 0a 101000.25 101000.25 0 1 1 -202000.49 0M 32500001.67 30724011.75 m -101000.25 0 a 101000.25 101000.25 0 1 1 202000.49 0a 101000.25 101000.25 0 1 1 -202000.49 0M 32500001.67 31432672.75 m -101000.25 0 a 101000.25 101000.25 0 1 1 202000.49 0a 101000.25 101000.25 0 1 1 -202000.49 0M 32500001.67 31787003.75 m -101000.25 0 a 101000.25 101000.25 0 1 1 202000.49 0a 101000.25 101000.25 0 1 1 -202000.49 0M 32854332.67 30724011.75 m -101000.25 0 a 101000.25 101000.25 0 1 1 202000.49 0a 101000.25 101000.25 0 1 1 -202000.49 0M 32854332.67 31078341.75 m -101000.25 0 a 101000.25 101000.25 0 1 1 202000.49 0a 101000.25 101000.25 0 1 1 -202000.49 0M 32854332.67 31432672.75 m -101000.25 0 a 101000.25 101000.25 0 1 1 202000.49 0a 101000.25 101000.25 0 1 1 -202000.49 0M 32854332.67 31787003.75 m -101000.25 0 a 101000.25 101000.25 0 1 1 202000.49 0a 101000.25 101000.25 0 1 1 -202000.49 0M 32854332.67 32141334.75 m -101000.25 0 a 101000.25 101000.25 0 1 1 202000.49 0a 101000.25 101000.25 0 1 1 -202000.49 0M 33208662.67 30724011.75 m -101000.25 0 a 101000.25 101000.25 0 1 1 202000.49 0a 101000.25 101000.25 0 1 1 -202000.49 0M 33208662.67 31078341.75 m -101000.25 0 a 101000.25 101000.25 0 1 1 202000.49 0a 101000.25 101000.25 0 1 1 -202000.49 0M 33562993.67 30724011.75 m -101000.25 0 a 101000.25 101000.25 0 1 1 202000.49 0a 101000.25 101000.25 0 1 1 -202000.49 0M 33562993.67 31078341.75 m -101000.25 0 a 101000.25 101000.25 0 1 1 202000.49 0a 101000.25 101000.25 0 1 1 -202000.49 0M 33562993.67 31432672.75 m -101000.25 0 a 101000.25 101000.25 0 1 1 202000.49 0a 101000.25 101000.25 0 1 1 -202000.49 0M 33208662.67 31432672.75 m -101000.25 0 a 101000.25 101000.25 0 1 1 202000.49 0a 101000.25 101000.25 0 1 1 -202000.49 0M 33208662.67 31787003.75 m -101000.25 0 a 101000.25 101000.25 0 1 1 202000.49 0a 101000.25 101000.25 0 1 1 -202000.49 0M 33562993.67 31787003.75 m -101000.25 0 a 101000.25 101000.25 0 1 1 202000.49 0a 101000.25 101000.25 0 1 1 -202000.49 0M 33208662.67 32141334.75 m -101000.25 0 a 101000.25 101000.25 0 1 1 202000.49 0a 101000.25 101000.25 0 1 1 -202000.49 0M 33562993.67 32141334.75 m -101000.25 0 a 101000.25 101000.25 0 1 1 202000.49 0a 101000.25 101000.25 0 1 1 -202000.49 0M 33917324.67 30724011.75 m -101000.25 0 a 101000.25 101000.25 0 1 1 202000.49 0a 101000.25 101000.25 0 1 1 -202000.49 0M 34271655.67 30369680.75 m -101000.25 0 a 101000.25 101000.25 0 1 1 202000.49 0a 101000.25 101000.25 0 1 1 -202000.49 0M 34271655.67 30724011.75 m -101000.25 0 a 101000.25 101000.25 0 1 1 202000.49 0a 101000.25 101000.25 0 1 1 -202000.49 0M 33917324.67 31078341.75 m -101000.25 0 a 101000.25 101000.25 0 1 1 202000.49 0a 101000.25 101000.25 0 1 1 -202000.49 0M 33917324.67 31432672.75 m -101000.25 0 a 101000.25 101000.25 0 1 1 202000.49 0a 101000.25 101000.25 0 1 1 -202000.49 0M 34271655.67 31078341.75 m -101000.25 0 a 101000.25 101000.25 0 1 1 202000.49 0a 101000.25 101000.25 0 1 1 -202000.49 0M 34625985.67 30724011.75 m -101000.25 0 a 101000.25 101000.25 0 1 1 202000.49 0a 101000.25 101000.25 0 1 1 -202000.49 0M 34625985.67 31078341.75 m -101000.25 0 a 101000.25 101000.25 0 1 1 202000.49 0a 101000.25 101000.25 0 1 1 -202000.49 0M 34271655.67 31432672.75 m -101000.25 0 a 101000.25 101000.25 0 1 1 202000.49 0a 101000.25 101000.25 0 1 1 -202000.49 0M 34980316.67 30724011.75 m -101000.25 0 a 101000.25 101000.25 0 1 1 202000.49 0a 101000.25 101000.25 0 1 1 -202000.49 0M 34980316.67 31078341.75 m -101000.25 0 a 101000.25 101000.25 0 1 1 202000.49 0a 101000.25 101000.25 0 1 1 -202000.49 0M 33917324.67 31787003.75 m -101000.25 0 a 101000.25 101000.25 0 1 1 202000.49 0a 101000.25 101000.25 0 1 1 -202000.49 0M 33917324.67 32141334.75 m -101000.25 0 a 101000.25 101000.25 0 1 1 202000.49 0a 101000.25 101000.25 0 1 1 -202000.49 0M 34271655.67 31787003.75 m -101000.25 0 a 101000.25 101000.25 0 1 1 202000.49 0a 101000.25 101000.25 0 1 1 -202000.49 0M 34271655.67 32141334.75 m -101000.25 0 a 101000.25 101000.25 0 1 1 202000.49 0a 101000.25 101000.25 0 1 1 -202000.49 0M 34625985.67 32141334.75 m -101000.25 0 a 101000.25 101000.25 0 1 1 202000.49 0a 101000.25 101000.25 0 1 1 -202000.49 0M 34625985.67 31432672.75 m -101000.25 0 a 101000.25 101000.25 0 1 1 202000.49 0a 101000.25 101000.25 0 1 1 -202000.49 0M 34980316.67 31432672.75 m -101000.25 0 a 101000.25 101000.25 0 1 1 202000.49 0a 101000.25 101000.25 0 1 1 -202000.49 0M 34980316.67 31787003.75 m -101000.25 0 a 101000.25 101000.25 0 1 1 202000.49 0a 101000.25 101000.25 0 1 1 -202000.49 0M 34625985.67 31787003.75 m -101000.25 0 a 101000.25 101000.25 0 1 1 202000.49 0a 101000.25 101000.25 0 1 1 -202000.49 0M 34980316.67 32141334.75 m -101000.25 0 a 101000.25 101000.25 0 1 1 202000.49 0a 101000.25 101000.25 0 1 1 -202000.49 0M 16100001.67 33882672.75 m -101000.25 0 a 101000.25 101000.25 0 1 1 202000.49 0a 101000.25 101000.25 0 1 1 -202000.49 0M 16454332.67 33882672.75 m -101000.25 0 a 101000.25 101000.25 0 1 1 202000.49 0a 101000.25 101000.25 0 1 1 -202000.49 0M 16454332.67 34237003.75 m -101000.25 0 a 101000.25 101000.25 0 1 1 202000.49 0a 101000.25 101000.25 0 1 1 -202000.49 0M 16100001.67 34237003.75 m -101000.25 0 a 101000.25 101000.25 0 1 1 202000.49 0a 101000.25 101000.25 0 1 1 -202000.49 0M 16100001.67 34591334.75 m -101000.25 0 a 101000.25 101000.25 0 1 1 202000.49 0a 101000.25 101000.25 0 1 1 -202000.49 0M 16454332.67 34591334.75 m -101000.25 0 a 101000.25 101000.25 0 1 1 202000.49 0a 101000.25 101000.25 0 1 1 -202000.49 0M 16100001.67 34945664.75 m -101000.25 0 a 101000.25 101000.25 0 1 1 202000.49 0a 101000.25 101000.25 0 1 1 -202000.49 0M 16100001.67 35299995.75 m -101000.25 0 a 101000.25 101000.25 0 1 1 202000.49 0a 101000.25 101000.25 0 1 1 -202000.49 0M 16454332.67 34945664.75 m -101000.25 0 a 101000.25 101000.25 0 1 1 202000.49 0a 101000.25 101000.25 0 1 1 -202000.49 0M 16454332.67 35299995.75 m -101000.25 0 a 101000.25 101000.25 0 1 1 202000.49 0a 101000.25 101000.25 0 1 1 -202000.49 0M 17099986.65 36550066.15 m -376124.85 0 a 376124.85 376124.85 0 1 1 752249.70 0a 376124.85 376124.85 0 1 1 -752249.70 0M 16369686.67 37599995.75 m -101000.25 0 a 101000.25 101000.25 0 1 1 202000.49 0a 101000.25 101000.25 0 1 1 -202000.49 0M 16369686.67 37954326.75 m -101000.25 0 a 101000.25 101000.25 0 1 1 202000.49 0a 101000.25 101000.25 0 1 1 -202000.49 0M 16369686.67 38308656.75 m -101000.25 0 a 101000.25 101000.25 0 1 1 202000.49 0a 101000.25 101000.25 0 1 1 -202000.49 0M 16724017.67 37599995.75 m -101000.25 0 a 101000.25 101000.25 0 1 1 202000.49 0a 101000.25 101000.25 0 1 1 -202000.49 0M 17078347.67 37599995.75 m -101000.25 0 a 101000.25 101000.25 0 1 1 202000.49 0a 101000.25 101000.25 0 1 1 -202000.49 0M 16724017.67 37954326.75 m -101000.25 0 a 101000.25 101000.25 0 1 1 202000.49 0a 101000.25 101000.25 0 1 1 -202000.49 0M 17078347.67 37954326.75 m -101000.25 0 a 101000.25 101000.25 0 1 1 202000.49 0a 101000.25 101000.25 0 1 1 -202000.49 0M 17432678.67 37954326.75 m -101000.25 0 a 101000.25 101000.25 0 1 1 202000.49 0a 101000.25 101000.25 0 1 1 -202000.49 0M 17432678.67 37599995.75 m -101000.25 0 a 101000.25 101000.25 0 1 1 202000.49 0a 101000.25 101000.25 0 1 1 -202000.49 0M 17078347.67 38308656.75 m -101000.25 0 a 101000.25 101000.25 0 1 1 202000.49 0a 101000.25 101000.25 0 1 1 -202000.49 0M 17432678.67 38308656.75 m -101000.25 0 a 101000.25 101000.25 0 1 1 202000.49 0a 101000.25 101000.25 0 1 1 -202000.49 0M 18138189.35 34094089.44 m -125089.56 0 a 125089.56 125089.56 0 1 1 250179.11 0a 125089.56 125089.56 0 1 1 -250179.11 0M 18649999.39 34094096.78 m -125082.22 0 a 125082.22 125082.22 0 1 1 250164.44 0a 125082.22 125082.22 0 1 1 -250164.44 0M 18138189.35 34605901.44 m -125089.56 0 a 125089.56 125089.56 0 1 1 250179.11 0a 125089.56 125089.56 0 1 1 -250179.11 0M 19161811.35 34094089.44 m -125089.56 0 a 125089.56 125089.56 0 1 1 250179.11 0a 125089.56 125089.56 0 1 1 -250179.11 0M 19161811.35 34605901.44 m -125089.56 0 a 125089.56 125089.56 0 1 1 250179.11 0a 125089.56 125089.56 0 1 1 -250179.11 0M 18649999.39 34605908.78 m -125082.22 0 a 125082.22 125082.22 0 1 1 250164.44 0a 125082.22 125082.22 0 1 1 -250164.44 0M 17950001.67 37149995.75 m -101000.25 0 a 101000.25 101000.25 0 1 1 202000.49 0a 101000.25 101000.25 0 1 1 -202000.49 0M 20550001.67 36395664.75 m -101000.25 0 a 101000.25 101000.25 0 1 1 202000.49 0a 101000.25 101000.25 0 1 1 -202000.49 0M 20550001.67 36749995.75 m -101000.25 0 a 101000.25 101000.25 0 1 1 202000.49 0a 101000.25 101000.25 0 1 1 -202000.49 0M 20550001.67 35687003.75 m -101000.25 0 a 101000.25 101000.25 0 1 1 202000.49 0a 101000.25 101000.25 0 1 1 -202000.49 0M 20550001.67 36041334.75 m -101000.25 0 a 101000.25 101000.25 0 1 1 202000.49 0a 101000.25 101000.25 0 1 1 -202000.49 0M 17787009.67 37599995.75 m -101000.25 0 a 101000.25 101000.25 0 1 1 202000.49 0a 101000.25 101000.25 0 1 1 -202000.49 0M 17787009.67 37954326.75 m -101000.25 0 a 101000.25 101000.25 0 1 1 202000.49 0a 101000.25 101000.25 0 1 1 -202000.49 0M 18141340.67 37954326.75 m -101000.25 0 a 101000.25 101000.25 0 1 1 202000.49 0a 101000.25 101000.25 0 1 1 -202000.49 0M 17787009.67 38308656.75 m -101000.25 0 a 101000.25 101000.25 0 1 1 202000.49 0a 101000.25 101000.25 0 1 1 -202000.49 0M 18141340.67 38308656.75 m -101000.25 0 a 101000.25 101000.25 0 1 1 202000.49 0a 101000.25 101000.25 0 1 1 -202000.49 0M 18141340.67 37599995.75 m -101000.25 0 a 101000.25 101000.25 0 1 1 202000.49 0a 101000.25 101000.25 0 1 1 -202000.49 0M 18495670.67 37599995.75 m -101000.25 0 a 101000.25 101000.25 0 1 1 202000.49 0a 101000.25 101000.25 0 1 1 -202000.49 0M 18495670.67 37954326.75 m -101000.25 0 a 101000.25 101000.25 0 1 1 202000.49 0a 101000.25 101000.25 0 1 1 -202000.49 0M 18850001.67 37954326.75 m -101000.25 0 a 101000.25 101000.25 0 1 1 202000.49 0a 101000.25 101000.25 0 1 1 -202000.49 0M 18850001.67 38308656.75 m -101000.25 0 a 101000.25 101000.25 0 1 1 202000.49 0a 101000.25 101000.25 0 1 1 -202000.49 0M 16369686.67 38662987.75 m -101000.25 0 a 101000.25 101000.25 0 1 1 202000.49 0a 101000.25 101000.25 0 1 1 -202000.49 0M 16369686.67 39017318.75 m -101000.25 0 a 101000.25 101000.25 0 1 1 202000.49 0a 101000.25 101000.25 0 1 1 -202000.49 0M 16724017.67 38662987.75 m -101000.25 0 a 101000.25 101000.25 0 1 1 202000.49 0a 101000.25 101000.25 0 1 1 -202000.49 0M 16724017.67 38308656.75 m -101000.25 0 a 101000.25 101000.25 0 1 1 202000.49 0a 101000.25 101000.25 0 1 1 -202000.49 0M 17078347.67 38662987.75 m -101000.25 0 a 101000.25 101000.25 0 1 1 202000.49 0a 101000.25 101000.25 0 1 1 -202000.49 0M 17432678.67 38662987.75 m -101000.25 0 a 101000.25 101000.25 0 1 1 202000.49 0a 101000.25 101000.25 0 1 1 -202000.49 0M 16369686.67 39371649.75 m -101000.25 0 a 101000.25 101000.25 0 1 1 202000.49 0a 101000.25 101000.25 0 1 1 -202000.49 0M 16724017.67 39017318.75 m -101000.25 0 a 101000.25 101000.25 0 1 1 202000.49 0a 101000.25 101000.25 0 1 1 -202000.49 0M 17078347.67 39017318.75 m -101000.25 0 a 101000.25 101000.25 0 1 1 202000.49 0a 101000.25 101000.25 0 1 1 -202000.49 0M 17432678.67 39017318.75 m -101000.25 0 a 101000.25 101000.25 0 1 1 202000.49 0a 101000.25 101000.25 0 1 1 -202000.49 0M 17432678.67 39371649.75 m -101000.25 0 a 101000.25 101000.25 0 1 1 202000.49 0a 101000.25 101000.25 0 1 1 -202000.49 0M 16369686.67 39725979.75 m -101000.25 0 a 101000.25 101000.25 0 1 1 202000.49 0a 101000.25 101000.25 0 1 1 -202000.49 0M 16724017.67 39371649.75 m -101000.25 0 a 101000.25 101000.25 0 1 1 202000.49 0a 101000.25 101000.25 0 1 1 -202000.49 0M 16724017.67 39725979.75 m -101000.25 0 a 101000.25 101000.25 0 1 1 202000.49 0a 101000.25 101000.25 0 1 1 -202000.49 0M 17078347.67 39371649.75 m -101000.25 0 a 101000.25 101000.25 0 1 1 202000.49 0a 101000.25 101000.25 0 1 1 -202000.49 0M 17078347.67 39725979.75 m -101000.25 0 a 101000.25 101000.25 0 1 1 202000.49 0a 101000.25 101000.25 0 1 1 -202000.49 0M 17432678.67 39725979.75 m -101000.25 0 a 101000.25 101000.25 0 1 1 202000.49 0a 101000.25 101000.25 0 1 1 -202000.49 0M 16369686.67 40080310.75 m -101000.25 0 a 101000.25 101000.25 0 1 1 202000.49 0a 101000.25 101000.25 0 1 1 -202000.49 0M 16724017.67 40080310.75 m -101000.25 0 a 101000.25 101000.25 0 1 1 202000.49 0a 101000.25 101000.25 0 1 1 -202000.49 0M 17078347.67 40080310.75 m -101000.25 0 a 101000.25 101000.25 0 1 1 202000.49 0a 101000.25 101000.25 0 1 1 -202000.49 0M 17432678.67 40080310.75 m -101000.25 0 a 101000.25 101000.25 0 1 1 202000.49 0a 101000.25 101000.25 0 1 1 -202000.49 0M 17099986.65 40880766.15 m -376124.85 0 a 376124.85 376124.85 0 1 1 752249.70 0a 376124.85 376124.85 0 1 1 -752249.70 0M 17787009.67 38662987.75 m -101000.25 0 a 101000.25 101000.25 0 1 1 202000.49 0a 101000.25 101000.25 0 1 1 -202000.49 0M 18141340.67 38662987.75 m -101000.25 0 a 101000.25 101000.25 0 1 1 202000.49 0a 101000.25 101000.25 0 1 1 -202000.49 0M 18495670.67 38662987.75 m -101000.25 0 a 101000.25 101000.25 0 1 1 202000.49 0a 101000.25 101000.25 0 1 1 -202000.49 0M 18495670.67 38308656.75 m -101000.25 0 a 101000.25 101000.25 0 1 1 202000.49 0a 101000.25 101000.25 0 1 1 -202000.49 0M 18850001.67 38662987.75 m -101000.25 0 a 101000.25 101000.25 0 1 1 202000.49 0a 101000.25 101000.25 0 1 1 -202000.49 0M 18495670.67 39017318.75 m -101000.25 0 a 101000.25 101000.25 0 1 1 202000.49 0a 101000.25 101000.25 0 1 1 -202000.49 0M 17787009.67 39017318.75 m -101000.25 0 a 101000.25 101000.25 0 1 1 202000.49 0a 101000.25 101000.25 0 1 1 -202000.49 0M 18141340.67 39017318.75 m -101000.25 0 a 101000.25 101000.25 0 1 1 202000.49 0a 101000.25 101000.25 0 1 1 -202000.49 0M 18141340.67 39371649.75 m -101000.25 0 a 101000.25 101000.25 0 1 1 202000.49 0a 101000.25 101000.25 0 1 1 -202000.49 0M 18850001.67 39017318.75 m -101000.25 0 a 101000.25 101000.25 0 1 1 202000.49 0a 101000.25 101000.25 0 1 1 -202000.49 0M 18850001.67 39371649.75 m -101000.25 0 a 101000.25 101000.25 0 1 1 202000.49 0a 101000.25 101000.25 0 1 1 -202000.49 0M 17787009.67 39371649.75 m -101000.25 0 a 101000.25 101000.25 0 1 1 202000.49 0a 101000.25 101000.25 0 1 1 -202000.49 0M 17787009.67 39725979.75 m -101000.25 0 a 101000.25 101000.25 0 1 1 202000.49 0a 101000.25 101000.25 0 1 1 -202000.49 0M 18141340.67 39725979.75 m -101000.25 0 a 101000.25 101000.25 0 1 1 202000.49 0a 101000.25 101000.25 0 1 1 -202000.49 0M 17787009.67 40080310.75 m -101000.25 0 a 101000.25 101000.25 0 1 1 202000.49 0a 101000.25 101000.25 0 1 1 -202000.49 0M 18141340.67 40080310.75 m -101000.25 0 a 101000.25 101000.25 0 1 1 202000.49 0a 101000.25 101000.25 0 1 1 -202000.49 0M 18495670.67 39371649.75 m -101000.25 0 a 101000.25 101000.25 0 1 1 202000.49 0a 101000.25 101000.25 0 1 1 -202000.49 0M 18495670.67 39725979.75 m -101000.25 0 a 101000.25 101000.25 0 1 1 202000.49 0a 101000.25 101000.25 0 1 1 -202000.49 0M 18850001.67 39725979.75 m -101000.25 0 a 101000.25 101000.25 0 1 1 202000.49 0a 101000.25 101000.25 0 1 1 -202000.49 0M 18495670.67 40080310.75 m -101000.25 0 a 101000.25 101000.25 0 1 1 202000.49 0a 101000.25 101000.25 0 1 1 -202000.49 0M 18850001.67 40080310.75 m -101000.25 0 a 101000.25 101000.25 0 1 1 202000.49 0a 101000.25 101000.25 0 1 1 -202000.49 0M 21250001.67 32699995.75 m -101000.25 0 a 101000.25 101000.25 0 1 1 202000.49 0a 101000.25 101000.25 0 1 1 -202000.49 0M 20950001.67 33849995.75 m -101000.25 0 a 101000.25 101000.25 0 1 1 202000.49 0a 101000.25 101000.25 0 1 1 -202000.49 0M 21258662.67 35687003.75 m -101000.25 0 a 101000.25 101000.25 0 1 1 202000.49 0a 101000.25 101000.25 0 1 1 -202000.49 0M 20904332.67 35687003.75 m -101000.25 0 a 101000.25 101000.25 0 1 1 202000.49 0a 101000.25 101000.25 0 1 1 -202000.49 0M 20904332.67 36041334.75 m -101000.25 0 a 101000.25 101000.25 0 1 1 202000.49 0a 101000.25 101000.25 0 1 1 -202000.49 0M 21258662.67 36041334.75 m -101000.25 0 a 101000.25 101000.25 0 1 1 202000.49 0a 101000.25 101000.25 0 1 1 -202000.49 0M 20904332.67 36395664.75 m -101000.25 0 a 101000.25 101000.25 0 1 1 202000.49 0a 101000.25 101000.25 0 1 1 -202000.49 0M 21258662.67 36395664.75 m -101000.25 0 a 101000.25 101000.25 0 1 1 202000.49 0a 101000.25 101000.25 0 1 1 -202000.49 0M 20904332.67 36749995.75 m -101000.25 0 a 101000.25 101000.25 0 1 1 202000.49 0a 101000.25 101000.25 0 1 1 -202000.49 0M 21612993.67 36041334.75 m -101000.25 0 a 101000.25 101000.25 0 1 1 202000.49 0a 101000.25 101000.25 0 1 1 -202000.49 0M 21258662.67 36749995.75 m -101000.25 0 a 101000.25 101000.25 0 1 1 202000.49 0a 101000.25 101000.25 0 1 1 -202000.49 0M 21844490.67 33844484.75 m -101000.25 0 a 101000.25 101000.25 0 1 1 202000.49 0a 101000.25 101000.25 0 1 1 -202000.49 0M 21612993.67 35687003.75 m -101000.25 0 a 101000.25 101000.25 0 1 1 202000.49 0a 101000.25 101000.25 0 1 1 -202000.49 0M 21967324.67 35687003.75 m -101000.25 0 a 101000.25 101000.25 0 1 1 202000.49 0a 101000.25 101000.25 0 1 1 -202000.49 0M 21612993.67 36395664.75 m -101000.25 0 a 101000.25 101000.25 0 1 1 202000.49 0a 101000.25 101000.25 0 1 1 -202000.49 0M 21967324.67 36041334.75 m -101000.25 0 a 101000.25 101000.25 0 1 1 202000.49 0a 101000.25 101000.25 0 1 1 -202000.49 0M 21967324.67 36395664.75 m -101000.25 0 a 101000.25 101000.25 0 1 1 202000.49 0a 101000.25 101000.25 0 1 1 -202000.49 0M 22750001.67 33849995.75 m -101000.25 0 a 101000.25 101000.25 0 1 1 202000.49 0a 101000.25 101000.25 0 1 1 -202000.49 0M 24099998.31 35950001.86 m -139617.14 0 a 139617.14 139617.14 0 1 1 279234.29 0a 139617.14 139617.14 0 1 1 -279234.29 0M 24599998.31 35950001.86 m -139617.14 0 a 139617.14 139617.14 0 1 1 279234.29 0a 139617.14 139617.14 0 1 1 -279234.29 0M 25199998.31 32900001.86 m -139617.14 0 a 139617.14 139617.14 0 1 1 279234.29 0a 139617.14 139617.14 0 1 1 -279234.29 0M 26664690.00 34818190.00 L 26153310.00 34818190.00 L 26153310.00 34581810.00 L 26634000.00 34581810.00 L 26634000.00 34318190.00 L 26153310.00 34318190.00 L 26153310.00 34081810.00 L 26634000.00 34081810.00 L 26634000.00 33818190.00 L 26153310.00 33818190.00 L 26153310.00 33581810.00 L 26634000.00 33581810.00 L 26634000.00 33318190.00 L 26153310.00 33318190.00 L 26153310.00 33081810.00 L 26664690.00 33081810.00 L 26664690.00 33113000.00 L 28012000.00 33113000.00 L 28012000.00 34787000.00 L 26664690.00 34787000.00 L 26664690.00 34818190.00  zM 21612993.67 36749995.75 m -101000.25 0 a 101000.25 101000.25 0 1 1 202000.49 0a 101000.25 101000.25 0 1 1 -202000.49 0M 21967324.67 36749995.75 m -101000.25 0 a 101000.25 101000.25 0 1 1 202000.49 0a 101000.25 101000.25 0 1 1 -202000.49 0M 21036992.78 37731130.62 m -513728.38 0 a 513728.38 513728.38 0 1 1 1027456.75 0a 513728.38 513728.38 0 1 1 -1027456.75 0M 22050001.67 39682672.75 m -101000.25 0 a 101000.25 101000.25 0 1 1 202000.49 0a 101000.25 101000.25 0 1 1 -202000.49 0M 22404332.67 39682672.75 m -101000.25 0 a 101000.25 101000.25 0 1 1 202000.49 0a 101000.25 101000.25 0 1 1 -202000.49 0M 22758662.67 39682672.75 m -101000.25 0 a 101000.25 101000.25 0 1 1 202000.49 0a 101000.25 101000.25 0 1 1 -202000.49 0M 21036992.78 39699630.62 m -513728.38 0 a 513728.38 513728.38 0 1 1 1027456.75 0a 513728.38 513728.38 0 1 1 -1027456.75 0M 22050001.67 40037003.75 m -101000.25 0 a 101000.25 101000.25 0 1 1 202000.49 0a 101000.25 101000.25 0 1 1 -202000.49 0M 22758662.67 40037003.75 m -101000.25 0 a 101000.25 101000.25 0 1 1 202000.49 0a 101000.25 101000.25 0 1 1 -202000.49 0M 23112993.67 39682672.75 m -101000.25 0 a 101000.25 101000.25 0 1 1 202000.49 0a 101000.25 101000.25 0 1 1 -202000.49 0M 23112993.67 40037003.75 m -101000.25 0 a 101000.25 101000.25 0 1 1 202000.49 0a 101000.25 101000.25 0 1 1 -202000.49 0M 23467324.67 39682672.75 m -101000.25 0 a 101000.25 101000.25 0 1 1 202000.49 0a 101000.25 101000.25 0 1 1 -202000.49 0M 23467324.67 40037003.75 m -101000.25 0 a 101000.25 101000.25 0 1 1 202000.49 0a 101000.25 101000.25 0 1 1 -202000.49 0M 23821655.67 39682672.75 m -101000.25 0 a 101000.25 101000.25 0 1 1 202000.49 0a 101000.25 101000.25 0 1 1 -202000.49 0M 24175985.67 39682672.75 m -101000.25 0 a 101000.25 101000.25 0 1 1 202000.49 0a 101000.25 101000.25 0 1 1 -202000.49 0M 24175985.67 40037003.75 m -101000.25 0 a 101000.25 101000.25 0 1 1 202000.49 0a 101000.25 101000.25 0 1 1 -202000.49 0M 24530316.67 39682672.75 m -101000.25 0 a 101000.25 101000.25 0 1 1 202000.49 0a 101000.25 101000.25 0 1 1 -202000.49 0M 24530316.67 40037003.75 m -101000.25 0 a 101000.25 101000.25 0 1 1 202000.49 0a 101000.25 101000.25 0 1 1 -202000.49 0M 26050001.67 39732672.75 m -101000.25 0 a 101000.25 101000.25 0 1 1 202000.49 0a 101000.25 101000.25 0 1 1 -202000.49 0M 26404332.67 39732672.75 m -101000.25 0 a 101000.25 101000.25 0 1 1 202000.49 0a 101000.25 101000.25 0 1 1 -202000.49 0M 26758662.67 39732672.75 m -101000.25 0 a 101000.25 101000.25 0 1 1 202000.49 0a 101000.25 101000.25 0 1 1 -202000.49 0M 22050001.67 40391334.75 m -101000.25 0 a 101000.25 101000.25 0 1 1 202000.49 0a 101000.25 101000.25 0 1 1 -202000.49 0M 22404332.67 40037003.75 m -101000.25 0 a 101000.25 101000.25 0 1 1 202000.49 0a 101000.25 101000.25 0 1 1 -202000.49 0M 22404332.67 40391334.75 m -101000.25 0 a 101000.25 101000.25 0 1 1 202000.49 0a 101000.25 101000.25 0 1 1 -202000.49 0M 22050001.67 40745664.75 m -101000.25 0 a 101000.25 101000.25 0 1 1 202000.49 0a 101000.25 101000.25 0 1 1 -202000.49 0M 22050001.67 41099995.75 m -101000.25 0 a 101000.25 101000.25 0 1 1 202000.49 0a 101000.25 101000.25 0 1 1 -202000.49 0M 22404332.67 40745664.75 m -101000.25 0 a 101000.25 101000.25 0 1 1 202000.49 0a 101000.25 101000.25 0 1 1 -202000.49 0M 22758662.67 40391334.75 m -101000.25 0 a 101000.25 101000.25 0 1 1 202000.49 0a 101000.25 101000.25 0 1 1 -202000.49 0M 22758662.67 40745664.75 m -101000.25 0 a 101000.25 101000.25 0 1 1 202000.49 0a 101000.25 101000.25 0 1 1 -202000.49 0M 22404332.67 41099995.75 m -101000.25 0 a 101000.25 101000.25 0 1 1 202000.49 0a 101000.25 101000.25 0 1 1 -202000.49 0M 22758662.67 41099995.75 m -101000.25 0 a 101000.25 101000.25 0 1 1 202000.49 0a 101000.25 101000.25 0 1 1 -202000.49 0M 23112993.67 41099995.75 m -101000.25 0 a 101000.25 101000.25 0 1 1 202000.49 0a 101000.25 101000.25 0 1 1 -202000.49 0M 23112993.67 40391334.75 m -101000.25 0 a 101000.25 101000.25 0 1 1 202000.49 0a 101000.25 101000.25 0 1 1 -202000.49 0M 23112993.67 40745664.75 m -101000.25 0 a 101000.25 101000.25 0 1 1 202000.49 0a 101000.25 101000.25 0 1 1 -202000.49 0M 23467324.67 40391334.75 m -101000.25 0 a 101000.25 101000.25 0 1 1 202000.49 0a 101000.25 101000.25 0 1 1 -202000.49 0M 23467324.67 40745664.75 m -101000.25 0 a 101000.25 101000.25 0 1 1 202000.49 0a 101000.25 101000.25 0 1 1 -202000.49 0M 23467324.67 41099995.75 m -101000.25 0 a 101000.25 101000.25 0 1 1 202000.49 0a 101000.25 101000.25 0 1 1 -202000.49 0M 23821655.67 40037003.75 m -101000.25 0 a 101000.25 101000.25 0 1 1 202000.49 0a 101000.25 101000.25 0 1 1 -202000.49 0M 23821655.67 40391334.75 m -101000.25 0 a 101000.25 101000.25 0 1 1 202000.49 0a 101000.25 101000.25 0 1 1 -202000.49 0M 24175985.67 40391334.75 m -101000.25 0 a 101000.25 101000.25 0 1 1 202000.49 0a 101000.25 101000.25 0 1 1 -202000.49 0M 23821655.67 40745664.75 m -101000.25 0 a 101000.25 101000.25 0 1 1 202000.49 0a 101000.25 101000.25 0 1 1 -202000.49 0M 23821655.67 41099995.75 m -101000.25 0 a 101000.25 101000.25 0 1 1 202000.49 0a 101000.25 101000.25 0 1 1 -202000.49 0M 24175985.67 40745664.75 m -101000.25 0 a 101000.25 101000.25 0 1 1 202000.49 0a 101000.25 101000.25 0 1 1 -202000.49 0M 24175985.67 41099995.75 m -101000.25 0 a 101000.25 101000.25 0 1 1 202000.49 0a 101000.25 101000.25 0 1 1 -202000.49 0M 24530316.67 40745664.75 m -101000.25 0 a 101000.25 101000.25 0 1 1 202000.49 0a 101000.25 101000.25 0 1 1 -202000.49 0M 24530316.67 40391334.75 m -101000.25 0 a 101000.25 101000.25 0 1 1 202000.49 0a 101000.25 101000.25 0 1 1 -202000.49 0M 24530316.67 41099995.75 m -101000.25 0 a 101000.25 101000.25 0 1 1 202000.49 0a 101000.25 101000.25 0 1 1 -202000.49 0M 26050001.67 40087003.75 m -101000.25 0 a 101000.25 101000.25 0 1 1 202000.49 0a 101000.25 101000.25 0 1 1 -202000.49 0M 26050001.67 40441334.75 m -101000.25 0 a 101000.25 101000.25 0 1 1 202000.49 0a 101000.25 101000.25 0 1 1 -202000.49 0M 26404332.67 40087003.75 m -101000.25 0 a 101000.25 101000.25 0 1 1 202000.49 0a 101000.25 101000.25 0 1 1 -202000.49 0M 26404332.67 40441334.75 m -101000.25 0 a 101000.25 101000.25 0 1 1 202000.49 0a 101000.25 101000.25 0 1 1 -202000.49 0M 26050001.67 40795664.75 m -101000.25 0 a 101000.25 101000.25 0 1 1 202000.49 0a 101000.25 101000.25 0 1 1 -202000.49 0M 26050001.67 41149995.75 m -101000.25 0 a 101000.25 101000.25 0 1 1 202000.49 0a 101000.25 101000.25 0 1 1 -202000.49 0M 26758662.67 40087003.75 m -101000.25 0 a 101000.25 101000.25 0 1 1 202000.49 0a 101000.25 101000.25 0 1 1 -202000.49 0M 27112993.67 40087003.75 m -101000.25 0 a 101000.25 101000.25 0 1 1 202000.49 0a 101000.25 101000.25 0 1 1 -202000.49 0M 27112993.67 40441334.75 m -101000.25 0 a 101000.25 101000.25 0 1 1 202000.49 0a 101000.25 101000.25 0 1 1 -202000.49 0M 26758662.67 40441334.75 m -101000.25 0 a 101000.25 101000.25 0 1 1 202000.49 0a 101000.25 101000.25 0 1 1 -202000.49 0M 26758662.67 40795664.75 m -101000.25 0 a 101000.25 101000.25 0 1 1 202000.49 0a 101000.25 101000.25 0 1 1 -202000.49 0M 26404332.67 40795664.75 m -101000.25 0 a 101000.25 101000.25 0 1 1 202000.49 0a 101000.25 101000.25 0 1 1 -202000.49 0M 26404332.67 41149995.75 m -101000.25 0 a 101000.25 101000.25 0 1 1 202000.49 0a 101000.25 101000.25 0 1 1 -202000.49 0M 26758662.67 41149995.75 m -101000.25 0 a 101000.25 101000.25 0 1 1 202000.49 0a 101000.25 101000.25 0 1 1 -202000.49 0M 27112993.67 40795664.75 m -101000.25 0 a 101000.25 101000.25 0 1 1 202000.49 0a 101000.25 101000.25 0 1 1 -202000.49 0M 27112993.67 41149995.75 m -101000.25 0 a 101000.25 101000.25 0 1 1 202000.49 0a 101000.25 101000.25 0 1 1 -202000.49 0M 28806690.00 33318190.00 L 28373310.00 33318190.00 L 28373310.00 33081810.00 L 28806690.00 33081810.00 L 28806690.00 33318190.00  zM 29049998.31 32750001.86 m -139617.14 0 a 139617.14 139617.14 0 1 1 279234.29 0a 139617.14 139617.14 0 1 1 -279234.29 0M 30314929.79 32873881.42 m -513439.58 0 a 513439.58 513439.58 0 1 1 1026879.16 0a 513439.58 513439.58 0 1 1 -1026879.16 0M 28806690.00 33818190.00 L 28373310.00 33818190.00 L 28373310.00 33581810.00 L 28806690.00 33581810.00 L 28806690.00 33818190.00  zM 28806690.00 34318190.00 L 28373310.00 34318190.00 L 28373310.00 34081810.00 L 28806690.00 34081810.00 L 28806690.00 34318190.00  zM 28806690.00 34818190.00 L 28373310.00 34818190.00 L 28373310.00 34581810.00 L 28806690.00 34581810.00 L 28806690.00 34818190.00  zM 32500001.67 32495664.75 m -101000.25 0 a 101000.25 101000.25 0 1 1 202000.49 0a 101000.25 101000.25 0 1 1 -202000.49 0M 32500001.67 32849995.75 m -101000.25 0 a 101000.25 101000.25 0 1 1 202000.49 0a 101000.25 101000.25 0 1 1 -202000.49 0M 32150001.67 35219680.75 m -101000.25 0 a 101000.25 101000.25 0 1 1 202000.49 0a 101000.25 101000.25 0 1 1 -202000.49 0M 32150001.67 35574011.75 m -101000.25 0 a 101000.25 101000.25 0 1 1 202000.49 0a 101000.25 101000.25 0 1 1 -202000.49 0M 32150001.67 35928341.75 m -101000.25 0 a 101000.25 101000.25 0 1 1 202000.49 0a 101000.25 101000.25 0 1 1 -202000.49 0M 32854332.67 32495664.75 m -101000.25 0 a 101000.25 101000.25 0 1 1 202000.49 0a 101000.25 101000.25 0 1 1 -202000.49 0M 33208662.67 32495664.75 m -101000.25 0 a 101000.25 101000.25 0 1 1 202000.49 0a 101000.25 101000.25 0 1 1 -202000.49 0M 32854332.67 32849995.75 m -101000.25 0 a 101000.25 101000.25 0 1 1 202000.49 0a 101000.25 101000.25 0 1 1 -202000.49 0M 33208662.67 32849995.75 m -101000.25 0 a 101000.25 101000.25 0 1 1 202000.49 0a 101000.25 101000.25 0 1 1 -202000.49 0M 32504332.67 35219680.75 m -101000.25 0 a 101000.25 101000.25 0 1 1 202000.49 0a 101000.25 101000.25 0 1 1 -202000.49 0M 32858662.67 35219680.75 m -101000.25 0 a 101000.25 101000.25 0 1 1 202000.49 0a 101000.25 101000.25 0 1 1 -202000.49 0M 32504332.67 35574011.75 m -101000.25 0 a 101000.25 101000.25 0 1 1 202000.49 0a 101000.25 101000.25 0 1 1 -202000.49 0M 32858662.67 35928341.75 m -101000.25 0 a 101000.25 101000.25 0 1 1 202000.49 0a 101000.25 101000.25 0 1 1 -202000.49 0M 32858662.67 35574011.75 m -101000.25 0 a 101000.25 101000.25 0 1 1 202000.49 0a 101000.25 101000.25 0 1 1 -202000.49 0M 33212993.67 35219680.75 m -101000.25 0 a 101000.25 101000.25 0 1 1 202000.49 0a 101000.25 101000.25 0 1 1 -202000.49 0M 33212993.67 35574011.75 m -101000.25 0 a 101000.25 101000.25 0 1 1 202000.49 0a 101000.25 101000.25 0 1 1 -202000.49 0M 32150001.67 36282672.75 m -101000.25 0 a 101000.25 101000.25 0 1 1 202000.49 0a 101000.25 101000.25 0 1 1 -202000.49 0M 32504332.67 35928341.75 m -101000.25 0 a 101000.25 101000.25 0 1 1 202000.49 0a 101000.25 101000.25 0 1 1 -202000.49 0M 32504332.67 36282672.75 m -101000.25 0 a 101000.25 101000.25 0 1 1 202000.49 0a 101000.25 101000.25 0 1 1 -202000.49 0M 32858662.67 36282672.75 m -101000.25 0 a 101000.25 101000.25 0 1 1 202000.49 0a 101000.25 101000.25 0 1 1 -202000.49 0M 33212993.67 36282672.75 m -101000.25 0 a 101000.25 101000.25 0 1 1 202000.49 0a 101000.25 101000.25 0 1 1 -202000.49 0M 33212993.67 35928341.75 m -101000.25 0 a 101000.25 101000.25 0 1 1 202000.49 0a 101000.25 101000.25 0 1 1 -202000.49 0M 32150001.67 36637003.75 m -101000.25 0 a 101000.25 101000.25 0 1 1 202000.49 0a 101000.25 101000.25 0 1 1 -202000.49 0M 32150001.67 36991334.75 m -101000.25 0 a 101000.25 101000.25 0 1 1 202000.49 0a 101000.25 101000.25 0 1 1 -202000.49 0M 32504332.67 36637003.75 m -101000.25 0 a 101000.25 101000.25 0 1 1 202000.49 0a 101000.25 101000.25 0 1 1 -202000.49 0M 32858662.67 36637003.75 m -101000.25 0 a 101000.25 101000.25 0 1 1 202000.49 0a 101000.25 101000.25 0 1 1 -202000.49 0M 33212993.67 36637003.75 m -101000.25 0 a 101000.25 101000.25 0 1 1 202000.49 0a 101000.25 101000.25 0 1 1 -202000.49 0M 32150001.67 37345664.75 m -101000.25 0 a 101000.25 101000.25 0 1 1 202000.49 0a 101000.25 101000.25 0 1 1 -202000.49 0M 32504332.67 37345664.75 m -101000.25 0 a 101000.25 101000.25 0 1 1 202000.49 0a 101000.25 101000.25 0 1 1 -202000.49 0M 32504332.67 36991334.75 m -101000.25 0 a 101000.25 101000.25 0 1 1 202000.49 0a 101000.25 101000.25 0 1 1 -202000.49 0M 32150001.67 37699995.75 m -101000.25 0 a 101000.25 101000.25 0 1 1 202000.49 0a 101000.25 101000.25 0 1 1 -202000.49 0M 32504332.67 37699995.75 m -101000.25 0 a 101000.25 101000.25 0 1 1 202000.49 0a 101000.25 101000.25 0 1 1 -202000.49 0M 32858662.67 36991334.75 m -101000.25 0 a 101000.25 101000.25 0 1 1 202000.49 0a 101000.25 101000.25 0 1 1 -202000.49 0M 32858662.67 37345664.75 m -101000.25 0 a 101000.25 101000.25 0 1 1 202000.49 0a 101000.25 101000.25 0 1 1 -202000.49 0M 33212993.67 36991334.75 m -101000.25 0 a 101000.25 101000.25 0 1 1 202000.49 0a 101000.25 101000.25 0 1 1 -202000.49 0M 32858662.67 37699995.75 m -101000.25 0 a 101000.25 101000.25 0 1 1 202000.49 0a 101000.25 101000.25 0 1 1 -202000.49 0M 33212993.67 37699995.75 m -101000.25 0 a 101000.25 101000.25 0 1 1 202000.49 0a 101000.25 101000.25 0 1 1 -202000.49 0M 33562993.67 32495664.75 m -101000.25 0 a 101000.25 101000.25 0 1 1 202000.49 0a 101000.25 101000.25 0 1 1 -202000.49 0M 33917324.67 32495664.75 m -101000.25 0 a 101000.25 101000.25 0 1 1 202000.49 0a 101000.25 101000.25 0 1 1 -202000.49 0M 34271655.67 32495664.75 m -101000.25 0 a 101000.25 101000.25 0 1 1 202000.49 0a 101000.25 101000.25 0 1 1 -202000.49 0M 34625985.67 32495664.75 m -101000.25 0 a 101000.25 101000.25 0 1 1 202000.49 0a 101000.25 101000.25 0 1 1 -202000.49 0M 34980316.67 32495664.75 m -101000.25 0 a 101000.25 101000.25 0 1 1 202000.49 0a 101000.25 101000.25 0 1 1 -202000.49 0M 34980316.67 32849995.75 m -101000.25 0 a 101000.25 101000.25 0 1 1 202000.49 0a 101000.25 101000.25 0 1 1 -202000.49 0M 33562993.67 32849995.75 m -101000.25 0 a 101000.25 101000.25 0 1 1 202000.49 0a 101000.25 101000.25 0 1 1 -202000.49 0M 33917324.67 32849995.75 m -101000.25 0 a 101000.25 101000.25 0 1 1 202000.49 0a 101000.25 101000.25 0 1 1 -202000.49 0M 34271655.67 32849995.75 m -101000.25 0 a 101000.25 101000.25 0 1 1 202000.49 0a 101000.25 101000.25 0 1 1 -202000.49 0M 34625985.67 32849995.75 m -101000.25 0 a 101000.25 101000.25 0 1 1 202000.49 0a 101000.25 101000.25 0 1 1 -202000.49 0M 34251923.01 34055129.95 m -316482.05 0 a 316482.05 316482.05 0 1 1 632964.10 0a 316482.05 316482.05 0 1 1 -632964.10 0M 33567324.67 35219680.75 m -101000.25 0 a 101000.25 101000.25 0 1 1 202000.49 0a 101000.25 101000.25 0 1 1 -202000.49 0M 33567324.67 35574011.75 m -101000.25 0 a 101000.25 101000.25 0 1 1 202000.49 0a 101000.25 101000.25 0 1 1 -202000.49 0M 33921655.67 35219680.75 m -101000.25 0 a 101000.25 101000.25 0 1 1 202000.49 0a 101000.25 101000.25 0 1 1 -202000.49 0M 33567324.67 35928341.75 m -101000.25 0 a 101000.25 101000.25 0 1 1 202000.49 0a 101000.25 101000.25 0 1 1 -202000.49 0M 33921655.67 35574011.75 m -101000.25 0 a 101000.25 101000.25 0 1 1 202000.49 0a 101000.25 101000.25 0 1 1 -202000.49 0M 34275985.67 35219680.75 m -101000.25 0 a 101000.25 101000.25 0 1 1 202000.49 0a 101000.25 101000.25 0 1 1 -202000.49 0M 34275985.67 35574011.75 m -101000.25 0 a 101000.25 101000.25 0 1 1 202000.49 0a 101000.25 101000.25 0 1 1 -202000.49 0M 34630316.67 35574011.75 m -101000.25 0 a 101000.25 101000.25 0 1 1 202000.49 0a 101000.25 101000.25 0 1 1 -202000.49 0M 34275985.67 35928341.75 m -101000.25 0 a 101000.25 101000.25 0 1 1 202000.49 0a 101000.25 101000.25 0 1 1 -202000.49 0M 34630316.67 35928341.75 m -101000.25 0 a 101000.25 101000.25 0 1 1 202000.49 0a 101000.25 101000.25 0 1 1 -202000.49 0M 33567324.67 36282672.75 m -101000.25 0 a 101000.25 101000.25 0 1 1 202000.49 0a 101000.25 101000.25 0 1 1 -202000.49 0M 33921655.67 36282672.75 m -101000.25 0 a 101000.25 101000.25 0 1 1 202000.49 0a 101000.25 101000.25 0 1 1 -202000.49 0M 33921655.67 35928341.75 m -101000.25 0 a 101000.25 101000.25 0 1 1 202000.49 0a 101000.25 101000.25 0 1 1 -202000.49 0M 34275985.67 36282672.75 m -101000.25 0 a 101000.25 101000.25 0 1 1 202000.49 0a 101000.25 101000.25 0 1 1 -202000.49 0M 33921655.67 36637003.75 m -101000.25 0 a 101000.25 101000.25 0 1 1 202000.49 0a 101000.25 101000.25 0 1 1 -202000.49 0M 34630316.67 36282672.75 m -101000.25 0 a 101000.25 101000.25 0 1 1 202000.49 0a 101000.25 101000.25 0 1 1 -202000.49 0M 33567324.67 36637003.75 m -101000.25 0 a 101000.25 101000.25 0 1 1 202000.49 0a 101000.25 101000.25 0 1 1 -202000.49 0M 34275985.67 36637003.75 m -101000.25 0 a 101000.25 101000.25 0 1 1 202000.49 0a 101000.25 101000.25 0 1 1 -202000.49 0M 34275985.67 36991334.75 m -101000.25 0 a 101000.25 101000.25 0 1 1 202000.49 0a 101000.25 101000.25 0 1 1 -202000.49 0M 34630316.67 36637003.75 m -101000.25 0 a 101000.25 101000.25 0 1 1 202000.49 0a 101000.25 101000.25 0 1 1 -202000.49 0M 34630316.67 36991334.75 m -101000.25 0 a 101000.25 101000.25 0 1 1 202000.49 0a 101000.25 101000.25 0 1 1 -202000.49 0M 33212993.67 37345664.75 m -101000.25 0 a 101000.25 101000.25 0 1 1 202000.49 0a 101000.25 101000.25 0 1 1 -202000.49 0M 33567324.67 36991334.75 m -101000.25 0 a 101000.25 101000.25 0 1 1 202000.49 0a 101000.25 101000.25 0 1 1 -202000.49 0M 33567324.67 37345664.75 m -101000.25 0 a 101000.25 101000.25 0 1 1 202000.49 0a 101000.25 101000.25 0 1 1 -202000.49 0M 33567324.67 37699995.75 m -101000.25 0 a 101000.25 101000.25 0 1 1 202000.49 0a 101000.25 101000.25 0 1 1 -202000.49 0M 33921655.67 37345664.75 m -101000.25 0 a 101000.25 101000.25 0 1 1 202000.49 0a 101000.25 101000.25 0 1 1 -202000.49 0M 33921655.67 36991334.75 m -101000.25 0 a 101000.25 101000.25 0 1 1 202000.49 0a 101000.25 101000.25 0 1 1 -202000.49 0M 34275985.67 37345664.75 m -101000.25 0 a 101000.25 101000.25 0 1 1 202000.49 0a 101000.25 101000.25 0 1 1 -202000.49 0M 34275985.67 37699995.75 m -101000.25 0 a 101000.25 101000.25 0 1 1 202000.49 0a 101000.25 101000.25 0 1 1 -202000.49 0M 34630316.67 37345664.75 m -101000.25 0 a 101000.25 101000.25 0 1 1 202000.49 0a 101000.25 101000.25 0 1 1 -202000.49 0M 34630316.67 37699995.75 m -101000.25 0 a 101000.25 101000.25 0 1 1 202000.49 0a 101000.25 101000.25 0 1 1 -202000.49 0M 27112993.67 39732672.75 m -101000.25 0 a 101000.25 101000.25 0 1 1 202000.49 0a 101000.25 101000.25 0 1 1 -202000.49 0M 27467324.67 40087003.75 m -101000.25 0 a 101000.25 101000.25 0 1 1 202000.49 0a 101000.25 101000.25 0 1 1 -202000.49 0M 27467324.67 39732672.75 m -101000.25 0 a 101000.25 101000.25 0 1 1 202000.49 0a 101000.25 101000.25 0 1 1 -202000.49 0M 27821655.67 39732672.75 m -101000.25 0 a 101000.25 101000.25 0 1 1 202000.49 0a 101000.25 101000.25 0 1 1 -202000.49 0M 28175985.67 39732672.75 m -101000.25 0 a 101000.25 101000.25 0 1 1 202000.49 0a 101000.25 101000.25 0 1 1 -202000.49 0M 27821655.67 40087003.75 m -101000.25 0 a 101000.25 101000.25 0 1 1 202000.49 0a 101000.25 101000.25 0 1 1 -202000.49 0M 29000001.67 38669680.75 m -101000.25 0 a 101000.25 101000.25 0 1 1 202000.49 0a 101000.25 101000.25 0 1 1 -202000.49 0M 29000001.67 39732672.75 m -101000.25 0 a 101000.25 101000.25 0 1 1 202000.49 0a 101000.25 101000.25 0 1 1 -202000.49 0M 28530316.67 39732672.75 m -101000.25 0 a 101000.25 101000.25 0 1 1 202000.49 0a 101000.25 101000.25 0 1 1 -202000.49 0M 28530316.67 40087003.75 m -101000.25 0 a 101000.25 101000.25 0 1 1 202000.49 0a 101000.25 101000.25 0 1 1 -202000.49 0M 29000001.67 40087003.75 m -101000.25 0 a 101000.25 101000.25 0 1 1 202000.49 0a 101000.25 101000.25 0 1 1 -202000.49 0M 29000001.67 39024011.75 m -101000.25 0 a 101000.25 101000.25 0 1 1 202000.49 0a 101000.25 101000.25 0 1 1 -202000.49 0M 29000001.67 39378341.75 m -101000.25 0 a 101000.25 101000.25 0 1 1 202000.49 0a 101000.25 101000.25 0 1 1 -202000.49 0M 29354332.67 39024011.75 m -101000.25 0 a 101000.25 101000.25 0 1 1 202000.49 0a 101000.25 101000.25 0 1 1 -202000.49 0M 29354332.67 38669680.75 m -101000.25 0 a 101000.25 101000.25 0 1 1 202000.49 0a 101000.25 101000.25 0 1 1 -202000.49 0M 29708662.67 39024011.75 m -101000.25 0 a 101000.25 101000.25 0 1 1 202000.49 0a 101000.25 101000.25 0 1 1 -202000.49 0M 29708662.67 39378341.75 m -101000.25 0 a 101000.25 101000.25 0 1 1 202000.49 0a 101000.25 101000.25 0 1 1 -202000.49 0M 29354332.67 39378341.75 m -101000.25 0 a 101000.25 101000.25 0 1 1 202000.49 0a 101000.25 101000.25 0 1 1 -202000.49 0M 29708662.67 39732672.75 m -101000.25 0 a 101000.25 101000.25 0 1 1 202000.49 0a 101000.25 101000.25 0 1 1 -202000.49 0M 29354332.67 39732672.75 m -101000.25 0 a 101000.25 101000.25 0 1 1 202000.49 0a 101000.25 101000.25 0 1 1 -202000.49 0M 29354332.67 40087003.75 m -101000.25 0 a 101000.25 101000.25 0 1 1 202000.49 0a 101000.25 101000.25 0 1 1 -202000.49 0M 29708662.67 40087003.75 m -101000.25 0 a 101000.25 101000.25 0 1 1 202000.49 0a 101000.25 101000.25 0 1 1 -202000.49 0M 27467324.67 40441334.75 m -101000.25 0 a 101000.25 101000.25 0 1 1 202000.49 0a 101000.25 101000.25 0 1 1 -202000.49 0M 27467324.67 40795664.75 m -101000.25 0 a 101000.25 101000.25 0 1 1 202000.49 0a 101000.25 101000.25 0 1 1 -202000.49 0M 27821655.67 40441334.75 m -101000.25 0 a 101000.25 101000.25 0 1 1 202000.49 0a 101000.25 101000.25 0 1 1 -202000.49 0M 27467324.67 41149995.75 m -101000.25 0 a 101000.25 101000.25 0 1 1 202000.49 0a 101000.25 101000.25 0 1 1 -202000.49 0M 27821655.67 40795664.75 m -101000.25 0 a 101000.25 101000.25 0 1 1 202000.49 0a 101000.25 101000.25 0 1 1 -202000.49 0M 27821655.67 41149995.75 m -101000.25 0 a 101000.25 101000.25 0 1 1 202000.49 0a 101000.25 101000.25 0 1 1 -202000.49 0M 28175985.67 40087003.75 m -101000.25 0 a 101000.25 101000.25 0 1 1 202000.49 0a 101000.25 101000.25 0 1 1 -202000.49 0M 28175985.67 40441334.75 m -101000.25 0 a 101000.25 101000.25 0 1 1 202000.49 0a 101000.25 101000.25 0 1 1 -202000.49 0M 28530316.67 40795664.75 m -101000.25 0 a 101000.25 101000.25 0 1 1 202000.49 0a 101000.25 101000.25 0 1 1 -202000.49 0M 28175985.67 40795664.75 m -101000.25 0 a 101000.25 101000.25 0 1 1 202000.49 0a 101000.25 101000.25 0 1 1 -202000.49 0M 28175985.67 41149995.75 m -101000.25 0 a 101000.25 101000.25 0 1 1 202000.49 0a 101000.25 101000.25 0 1 1 -202000.49 0M 28530316.67 40441334.75 m -101000.25 0 a 101000.25 101000.25 0 1 1 202000.49 0a 101000.25 101000.25 0 1 1 -202000.49 0M 29000001.67 40441334.75 m -101000.25 0 a 101000.25 101000.25 0 1 1 202000.49 0a 101000.25 101000.25 0 1 1 -202000.49 0M 29000001.67 40795664.75 m -101000.25 0 a 101000.25 101000.25 0 1 1 202000.49 0a 101000.25 101000.25 0 1 1 -202000.49 0M 28530316.67 41149995.75 m -101000.25 0 a 101000.25 101000.25 0 1 1 202000.49 0a 101000.25 101000.25 0 1 1 -202000.49 0M 29000001.67 41149995.75 m -101000.25 0 a 101000.25 101000.25 0 1 1 202000.49 0a 101000.25 101000.25 0 1 1 -202000.49 0M 29354332.67 40441334.75 m -101000.25 0 a 101000.25 101000.25 0 1 1 202000.49 0a 101000.25 101000.25 0 1 1 -202000.49 0M 29354332.67 40795664.75 m -101000.25 0 a 101000.25 101000.25 0 1 1 202000.49 0a 101000.25 101000.25 0 1 1 -202000.49 0M 29708662.67 40441334.75 m -101000.25 0 a 101000.25 101000.25 0 1 1 202000.49 0a 101000.25 101000.25 0 1 1 -202000.49 0M 29354332.67 41149995.75 m -101000.25 0 a 101000.25 101000.25 0 1 1 202000.49 0a 101000.25 101000.25 0 1 1 -202000.49 0M 29708662.67 41149995.75 m -101000.25 0 a 101000.25 101000.25 0 1 1 202000.49 0a 101000.25 101000.25 0 1 1 -202000.49 0M 29708662.67 38669680.75 m -101000.25 0 a 101000.25 101000.25 0 1 1 202000.49 0a 101000.25 101000.25 0 1 1 -202000.49 0M 30062993.67 38669680.75 m -101000.25 0 a 101000.25 101000.25 0 1 1 202000.49 0a 101000.25 101000.25 0 1 1 -202000.49 0M 30062993.67 39024011.75 m -101000.25 0 a 101000.25 101000.25 0 1 1 202000.49 0a 101000.25 101000.25 0 1 1 -202000.49 0M 30062993.67 39378341.75 m -101000.25 0 a 101000.25 101000.25 0 1 1 202000.49 0a 101000.25 101000.25 0 1 1 -202000.49 0M 30417324.67 39024011.75 m -101000.25 0 a 101000.25 101000.25 0 1 1 202000.49 0a 101000.25 101000.25 0 1 1 -202000.49 0M 30062993.67 39732672.75 m -101000.25 0 a 101000.25 101000.25 0 1 1 202000.49 0a 101000.25 101000.25 0 1 1 -202000.49 0M 30417324.67 38669680.75 m -101000.25 0 a 101000.25 101000.25 0 1 1 202000.49 0a 101000.25 101000.25 0 1 1 -202000.49 0M 30771655.67 38669680.75 m -101000.25 0 a 101000.25 101000.25 0 1 1 202000.49 0a 101000.25 101000.25 0 1 1 -202000.49 0M 30417324.67 39378341.75 m -101000.25 0 a 101000.25 101000.25 0 1 1 202000.49 0a 101000.25 101000.25 0 1 1 -202000.49 0M 30417324.67 39732672.75 m -101000.25 0 a 101000.25 101000.25 0 1 1 202000.49 0a 101000.25 101000.25 0 1 1 -202000.49 0M 30771655.67 39378341.75 m -101000.25 0 a 101000.25 101000.25 0 1 1 202000.49 0a 101000.25 101000.25 0 1 1 -202000.49 0M 31125985.67 38669680.75 m -101000.25 0 a 101000.25 101000.25 0 1 1 202000.49 0a 101000.25 101000.25 0 1 1 -202000.49 0M 31125985.67 39024011.75 m -101000.25 0 a 101000.25 101000.25 0 1 1 202000.49 0a 101000.25 101000.25 0 1 1 -202000.49 0M 30771655.67 39024011.75 m -101000.25 0 a 101000.25 101000.25 0 1 1 202000.49 0a 101000.25 101000.25 0 1 1 -202000.49 0M 31125985.67 39378341.75 m -101000.25 0 a 101000.25 101000.25 0 1 1 202000.49 0a 101000.25 101000.25 0 1 1 -202000.49 0M 30771655.67 39732672.75 m -101000.25 0 a 101000.25 101000.25 0 1 1 202000.49 0a 101000.25 101000.25 0 1 1 -202000.49 0M 31480316.67 39024011.75 m -101000.25 0 a 101000.25 101000.25 0 1 1 202000.49 0a 101000.25 101000.25 0 1 1 -202000.49 0M 31125985.67 39732672.75 m -101000.25 0 a 101000.25 101000.25 0 1 1 202000.49 0a 101000.25 101000.25 0 1 1 -202000.49 0M 31480316.67 39732672.75 m -101000.25 0 a 101000.25 101000.25 0 1 1 202000.49 0a 101000.25 101000.25 0 1 1 -202000.49 0M 31480316.67 39378341.75 m -101000.25 0 a 101000.25 101000.25 0 1 1 202000.49 0a 101000.25 101000.25 0 1 1 -202000.49 0M 33921655.67 37699995.75 m -101000.25 0 a 101000.25 101000.25 0 1 1 202000.49 0a 101000.25 101000.25 0 1 1 -202000.49 0M 30062993.67 40087003.75 m -101000.25 0 a 101000.25 101000.25 0 1 1 202000.49 0a 101000.25 101000.25 0 1 1 -202000.49 0M 30062993.67 40441334.75 m -101000.25 0 a 101000.25 101000.25 0 1 1 202000.49 0a 101000.25 101000.25 0 1 1 -202000.49 0M 30062993.67 40795664.75 m -101000.25 0 a 101000.25 101000.25 0 1 1 202000.49 0a 101000.25 101000.25 0 1 1 -202000.49 0M 29708662.67 40795664.75 m -101000.25 0 a 101000.25 101000.25 0 1 1 202000.49 0a 101000.25 101000.25 0 1 1 -202000.49 0M 30062993.67 41149995.75 m -101000.25 0 a 101000.25 101000.25 0 1 1 202000.49 0a 101000.25 101000.25 0 1 1 -202000.49 0M 30417324.67 40795664.75 m -101000.25 0 a 101000.25 101000.25 0 1 1 202000.49 0a 101000.25 101000.25 0 1 1 -202000.49 0M 30417324.67 40087003.75 m -101000.25 0 a 101000.25 101000.25 0 1 1 202000.49 0a 101000.25 101000.25 0 1 1 -202000.49 0M 30417324.67 40441334.75 m -101000.25 0 a 101000.25 101000.25 0 1 1 202000.49 0a 101000.25 101000.25 0 1 1 -202000.49 0M 30771655.67 40441334.75 m -101000.25 0 a 101000.25 101000.25 0 1 1 202000.49 0a 101000.25 101000.25 0 1 1 -202000.49 0M 30417324.67 41149995.75 m -101000.25 0 a 101000.25 101000.25 0 1 1 202000.49 0a 101000.25 101000.25 0 1 1 -202000.49 0M 30771655.67 40795664.75 m -101000.25 0 a 101000.25 101000.25 0 1 1 202000.49 0a 101000.25 101000.25 0 1 1 -202000.49 0M 30771655.67 40087003.75 m -101000.25 0 a 101000.25 101000.25 0 1 1 202000.49 0a 101000.25 101000.25 0 1 1 -202000.49 0M 31125985.67 40087003.75 m -101000.25 0 a 101000.25 101000.25 0 1 1 202000.49 0a 101000.25 101000.25 0 1 1 -202000.49 0M 31125985.67 40441334.75 m -101000.25 0 a 101000.25 101000.25 0 1 1 202000.49 0a 101000.25 101000.25 0 1 1 -202000.49 0M 31480316.67 40087003.75 m -101000.25 0 a 101000.25 101000.25 0 1 1 202000.49 0a 101000.25 101000.25 0 1 1 -202000.49 0M 31480316.67 40441334.75 m -101000.25 0 a 101000.25 101000.25 0 1 1 202000.49 0a 101000.25 101000.25 0 1 1 -202000.49 0M 31125985.67 40795664.75 m -101000.25 0 a 101000.25 101000.25 0 1 1 202000.49 0a 101000.25 101000.25 0 1 1 -202000.49 0M 31125985.67 41149995.75 m -101000.25 0 a 101000.25 101000.25 0 1 1 202000.49 0a 101000.25 101000.25 0 1 1 -202000.49 0M 30771655.67 41149995.75 m -101000.25 0 a 101000.25 101000.25 0 1 1 202000.49 0a 101000.25 101000.25 0 1 1 -202000.49 0M 31480316.67 40795664.75 m -101000.25 0 a 101000.25 101000.25 0 1 1 202000.49 0a 101000.25 101000.25 0 1 1 -202000.49 0M 31480316.67 41149995.75 m -101000.25 0 a 101000.25 101000.25 0 1 1 202000.49 0a 101000.25 101000.25 0 1 1 -202000.49 0"/>
</g>
</svg>
