<svg width="50.2652411mm" height="51.27051722mm" viewBox="0 0 19789465 20185243"  version="1.1" xmlns="http://www.w3.org/2000/svg" xmlns:xlink="http://www.w3.org/1999/xlink">
<desc>
Origin 0 0 Bound 15696448 21603391 19789465 20185243
</desc>
<g fill-rule="evenodd" fill="rgb(0, 0, 255)" stroke="black" stroke-width="1" transform="translate(0, 20185243) scale(1, -1) translate(-15696448, -21603391)">
<path id="N" d="M 23350007.86 23600021.10 m -296681.84 0 a 296681.84 296681.84 0 1 1 593363.68 0a 296681.84 296681.84 0 1 1 -593363.68 0M 23350001.68 23599988.93 m -218414.07 0 a 218414.07 218414.07 0 1 1 436828.14 0a 218414.07 218414.07 0 1 1 -436828.14 0"/>
<path id="N" d="M 22799998.47 27099998.47 m -100354.75 0 a 100354.75 100354.75 0 1 1 200709.51 0a 100354.75 100354.75 0 1 1 -200709.51 0"/>
<path id="N" d="M 22555629.00 32223042.00 L 22557543.49 32213416.51 L 25935480.00 28835480.00 L 25946357.00 28819202.00 L 25950176.00 28800000.00 L 25950176.00 27820784.00 L 26370784.00 27400176.00 L 27885345.00 27400984.00 L 27908608.00 27406299.00 L 27924884.07 27414740.24 L 27929040.00 27420960.00 A 100353.26 100353.26 0 1 0 27929040.00 27279040.00 L 27924884.07 27285259.76 L 27908608.00 27293701.00 L 27885345.00 27299016.00 L 26350000.00 27299824.00 L 26330798.00 27303643.00 L 26314520.00 27314520.00 L 25864520.00 27764520.00 L 25853643.00 27780798.00 L 25849824.00 27800000.00 L 25849824.00 28779216.00 L 22486583.49 32142456.51 L 22476958.00 32144371.00 A 60221.14 60221.14 0 1 0 22555629.00 32223042.00  z"/>
<path id="N" d="M 23350007.86 22600021.10 m -296681.84 0 a 296681.84 296681.84 0 1 1 593363.68 0a 296681.84 296681.84 0 1 1 -593363.68 0M 23350001.68 22599988.93 m -218414.07 0 a 218414.07 218414.07 0 1 1 436828.14 0a 218414.07 218414.07 0 1 1 -436828.14 0"/>
<path id="N" d="M 21499998.47 28399998.47 m -100354.75 0 a 100354.75 100354.75 0 1 1 200709.51 0a 100354.75 100354.75 0 1 1 -200709.51 0"/>
<path id="N" d="M 24535480.00 32685480.00 L 25285480.00 31935480.00 L 25296357.00 31919202.00 L 25300176.00 31900000.00 L 25300984.00 30464655.00 L 25306299.00 30441392.00 L 25314740.24 30425115.93 L 25320960.00 30420960.00 A 100353.26 100353.26 0 1 0 25179040.00 30420960.00 L 25185259.76 30425115.93 L 25193701.00 30441392.00 L 25199016.00 30464655.00 L 25199824.00 31879216.00 L 24479216.00 32599824.00 L 22172384.00 32599824.00 L 21958343.49 32385783.49 L 21956429.00 32376158.00 A 60221.14 60221.14 0 1 0 21877758.00 32454829.00 L 21887383.49 32456743.49 L 22116120.00 32685480.00 L 22132398.00 32696357.00 L 22151600.00 32700176.00 L 24500000.00 32700176.00 L 24519202.00 32696357.00 L 24535480.00 32685480.00  z"/>
<path id="N" d="M 21350007.86 22600021.10 m -296681.84 0 a 296681.84 296681.84 0 1 1 593363.68 0a 296681.84 296681.84 0 1 1 -593363.68 0M 21350001.68 22599988.93 m -218414.07 0 a 218414.07 218414.07 0 1 1 436828.14 0a 218414.07 218414.07 0 1 1 -436828.14 0"/>
<path id="N" d="M 25350007.86 22600021.10 m -296681.84 0 a 296681.84 296681.84 0 1 1 593363.68 0a 296681.84 296681.84 0 1 1 -593363.68 0M 25350001.68 22599988.93 m -218414.07 0 a 218414.07 218414.07 0 1 1 436828.14 0a 218414.07 218414.07 0 1 1 -436828.14 0"/>
<path id="N" d="M 22199998.47 28399998.47 m -100354.75 0 a 100354.75 100354.75 0 1 1 200709.51 0a 100354.75 100354.75 0 1 1 -200709.51 0"/>
<path id="N" d="M 16740738.00 41787843.00 L 16755482.00 41782431.00 L 34448864.00 41782431.00 L 34462146.00 41780016.00 L 34564058.00 41777519.00 A 1039212.37 1039212.37 0 0 0 35479445.00 40859851.00 L 35480900.00 40760047.00 L 35482345.00 40754490.00 L 35483219.00 22656775.00 L 35484896.00 22650816.00 L 35485913.00 22539741.00 A 1039307.69 1039307.69 0 0 0 34569127.00 21607933.00 L 34468322.00 21606294.00 L 34457927.00 21603759.00 L 16729697.00 21603391.00 L 16620387.00 21605133.00 A 1039353.80 1039353.80 0 0 0 15696448.00 22537295.00 L 15696986.00 22646078.00 L 15696921.00 40822030.00 A 1036583.79 1036583.79 0 0 0 16663524.00 41788634.00 L 16734478.00 41788634.00 L 16740738.00 41787843.00  zM 21350000.00 22600009.04 m -377233.40 0 a 377233.40 377233.40 0 1 1 754466.80 0a 377233.40 377233.40 0 1 1 -754466.80 0M 21350001.68 23599988.93 m -218414.07 0 a 218414.07 218414.07 0 1 1 436828.14 0a 218414.07 218414.07 0 1 1 -436828.14 0M 22350000.00 22600009.04 m -377233.40 0 a 377233.40 377233.40 0 1 1 754466.80 0a 377233.40 377233.40 0 1 1 -754466.80 0M 22350000.00 23600009.04 m -377233.40 0 a 377233.40 377233.40 0 1 1 754466.80 0a 377233.40 377233.40 0 1 1 -754466.80 0M 23350000.00 22600009.04 m -377233.40 0 a 377233.40 377233.40 0 1 1 754466.80 0a 377233.40 377233.40 0 1 1 -754466.80 0M 24350000.00 22600009.04 m -377233.40 0 a 377233.40 377233.40 0 1 1 754466.80 0a 377233.40 377233.40 0 1 1 -754466.80 0M 24350000.00 23600009.04 m -377233.40 0 a 377233.40 377233.40 0 1 1 754466.80 0a 377233.40 377233.40 0 1 1 -754466.80 0M 25350000.00 22600009.04 m -377233.40 0 a 377233.40 377233.40 0 1 1 754466.80 0a 377233.40 377233.40 0 1 1 -754466.80 0M 23350000.00 23600009.04 m -377233.40 0 a 377233.40 377233.40 0 1 1 754466.80 0a 377233.40 377233.40 0 1 1 -754466.80 0M 21499807.00 26150356.00 L 21488580.46 26123252.80 L 21434460.37 26123252.80 L 21431130.00 26131293.00 A 180636.28 180636.28 0 1 1 21431130.00 25930581.00 L 21442356.54 25957684.20 L 21496476.63 25957684.20 L 21499807.00 25949644.00 A 180636.28 180636.28 0 1 1 21499807.00 26150356.00  zM 25724015.00 23974015.00 L 24975985.00 23974015.00 L 24975985.00 23225985.00 L 25724015.00 23225985.00 L 25724015.00 23974015.00  zM 25700000.00 26050000.57 m -180635.25 0 a 180635.25 180635.25 0 1 1 361270.49 0a 180635.25 180635.25 0 1 1 -361270.49 0M 22099644.00 28550193.00 L 22052993.34 28503542.34 L 22025000.00 28501853.33 L 21997006.66 28503542.34 L 21950356.00 28550193.00 A 180635.25 180635.25 0 0 1 21702993.34 28503542.34 L 21675000.00 28501853.33 L 21647006.66 28503542.34 L 21600356.00 28550193.00 A 180635.25 180635.25 0 1 1 21647006.66 28296457.66 L 21675000.00 28298146.67 L 21702993.34 28296457.66 L 21749644.00 28249807.00 A 180635.25 180635.25 0 0 1 21997006.66 28296457.66 L 22025000.00 28298146.67 L 22052993.34 28296457.66 L 22099644.00 28249807.00 A 180635.25 180635.25 0 1 1 22099644.00 28550193.00  zM 22800000.00 27100000.57 m -180635.25 0 a 180635.25 180635.25 0 1 1 361270.49 0a 180635.25 180635.25 0 1 1 -361270.49 0M 23272835.00 27564760.00 L 23274418.46 27560937.21 L 23239062.79 27525581.54 L 23235240.00 27527165.00 A 180635.25 180635.25 0 1 1 23377165.00 27385240.00 L 23375581.54 27389062.79 L 23410937.21 27424418.46 L 23414760.00 27422835.00 A 180635.25 180635.25 0 1 1 23272835.00 27564760.00  zM 26150000.00 26050000.57 m -180635.25 0 a 180635.25 180635.25 0 1 1 361270.49 0a 180635.25 180635.25 0 1 1 -361270.49 0M 19700800.00 29049198.11 m -140496.39 0 a 140496.39 140496.39 0 1 1 280992.78 0a 140496.39 140496.39 0 1 1 -280992.78 0M 22100000.00 30049998.11 m -140496.39 0 a 140496.39 140496.39 0 1 1 280992.78 0a 140496.39 140496.39 0 1 1 -280992.78 0M 20950000.00 33849998.11 m -140496.39 0 a 140496.39 140496.39 0 1 1 280992.78 0a 140496.39 140496.39 0 1 1 -280992.78 0M 21844489.00 33844487.11 m -140496.39 0 a 140496.39 140496.39 0 1 1 280992.78 0a 140496.39 140496.39 0 1 1 -280992.78 0M 17099990.00 36550049.18 m -436807.79 0 a 436807.79 436807.79 0 1 1 873615.58 0a 436807.79 436807.79 0 1 1 -873615.58 0M 22750000.00 33849998.11 m -140496.39 0 a 140496.39 140496.39 0 1 1 280992.78 0a 140496.39 140496.39 0 1 1 -280992.78 0M 17099990.00 40880749.18 m -436807.79 0 a 436807.79 436807.79 0 1 1 873615.58 0a 436807.79 436807.79 0 1 1 -873615.58 0M 21036986.06 39699612.63 m -356031.37 0 a 356031.37 356031.37 0 1 1 712062.74 0a 356031.37 356031.37 0 1 1 -712062.74 0M 23750000.00 28950000.57 m -180635.25 0 a 180635.25 180635.25 0 1 1 361270.49 0a 180635.25 180635.25 0 1 1 -361270.49 0M 24400000.00 28950000.57 m -180635.25 0 a 180635.25 180635.25 0 1 1 361270.49 0a 180635.25 180635.25 0 1 1 -361270.49 0M 25099644.00 33050193.00 L 25080443.06 33030992.06 L 25065400.60 33021372.55 L 21450000.00 33020425.00 L 21403916.00 33011257.00 L 21364844.99 32985149.99 L 21213881.84 32834187.59 L 21171945.00 32816817.00 A 140492.97 140492.97 0 1 1 21384187.59 32663881.84 L 21499881.18 32779576.00 L 22028771.92 32779531.97 L 22046678.63 32729575.58 L 21840457.57 32523353.69 L 21822745.00 32516017.00 A 140492.97 140492.97 0 1 1 22017617.00 32321145.00 L 22024953.69 32338857.57 L 22205637.85 32519541.00 L 24445962.95 32519541.00 L 25119541.00 31845962.05 L 25119541.00 30476481.40 L 25117980.95 30468529.95 L 25099807.00 30450356.00 A 180635.25 180635.25 0 1 1 25400193.00 30450356.00 L 25381743.29 30469195.40 L 25381192.11 30471607.90 L 25380459.00 31900000.00 L 25370528.00 31949925.00 L 25342248.00 31992249.00 L 24604920.44 32729575.58 L 24622863.99 32779576.00 L 25065398.19 32778628.03 L 25080443.06 32769007.94 L 25099644.00 32749807.00 A 180635.25 180635.25 0 1 1 25099644.00 33050193.00  zM 24100000.00 35950000.57 m -180635.25 0 a 180635.25 180635.25 0 1 1 361270.49 0a 180635.25 180635.25 0 1 1 -361270.49 0M 27789396.00 38780283.00 L 20560216.50 38780282.90 L 20529493.00 38774172.00 L 20455986.00 38743723.00 L 20429940.00 38726320.00 L 20373679.00 38670059.00 L 20356276.00 38644013.00 L 20325828.00 38570505.00 L 20319717.00 38539782.00 L 20319717.00 37350271.00 L 20325828.00 37319548.00 L 20363888.00 37227663.00 L 20381291.00 37201617.00 L 20451617.00 37131291.00 L 20477663.00 37113888.00 L 20569548.00 37075828.00 L 20600271.00 37069717.00 L 25846058.97 37069717.00 L 25879049.42 37066467.47 L 25943415.88 37039805.95 L 25989806.43 36993414.73 L 26016467.47 36929049.42 L 26019717.00 36896058.97 L 26019717.00 28935491.28 L 25969716.57 28914780.42 L 22624153.78 32260342.23 L 22616817.00 32278055.00 A 140492.97 140492.97 0 1 1 22421945.00 32083183.00 L 22439657.77 32075846.22 L 25769541.00 28745962.01 L 25769541.00 27800000.00 L 25779472.00 27750075.00 L 25807752.00 27707752.00 L 26257751.00 27257752.00 L 26300075.00 27229472.00 L 26350000.00 27219541.00 L 27873518.60 27219541.00 L 27881470.05 27217980.95 L 27899644.00 27199807.00 A 180635.25 180635.25 0 1 1 27899644.00 27500193.00 L 27880804.60 27481743.29 L 27878392.10 27481192.11 L 26404037.92 27480459.00 L 26054981.70 27829514.44 L 26058196.39 27845421.61 L 26093936.33 27860159.14 L 26112771.06 27863054.21 L 26134308.00 27848664.00 L 26189440.00 27825828.00 L 26220163.00 27819717.00 L 28029836.00 27819717.00 L 28060559.00 27825828.00 L 28115691.00 27848664.00 L 28141736.00 27866067.00 L 28183931.00 27908261.00 L 28201335.54 27934310.72 L 28224172.00 27989439.00 L 28230283.00 28020162.00 L 28230283.00 28558793.82 L 28280283.25 28568739.43 L 28306276.00 28505986.00 L 28323679.00 28479940.00 L 28379940.00 28423679.00 L 28405986.00 28406276.00 L 28479493.33 28375828.28 L 28469063.67 28327240.00 L 28374260.00 28327240.00 L 28374260.00 27972760.00 L 28925739.41 27972759.19 L 28975740.41 27988627.59 L 29050207.00 27914161.00 L 29049466.34 27849533.57 A 179494.65 179494.65 0 1 1 29350193.00 27850356.00 L 29312731.00 27887919.78 L 29312731.00 27968531.00 L 29302739.00 28018763.00 L 29274285.00 28061347.00 L 29092816.00 28242816.00 L 29050232.00 28271270.00 L 29000000.00 28281262.00 L 28953618.31 28281262.00 L 28933010.55 28315250.55 L 28929377.36 28325733.16 L 28955089.47 28369717.00 L 30489396.00 28369717.00 L 30505058.00 28371259.00 L 30582337.00 28386630.00 L 30597398.00 28391199.00 L 30670194.00 28421352.00 L 30684074.00 28428771.00 L 30749588.00 28472546.00 L 30761754.00 28482530.00 L 30817469.00 28538245.00 L 30827453.00 28550411.00 L 30871228.00 28615925.00 L 30878647.00 28629805.00 L 30908800.00 28702601.00 L 30913368.00 28717661.00 L 30928740.00 28794940.00 L 30930283.00 28810603.00 L 30930282.00 30329544.00 L 30928739.00 30345209.00 L 30917210.00 30403169.00 L 30912642.00 30418228.00 L 30890028.00 30472825.00 L 30882609.00 30486706.00 L 30849778.00 30535841.00 L 30839794.00 30548006.00 L 30798007.00 30589794.00 L 30785841.00 30599778.00 L 30736706.00 30632609.00 L 30722825.00 30640028.00 L 30668228.00 30662642.00 L 30653169.00 30667210.00 L 30611740.00 30675451.00 L 30555733.00 30680077.00 L 30422197.48 30680282.54 L 30390081.00 30688888.00 L 30239769.00 30688888.00 L 30207649.61 30680281.76 L 29970455.00 30680282.00 L 29954790.00 30678739.00 L 29896830.00 30667210.00 L 29881770.00 30662642.00 L 29827173.00 30640028.00 L 29813292.00 30632609.00 L 29764157.00 30599778.00 L 29751992.00 30589794.00 L 29710204.00 30548007.00 L 29700220.00 30535841.00 L 29667389.00 30486706.00 L 29659970.00 30472825.00 L 29637356.00 30418228.00 L 29632788.00 30403169.00 L 29621259.00 30345208.00 L 29619716.00 30329543.00 L 29618418.88 30275553.60 L 29607730.30 30221816.01 A 269326.49 269326.49 0 0 0 29348035.83 30030283.00 L 28510216.50 30030282.90 L 28479493.00 30024172.00 L 28405986.00 29993723.00 L 28379940.00 29976320.00 L 28323679.00 29920059.00 L 28306276.00 29894013.00 L 28280283.25 29831260.92 L 28230283.00 29841206.59 L 28230283.00 30923938.52 L 28280283.42 30944044.58 L 28308262.00 30916066.00 L 28334308.00 30898663.00 L 28389438.33 30875827.28 L 28379007.17 30827240.00 L 28324260.00 30827240.00 L 28324260.00 30472760.00 L 28875740.00 30472760.00 L 28875740.00 30518738.00 L 28995629.53 30518738.00 L 29000207.00 30514160.47 L 28999466.34 30449533.57 A 179494.65 179494.65 0 1 1 29300193.00 30450356.00 L 29262731.00 30487919.78 L 29262731.00 30568531.00 L 29252740.00 30618762.00 L 29224286.00 30661347.00 L 29142816.00 30742816.00 L 29100232.00 30771270.00 L 29050000.00 30781262.00 L 28903618.31 30781262.00 L 28883010.55 30815250.55 L 28879377.36 30825733.16 L 28905089.47 30869717.00 L 30629543.00 30869716.00 L 30645208.00 30871259.00 L 30703168.00 30882788.00 L 30718228.00 30887356.00 L 30772825.00 30909970.00 L 30786706.00 30917389.00 L 30835841.00 30950220.00 L 30848006.00 30960204.00 L 30889794.00 31001991.00 L 30899778.00 31014157.00 L 30932609.00 31063292.00 L 30940028.00 31077173.00 L 30962642.00 31131770.00 L 30967210.00 31146829.00 L 30978739.00 31204790.00 L 30980282.00 31220455.00 L 30980283.00 31734471.00 L 30978740.00 31750134.00 L 30965289.00 31817754.00 L 30960721.00 31832814.00 L 30934337.00 31896510.00 L 30926918.00 31910390.00 L 30888615.00 31967714.00 L 30878630.00 31979880.00 L 30829880.00 32028631.00 L 30817714.00 32038615.00 L 30760390.00 32076918.00 L 30746510.00 32084337.00 L 30682814.00 32110721.00 L 30667754.00 32115289.00 L 30600134.00 32128740.00 L 30584471.00 32130283.00 L 29716528.65 32130283.00 L 29679453.90 32161498.66 L 29672826.00 32207331.00 L 29667542.00 32226562.00 L 29651335.00 32265691.00 L 29633932.00 32291736.00 L 29591737.00 32333932.00 L 29565691.00 32351335.00 L 29510557.00 32374172.00 L 29479836.00 32380282.00 L 28380107.00 32380282.00 L 28349381.69 32374169.46 L 28312630.00 32358946.00 L 28286584.00 32341543.00 L 28280283.43 32335242.43 L 28230283.00 32355953.28 L 28230283.00 33454888.56 L 28253607.34 33468352.70 L 28280283.40 33473335.60 L 28326378.61 33427240.39 L 28314260.00 33377239.42 L 28314260.00 33022760.00 L 28841608.70 33022760.00 L 28918738.00 32945630.23 L 28918653.66 32874422.75 L 28917497.35 32868046.35 L 28899807.00 32850356.00 A 180635.25 180635.25 0 1 1 29200193.00 32850356.00 L 29182502.65 32868046.35 L 29181958.74 32870516.35 L 29181262.00 33000001.00 L 29171270.00 33050233.00 L 29142816.00 33092818.00 L 28976956.00 33258677.00 L 28934372.00 33287131.00 L 28884140.00 33297123.00 L 28865740.00 33297123.00 L 28865740.00 33369717.00 L 29446058.97 33369717.00 L 29479049.42 33366467.47 L 29543415.88 33339805.95 L 29589806.43 33293414.73 L 29616467.47 33229049.42 L 29619717.00 33196058.97 L 29619717.00 32615528.00 L 29621259.00 32599866.00 L 29634710.00 32532246.00 L 29639278.00 32517185.00 L 29665662.00 32453489.00 L 29673081.00 32439609.00 L 29711384.00 32382285.00 L 29721369.00 32370119.00 L 29770119.00 32321368.00 L 29782285.00 32311384.00 L 29839609.00 32273081.00 L 29853489.00 32265662.00 L 29917185.00 32239278.00 L 29932246.00 32234710.00 L 29999866.00 32221260.00 L 30015528.00 32219717.00 L 30539396.00 32219717.00 L 30555058.00 32221259.00 L 30632337.00 32236630.00 L 30647398.00 32241199.00 L 30720194.00 32271352.00 L 30734074.00 32278771.00 L 30799588.00 32322546.00 L 30811754.00 32332530.00 L 30867469.00 32388245.00 L 30877453.00 32400411.00 L 30921228.00 32465925.00 L 30928647.00 32479805.00 L 30958800.00 32552601.00 L 30963368.00 32567661.00 L 30978740.00 32644940.00 L 30980283.00 32660603.00 L 30980283.00 34504170.00 L 30978740.00 34519833.00 L 30957603.00 34626092.00 L 30953035.00 34641152.00 L 30911575.00 34741245.00 L 30904156.00 34755125.00 L 30843965.00 34845207.00 L 30833981.00 34857373.00 L 30757373.00 34933981.00 L 30745207.00 34943965.00 L 30655125.00 35004156.00 L 30641245.00 35011575.00 L 30541152.00 35053035.00 L 30526092.00 35057603.00 L 30419833.00 35078740.00 L 30404170.00 35080283.00 L 28500270.50 35080282.90 L 28469547.00 35074172.00 L 28377662.00 35036111.00 L 28351617.00 35018708.00 L 28280283.35 34946873.91 L 28230283.00 34962041.07 L 28230283.00 38339396.00 L 28228740.00 38355059.00 L 28213368.00 38432338.00 L 28208800.00 38447398.00 L 28178647.00 38520194.00 L 28171228.00 38534074.00 L 28127453.00 38599588.00 L 28117469.00 38611754.00 L 28061754.00 38667469.00 L 28049588.00 38677453.00 L 27984074.00 38721228.00 L 27970194.00 38728647.00 L 27897398.00 38758800.00 L 27882338.00 38763368.00 L 27805059.00 38778740.00 L 27797152.15 38778740.25 L 27789396.00 38780283.00  zM 24600000.00 35950000.57 m -180635.25 0 a 180635.25 180635.25 0 1 1 361270.49 0a 180635.25 180635.25 0 1 1 -361270.49 0M 34251925.00 28936932.04 m -377233.40 0 a 377233.40 377233.40 0 1 1 754466.80 0a 377233.40 377233.40 0 1 1 -754466.80 0M 34251925.00 34055132.04 m -377233.40 0 a 377233.40 377233.40 0 1 1 754466.80 0a 377233.40 377233.40 0 1 1 -754466.80 0"/>
<path id="N" d="M 28150000.00 38339396.00 L 28150000.00 28020163.00 A 152942.10 152942.10 0 0 0 28029836.00 27900000.00 L 26220163.00 27900000.00 A 152935.66 152935.66 0 0 0 26100000.00 28020163.00 L 26100000.00 36900000.00 L 26095196.00 36948772.00 A 250000.79 250000.79 0 0 1 25850000.00 37150000.00 L 20600271.00 37150000.00 A 254896.71 254896.71 0 0 0 20400000.00 37350271.00 L 20400000.00 38539782.00 A 203917.73 203917.73 0 0 0 20560217.00 38700000.00 L 27789396.00 38700000.00 A 401935.81 401935.81 0 0 0 28150000.00 38339396.00  zM 21036986.06 37731112.63 m -356031.37 0 a 356031.37 356031.37 0 1 1 712062.74 0a 356031.37 356031.37 0 1 1 -712062.74 0"/>
<path id="N" d="M 22350007.86 22600021.10 m -296681.84 0 a 296681.84 296681.84 0 1 1 593363.68 0a 296681.84 296681.84 0 1 1 -593363.68 0M 22350001.68 22599988.93 m -218414.07 0 a 218414.07 218414.07 0 1 1 436828.14 0a 218414.07 218414.07 0 1 1 -436828.14 0"/>
<path id="N" d="M 22350007.86 23600021.10 m -296681.84 0 a 296681.84 296681.84 0 1 1 593363.68 0a 296681.84 296681.84 0 1 1 -593363.68 0M 22350001.68 23599988.93 m -218414.07 0 a 218414.07 218414.07 0 1 1 436828.14 0a 218414.07 218414.07 0 1 1 -436828.14 0"/>
<path id="N" d="M 24599998.47 35949998.47 m -100354.75 0 a 100354.75 100354.75 0 1 1 200709.51 0a 100354.75 100354.75 0 1 1 -200709.51 0"/>
<path id="N" d="M 21649998.47 26049998.47 m -100354.75 0 a 100354.75 100354.75 0 1 1 200709.51 0a 100354.75 100354.75 0 1 1 -200709.51 0"/>
<path id="N" d="M 23749998.47 28949998.47 m -100354.75 0 a 100354.75 100354.75 0 1 1 200709.51 0a 100354.75 100354.75 0 1 1 -200709.51 0"/>
<path id="N" d="M 25699998.47 26049998.47 m -100354.75 0 a 100354.75 100354.75 0 1 1 200709.51 0a 100354.75 100354.75 0 1 1 -200709.51 0"/>
<path id="N" d="M 25129040.00 32829040.00 L 25123711.00 32836713.00 L 25117290.00 32841732.00 L 25095496.00 32853248.00 L 25069906.00 32859449.00 L 21466627.00 32859859.00 L 21324234.27 32717466.27 L 21309905.71 32701539.91 A 58536.16 58536.16 0 1 0 21252583.00 32760042.00 L 21421616.00 32928384.00 L 21434639.00 32937085.00 L 21450000.00 32940141.00 L 25065568.14 32940141.00 L 25078858.00 32942027.00 L 25103182.00 32950000.00 L 25124249.72 32963790.88 L 25129040.00 32970960.00 A 100353.26 100353.26 0 1 0 25129040.00 32829040.00  z"/>
<path id="N" d="M 24350007.86 22600021.10 m -296681.84 0 a 296681.84 296681.84 0 1 1 593363.68 0a 296681.84 296681.84 0 1 1 -593363.68 0M 24350001.68 22599988.93 m -218414.07 0 a 218414.07 218414.07 0 1 1 436828.14 0a 218414.07 218414.07 0 1 1 -436828.14 0"/>
<path id="N" d="M 21849998.47 28399998.47 m -100354.75 0 a 100354.75 100354.75 0 1 1 200709.51 0a 100354.75 100354.75 0 1 1 -200709.51 0"/>
<path id="N" d="M 28797000.00 30737776.93 L 28799800.00 30730272.00 L 28804800.00 30723177.00 L 28811800.00 30717028.00 L 28831800.00 30707568.00 L 28859800.00 30701892.00 L 29050000.00 30700980.00 L 29069509.00 30697099.00 L 29086048.00 30686048.00 L 29167518.00 30604579.00 L 29178568.00 30588040.00 L 29182449.00 30568531.00 L 29183536.00 30472857.00 L 29189736.00 30450570.00 L 29200069.00 30435451.00 L 29220960.00 30420960.00 A 100353.26 100353.26 0 1 0 29057286.00 30388403.00 L 29069233.24 30406283.22 L 29075409.00 30420185.00 L 29080356.00 30449641.00 L 29080489.00 30547414.18 L 29028883.82 30599020.00 L 28870726.00 30599020.00 L 28844800.00 30595743.00 L 28820800.00 30588175.00 L 28804800.00 30576823.00 L 28799800.00 30569728.00 L 28797000.00 30562223.07 L 28797000.00 30551500.00 L 28403000.00 30551500.00 L 28403000.00 30748500.00 L 28797000.00 30748500.00 L 28797000.00 30737776.93  z"/>
<path id="N" d="M 28847000.00 28237776.93 L 28849800.00 28230272.00 L 28854800.00 28223177.00 L 28861800.00 28217028.00 L 28881800.00 28207568.00 L 28909800.00 28201892.00 L 29000000.00 28200980.00 L 29019509.00 28197099.00 L 29036048.00 28186048.00 L 29217517.00 28004579.00 L 29228568.00 27988040.00 L 29232449.00 27968531.00 L 29233536.00 27872857.00 L 29239736.00 27850570.00 L 29250069.00 27835451.00 L 29270960.00 27820960.00 A 100353.26 100353.26 0 1 0 29107286.00 27788403.00 L 29119233.24 27806283.22 L 29125409.00 27820185.00 L 29130356.00 27849641.00 L 29130489.00 27947415.00 L 28978884.00 28099020.00 L 28920726.00 28099020.00 L 28894800.00 28095743.00 L 28870800.00 28088175.00 L 28854800.00 28076823.00 L 28849800.00 28069728.00 L 28847000.00 28062223.07 L 28847000.00 28051500.00 L 28453000.00 28051500.00 L 28453000.00 28248500.00 L 28847000.00 28248500.00 L 28847000.00 28237776.93  z"/>
<path id="N" d="M 24399998.47 28949998.47 m -100354.75 0 a 100354.75 100354.75 0 1 1 200709.51 0a 100354.75 100354.75 0 1 1 -200709.51 0"/>
<path id="N" d="M 26149998.47 26049998.47 m -100354.75 0 a 100354.75 100354.75 0 1 1 200709.51 0a 100354.75 100354.75 0 1 1 -200709.51 0"/>
<path id="N" d="M 30392148.00 30605592.00 L 30415442.67 30599999.51 L 30550017.94 30599998.00 L 30596077.23 30596710.86 L 30637506.00 30588470.00 A 301429.95 301429.95 0 0 0 30849999.00 30329547.00 L 30850000.00 28810603.00 A 401945.44 401945.44 0 0 0 30489396.00 28450000.00 L 28510217.00 28450000.00 A 203917.73 203917.73 0 0 0 28350001.00 28610216.00 L 28350000.00 29789782.00 A 203917.73 203917.73 0 0 0 28510217.00 29950000.00 L 29350000.00 29950000.00 L 29384305.00 29951685.00 A 349975.01 349975.01 0 0 1 29698314.00 30265694.00 L 29699999.00 30329546.00 A 301474.38 301474.38 0 0 0 29970452.00 30599999.00 L 30214404.29 30599998.78 L 30237702.00 30605592.00 L 30314925.00 30611670.00 L 30392148.00 30605592.00  zM 30314961.83 30118037.35 m -336254.65 0 a 336254.65 336254.65 0 1 1 672509.30 0a 336254.65 336254.65 0 1 1 -672509.30 0"/>
<path id="N" d="M 22749993.22 33849993.22 m -60221.14 0 a 60221.14 60221.14 0 1 1 120442.28 0a 60221.14 60221.14 0 1 1 -120442.28 0"/>
<path id="N" d="M 25645275.00 23304725.00 L 25054725.00 23304725.00 L 25054725.00 23895275.00 L 25645275.00 23895275.00 L 25645275.00 23304725.00  zM 25350001.68 23599988.93 m -218414.07 0 a 218414.07 218414.07 0 1 1 436828.14 0a 218414.07 218414.07 0 1 1 -436828.14 0"/>
<path id="N" d="M 23449998.47 27599998.47 m -100354.75 0 a 100354.75 100354.75 0 1 1 200709.51 0a 100354.75 100354.75 0 1 1 -200709.51 0"/>
<path id="N" d="M 28787000.00 33251390.46 L 28793709.00 33239548.00 L 28800699.00 33233263.00 L 28820607.00 33223595.00 L 28848421.00 33217795.00 L 28884140.00 33216841.00 L 28903649.00 33212960.00 L 28920188.00 33201909.00 L 29086048.00 33036050.00 L 29097099.00 33019510.00 L 29100980.00 33000001.00 L 29101701.00 32864106.00 L 29106803.00 32840948.00 L 29114848.95 32825043.29 L 29120960.00 32820960.00 A 100353.26 100353.26 0 1 0 28979040.00 32820960.00 L 28985151.05 32825043.29 L 28993197.00 32840948.00 L 28998299.00 32864106.00 L 28999020.00 32978884.09 L 28863023.91 33114881.00 L 28801534.00 33111123.00 L 28787000.00 33105365.50 L 28787000.00 33101500.00 L 28393000.00 33101500.00 L 28393000.00 33298500.00 L 28787000.00 33298500.00 L 28787000.00 33251390.46  z"/>
<path id="N" d="M 17099989.61 40880751.63 m -356042.81 0 a 356042.81 356042.81 0 1 1 712085.61 0a 356042.81 356042.81 0 1 1 -712085.61 0M 17099999.97 40880700.30 m -218408.70 0 a 218408.70 218408.70 0 1 1 436817.39 0a 218408.70 218408.70 0 1 1 -436817.39 0"/>
<path id="N" d="M 17099989.61 36550051.63 m -356042.81 0 a 356042.81 356042.81 0 1 1 712085.61 0a 356042.81 356042.81 0 1 1 -712085.61 0M 17099999.97 36550000.30 m -218408.70 0 a 218408.70 218408.70 0 1 1 436817.39 0a 218408.70 218408.70 0 1 1 -436817.39 0"/>
<path id="N" d="M 34251932.86 28936944.10 m -296681.84 0 a 296681.84 296681.84 0 1 1 593363.68 0a 296681.84 296681.84 0 1 1 -593363.68 0M 34251962.32 28936934.24 m -198537.76 0 a 198537.76 198537.76 0 1 1 397075.52 0a 198537.76 198537.76 0 1 1 -397075.52 0"/>
<path id="N" d="M 34251932.86 34055144.10 m -296681.84 0 a 296681.84 296681.84 0 1 1 593363.68 0a 296681.84 296681.84 0 1 1 -593363.68 0M 34251962.32 34055134.24 m -198537.76 0 a 198537.76 198537.76 0 1 1 397075.52 0a 198537.76 198537.76 0 1 1 -397075.52 0"/>
<path id="N" d="M 24099998.47 35949998.47 m -100354.75 0 a 100354.75 100354.75 0 1 1 200709.51 0a 100354.75 100354.75 0 1 1 -200709.51 0"/>
<path id="N" d="M 21280935.47 26030935.47 m -100354.75 0 a 100354.75 100354.75 0 1 1 200709.51 0a 100354.75 100354.75 0 1 1 -200709.51 0"/>
<path id="N" d="M 24350007.86 23600021.10 m -296681.84 0 a 296681.84 296681.84 0 1 1 593363.68 0a 296681.84 296681.84 0 1 1 -593363.68 0M 24350001.68 23599988.93 m -218414.07 0 a 218414.07 218414.07 0 1 1 436828.14 0a 218414.07 218414.07 0 1 1 -436828.14 0"/>
<path id="N" d="M 23199998.47 27349998.47 m -100354.75 0 a 100354.75 100354.75 0 1 1 200709.51 0a 100354.75 100354.75 0 1 1 -200709.51 0"/>
<path id="N" d="M 30900000.00 34504170.00 L 30900000.00 32660603.00 A 401945.44 401945.44 0 0 0 30539396.00 32300000.00 L 30015528.00 32300000.00 A 351678.08 351678.08 0 0 0 29700000.00 32615528.00 L 29700000.00 33200000.00 L 29695196.00 33248772.00 A 250000.79 250000.79 0 0 1 29450000.00 33450000.00 L 28460217.00 33450000.00 A 203917.73 203917.73 0 0 0 28300000.00 33610217.00 L 28300000.00 34799728.00 A 254896.71 254896.71 0 0 0 28500271.00 35000000.00 L 30404170.00 35000000.00 A 552660.31 552660.31 0 0 0 30900000.00 34504170.00  zM 30314961.83 32873937.35 m -336254.65 0 a 336254.65 336254.65 0 1 1 672509.30 0a 336254.65 336254.65 0 1 1 -672509.30 0"/>
<path id="N" d="M 20949993.22 33849993.22 m -60221.14 0 a 60221.14 60221.14 0 1 1 120442.28 0a 60221.14 60221.14 0 1 1 -120442.28 0"/>
<path id="N" d="M 29479836.00 32299999.00 L 29534968.00 32277163.00 L 29577163.00 32234968.00 L 29593370.13 32195839.79 L 29601920.03 32130489.76 A 100007.64 100007.64 0 0 1 29700000.00 32050000.00 L 30584471.00 32050000.00 A 351703.98 351703.98 0 0 0 30900000.00 31734471.00 L 30899999.00 31220452.00 A 301474.38 301474.38 0 0 0 30629546.00 30949999.00 L 28420162.00 30949999.00 A 152938.75 152938.75 0 0 0 28299999.00 31070162.00 L 28299999.00 32219890.00 A 101957.96 101957.96 0 0 0 28380107.00 32299999.00 L 29479836.00 32299999.00  zM 30314961.83 31496037.35 m -336254.65 0 a 336254.65 336254.65 0 1 1 672509.30 0a 336254.65 336254.65 0 1 1 -672509.30 0"/>
<path id="N" d="M 21844482.22 33844482.22 m -60221.14 0 a 60221.14 60221.14 0 1 1 120442.28 0a 60221.14 60221.14 0 1 1 -120442.28 0"/>
<path id="N" d="M 19700793.22 29049193.22 m -60221.14 0 a 60221.14 60221.14 0 1 1 120442.28 0a 60221.14 60221.14 0 1 1 -120442.28 0"/>
<path id="N" d="M 22099993.22 30049993.22 m -60221.14 0 a 60221.14 60221.14 0 1 1 120442.28 0a 60221.14 60221.14 0 1 1 -120442.28 0"/>
</g>
</svg>
