<svg width="50.2652411mm" height="51.27051722mm" viewBox="0 0 19789465 20185243"  version="1.1" xmlns="http://www.w3.org/2000/svg" xmlns:xlink="http://www.w3.org/1999/xlink">
<desc>
Origin 0 0 Bound 15696448 21603391 19789465 20185243
</desc>
<g fill-rule="evenodd" fill="rgb(188, 142, 0)" stroke="black" stroke-width="1" transform="translate(0, 20185243) scale(1, -1) translate(-15696448, -21603391)">
<path id="N" d="M 22900353.00 27100000.00 L 22898695.00 27090806.00 L 22899686.00 27082717.00 L 22906954.00 27059163.00 L 22920664.00 27036683.00 L 23378384.00 26578384.00 L 23387085.00 26565362.00 L 23390141.00 26550000.00 L 23391043.00 24050128.00 L 23396063.00 24029071.00 L 23404429.00 24006631.00 L 23416142.00 23982810.00 L 23431201.00 23957607.00 L 23471358.00 23903057.00 L 23524902.00 23842980.00 L 23548863.62 23818777.19 L 23559801.00 23809801.00 A 296710.51 296710.51 0 1 0 23140199.00 23809801.00 L 23151136.38 23818777.19 L 23175098.00 23842980.00 L 23228642.00 23903057.00 L 23268799.00 23957607.00 L 23283858.00 23982810.00 L 23295571.00 24006631.00 L 23303937.00 24029071.00 L 23308957.00 24050128.00 L 23309859.00 26533373.00 L 22866671.69 26976560.31 L 22855943.00 26984621.00 L 22833105.00 26996184.00 L 22808458.92 27001329.62 L 22800000.00 26999647.00 A 100353.26 100353.26 0 1 0 22900353.00 27100000.00  zM 23350001.68 23599988.93 m -218414.07 0 a 218414.07 218414.07 0 1 1 436828.14 0a 218414.07 218414.07 0 1 1 -436828.14 0"/>
<path id="N" d="M 25249998.47 30349998.47 m -100354.75 0 a 100354.75 100354.75 0 1 1 200709.51 0a 100354.75 100354.75 0 1 1 -200709.51 0"/>
<path id="N" d="M 21900793.22 32399193.22 m -60221.14 0 a 60221.14 60221.14 0 1 1 120442.28 0a 60221.14 60221.14 0 1 1 -120442.28 0"/>
<path id="N" d="M 23350007.86 22600021.10 m -296681.84 0 a 296681.84 296681.84 0 1 1 593363.68 0a 296681.84 296681.84 0 1 1 -593363.68 0M 23350001.68 22599988.93 m -218414.07 0 a 218414.07 218414.07 0 1 1 436828.14 0a 218414.07 218414.07 0 1 1 -436828.14 0"/>
<path id="N" d="M 21499998.47 28399998.47 m -100354.75 0 a 100354.75 100354.75 0 1 1 200709.51 0a 100354.75 100354.75 0 1 1 -200709.51 0"/>
<path id="N" d="M 22499993.22 32199993.22 m -60221.14 0 a 60221.14 60221.14 0 1 1 120442.28 0a 60221.14 60221.14 0 1 1 -120442.28 0"/>
<path id="N" d="M 27999998.47 27349998.47 m -100354.75 0 a 100354.75 100354.75 0 1 1 200709.51 0a 100354.75 100354.75 0 1 1 -200709.51 0"/>
<path id="N" d="M 21350007.86 22600021.10 m -296681.84 0 a 296681.84 296681.84 0 1 1 593363.68 0a 296681.84 296681.84 0 1 1 -593363.68 0M 21350001.68 22599988.93 m -218414.07 0 a 218414.07 218414.07 0 1 1 436828.14 0a 218414.07 218414.07 0 1 1 -436828.14 0"/>
<path id="N" d="M 25350007.86 22600021.10 m -296681.84 0 a 296681.84 296681.84 0 1 1 593363.68 0a 296681.84 296681.84 0 1 1 -593363.68 0M 25350001.68 22599988.93 m -218414.07 0 a 218414.07 218414.07 0 1 1 436828.14 0a 218414.07 218414.07 0 1 1 -436828.14 0"/>
<path id="N" d="M 22199998.47 28399998.47 m -100354.75 0 a 100354.75 100354.75 0 1 1 200709.51 0a 100354.75 100354.75 0 1 1 -200709.51 0"/>
<path id="N" d="M 16740738.00 41787843.00 L 16755482.00 41782431.00 L 34448864.00 41782431.00 L 34462146.00 41780016.00 L 34564058.00 41777519.00 A 1039212.37 1039212.37 0 0 0 35479445.00 40859851.00 L 35480900.00 40760047.00 L 35482345.00 40754490.00 L 35483219.00 22656775.00 L 35484896.00 22650816.00 L 35485913.00 22539741.00 A 1039307.69 1039307.69 0 0 0 34569127.00 21607933.00 L 34468322.00 21606294.00 L 34457927.00 21603759.00 L 16729697.00 21603391.00 L 16620387.00 21605133.00 A 1039353.80 1039353.80 0 0 0 15696448.00 22537295.00 L 15696986.00 22646078.00 L 15696921.00 40822030.00 A 1036583.79 1036583.79 0 0 0 16663524.00 41788634.00 L 16734478.00 41788634.00 L 16740738.00 41787843.00  zM 21350000.00 22600009.04 m -377233.40 0 a 377233.40 377233.40 0 1 1 754466.80 0a 377233.40 377233.40 0 1 1 -754466.80 0M 21350001.68 23599988.93 m -218414.07 0 a 218414.07 218414.07 0 1 1 436828.14 0a 218414.07 218414.07 0 1 1 -436828.14 0M 22350000.00 22600009.04 m -377233.40 0 a 377233.40 377233.40 0 1 1 754466.80 0a 377233.40 377233.40 0 1 1 -754466.80 0M 22350000.00 23600009.04 m -377233.40 0 a 377233.40 377233.40 0 1 1 754466.80 0a 377233.40 377233.40 0 1 1 -754466.80 0M 23350000.00 22600009.04 m -377233.40 0 a 377233.40 377233.40 0 1 1 754466.80 0a 377233.40 377233.40 0 1 1 -754466.80 0M 22764760.00 26922835.00 L 22791914.55 26922835.00 L 22809355.67 26918998.34 L 23229576.00 26500118.94 L 23229576.00 24064139.44 L 23221753.36 24038450.94 L 23201262.62 24001098.30 L 23166918.56 23954465.23 L 23116566.38 23897969.48 L 23086255.00 23867353.00 L 23082040.08 23860976.08 L 23050714.00 23829650.00 A 377248.67 377248.67 0 1 1 23649286.00 23829650.00 L 23617959.92 23860976.08 L 23613745.00 23867353.00 L 23583433.62 23897969.48 L 23533081.44 23954465.23 L 23498743.16 24001088.63 L 23478246.64 24038450.94 L 23470528.66 24062908.50 L 23470424.00 26550000.00 L 23461257.00 26596085.00 L 23435149.99 26635155.01 L 22981001.66 27090644.33 L 22977165.00 27108085.45 L 22977165.00 27135240.00 A 180636.28 180636.28 0 1 1 22764760.00 26922835.00  zM 22099644.00 28550193.00 L 22052993.34 28503542.34 L 22025000.00 28501853.33 L 21997006.66 28503542.34 L 21950356.00 28550193.00 A 180635.25 180635.25 0 0 1 21702993.34 28503542.34 L 21675000.00 28501853.33 L 21647006.66 28503542.34 L 21600356.00 28550193.00 A 180635.25 180635.25 0 1 1 21647006.66 28296457.66 L 21675000.00 28298146.67 L 21702993.34 28296457.66 L 21749644.00 28249807.00 A 180635.25 180635.25 0 0 1 21997006.66 28296457.66 L 22025000.00 28298146.67 L 22052993.34 28296457.66 L 22099644.00 28249807.00 A 180635.25 180635.25 0 1 1 22099644.00 28550193.00  zM 19700800.00 29049198.11 m -140496.39 0 a 140496.39 140496.39 0 1 1 280992.78 0a 140496.39 140496.39 0 1 1 -280992.78 0M 22100000.00 30049998.11 m -140496.39 0 a 140496.39 140496.39 0 1 1 280992.78 0a 140496.39 140496.39 0 1 1 -280992.78 0M 24350000.00 22600009.04 m -377233.40 0 a 377233.40 377233.40 0 1 1 754466.80 0a 377233.40 377233.40 0 1 1 -754466.80 0M 25350000.00 22600009.04 m -377233.40 0 a 377233.40 377233.40 0 1 1 754466.80 0a 377233.40 377233.40 0 1 1 -754466.80 0M 23272835.00 27564760.00 L 23274418.46 27560937.21 L 23239062.79 27525581.54 L 23235240.00 27527165.00 A 180635.25 180635.25 0 1 1 23164760.00 27172835.00 L 23191914.55 27172835.00 L 23209355.67 27168998.34 L 24229576.00 26150118.97 L 24229576.00 24064139.44 L 24221753.36 24038450.94 L 24201262.62 24001098.30 L 24166918.56 23954465.23 L 24116566.38 23897969.48 L 24086255.00 23867353.00 L 24082040.08 23860976.08 L 24050714.00 23829650.00 A 377248.67 377248.67 0 1 1 24649286.00 23829650.00 L 24617959.92 23860976.08 L 24613745.00 23867353.00 L 24583433.62 23897969.48 L 24533081.44 23954465.23 L 24498743.16 24001088.63 L 24478246.64 24038450.94 L 24470528.66 24062908.50 L 24470425.00 26200000.00 L 24461257.00 26246084.00 L 24435149.99 26285155.01 L 23381001.66 27340644.33 L 23377165.00 27358085.45 L 23377165.00 27385240.00 L 23375581.54 27389062.79 L 23410937.21 27424418.46 L 23414760.00 27422835.00 L 23441914.55 27422835.00 L 23459355.67 27418998.34 L 25229576.00 25650118.98 L 25229576.00 23974015.00 L 24975985.00 23974015.00 L 24975985.00 23225985.00 L 25724015.00 23225985.00 L 25724015.00 23974015.00 L 25470424.00 23974015.00 L 25470425.00 25700000.00 L 25461257.00 25746084.00 L 25435149.99 25785155.01 L 23631001.66 27590644.33 L 23627165.00 27608085.45 L 23627165.00 27635240.00 A 180636.28 180636.28 0 0 1 23272835.00 27564760.00  zM 24222835.00 28985240.00 L 24222835.00 28963888.47 L 24221209.84 28954516.08 L 24216535.15 28943451.09 L 24074999.07 28801408.00 L 23934828.24 28941579.39 L 23931863.26 28946007.73 L 23927165.00 28963887.47 L 23927165.00 28985240.00 A 180636.28 180636.28 0 1 1 23714760.00 28772835.00 L 23748614.07 28772835.00 L 23764521.30 28770083.86 L 23885678.00 28650118.86 L 23885677.00 28449031.00 L 23894845.00 28402947.00 L 23920949.00 28363878.00 L 25735678.00 26549149.00 L 25735678.00 26255983.23 L 25709355.67 26231001.66 L 25691914.55 26227165.00 L 25664760.00 26227165.00 A 180636.28 180636.28 0 1 1 25877165.00 26014760.00 L 25877165.00 26041914.55 L 25881001.66 26059355.67 L 25924999.55 26104694.45 L 25968998.34 26059355.67 L 25972835.00 26041914.55 L 25972835.00 26014760.00 A 180636.28 180636.28 0 1 1 26185240.00 26227165.00 L 26158085.45 26227165.00 L 26140644.33 26231001.66 L 26114321.00 26255985.00 L 26114321.00 26656107.00 L 26105154.00 26702191.00 L 26079050.00 26741260.00 L 24264321.00 28555989.00 L 24264321.00 28650118.14 L 24385474.64 28770082.03 L 24401385.17 28772835.00 L 24435240.00 28772835.00 A 180636.28 180636.28 0 1 1 24222835.00 28985240.00  zM 25250000.00 30350000.57 m -180635.25 0 a 180635.25 180635.25 0 1 1 361270.49 0a 180635.25 180635.25 0 1 1 -361270.49 0M 28000000.00 27350000.57 m -180635.25 0 a 180635.25 180635.25 0 1 1 361270.49 0a 180635.25 180635.25 0 1 1 -361270.49 0M 29200000.00 27750000.57 m -180635.25 0 a 180635.25 180635.25 0 1 1 361270.49 0a 180635.25 180635.25 0 1 1 -361270.49 0M 30314925.00 30118014.56 m -575799.36 0 a 575799.36 575799.36 0 1 1 1151598.73 0a 575799.36 575799.36 0 1 1 -1151598.73 0M 34251925.00 28936932.04 m -377233.40 0 a 377233.40 377233.40 0 1 1 754466.80 0a 377233.40 377233.40 0 1 1 -754466.80 0M 24422835.00 35985240.00 L 24422835.00 35958085.45 L 24418998.34 35940644.33 L 24350000.04 35870305.96 L 24281001.66 35940644.33 L 24277165.00 35958085.45 L 24277165.00 35985240.00 A 180636.28 180636.28 0 1 1 24064760.00 35772835.00 L 24091914.55 35772835.00 L 24109355.67 35768998.34 L 24160678.00 35719016.00 L 24160678.00 35525855.00 L 23655247.00 35020424.00 L 20505129.00 35020425.00 L 20459045.00 35011257.00 L 20419973.99 34985149.99 L 18827052.00 33392229.00 L 18800948.00 33353160.00 L 18791781.00 33307070.97 L 18791780.00 28992924.00 L 18800948.00 28946840.00 L 18827052.00 28907771.00 L 21276146.00 26458677.99 L 21275550.20 26210327.26 L 21267263.00 26209085.00 L 21245697.00 26208102.00 A 180636.28 180636.28 0 1 1 21431130.00 25930581.00 L 21442356.54 25957684.20 L 21496476.63 25957684.20 L 21499807.00 25949644.00 A 180636.28 180636.28 0 1 1 21685240.00 26227165.00 L 21654789.00 26227165.00 L 21654790.00 26565635.00 L 21645622.00 26611719.00 L 21619514.99 26650790.01 L 19170424.00 29099881.99 L 19170424.00 33200118.02 L 20612086.02 34641781.00 L 23762205.00 34641780.00 L 23808289.00 34650948.00 L 23847358.00 34677052.00 L 24504050.00 35333744.00 L 24530154.00 35372813.00 L 24539321.00 35418902.03 L 24539321.00 35719015.19 L 24590644.33 35768998.34 L 24608085.45 35772835.00 L 24635240.00 35772835.00 A 180636.28 180636.28 0 1 1 24422835.00 35985240.00  zM 21900800.00 32399198.11 m -140496.39 0 a 140496.39 140496.39 0 1 1 280992.78 0a 140496.39 140496.39 0 1 1 -280992.78 0M 21250000.00 32699998.11 m -140496.39 0 a 140496.39 140496.39 0 1 1 280992.78 0a 140496.39 140496.39 0 1 1 -280992.78 0M 20950000.00 33849998.11 m -140496.39 0 a 140496.39 140496.39 0 1 1 280992.78 0a 140496.39 140496.39 0 1 1 -280992.78 0M 21844489.00 33844487.11 m -140496.39 0 a 140496.39 140496.39 0 1 1 280992.78 0a 140496.39 140496.39 0 1 1 -280992.78 0M 17099990.00 36550049.18 m -436807.79 0 a 436807.79 436807.79 0 1 1 873615.58 0a 436807.79 436807.79 0 1 1 -873615.58 0M 21036989.00 37731141.56 m -575799.36 0 a 575799.36 575799.36 0 1 1 1151598.73 0a 575799.36 575799.36 0 1 1 -1151598.73 0M 17099990.00 40880749.18 m -436807.79 0 a 436807.79 436807.79 0 1 1 873615.58 0a 436807.79 436807.79 0 1 1 -873615.58 0M 21036986.06 39699612.63 m -356031.37 0 a 356031.37 356031.37 0 1 1 712062.74 0a 356031.37 356031.37 0 1 1 -712062.74 0M 22500000.00 32199998.11 m -140496.39 0 a 140496.39 140496.39 0 1 1 280992.78 0a 140496.39 140496.39 0 1 1 -280992.78 0M 22750000.00 33849998.11 m -140496.39 0 a 140496.39 140496.39 0 1 1 280992.78 0a 140496.39 140496.39 0 1 1 -280992.78 0M 25200000.00 32900000.57 m -180635.25 0 a 180635.25 180635.25 0 1 1 361270.49 0a 180635.25 180635.25 0 1 1 -361270.49 0M 29050000.00 32750000.57 m -180635.25 0 a 180635.25 180635.25 0 1 1 361270.49 0a 180635.25 180635.25 0 1 1 -361270.49 0M 29150000.00 30350000.57 m -180635.25 0 a 180635.25 180635.25 0 1 1 361270.49 0a 180635.25 180635.25 0 1 1 -361270.49 0M 30314925.00 31496014.56 m -575799.36 0 a 575799.36 575799.36 0 1 1 1151598.73 0a 575799.36 575799.36 0 1 1 -1151598.73 0M 30314925.00 32873914.56 m -575799.36 0 a 575799.36 575799.36 0 1 1 1151598.73 0a 575799.36 575799.36 0 1 1 -1151598.73 0M 34251925.00 34055132.04 m -377233.40 0 a 377233.40 377233.40 0 1 1 754466.80 0a 377233.40 377233.40 0 1 1 -754466.80 0"/>
<path id="N" d="M 21036986.48 37731135.07 m -493661.69 0 a 493661.69 493661.69 0 1 1 987323.38 0a 493661.69 493661.69 0 1 1 -987323.38 0M 21036986.06 37731112.63 m -356031.37 0 a 356031.37 356031.37 0 1 1 712062.74 0a 356031.37 356031.37 0 1 1 -712062.74 0"/>
<path id="N" d="M 22350007.86 23600021.10 m -296681.84 0 a 296681.84 296681.84 0 1 1 593363.68 0a 296681.84 296681.84 0 1 1 -593363.68 0M 22350001.68 23599988.93 m -218414.07 0 a 218414.07 218414.07 0 1 1 436828.14 0a 218414.07 218414.07 0 1 1 -436828.14 0"/>
<path id="N" d="M 22350007.86 22600021.10 m -296681.84 0 a 296681.84 296681.84 0 1 1 593363.68 0a 296681.84 296681.84 0 1 1 -593363.68 0M 22350001.68 22599988.93 m -218414.07 0 a 218414.07 218414.07 0 1 1 436828.14 0a 218414.07 218414.07 0 1 1 -436828.14 0"/>
<path id="N" d="M 24600000.00 35849647.00 L 24590806.00 35851305.00 L 24582717.00 35850314.00 L 24559163.00 35843046.00 L 24536683.00 35829336.00 L 24459038.00 35752270.00 L 24459038.00 35418897.00 L 24455982.00 35403536.00 L 24447281.00 35390513.00 L 23790589.00 34733821.00 L 23777566.00 34725120.00 L 23762205.00 34722064.00 L 20578832.00 34722064.00 L 19090141.00 33233373.00 L 19090141.00 29066627.00 L 21562749.00 26594019.00 L 21571450.00 26580996.00 L 21574506.00 26565635.00 L 21574506.00 26172731.00 L 21587555.00 26162503.00 L 21610197.00 26151593.00 L 21633580.00 26147764.00 L 21650000.00 26150353.00 A 100353.26 100353.26 0 1 0 21549647.00 26050000.00 L 21550617.02 26054876.49 L 21549545.00 26060859.00 L 21541290.00 26083975.00 L 21527013.00 26106254.00 L 21505981.00 26127720.00 L 21497280.00 26140743.00 L 21494224.00 26156104.00 L 21494224.00 26549008.00 L 19021616.00 29021616.00 L 19012915.00 29034639.00 L 19009859.00 29050000.00 L 19009859.00 33250000.00 L 19012915.00 33265361.00 L 19021616.00 33278384.00 L 20533821.00 34790589.00 L 20546844.00 34799290.00 L 20562205.00 34802346.00 L 23745578.00 34802346.00 L 24378756.00 35435524.00 L 24378756.00 35768897.00 L 24381812.00 35784258.00 L 24390513.00 35797281.00 L 24476560.31 35883328.31 L 24484621.00 35894057.00 L 24496184.00 35916895.00 L 24501329.62 35941541.08 L 24499647.00 35950000.00 A 100353.26 100353.26 0 1 0 24600000.00 35849647.00  z"/>
<path id="N" d="M 23850353.00 28950000.00 L 23849164.06 28944022.95 L 23850282.00 28937046.00 L 23858230.00 28913530.00 L 23872270.00 28891107.00 L 24034486.00 28728384.00 L 24043187.00 28715361.00 L 24046243.00 28700000.00 L 24046243.00 28465658.00 L 25884486.00 26627415.00 L 25893187.00 26614392.00 L 25896243.00 26599031.00 L 25896243.00 26206102.00 L 25893187.00 26190741.00 L 25884486.00 26177718.00 L 25823439.69 26116671.69 L 25815379.00 26105943.00 L 25803816.00 26083105.00 L 25798670.38 26058458.92 L 25800353.00 26050000.00 A 100353.26 100353.26 0 1 0 25700000.00 26150353.00 L 25709194.00 26148695.00 L 25717283.00 26149686.00 L 25740837.00 26156954.00 L 25763317.00 26170664.00 L 25815961.00 26222729.00 L 25815961.00 26582404.00 L 23977718.00 28420647.00 L 23969017.00 28433670.00 L 23965961.00 28449031.00 L 23965961.00 28683373.00 L 23821178.57 28828155.43 L 23810183.00 28836335.00 L 23787341.00 28847456.00 L 23763479.00 28851784.00 L 23750000.00 28849647.00 A 100353.26 100353.26 0 1 0 23850353.00 28950000.00  z"/>
<path id="N" d="M 25199998.47 32899998.47 m -100354.75 0 a 100354.75 100354.75 0 1 1 200709.51 0a 100354.75 100354.75 0 1 1 -200709.51 0"/>
<path id="N" d="M 21249993.22 32699993.22 m -60221.14 0 a 60221.14 60221.14 0 1 1 120442.28 0a 60221.14 60221.14 0 1 1 -120442.28 0"/>
<path id="N" d="M 24400000.00 28849647.00 L 24389372.50 28851760.99 L 24378453.00 28851096.00 L 24354931.00 28844504.00 L 24332429.00 28831119.00 L 24184038.00 28683373.00 L 24184038.00 28522734.00 L 26022281.00 26684491.00 L 26030982.00 26671468.00 L 26034038.00 26656107.00 L 26034038.00 26222730.00 L 26083328.31 26173439.69 L 26094057.00 26165379.00 L 26116895.00 26153816.00 L 26141541.08 26148670.38 L 26150000.00 26150353.00 A 100353.26 100353.26 0 1 0 26049647.00 26050000.00 L 26051305.00 26059194.00 L 26050314.00 26067283.00 L 26043046.00 26090837.00 L 26029336.00 26113317.00 L 25965513.00 26177719.00 L 25956812.00 26190742.00 L 25953756.00 26206103.00 L 25953756.00 26639480.00 L 24115513.00 28477723.00 L 24106812.00 28490746.00 L 24103756.00 28506107.00 L 24103756.00 28700000.00 L 24106812.00 28715361.00 L 24115513.00 28728384.00 L 24275176.38 28888047.38 L 24283087.00 28898460.00 L 24295096.00 28921248.00 L 24300835.85 28944023.40 L 24299647.00 28950000.00 A 100353.26 100353.26 0 1 0 24400000.00 28849647.00  z"/>
<path id="N" d="M 24350007.86 22600021.10 m -296681.84 0 a 296681.84 296681.84 0 1 1 593363.68 0a 296681.84 296681.84 0 1 1 -593363.68 0M 24350001.68 22599988.93 m -218414.07 0 a 218414.07 218414.07 0 1 1 436828.14 0a 218414.07 218414.07 0 1 1 -436828.14 0"/>
<path id="N" d="M 21849998.47 28399998.47 m -100354.75 0 a 100354.75 100354.75 0 1 1 200709.51 0a 100354.75 100354.75 0 1 1 -200709.51 0"/>
<path id="N" d="M 29199998.47 27749998.47 m -100354.75 0 a 100354.75 100354.75 0 1 1 200709.51 0a 100354.75 100354.75 0 1 1 -200709.51 0"/>
<path id="N" d="M 29149998.47 30349998.47 m -100354.75 0 a 100354.75 100354.75 0 1 1 200709.51 0a 100354.75 100354.75 0 1 1 -200709.51 0"/>
<path id="N" d="M 30314922.48 30118008.07 m -493661.69 0 a 493661.69 493661.69 0 1 1 987323.38 0a 493661.69 493661.69 0 1 1 -987323.38 0M 30314961.83 30118037.35 m -336254.65 0 a 336254.65 336254.65 0 1 1 672509.30 0a 336254.65 336254.65 0 1 1 -672509.30 0"/>
<path id="N" d="M 22749993.22 33849993.22 m -60221.14 0 a 60221.14 60221.14 0 1 1 120442.28 0a 60221.14 60221.14 0 1 1 -120442.28 0"/>
<path id="N" d="M 23550353.00 27600000.00 L 23548695.00 27590806.00 L 23549686.00 27582717.00 L 23556954.00 27559163.00 L 23570664.00 27536683.00 L 25378384.00 25728384.00 L 25387085.00 25715361.00 L 25390141.00 25700000.00 L 25390141.00 23953288.11 L 25395669.00 23921653.00 L 25403543.00 23905665.00 L 25414567.00 23896073.00 L 25645275.00 23895275.00 L 25645275.00 23304725.00 L 25054725.00 23304725.00 L 25054725.00 23895275.00 L 25285433.00 23896073.00 L 25296457.00 23905665.00 L 25304331.00 23921653.00 L 25309055.00 23944037.00 L 25309859.00 25683373.00 L 23516671.69 27476560.31 L 23505943.00 27484621.00 L 23483105.00 27496184.00 L 23458458.92 27501329.62 L 23450000.00 27499647.00 A 100353.26 100353.26 0 1 0 23550353.00 27600000.00  zM 25350001.68 23599988.93 m -218414.07 0 a 218414.07 218414.07 0 1 1 436828.14 0a 218414.07 218414.07 0 1 1 -436828.14 0"/>
<path id="N" d="M 29049998.47 32749998.47 m -100354.75 0 a 100354.75 100354.75 0 1 1 200709.51 0a 100354.75 100354.75 0 1 1 -200709.51 0"/>
<path id="N" d="M 17099989.61 40880751.63 m -356042.81 0 a 356042.81 356042.81 0 1 1 712085.61 0a 356042.81 356042.81 0 1 1 -712085.61 0M 17099999.97 40880700.30 m -218408.70 0 a 218408.70 218408.70 0 1 1 436817.39 0a 218408.70 218408.70 0 1 1 -436817.39 0"/>
<path id="N" d="M 17099989.61 36550051.63 m -356042.81 0 a 356042.81 356042.81 0 1 1 712085.61 0a 356042.81 356042.81 0 1 1 -712085.61 0M 17099999.97 36550000.30 m -218408.70 0 a 218408.70 218408.70 0 1 1 436817.39 0a 218408.70 218408.70 0 1 1 -436817.39 0"/>
<path id="N" d="M 34251932.86 34055144.10 m -296681.84 0 a 296681.84 296681.84 0 1 1 593363.68 0a 296681.84 296681.84 0 1 1 -593363.68 0M 34251962.32 34055134.24 m -198537.76 0 a 198537.76 198537.76 0 1 1 397075.52 0a 198537.76 198537.76 0 1 1 -397075.52 0"/>
<path id="N" d="M 34251932.86 28936944.10 m -296681.84 0 a 296681.84 296681.84 0 1 1 593363.68 0a 296681.84 296681.84 0 1 1 -593363.68 0M 34251962.32 28936934.24 m -198537.76 0 a 198537.76 198537.76 0 1 1 397075.52 0a 198537.76 198537.76 0 1 1 -397075.52 0"/>
<path id="N" d="M 24200353.00 35950000.00 L 24198695.00 35940806.00 L 24199686.00 35932717.00 L 24206954.00 35909163.00 L 24220664.00 35886683.00 L 24309486.00 35797282.00 L 24318187.00 35784259.00 L 24321243.00 35768898.00 L 24321243.00 35475973.00 L 24318187.00 35460612.00 L 24309486.00 35447589.00 L 23733513.00 34871616.00 L 23720490.00 34862915.00 L 23705129.00 34859859.00 L 20521756.00 34859859.00 L 18952346.00 33290449.00 L 18952346.00 29009551.00 L 21424954.00 26536943.00 L 21433655.00 26523920.00 L 21436711.00 26508559.00 L 21436711.00 26156101.00 L 21433655.00 26140740.00 L 21424954.00 26127717.00 L 21401792.25 26104555.25 L 21393564.00 26093435.00 L 21382688.00 26070610.00 L 21378801.00 26046809.00 L 21381290.00 26030937.00 A 100353.26 100353.26 0 1 0 21280937.00 26131290.00 L 21291426.00 26131470.00 L 21314890.00 26139799.00 L 21337265.00 26154026.00 L 21356429.00 26172728.00 L 21356429.00 26491932.00 L 18883821.00 28964540.00 L 18875120.00 28977563.00 L 18872064.00 28992924.00 L 18872064.00 33307076.00 L 18875120.00 33322437.00 L 18883821.00 33335460.00 L 20476745.00 34928384.00 L 20489768.00 34937085.00 L 20505129.00 34940141.00 L 23688502.00 34940141.00 L 24240961.00 35492600.00 L 24240961.00 35752271.00 L 24166671.69 35826560.31 L 24155943.00 35834621.00 L 24133105.00 35846184.00 L 24108458.92 35851329.62 L 24100000.00 35849647.00 A 100353.26 100353.26 0 1 0 24200353.00 35950000.00  z"/>
<path id="N" d="M 23300353.00 27350000.00 L 23298695.00 27340806.00 L 23299686.00 27332717.00 L 23306954.00 27309163.00 L 23320664.00 27286683.00 L 24378384.00 26228384.00 L 24387085.00 26215361.00 L 24390141.00 26200000.00 L 24391043.00 24050128.00 L 24396063.00 24029071.00 L 24404429.00 24006631.00 L 24416142.00 23982810.00 L 24431201.00 23957607.00 L 24471358.00 23903057.00 L 24524902.00 23842980.00 L 24548863.62 23818777.19 L 24559801.00 23809801.00 A 296710.51 296710.51 0 1 0 24140199.00 23809801.00 L 24151136.38 23818777.19 L 24175098.00 23842980.00 L 24228642.00 23903057.00 L 24268799.00 23957607.00 L 24283858.00 23982810.00 L 24295571.00 24006631.00 L 24303937.00 24029071.00 L 24308957.00 24050128.00 L 24309859.00 26183373.00 L 23266671.69 27226560.31 L 23255943.00 27234621.00 L 23233105.00 27246184.00 L 23208458.92 27251329.62 L 23200000.00 27249647.00 A 100353.26 100353.26 0 1 0 23300353.00 27350000.00  zM 24350001.68 23599988.93 m -218414.07 0 a 218414.07 218414.07 0 1 1 436828.14 0a 218414.07 218414.07 0 1 1 -436828.14 0"/>
<path id="N" d="M 30314922.48 32873908.07 m -493661.69 0 a 493661.69 493661.69 0 1 1 987323.38 0a 493661.69 493661.69 0 1 1 -987323.38 0M 30314961.83 32873937.35 m -336254.65 0 a 336254.65 336254.65 0 1 1 672509.30 0a 336254.65 336254.65 0 1 1 -672509.30 0"/>
<path id="N" d="M 20949993.22 33849993.22 m -60221.14 0 a 60221.14 60221.14 0 1 1 120442.28 0a 60221.14 60221.14 0 1 1 -120442.28 0"/>
<path id="N" d="M 30314922.48 31496008.07 m -493661.69 0 a 493661.69 493661.69 0 1 1 987323.38 0a 493661.69 493661.69 0 1 1 -987323.38 0M 30314961.83 31496037.35 m -336254.65 0 a 336254.65 336254.65 0 1 1 672509.30 0a 336254.65 336254.65 0 1 1 -672509.30 0"/>
<path id="N" d="M 21844482.22 33844482.22 m -60221.14 0 a 60221.14 60221.14 0 1 1 120442.28 0a 60221.14 60221.14 0 1 1 -120442.28 0"/>
<path id="N" d="M 19700793.22 29049193.22 m -60221.14 0 a 60221.14 60221.14 0 1 1 120442.28 0a 60221.14 60221.14 0 1 1 -120442.28 0"/>
<path id="N" d="M 22099993.22 30049993.22 m -60221.14 0 a 60221.14 60221.14 0 1 1 120442.28 0a 60221.14 60221.14 0 1 1 -120442.28 0"/>
</g>
</svg>
